<svg height="1000" width="875" xmlns="http://www.w3.org/2000/svg"><path d="M459 394.5c21.5 0 37.1 5.9 46.9 23.5 19.5 33.2 37.1 103.5 33.2 166 -2 33.2 -9.8 43 -9.8 43s-23.4 13.6 -70.3 13.6h-21.5c-68.4 -5.8 -78.1 -29.3 -78.1 -29.3s7.8 -23.4 15.6 -84 0 -113.2 0 -113.2 15.6 -9.8 39.1 -13.7c15.6 -3.9 31.2 -5.9 44.9 -5.9zM507.8 582c2 -25.4 -1.9 -56.6 -7.8 -85.9 -5.9 -25.4 -11.7 -48.8 -19.5 -62.5 -2 -2 -5.9 -7.8 -21.5 -7.8 -11.7 0 -27.4 3.9 -39.1 5.8 -3.9 0 -7.8 0 -11.7 2 2 23.4 2 58.6 -1.9 97.7 -4 31.2 -7.9 54.6 -11.8 68.3 7.8 3.9 21.5 7.8 45 9.8H459c21.5 0 37.1 -2 44.9 -5.9 0 -3.9 3.9 -11.7 3.9 -21.5zM101.6 218.8c68.3 0 207 111.3 250 189.4 0 0 5.8 31.3 3.9 62.5v19.5c0 5.9 -2 11.8 -2 19.6 0 9.7 0 19.5 -1.9 29.3l-3.9 19.5c-7.9 41 -19.6 66.4 -19.6 66.4S166 781.3 101.6 781.3C46.9 781.3 0 648.4 0 500S50.8 218.8 101.6 218.8zm117.2 460.9c37.1 -29.3 70.3 -60.6 82 -72.3 1.9 -7.8 7.8 -21.5 11.7 -41 -41 7.8 -105.5 13.7 -109.4 13.7 -1.9 0 -3.9 -2 -3.9 -3.9s2 -3.9 3.9 -3.9c0 0 41 -11.8 74.2 -19.6 17.6 -3.9 29.3 -9.7 41.1 -13.6l1.9 -3.9c2 -7.9 2 -19.6 2 -27.4 0 -5.8 1.9 -9.8 1.9 -15.6 -3.9 -2 -7.8 -2 -11.7 -3.9 -9.8 -3.9 -21.5 -7.8 -37.1 -13.7C201.2 449.2 164.1 441.4 164.1 441.4c-2 0 -2 -1.9 -2 -3.9s2 -3.9 3.9 -3.9 29.3 -5.9 84 5.9c35.2 7.8 58.6 13.6 74.2 21.4 0 -17.5 -1.9 -35.1 -3.9 -42.9C300.8 384.8 261.7 343.8 216.8 308.6c-23.4 -17.6 -44.9 -33.2 -66.4 -43C123 252 107.4 250 101.6 250c-3.9 0 -21.5 13.7 -41.1 68.4C43 369.1 31.3 435.5 31.3 500c0 68.4 9.7 134.8 27.3 185.5 17.6 48.9 37.1 64.5 43 64.5s33.2 -2 117.2 -70.3zM773.4 218.8C824.2 218.8 875 351.6 875 500S828.1 781.3 773.4 781.3C701.2 781.3 570.3 646.5 554.7 627c0 0 7.8 -9.8 9.8 -43v-33.2c0 -21.5 -4 -44.9 -7.9 -64.5l-5.8 -21.5C544.9 445.3 537.1 429.7 531.3 418c0 -2 -4 -7.8 -4 -7.8l2 -2c43 -78.1 173.8 -189.4 244.1 -189.4zm0 531.2c5.9 0 25.4 -15.6 43 -64.5C834 634.8 843.8 568.4 843.8 500c0 -64.5 -11.8 -130.9 -29.3 -181.6C794.9 263.7 777.3 250 773.4 250c-19.5 0 -60.5 15.6 -113.2 58.6 -39.1 31.2 -74.3 68.4 -95.7 101.6 5.8 11.7 11.7 27.3 15.6 44.9l1.9 1.9c17.6 -5.8 39.1 -13.6 58.6 -21.5C679.7 421.9 709 416 709 416c1.9 0 5.8 2 5.8 3.9s-1.9 3.9 -3.9 3.9c0 0 -83.9 39.1 -123 60.6 3.9 21.5 5.9 42.9 7.8 64.4v2c11.7 3.9 25.4 9.7 43 13.7 37.1 9.7 80.1 23.4 80.1 23.4 1.9 0 1.9 1.9 1.9 3.9s-1.9 3.9 -3.9 3.9c-3.9 0 -80.1 -7.8 -121.1 -19.5v9.7c0 13.7 -3.9 27.4 -5.9 35.2 13.7 15.6 41.1 41 72.3 66.4C709 726.6 752 750 773.4 750z"/></svg>