<svg height="1000" width="875" xmlns="http://www.w3.org/2000/svg"><path d="M201.2 400.4c21.5 0 37.1 15.6 37.1 37.1s-15.6 37.1 -37.1 37.1S164.1 459 164.1 437.5s15.6 -37.1 37.1 -37.1zm646.5 85.9c41 171.9 35.1 296.9 -13.7 320.3 -7.8 3.9 -17.6 5.9 -25.4 5.9 -43 0 -87.9 -46.9 -132.8 -101.6C625 648.4 613.3 646.5 460.9 646.5h-46.8c-152.4 0 -164.1 1.9 -214.9 64.4C154.3 765.6 109.4 812.5 66.4 812.5c-7.8 0 -17.6 -2 -25.4 -5.9C-7.8 783.2 -13.7 658.2 27.3 486.3s84 -265.6 171.9 -291c19.6 -5.8 35.2 -7.8 50.8 -7.8 54.7 0 91.8 29.3 187.5 29.3S570.3 187.5 625 187.5c15.6 0 31.3 2 50.8 7.8 87.9 25.4 130.8 119.2 171.9 291zm-646.5 29.3c42.9 0 76.1 -35.1 76.1 -78.1s-33.2 -78.1 -76.1 -78.1S125 394.5 125 437.5s33.2 78.1 76.2 78.1zm337.9 -39c21.4 0 39 -17.6 39 -39.1s-17.6 -39.1 -39 -39.1S500 416 500 437.5s17.6 39.1 39.1 39.1zm85.9 85.9c21.5 0 39.1 -17.6 39.1 -39.1s-17.6 -39 -39.1 -39 -39.1 17.6 -39.1 39 17.6 39.1 39.1 39.1zm0 -171.9c21.5 0 39.1 -17.6 39.1 -39S646.5 312.5 625 312.5s-39.1 17.6 -39.1 39.1 17.6 39 39.1 39zm85.9 86c21.5 0 39.1 -17.6 39.1 -39.1s-17.6 -39.1 -39.1 -39.1 -39 17.6 -39 39.1 17.6 39.1 39 39.1z"/></svg>