<svg height="1000" width="939.5" xmlns="http://www.w3.org/2000/svg"><path d="M710.9 125zm-205 -13.7c11.7 7.8 37.1 25.4 21.4 25.4 0 0 -70.3 -11.7 -119.1 29.3 -35.2 31.3 -56.6 60.6 -58.6 103.5s11.7 66.4 66.4 121.1l11.7 -5.8c2 -2 5.9 -2 7.8 -2 4 0 9.8 2 11.8 3.9 0 0 -7.8 -9.7 29.3 27.4L377 507.8c-35.2 -35.1 -25.4 -27.3 -25.4 -27.3 -3.9 -3.9 -5.9 -11.7 -2 -19.6l7.8 -11.7C308.6 400.4 281.3 375 257.8 369.1c-7.8 -1.9 -13.7 -3.9 -21.5 -3.9 -19.5 0 -35.1 5.9 -42.9 13.7s-23.5 31.3 -9.8 44.9l23.4 23.5c3.9 3.9 3.9 11.7 0 15.6l-64.4 68.4c-2 1.9 -5.9 1.9 -7.8 1.9s-5.9 0 -7.8 -1.9L3.9 406.3c-3.9 -4 -3.9 -9.8 0 -13.7l66.4 -66.4c2 -2 5.9 -3.9 7.8 -3.9 0 0 33.2 15.6 48.9 0s0 -39.1 11.7 -56.7 31.2 -37.1 44.9 -50.8S252 148.4 341.8 111.3C373 97.7 406.3 93.8 433.6 93.8c29.3 0 54.7 5.8 72.3 17.5zm367.1 670c4 3.9 4 11.7 0 15.6L765.6 904.3c-1.9 2 -5.8 2 -7.8 2s-5.8 0 -7.8 -2c0 0 -109.4 -130.9 -224.6 -250l93.7 -99.6C738.3 668 873 781.3 873 781.3zm33.3 -537.2c25.3 25.4 35.1 56.7 33.2 80.1s-11.8 70.3 -58.6 117.2C847.7 474.6 793 500 740.2 500c-21.4 0 -44.9 -5.9 -64.4 -15.6 -3.9 -2 -9.8 -3.9 -15.6 -3.9s-13.7 1.9 -21.5 9.7c-3.9 3.9 -17.6 19.6 -41 43 -5.9 7.8 -13.7 15.6 -21.5 23.4 -15.7 15.7 -33.2 33.2 -50.8 52.8 -7.8 7.8 -13.7 15.6 -21.5 23.4C398.4 744.1 269.5 880.9 269.5 880.9c-15.6 17.5 -35.1 25.4 -56.6 25.4S168 896.5 152.3 880.9c-33.2 -33.2 -35.1 -87.9 0 -119.2 0 0 136.8 -126.9 248.1 -232.4l21.5 -21.5C441.4 490.2 459 472.7 474.6 457c7.8 -7.8 15.6 -15.6 23.4 -21.5 25.4 -23.4 39.1 -39 43 -41 13.7 -13.6 9.8 -29.3 5.9 -39 -37.1 -86 3.9 -162.1 42.9 -203.2C630.9 109.4 683.6 95.7 707 93.8h3.9c23.5 0 54.7 11.7 76.2 33.2L685.5 228.5l17.6 99.6 99.6 19.6zM238.3 832c9.7 -9.7 9.7 -27.3 0 -39 -11.7 -9.8 -27.4 -9.8 -39.1 0 -9.7 11.7 -9.7 27.3 0 39 11.7 9.8 27.4 9.8 39.1 0z"/></svg>