<svg height="1000" width="593.8" xmlns="http://www.w3.org/2000/svg"><path d="M474.6 906.3L441.4 875H152.3l-33.2 31.3H74.2l95.7 -93.8h44.9l-31.2 31.3h226.6l-31.3 -31.3h44.9l95.7 93.8h-44.9zM187.5 140.6h218.8c7.8 0 15.6 7.8 15.6 15.7s-7.8 15.6 -15.6 15.6H187.5c-7.8 0 -15.6 -7.8 -15.6 -15.6s7.8 -15.7 15.6 -15.7zM468.8 125H125c-50.8 0 -93.7 43 -93.7 93.8v437.5C31.3 707 74.2 750 125 750h343.8c50.7 0 93.7 -43 93.7 -93.7V218.8c0 -50.8 -43 -93.8 -93.7 -93.8zM125 500C89.8 500 62.5 472.7 62.5 437.5V250c0 -35.2 27.3 -62.5 62.5 -62.5h347.7c35.1 0 62.5 27.3 62.5 62.5v187.5c0 35.2 -27.4 62.5 -62.5 62.5H125zm328.1 234.4c-46.8 0 -85.9 -39.1 -85.9 -86s39.1 -85.9 85.9 -85.9 86 39.1 86 85.9 -39.1 86 -86 86zm-312.5 0c-46.8 0 -85.9 -39.1 -85.9 -86s39.1 -85.9 85.9 -85.9 86 39.1 86 85.9 -39.1 86 -86 86zM468.8 93.8c68.3 0 125 56.6 125 125v437.5c0 68.3 -56.7 125 -125 125H125C56.6 781.3 0 724.6 0 656.3V218.8c0 -68.4 56.6 -125 125 -125h343.8zM125 468.8h347.7c17.5 0 31.2 -13.7 31.2 -31.3V250c0 -17.6 -13.7 -31.2 -31.2 -31.2H125c-17.6 0 -31.2 13.6 -31.2 31.2v187.5c0 17.6 13.6 31.3 31.2 31.3zm328.1 234.3c31.3 0 54.7 -23.4 54.7 -54.7s-23.4 -54.6 -54.7 -54.6 -54.7 23.4 -54.7 54.6 23.5 54.7 54.7 54.7zm-312.5 0c31.3 0 54.7 -23.4 54.7 -54.7s-23.4 -54.6 -54.7 -54.6 -54.7 23.4 -54.7 54.6 23.5 54.7 54.7 54.7z"/></svg>