<svg height="1000" width="812.5" xmlns="http://www.w3.org/2000/svg"><path d="M128.9 793c-3.9 0 -7.8 0 -11.7 -3.9C41 709 0 609.4 0 500S41 291 117.2 210.9c5.8 -5.8 17.6 -5.8 23.4 0s5.9 17.6 0 23.5C70.3 308.6 31.3 400.4 31.3 500s39 191.4 109.3 265.6c5.9 5.9 5.9 17.6 0 23.5 -3.9 3.9 -7.8 3.9 -11.7 3.9zm554.7 0c-3.9 0 -5.9 0 -9.8 -3.9 -5.8 -5.9 -7.8 -17.6 -1.9 -23.5C742.2 691.4 781.3 599.6 781.3 500S742.2 308.6 671.9 234.4c-5.9 -5.9 -3.9 -17.6 1.9 -23.5s15.7 -5.8 21.5 0C771.5 291 812.5 390.6 812.5 500s-41 207 -117.2 287.1c-3.9 3.9 -7.8 5.9 -11.7 5.9zM210.9 714.8c-3.9 0 -7.8 -1.9 -11.7 -5.8 -54.7 -56.7 -84 -128.9 -84 -207 0 -80.1 31.3 -154.3 87.9 -211 5.9 -5.8 15.7 -5.8 21.5 0s5.9 15.6 0 21.5C173.8 363.3 146.5 429.7 146.5 502c0 70.3 27.3 134.7 76.2 185.5 5.8 5.9 5.8 15.6 0 21.5 -3.9 3.9 -7.9 5.8 -11.8 5.8zm390.7 0c-3.9 0 -7.8 -1.9 -11.8 -5.8 -5.8 -5.9 -5.8 -15.6 0 -21.5C638.7 636.7 666 572.3 666 502c0 -72.3 -27.3 -138.7 -78.1 -189.5 -5.9 -5.9 -7.8 -15.6 -2 -21.5s17.6 -5.8 23.5 0c56.6 56.7 87.9 130.9 87.9 211 0 78.1 -29.3 150.3 -84 207 -2 3.9 -7.8 5.8 -11.7 5.8zM293 638.7c-3.9 0 -7.8 -2 -11.7 -5.9C246.1 597.7 226.6 552.7 226.6 502S248 402.3 285.2 367.2c5.8 -5.9 15.6 -5.9 21.4 0s5.9 15.6 0 21.5C275.4 418 257.8 459 257.8 502c0 41 17.6 80 46.9 109.3 5.8 5.9 5.8 17.6 0 23.5 -3.9 3.9 -7.8 3.9 -11.7 3.9zm226.5 0c-3.9 0 -7.8 0 -11.7 -3.9 -5.8 -5.9 -5.8 -17.6 0 -23.5C537.1 582 554.7 543 554.7 502c0 -43 -17.6 -84 -48.8 -113.3 -5.9 -5.9 -5.9 -15.7 0 -21.5s15.6 -5.9 21.4 0c37.2 35.1 58.6 84 58.6 134.8s-19.5 95.7 -54.6 130.8c-4 3.9 -7.9 5.9 -11.8 5.9zM343.8 500c0 -35.2 27.3 -62.5 62.5 -62.5s62.5 27.3 62.5 62.5 -27.4 62.5 -62.5 62.5S343.8 535.2 343.8 500z"/></svg>