<svg height="1000" width="812.5" xmlns="http://www.w3.org/2000/svg"><path d="M406.3 93.8c224.6 0 406.2 181.6 406.2 406.2S630.9 906.3 406.3 906.3 0 724.6 0 500 181.6 93.8 406.3 93.8zm0 779.2c50.7 0 99.6 -11.7 142.5 -29.2 0 -41.1 -3.9 -78.2 -3.9 -78.2 -7.8 -29.3 -33.2 -52.7 -58.6 -64.4s-54.7 -7.8 -80 -17.6S355.5 666 349.6 634.8c-3.9 -21.5 -1.9 -43 -1.9 -64.5 0 -3.9 13.6 -13.7 15.6 -17.6 5.8 -9.7 7.8 -21.4 9.7 -33.2 2 -9.7 0 -23.4 7.9 -29.3 9.7 -7.8 11.7 -13.6 15.6 -25.4 3.9 -15.6 7.8 -23.4 0 -37.1 -5.9 -9.7 -2 -15.6 0 -25.4 5.8 -21.4 7.8 -46.8 3.9 -70.3 -15.6 -72.2 -119.1 -87.9 -166 -37.1 -23.5 25.4 -25.4 60.6 -19.6 91.8 2 11.7 11.8 27.4 5.9 37.1 -1.9 5.9 -9.8 11.7 -7.8 19.6 3.9 9.7 5.9 21.4 9.8 31.2 3.9 7.8 5.8 11.7 11.7 15.6s7.8 11.8 7.8 17.6c1.9 13.7 1.9 33.2 9.8 44.9 5.8 7.8 17.5 11.8 17.5 21.5 0 13.7 -1.9 27.4 -1.9 41 -2 15.7 -2 35.2 -13.7 46.9 -13.7 11.7 -37.1 19.5 -54.7 23.4 -21.5 5.9 -44.9 5.9 -64.4 13.7 -11.8 3.9 -21.5 9.8 -31.3 17.6 5.9 7.8 11.7 13.7 17.6 21.5l21.5 25.4C210.9 830.1 304.7 873 406.3 873zM691.4 738.3c9.8 -11.7 21.5 -25.4 29.3 -39.1 -3.9 -42.9 -29.3 -56.6 -44.9 -60.5 -3.9 0 -5.9 -2 -11.7 -2 -19.6 -3.9 -45 -9.7 -60.6 -27.3 -13.7 -15.6 -11.7 -37.1 -9.7 -50.8l3.9 -35.2c25.3 3.9 50.7 0 50.7 0 -7.8 -27.3 -5.8 -56.6 -5.8 -82v-27.3c0 -21.5 -3.9 -50.8 -23.5 -62.5 -5.8 -3.9 -21.4 -7.8 -44.9 -7.8 -13.7 0 -29.3 1.9 -37.1 5.8 -15.6 5.9 -23.4 13.7 -27.3 29.3 -5.9 17.6 -5.9 41 -5.9 64.5 0 27.3 0 56.6 -7.8 82 0 0 29.3 3.9 52.7 1.9 0 0 3.9 50.8 2 66.5s-9.8 19.5 -23.5 25.3 -33.2 7.9 -46.8 17.6C460.9 630.9 431.6 627 431.6 627c27.4 -13.7 48.9 -21.5 56.7 -23.5s29.3 -7.8 31.2 -17.6v-27.3c-41 -3.9 -56.6 -11.7 -56.6 -11.7 -11.7 -5.9 -3.9 -11.7 0 -21.5 27.3 -62.5 -19.5 -171.9 62.5 -205.1 13.7 -5.8 29.3 -7.8 48.8 -7.8 23.5 0 44.9 3.9 60.6 13.7 29.3 17.6 39 52.7 39 85.9 0 39.1 -7.8 85.9 13.7 121.1 3.9 5.9 7.8 7.8 0 11.7 0 0 -11.7 9.8 -60.5 11.7 0 0 -4 25.4 1.9 33.2 11.7 13.7 41 13.7 56.6 19.6 25.4 7.8 48.9 27.3 56.7 52.7C765.6 613.3 779.3 558.6 779.3 500c0 -205.1 -168 -373 -373 -373S33.2 294.9 33.2 500c0 70.3 19.5 134.8 52.7 191.4l2 -1.9C117.2 668 150.4 666 185.5 658.2c13.7 -1.9 45 -9.8 48.9 -25.4s3.9 -29.3 3.9 -44.9c0 -5.9 -2 -5.9 -5.9 -9.8 -7.8 -7.8 -11.7 -17.6 -15.6 -27.3 -3.9 -15.6 -5.9 -31.3 -7.8 -46.9 -17.6 3.9 -19.5 -31.2 -23.5 -41 -1.9 -7.8 -3.9 -37.1 7.9 -43 -5.9 -9.7 -7.9 -23.4 -9.8 -35.1 -3.9 -25.4 -3.9 -50.8 5.9 -76.2 19.5 -50.8 70.3 -76.2 123 -74.2 50.8 1.9 101.6 29.3 117.2 80.1 7.8 23.4 5.8 52.7 1.9 78.1 -1.9 9.7 -5.8 19.5 -9.7 27.3 15.6 5.9 7.8 41 5.8 46.9 -3.9 9.8 -3.9 41 -21.4 37.1 -2 19.5 -4 43 -13.7 60.6 -2 3.9 -15.6 15.6 -15.6 19.5v21.5c0 9.7 0 19.5 3.9 29.3s19.5 13.6 27.3 15.6c27.3 9.8 54.7 9.8 82 19.5 54.7 19.6 87.9 68.4 87.9 127l2 31.2c33.2 -17.6 62.5 -39 87.9 -64.4l23.4 -25.4z"/></svg>