<svg height="1000" width="625" xmlns="http://www.w3.org/2000/svg"><path d="M543 250c50.8 70.3 82 156.3 82 250s-31.2 179.7 -82 250l-27.4 -19.5C562.5 666 591.8 585.9 591.8 500S562.5 334 515.6 269.5zM437.5 687.5L410.2 668c35.1 -46.9 56.6 -105.5 56.6 -168S445.3 378.9 410.2 332l27.3 -19.5C476.6 365.2 500 429.7 500 500s-23.4 134.8 -62.5 187.5zM345.7 625l-25.4 -19.5c23.5 -29.3 35.2 -66.4 35.2 -105.5S343.8 423.8 320.3 394.5L345.7 375c27.3 35.2 43 78.1 43 125s-15.7 89.8 -43 125zM113.3 421.9L250 312.5v375L113.3 578.1H0V421.9h113.3z"/></svg>