<svg height="1000" width="875" xmlns="http://www.w3.org/2000/svg"><path d="M562.5 531.3H875c0 162.1 -89.8 298.8 -222.7 375L498 640.6c-17.5 9.8 -39 15.7 -60.5 15.7S392.6 650.4 375 640.6L222.7 906.3C89.8 830.1 0 693.4 0 531.3h312.5c0 -45 23.4 -84 58.6 -105.5L216.8 154.3C281.3 117.2 357.4 93.8 437.5 93.8s156.3 21.4 220.7 58.5L500 421.9c37.1 21.5 62.5 62.5 62.5 109.4zM259.8 166l140.6 246.1c11.7 -3.9 23.4 -5.8 37.1 -5.8 11.7 0 21.5 1.9 31.3 3.9L613.3 166C558.6 138.7 498 125 437.5 125c-62.5 0 -123 13.7 -177.7 41zm-46.9 697.3L351.6 621.1c-15.7 -15.6 -29.3 -35.2 -35.2 -58.6H33.2c5.9 60.5 25.4 119.1 56.6 171.9 31.3 50.8 72.3 95.7 123.1 128.9zm130.9 -332c0 50.7 42.9 93.7 93.7 93.7s93.8 -43 93.8 -93.7 -43 -93.8 -93.8 -93.8c-17.6 0 -33.2 5.9 -46.9 13.7h-3.9c-25.4 15.6 -42.9 46.8 -42.9 80.1zm318.3 332c50.8 -33.2 91.8 -78.1 123.1 -128.9C816.4 681.6 837.9 623 841.8 562.5H558.6c-5.9 23.4 -19.5 43 -35.2 58.6z"/></svg>