<svg height="1000" width="875" xmlns="http://www.w3.org/2000/svg"><path d="M668 279.3c113.3 0 207 82 207 197.3 0 103.5 -76.2 193.3 -173.8 208.9L544.9 900.4c-3.9 3.9 -9.7 5.9 -13.6 5.9s-5.9 -2 -7.9 -4c-7.8 -3.9 -9.7 -11.7 -3.9 -19.5L660.2 689.5H541l-85.9 117.1c-3.9 3.9 -9.8 5.9 -13.7 5.9s-5.9 0 -7.8 -2c-7.8 -5.8 -9.8 -13.6 -3.9 -21.4L502 689.5H382.8L230.5 898.4c-3.9 3.9 -7.8 7.9 -15.7 7.9 -3.9 0 -5.8 0 -7.8 -2 -7.8 -5.9 -9.7 -13.7 -3.9 -21.5L343.8 689.5H224.6l-85.9 117.1c-3.9 3.9 -9.8 5.9 -13.7 5.9s-5.9 0 -7.8 -2c-7.8 -5.8 -9.8 -13.6 -3.9 -21.4l72.2 -99.6H166C74.2 689.5 0 607.4 0 515.6 0 429.7 66.4 355.5 148.4 343.8V334c0 -138.7 113.3 -240.2 250 -240.2s220.7 80 244.2 185.5H668z"/></svg>