<svg height="1000" width="703.1" xmlns="http://www.w3.org/2000/svg"><path d="M101.6 265.6c15.6 41 95.7 150.4 146.4 220.7 -5.8 9.8 -11.7 17.6 -17.5 27.4l-5.9 -5.9C156.3 414.1 89.8 318.4 74.2 277.3 60.5 242.2 52.7 214.8 52.7 187.5c0 -35.2 13.7 -68.4 37.1 -85.9 7.9 -5.9 19.6 -7.8 37.2 -7.8l205 275.3 -19.5 25.4L111.3 125c-37.1 33.2 -31.2 85.9 -9.7 140.6zM613.3 107.4c23.4 21.5 37.1 44.9 37.1 80.1 0 25.4 -7.8 54.7 -21.5 89.8C609.4 324.2 503.9 476.6 453.1 541s-74.2 82 -74.2 82l-27.3 17.6c-13.7 7.8 -39.1 27.4 -56.7 54.7 -27.3 44.9 -48.8 107.4 -50.8 113.3 -7.8 27.3 -23.4 50.8 -42.9 68.4 -21.5 19.5 -48.9 29.3 -76.2 29.3 -33.2 0 -66.4 -15.7 -89.8 -43C11.7 837.9 0 802.7 0 767.6s11.7 -70.3 35.2 -95.7c23.4 -27.4 54.6 -43 89.8 -43 23.4 0 46.9 7.8 66.4 21.5l19.5 -39.1c5.9 -13.6 13.7 -29.3 21.5 -42.9 3.9 -7.9 9.8 -17.6 17.6 -29.3 5.9 -9.8 11.7 -17.6 17.6 -27.4 15.6 -23.4 29.3 -42.9 29.3 -44.9l29.3 -39.1 5.8 -7.8 19.6 -25.4L574.2 93.8c11.7 0 29.3 3.9 39.1 13.6zm-13.7 158.2C621.1 210.9 628.9 158.2 591.8 125L351.6 445.3l-29.3 39.1s-46.9 66.4 -62.5 97.6 -31.3 66.4 -45 91.8c-7.8 15.7 -15.6 21.5 -19.5 21.5 -1.9 0 -1.9 0 -3.9 -1.9l-3.9 -3.9c-2 -2 -3.9 -5.9 -7.8 -7.9C164.1 668 146.5 660.2 125 660.2c-50.8 0 -93.7 48.8 -93.7 107.4S74.2 875 125 875c43 0 76.2 -31.2 87.9 -76.2s23.4 -68.3 54.7 -119.1 84 -72.3 84 -72.3S377 584 404.3 552.7 578.1 320.3 599.6 265.6zm-21.5 363.3c68.4 0 125 62.5 125 138.7s-56.6 138.7 -125 138.7c-27.3 0 -54.7 -9.8 -76.1 -29.3 -19.6 -17.6 -35.2 -41.1 -43 -68.4 -2 -5.9 -23.5 -68.4 -50.8 -113.3 -9.8 -13.7 -19.5 -23.4 -29.3 -33.2l25.4 -19.5c9.8 9.7 19.5 23.4 29.3 37.1 31.2 50.8 54.7 119.1 54.7 119.1 11.7 45 46.9 76.2 89.8 76.2 50.8 0 93.8 -48.8 93.8 -107.4s-43 -107.4 -93.8 -107.4c-21.5 0 -41 7.8 -56.6 21.4 -3.9 2 -5.9 5.9 -7.8 7.9l-2 3.9c-1.9 1.9 -3.9 1.9 -5.8 1.9 -3.9 0 -9.8 -5.8 -17.6 -21.5C476.6 652.3 462.9 625 449.2 597.7l21.5 -27.4c7.8 13.7 13.7 27.4 19.5 41 7.8 15.7 15.7 27.4 21.5 39.1 19.6 -13.7 43 -21.5 66.4 -21.5zM125 822.3c-25.4 0 -46.9 -25.4 -46.9 -54.7S99.6 712.9 125 712.9s46.9 25.4 46.9 54.7 -21.5 54.7 -46.9 54.7zm195.3 -291c0 -17.6 13.7 -31.3 31.3 -31.3s31.2 13.7 31.2 31.3 -13.7 31.2 -31.2 31.2 -31.3 -13.7 -31.3 -31.2zm257.8 291c-25.4 0 -46.8 -25.4 -46.8 -54.7s21.4 -54.7 46.8 -54.7 46.9 25.4 46.9 54.7 -21.5 54.7 -46.9 54.7z"/></svg>