<svg height="1000" width="875" xmlns="http://www.w3.org/2000/svg"><path d="M828.1 312.5c29.3 0 48.9 17.6 46.9 58.6s-46.9 455.1 -46.9 455.1c-3.9 33.2 -19.5 48.8 -44.9 48.8H95.7c-25.4 0 -43 -13.7 -48.8 -48.8 0 0 -43 -429.7 -46.9 -466.8s21.5 -46.9 46.9 -46.9h15.6V169.9C62.5 144.5 84 125 111.3 125h187.5c15.7 0 23.5 3.9 33.2 13.7l45 44.9c3.9 3.9 5.8 3.9 11.7 3.9h378.9c25.4 0 44.9 19.5 44.9 44.9v80.1h15.6zM93.8 169.9v142.6h687.5v-80.1c0 -7.8 -5.9 -13.6 -13.7 -13.6H388.7c-13.7 0 -25.4 -4 -35.2 -13.7l-43 -44.9c-3.9 -3.9 -3.9 -3.9 -11.7 -3.9H111.3c-7.8 0 -17.5 5.8 -17.5 13.6zm703.1 656.3l46.9 -466.8c0 -7.8 -7.9 -15.6 -15.7 -15.6H46.9c-7.8 0 -15.6 7.8 -15.6 15.6l46.8 466.8c2 11.7 11.7 17.6 19.6 17.6h683.6c7.8 0 13.6 -7.9 15.6 -17.6z"/></svg>