<svg height="1000" width="625" xmlns="http://www.w3.org/2000/svg"><path d="M584 228.5c23.4 0 41 19.5 41 41v453.2c0 107.4 -64.5 183.6 -154.3 183.6H359.4s-78.1 -23.5 -78.1 -23.5C197.3 834 95.7 693.4 58.6 652.3 19.5 609.4 -15.6 572.3 7.8 548.8 43 515.6 85.9 535.2 136.7 580.1l50.8 44.9V201.2c0 -21.5 19.5 -41 43 -41s42.9 19.5 42.9 41v246.1c0 9.7 7.9 17.5 17.6 17.5s17.6 -7.8 17.6 -17.5V132.8c0 -21.5 17.6 -39 41 -39s41 17.5 41 39v281.3c0 9.7 5.9 17.5 15.7 17.5s17.5 -7.8 17.5 -17.5V168c0 -21.5 17.6 -41 41 -41s41.1 19.5 41.1 41v312.5c0 9.7 7.8 17.5 17.5 17.5S543 490.2 543 480.5v-211c0 -21.5 17.5 -41 41 -41z"/></svg>