<svg height="1000" width="750" xmlns="http://www.w3.org/2000/svg"><path d="M691.4 312.5c35.2 0 58.6 25.4 58.6 60.5v343.8c0 35.2 -23.4 64.5 -58.6 64.5h-625C31.3 781.3 0 752 0 716.8V373c0 -35.1 31.3 -60.5 66.4 -60.5h25.4v-31.2h66.4v31.2h25.4c62.5 -70.3 84 -93.7 107.4 -93.7h171.9c23.4 0 44.9 23.4 107.4 93.7h121.1zm27.4 404.3V373c0 -17.5 -9.8 -29.2 -27.4 -29.2H556.6l-9.7 -5.9c-5.9 -7.8 -13.7 -15.6 -19.6 -21.5 -23.4 -25.4 -39 -46.9 -50.7 -58.6C466.8 248 462.9 250 462.9 250H291s-3.9 0 -13.7 7.8c-11.7 9.8 -27.3 27.4 -48.8 52.7 -5.8 7.9 -13.7 19.6 -21.5 27.4l-9.7 5.9H66.4c-17.6 0 -35.1 13.6 -35.1 29.2v343.8c0 17.6 17.5 33.2 35.1 33.2h625c15.6 0 27.4 -15.6 27.4 -33.2zM375 371.1c91.8 0 168 74.2 168 166s-76.2 166 -168 166S207 628.9 207 537.1s76.2 -166 168 -166zm0 300.8c74.2 0 136.7 -60.6 136.7 -134.8S449.2 402.3 375 402.3 238.3 462.9 238.3 537.1 300.8 671.9 375 671.9zM562.5 408.2V375h33.2v33.2h-33.2zm-250 128.9c0 -35.1 27.3 -62.5 62.5 -62.5s62.5 27.4 62.5 62.5 -27.3 62.5 -62.5 62.5 -62.5 -27.3 -62.5 -62.5z"/></svg>