<svg height="1000" width="875" xmlns="http://www.w3.org/2000/svg"><path d="M718.8 437.5H875L773.4 816.4c-9.7 33.2 -41 58.6 -78.1 58.6H179.7c-37.1 0 -68.4 -25.4 -78.1 -58.6L0 437.5h156.3V250c0 -68.4 56.6 -125 125 -125h312.5c68.3 0 125 56.6 125 125v187.5zM187.5 250v187.5h500V250c0 -25.4 -9.8 -48.8 -27.3 -66.4s-41.1 -27.3 -66.4 -27.3H281.3c-25.4 0 -48.9 9.7 -66.5 27.3s-27.3 41 -27.3 66.4zm613.3 343.8l7.8 -31.3H656.3v-93.7H625v93.7H453.1v-93.7h-31.2v93.7H250v-93.7h-31.2v93.7H66.4l7.8 31.3h144.6v125H109.4l7.8 31.2h101.6v93.8H250V750h171.9v93.8h31.2V750H625v93.8h31.3V750h101.5l9.8 -31.2H656.3v-125h144.5zm-347.7 125v-125H625v125H453.1zm-203.1 0v-125h171.9v125H250z"/></svg>