<svg height="1000" width="937.5" xmlns="http://www.w3.org/2000/svg"><path d="M281.3 230.5V125h31.2v105.5h-31.2zM0 437.5v-31.2h107.4v31.2H0zm85.9 -209L105.5 207l62.5 62.5L146.5 291zm349.6 60.6l-21.4 -21.5 62.5 -62.5 21.4 21.5zM109.4 627L89.8 605.5 150.4 543l21.5 21.5zM269.5 523.4v31.3C201.2 544.9 148.4 486.3 148.4 414.1c0 -78.2 64.5 -144.6 142.6 -144.6 48.8 0 91.8 23.5 117.2 60.6 -9.8 3.9 -19.5 7.8 -29.3 13.7 -19.5 -25.4 -52.7 -43 -87.9 -43 -62.5 0 -111.3 50.8 -111.3 113.3 0 54.7 39.1 99.6 89.8 109.3zm486.4 -17.5c99.6 0 181.6 83.9 181.6 183.6S855.5 875 755.9 875H314.5C234.4 875 169.9 804.7 169.9 724.6c0 -76.2 56.7 -142.6 130.9 -148.4V543c3.9 -76.2 46.9 -144.6 109.4 -179.7 9.7 -5.9 19.5 -9.8 29.3 -13.7 25.3 -9.8 50.7 -15.6 80 -15.6 105.5 0 193.4 76.2 214.9 173.8 5.8 0 11.7 -1.9 17.6 -1.9h3.9zm105.4 292.9c29.3 -29.3 45 -68.3 45 -109.3S892.6 611.3 863.3 582 794.9 537.1 755.9 537.1H752c-4 0 -9.8 2 -13.7 2L709 541l-5.9 -27.3c-9.7 -41 -31.2 -78.2 -64.4 -105.5s-76.2 -43 -119.2 -43c-23.4 0 -44.9 3.9 -64.4 11.8 -9.8 3.9 -19.6 7.8 -29.3 13.6 -54.7 31.3 -89.9 87.9 -93.8 154.3v31.3l3.9 29.3 -31.2 1.9c-27.4 2 -54.7 17.6 -74.2 39.1s-29.3 48.8 -29.3 78.1c0 64.5 50.8 119.2 113.3 119.2h441.4c39 0 76.1 -15.7 105.4 -45z"/></svg>