<svg height="1000" width="812.5" xmlns="http://www.w3.org/2000/svg"><path d="M406.3 93.8c224.6 0 406.2 181.6 406.2 406.2S630.9 906.3 406.3 906.3 0 724.6 0 500 181.6 93.8 406.3 93.8zm93.7 125c-7.8 0 -15.6 7.8 -15.6 15.6S492.2 250 500 250c31.3 0 33.2 15.6 35.2 31.3 3.9 27.3 -11.8 70.3 -11.8 70.3 -1.9 3.9 -1.9 11.7 0 15.6s5.9 7.8 11.8 7.8h58.6c21.4 0 37.1 2 48.8 21.5 5.8 9.8 13.7 25.4 13.7 80.1h31.2c0 -50.8 -5.9 -78.2 -17.6 -97.7C652.3 351.6 625 343.8 593.8 343.8h-33.3c5.9 -15.7 9.8 -46.9 5.9 -68.4C560.5 238.3 537.1 218.8 500 218.8zm-62.5 -31.3c-23.4 0 -66.4 21.5 -66.4 85.9 0 35.2 17.6 60.6 50.8 74.3 7.8 3.9 15.6 3.9 23.4 5.8 -5.8 19.5 -5.8 43 3.9 58.6 17.6 25.4 39.1 25.4 64.5 25.4h5.8c50.8 0 68.4 2 76.2 5.9 11.7 5.8 13.7 15.6 13.7 31.2v2h31.2v-2c0 -13.7 0 -44.9 -31.2 -58.6 -17.6 -7.8 -43 -9.7 -89.9 -9.7h-5.8c-25.4 0 -31.3 -2 -39.1 -13.7 -5.8 -7.8 -1.9 -29.3 7.8 -43 3.9 -3.9 2 -9.8 0 -15.6s-7.8 -9.8 -13.6 -9.8c0 0 -17.6 2 -35.2 -5.8 -21.5 -7.9 -31.3 -23.5 -31.3 -45 0 -50.7 33.2 -54.6 35.2 -54.6 7.8 0 15.6 -7.9 15.6 -15.7s-7.8 -15.6 -15.6 -15.6zM640.6 500h-31.2v93.8h31.2V500zm-46.8 0H460.9l93.8 93.8h39.1V500zM125 593.8h322.3L353.5 500H125v93.8zm546.9 171.8c3.9 -3.9 5.8 -7.8 9.7 -11.7L152.3 224.6c-3.9 3.9 -7.8 5.9 -11.7 9.8s-5.8 7.8 -9.7 11.7l529.3 529.3c3.9 -3.9 7.8 -5.9 11.7 -9.8zm15.6 -171.8V500h-31.2v93.8h31.2zm0 -117.2zm0 0z"/></svg>