<svg height="1000" width="812.5" xmlns="http://www.w3.org/2000/svg"><path d="M406.3 93.8c224.6 0 406.2 181.6 406.2 406.2S630.9 906.3 406.3 906.3 0 724.6 0 500 181.6 93.8 406.3 93.8zm7.8 621c17.5 0 33.2 -15.6 33.2 -33.2s-15.7 -33.2 -33.2 -33.2 -33.2 15.7 -33.2 33.2 15.6 33.2 33.2 33.2zm66.4 -224.6c29.3 -27.3 50.8 -56.6 50.8 -99.6 0 -66.4 -52.8 -105.4 -117.2 -105.4 -84 0 -132.8 39 -132.8 121.1h37.1c-2 -58.6 31.2 -89.9 93.7 -89.9 44.9 0 82 29.3 82 76.2 0 29.3 -15.6 56.6 -37.1 76.2 -44.9 41 -56.6 70.3 -58.6 125h37.1c2 -50.8 0 -60.6 45 -103.6z"/></svg>