<svg height="1000" width="625" xmlns="http://www.w3.org/2000/svg"><path d="M312.5 562.5c35.2 0 62.5 27.3 62.5 62.5 0 29.3 -19.5 52.7 -46.9 60.5V750h-31.2v-64.5C269.5 677.7 250 654.3 250 625c0 -35.2 27.3 -62.5 62.5 -62.5zm0 93.8c17.6 0 31.3 -13.7 31.3 -31.3s-13.7 -31.2 -31.3 -31.2 -31.2 13.6 -31.2 31.2 13.6 31.3 31.2 31.3zM140.6 437.5H625v468.8H0V437.5h109.4V296.9c0 -111.4 91.8 -203.1 203.1 -203.1s203.1 91.7 203.1 203.1v15.6h-31.2v-15.6C484.4 201.2 408.2 125 312.5 125S140.6 201.2 140.6 296.9v140.6zM593.8 875V468.8H31.3V875h562.5z"/></svg>