<svg height="1000" width="812.5" xmlns="http://www.w3.org/2000/svg"><path d="M812.5 500v15.6c0 9.8 0 21.5 -2 31.3C789.1 736.3 634.8 886.7 445.3 904.3h-11.7s-2 2 -3.9 2h-23.4C181.6 906.3 0 724.6 0 500S181.6 93.8 406.3 93.8 812.5 275.4 812.5 500zm-33.2 0c0 -205.1 -168 -373 -373 -373 -5.9 0 -9.8 1.9 -15.7 1.9 2 46.9 11.7 89.9 29.3 132.8 19.6 50.8 50.8 95.7 89.9 134.8s84 70.3 134.7 89.8c43 17.6 86 27.4 132.8 29.3 0 -5.8 2 -9.7 2 -15.6zm-746.1 0c0 205.1 168 373 373.1 373h7.8c-2 -42.9 -13.7 -87.8 -29.3 -128.9C365.2 693.4 334 650.4 294.9 611.3S212.9 541 162.1 521.5C121.1 505.9 76.2 494.1 33.2 492.2v7.8zm412.1 371.1C617.2 853.5 753.9 718.8 775.4 546.9 669.9 541 568.4 498 488.3 418S365.2 236.3 359.4 130.9C187.5 152.3 52.7 289.1 35.2 460.9c103.5 5.9 205 48.9 283.2 127s121.1 179.7 126.9 283.2z"/></svg>