<svg height="1000" width="750" xmlns="http://www.w3.org/2000/svg"><path d="M0 125h750v750H0V125zm156.3 593.8c17.5 0 31.2 -13.7 31.2 -31.3s-13.7 -31.2 -31.2 -31.2S125 669.9 125 687.5s13.7 31.3 31.3 31.3zm0 -187.5c17.5 0 31.2 -13.7 31.2 -31.3s-13.7 -31.2 -31.2 -31.2S125 482.4 125 500s13.7 31.3 31.3 31.3zm0 -187.5c17.5 0 31.2 -13.7 31.2 -31.3s-13.7 -31.2 -31.2 -31.2S125 294.9 125 312.5s13.7 31.3 31.3 31.3zM625 703.1v-31.2H250v31.2h375zm0 -187.5v-31.2H250v31.2h375zm0 -187.5v-31.2H250v31.2h375z"/></svg>