<svg height="1000" width="875" xmlns="http://www.w3.org/2000/svg"><path d="M375 675.8L490.2 793c11.8 11.7 11.8 31.2 0 42.9L378.9 949.2c-3.9 3.9 -7.8 3.9 -11.7 3.9s-7.8 0 -11.7 -3.9c-5.9 -5.8 -5.9 -17.6 0 -23.4l97.6 -97.7H250c-60.5 0 -103.5 -27.3 -125 -80.1C107.4 705.1 107.4 652.3 107.4 625V310.5C46.9 302.7 0 250 0 187.5c0 -68.4 56.6 -125 125 -125s125 56.6 125 125c0 64.5 -48.8 117.2 -111.3 125V625c0 89.8 15.6 171.9 111.3 171.9h203.1L351.6 699.2c-5.9 -5.8 -5.9 -17.6 0 -23.4s17.5 -5.9 23.4 0zM31.3 187.5c0 50.8 42.9 93.8 93.7 93.8s93.8 -43 93.8 -93.8S175.8 93.8 125 93.8s-93.7 42.9 -93.7 93.7zm736.3 502c60.5 7.8 107.4 60.5 107.4 123 0 68.4 -56.6 125 -125 125S625 880.9 625 812.5c0 -64.5 48.8 -117.2 111.3 -125V375C736.3 285.2 720.7 203.1 625 203.1H421.9l101.5 97.7c5.9 5.8 5.9 17.6 0 23.4s-17.5 5.9 -23.4 0L384.8 207c-11.8 -11.7 -11.8 -31.2 0 -42.9L496.1 50.8c3.9 -3.9 7.8 -3.9 11.7 -3.9s7.8 0 11.7 3.9c5.9 5.8 5.9 17.6 0 23.4l-97.6 97.7H625c60.5 0 103.5 27.3 125 80.1 17.6 42.9 17.6 95.7 17.6 123v314.5zM750 906.3c50.8 0 93.8 -43 93.8 -93.8s-43 -93.7 -93.8 -93.7 -93.7 42.9 -93.7 93.7 42.9 93.8 93.7 93.8z"/></svg>