<svg height="1000" width="812.5" xmlns="http://www.w3.org/2000/svg"><path d="M748 627l31.3 113.2s2 3.9 2 5.9c0 7.8 -7.9 15.6 -15.7 15.6 -3.9 0 -7.8 -1.9 -7.8 -1.9l-111.3 -41c-5.9 -2 -11.7 -4 -19.5 -4 -5.9 0 -11.8 2 -17.6 4s-29.3 9.7 -50.8 15.6S496.1 750 466.8 750c-187.5 0 -334 -150.4 -334 -330.1 0 -23.4 3.9 -44.9 7.8 -66.4C171.9 205.1 308.6 93.8 472.7 93.8c187.5 0 339.8 146.4 339.8 326.1 0 64.5 -21.5 125 -54.7 175.8 -1.9 2 -1.9 3.9 -3.9 5.9C750 609.4 748 619.1 748 627zm-89.8 64.4l84 29.3C732.4 689.5 716.8 640.6 716.8 625s2 -27.3 9.8 -39.1c1.9 -3.9 3.9 -3.9 5.8 -5.8v-2c31.3 -46.8 48.9 -101.5 48.9 -158.2 0 -76.1 -29.3 -148.4 -84 -203.1C668 187.5 634.8 164.1 597.7 148.4 558.6 132.8 515.6 125 472.7 125c-37.2 0 -72.3 5.9 -105.5 17.6s-62.5 27.3 -89.9 48.8c-54.6 43 -91.8 103.5 -105.4 168 -3.9 19.5 -7.8 41 -7.8 60.5 0 39.1 7.8 78.1 23.4 115.3 15.6 35.1 37.1 68.3 64.5 95.7 56.6 56.6 132.8 87.9 214.8 87.9 25.4 0 58.6 -5.9 85.9 -13.7 9.8 -2 21.5 -7.8 29.3 -9.8 0 0 17.6 -5.8 21.5 -7.8s15.6 -3.9 23.5 -3.9c11.7 0 21.4 3.9 31.2 7.8zm-156.2 82c9.7 -1.9 17.5 -5.8 25.3 -7.8s17.6 -3.9 25.4 -5.8c-7.8 9.7 -13.6 17.5 -13.6 17.5C480.5 845.7 396.5 884.8 304.7 884.8c-41 0 -82 -7.8 -119.2 -23.5h-1.9c-3.9 -1.9 -5.9 -1.9 -9.8 -1.9s-7.8 0 -11.7 1.9l-109.4 43c-1.9 0 -3.9 2 -5.8 2 -3.9 0 -5.9 -2 -9.8 -4 -3.9 -3.9 -7.8 -9.7 -5.8 -15.6L54.7 765.6c0 -3.9 -2 -5.8 -3.9 -9.7v-2l-2 -1.9v-2C17.6 703.1 0 646.5 0 589.8 0 507.8 37.1 427.7 101.6 373l15.6 -13.6c-2 7.8 -5.9 17.6 -7.8 25.4s-2 17.5 -3.9 25.4c-52.8 58.6 -74.2 123 -74.2 181.6 0 50.8 15.6 99.6 42.9 142.6 2 1.9 3.9 1.9 3.9 3.9v1.9c5.9 7.8 7.8 17.6 7.8 27.4v3.9l-19.5 93.7 84 -33.2c13.7 -5.8 27.3 -3.9 41 0h3.9l2 2c33.2 13.7 70.3 21.5 107.4 21.5 64.4 0 125 -23.5 173.8 -62.5 0 0 11.7 -7.8 23.5 -19.6z"/></svg>