<svg height="1000" width="750" xmlns="http://www.w3.org/2000/svg"><path d="M281.3 156.3c0 -52.8 41 -93.8 93.7 -93.8s93.8 41 93.8 93.8S427.7 250 375 250s-93.7 -41 -93.7 -93.7zm421.8 125c25.4 0 46.9 21.4 46.9 46.8S728.5 375 703.1 375H511.7c-11.7 2 -27.3 7.8 -35.1 27.3 -9.8 23.5 -3.9 66.5 1.9 101.6l7.8 41v2l58.6 335.9c3.9 25.4 -11.7 50.8 -37.1 54.7S457 923.8 453.1 898.4l-41 -234.3v1.9S400.4 601.6 377 601.6h-4c-23.4 0 -35.1 64.4 -35.1 64.4v-1.9l-41 234.3c-3.9 25.4 -29.3 43 -54.7 39.1s-41 -29.3 -37.1 -54.7l58.6 -335.9v-2l7.8 -41c5.8 -35.1 11.7 -78.1 1.9 -101.6C265.6 382.8 250 377 238.3 375H46.9C21.5 375 0 353.5 0 328.1s21.5 -46.8 46.9 -46.8h656.2z"/></svg>