<svg height="1000" width="750" xmlns="http://www.w3.org/2000/svg"><path d="M375 93.8c-35.2 0 -62.5 27.3 -62.5 62.5s27.3 62.5 62.5 62.5 62.5 -27.4 62.5 -62.5S410.2 93.8 375 93.8zm0 -31.3c52.7 0 93.8 41 93.8 93.8S427.7 250 375 250s-93.7 -41 -93.7 -93.7 41 -93.8 93.7 -93.8zm328.1 218.8c25.4 0 46.9 21.4 46.9 46.8S728.5 375 703.1 375H507.8c-9.8 0 -27.3 9.8 -35.1 29.3 -9.8 23.4 -3.9 64.5 1.9 99.6l7.8 41v2l62.5 335.9c3.9 25.4 -11.7 50.8 -37.1 54.7H498c-21.4 0 -42.9 -15.6 -46.8 -39.1l-41 -234.3S400.4 603.5 377 603.5h-4c-23.4 0 -37.1 60.6 -37.1 60.6l-41 234.3c-3.9 23.5 -21.5 39.1 -42.9 39.1h-9.8c-25.4 -3.9 -41 -29.3 -37.1 -54.7l62.5 -335.9v-2l7.8 -41c5.9 -35.1 11.7 -76.2 1.9 -99.6C269.5 384.8 253.9 375 242.2 375H46.9C21.5 375 0 353.5 0 328.1s21.5 -46.8 46.9 -46.8h656.2zM46.9 343.8c-7.8 0 -15.6 -7.9 -15.6 -15.7s7.8 -15.6 15.6 -15.6h656.2c7.8 0 15.7 7.8 15.7 15.6s-7.9 15.7 -15.7 15.7H503.9c-31.2 0 -50.8 29.2 -58.6 46.8 -9.8 25.4 -11.7 62.5 -1.9 119.2l5.8 37.1 2 5.8 62.5 336c0 5.8 0 9.7 -2 11.7s-3.9 3.9 -9.7 5.9h-4c-7.8 0 -13.6 -4 -15.6 -11.8l-41 -234.3c0 -3.9 -3.9 -19.6 -9.8 -37.2 -3.9 -11.7 -9.7 -21.4 -15.6 -29.2 -13.7 -17.6 -27.3 -21.5 -39 -21.5h-4c-9.7 0 -25.3 3.9 -39 21.5 -5.9 7.8 -11.7 17.5 -15.6 29.2 -7.9 17.6 -11.8 33.3 -11.8 35.2v2l-41 234.3c-1.9 7.8 -5.8 11.8 -13.6 11.8h-4c-5.8 0 -7.8 -4 -9.7 -5.9s-3.9 -5.9 -2 -11.7l62.5 -336v-1.9l7.8 -41c9.8 -56.7 9.8 -93.8 0 -119.2C298.8 373 279.3 343.8 244.1 343.8z"/></svg>