<svg height="1000" width="875" xmlns="http://www.w3.org/2000/svg"><path d="M437.5 218.8c-140.6 0 -285.2 56.6 -392.6 152.3l29.3 33.2c44.9 -39.1 95.7 -72.3 150.4 -95.7 66.4 -29.3 138.7 -43 212.9 -43s146.5 13.7 212.9 43c54.7 23.4 105.5 56.6 150.4 95.7l29.3 -33.2C722.7 275.4 578.1 218.8 437.5 218.8zm0 -31.3c162.1 0 324.2 70.3 437.5 183.6l-72.3 76.2c-46.8 -46.9 -103.5 -84 -164 -109.4 -62.5 -27.4 -130.9 -41 -201.2 -41s-136.7 13.6 -201.2 41c-60.5 25.4 -117.2 62.5 -164 109.4L0 371.1C113.3 257.8 275.4 187.5 437.5 187.5zm0 252c-89.8 0 -173.8 31.2 -240.2 87.8l33.2 33.2c58.6 -48.8 130.8 -74.2 207 -74.2s148.4 25.4 207 74.2l33.2 -33.2C611.3 470.7 527.3 439.5 437.5 439.5zm0 -31.3c111.3 0 212.9 44.9 287.1 117.2l-78.1 78.1c-56.7 -54.7 -130.9 -85.9 -209 -85.9s-152.3 31.2 -209 85.9l-78.1 -78.1C224.6 453.1 326.2 408.2 437.5 408.2zm0 250c-29.3 0 -58.6 9.8 -80.1 29.3l80.1 80.1 80.1 -80.1C496.1 668 466.8 658.2 437.5 658.2zm0 -31.2c50.8 0 95.7 23.4 125 60.5l-125 125 -125 -125c29.3 -37.1 74.2 -60.5 125 -60.5z"/></svg>