<svg height="1000" width="625" xmlns="http://www.w3.org/2000/svg"><path d="M312.5 464.8c-19.5 0 -35.2 15.7 -35.2 35.2s15.7 35.2 35.2 35.2 35.2 -15.7 35.2 -35.2S332 464.8 312.5 464.8zm0 -27.3c35.2 0 62.5 27.3 62.5 62.5s-27.3 62.5 -62.5 62.5S250 535.2 250 500s27.3 -62.5 62.5 -62.5zm-250 27.3C43 464.8 27.3 480.5 27.3 500s15.7 35.2 35.2 35.2S97.7 519.5 97.7 500 82 464.8 62.5 464.8zm0 -27.3c35.2 0 62.5 27.3 62.5 62.5s-27.3 62.5 -62.5 62.5S0 535.2 0 500s27.3 -62.5 62.5 -62.5zm500 27.3c-19.5 0 -35.2 15.7 -35.2 35.2s15.7 35.2 35.2 35.2 35.2 -15.7 35.2 -35.2S582 464.8 562.5 464.8zm0 -27.3c35.2 0 62.5 27.3 62.5 62.5s-27.3 62.5 -62.5 62.5S500 535.2 500 500s27.3 -62.5 62.5 -62.5z"/></svg>