<svg height="1000" width="875" xmlns="http://www.w3.org/2000/svg"><path d="M283.2 707l138.7 138.7V406.3h31.2v439.4L591.8 707l23.4 23.5L437.5 906.3 261.7 730.5zM744.1 316.4C818.4 328.1 875 390.6 875 468.8 875 554.7 804.7 625 718.8 625H531.3v-31.2h187.5c68.3 0 125 -56.7 125 -125 0 -29.3 -9.8 -56.7 -29.3 -80.1 -19.6 -21.5 -45 -37.1 -74.3 -41l-25.4 -3.9 -1.9 -23.5C707 267.6 681.6 218.8 642.6 181.6 601.6 144.5 554.7 125 500 125c-74.2 0 -146.5 35.2 -187.5 97.7l-15.6 23.4 -23.5 -11.7c-11.7 -5.9 -23.4 -7.8 -37.1 -7.8 -23.4 0 -46.8 7.8 -64.4 25.4s-27.4 41 -27.4 64.4v21.5l-21.5 7.8c-27.3 7.8 -50.7 23.4 -66.4 46.9s-25.3 48.8 -25.3 76.2c0 68.3 56.6 125 125 125h187.5V625H156.3C70.3 625 0 554.7 0 468.8 0 398.4 44.9 337.9 113.3 316.4 113.3 250 168 195.3 234.4 195.3c17.6 0 37.1 3.9 52.7 11.7C332 138.7 412.1 93.8 500 93.8c128.9 0 230.5 97.6 244.1 222.6z"/></svg>