<svg height="1000" width="500" xmlns="http://www.w3.org/2000/svg"><path d="M250 125c-68.4 0 -123 60.5 -123 132.8v265.6c0 72.3 54.6 132.9 123 132.9S373 595.7 373 523.4V257.8C373 185.5 318.4 125 250 125zm0 -31.2c85.9 0 154.3 74.2 154.3 164v265.6c0 89.9 -68.4 164.1 -154.3 164.1S95.7 613.3 95.7 523.4V257.8c0 -89.8 68.4 -164 154.3 -164zm218.8 312.5H500v125c0 130.8 -105.5 238.2 -234.4 248V875h140.7v31.3H91.8V875h144.5v-95.7C105.5 769.5 0 662.1 0 531.3v-125h31.3v125c0 54.6 21.4 107.4 60.5 148.4s87.9 64.4 142.6 68.3l15.6 2 15.6 -2c54.7 -3.9 109.4 -27.3 146.5 -68.3s56.7 -93.8 56.7 -148.4v-125z"/></svg>