<svg height="1000" width="437.5" xmlns="http://www.w3.org/2000/svg"><path d="M125 675.8V523.4l78.1 78.2 -15.6 87.9c0 7.8 -3.9 15.6 -9.8 21.4L58.6 798.8c-5.9 5.9 -19.5 13.7 -27.3 13.7S13.7 808.6 7.8 802.7 0 789.1 0 781.3s3.9 -17.6 9.8 -23.5zm62.5 -488.3c0 -35.2 27.3 -62.5 62.5 -62.5s62.5 27.3 62.5 62.5S285.2 250 250 250s-62.5 -27.3 -62.5 -62.5zm193.4 652.3c1.9 17.6 -9.8 33.2 -27.4 35.2h-3.9c-15.6 0 -29.3 -11.7 -31.2 -27.3L294.9 668 125 500V363.3l-62.5 31.2V500c0 17.6 -13.7 31.3 -31.2 31.3S0 517.6 0 500V390.6c0 -21.5 7.8 -39 25.4 -48.8l117.2 -56.6c3.9 -2 9.7 -3.9 13.7 -3.9h62.5c5.8 0 31.2 3.9 31.2 23.4v207L347.7 627c3.9 3.9 7.8 11.7 7.8 17.5zm46.8 -378.9c5.9 5.9 9.8 15.7 9.8 23.5s-3.9 13.6 -9.8 19.5c-11.7 11.7 -31.2 11.7 -42.9 0L265.6 386.7v-87.9z"/></svg>