<svg height="1000" width="875" xmlns="http://www.w3.org/2000/svg"><path d="M699.2 238.3L875 250l-46.9 687.5 -750 -52.7L89.8 730.5l-44.9 3.9L0 109.4 687.5 62.5zM72.3 701.2l19.5 -2 5.9 -103.5L68.4 168l560.5 -39.1 7.8 105.5 31.3 1.9L658.2 95.7l-625 44.9zm726.5 203.1l43 -623L152.3 232.4l-42.9 623.1zM183.6 265.6l625 43 -31.3 437.5 -623 -43zm84 414.1L543 699.2 419.9 494.1zM582 701.2l86 5.8L584 568.4 535.2 627zm91.8 -275.4c2 -17.6 -11.7 -31.3 -29.3 -33.2s-31.2 11.7 -33.2 29.3 11.7 31.2 29.3 33.2 31.3 -11.7 33.2 -29.3z"/></svg>