<svg height="1000" width="812.5" xmlns="http://www.w3.org/2000/svg"><path d="M406.3 93.8c224.6 0 406.2 181.6 406.2 406.2S630.9 906.3 406.3 906.3 0 724.6 0 500 181.6 93.8 406.3 93.8zM222.7 710.9c5.8 -5.8 5.8 -17.5 0 -23.4C173.8 636.7 146.5 572.3 146.5 502c0 -72.3 29.3 -138.7 80.1 -189.5 5.8 -5.9 5.8 -17.6 0 -23.4s-17.6 -5.9 -23.5 0C146.5 345.7 115.2 421.9 115.2 502c0 78.1 29.3 152.3 84 208.9 3.9 3.9 7.8 3.9 11.7 3.9s7.9 0 11.8 -3.9zm82 -97.6C275.4 584 259.8 543 259.8 502c0 -43 15.6 -84 46.8 -113.3 5.9 -5.9 5.9 -17.6 0 -23.5s-15.6 -5.8 -21.4 0c-37.2 35.2 -56.7 86 -56.7 136.8s17.6 97.6 52.8 132.8c3.9 3.9 7.8 3.9 11.7 3.9s7.8 0 11.7 -3.9c5.8 -5.9 5.8 -15.7 0 -21.5zm101.6 -50.8c35.1 0 62.5 -27.3 62.5 -62.5s-27.4 -62.5 -62.5 -62.5 -62.5 27.3 -62.5 62.5 27.3 62.5 62.5 62.5zm125 72.3C566.4 599.6 584 550.8 584 500S564.5 400.4 527.3 365.2c-5.8 -5.8 -15.6 -5.8 -21.4 0s-5.9 17.6 0 23.5C537.1 418 552.7 457 552.7 500c0 41 -15.6 82 -44.9 111.3 -5.8 5.9 -5.8 17.6 0 23.5 3.9 3.9 7.8 3.9 11.7 3.9s7.8 0 11.8 -3.9zm82 76.1c54.7 -56.6 84 -130.8 84 -208.9 0 -80.1 -31.3 -156.3 -87.9 -212.9 -5.9 -5.9 -17.6 -5.9 -23.5 0s-5.8 17.5 0 23.4C636.7 363.3 666 429.7 666 502c0 70.3 -27.3 134.7 -76.2 185.5 -5.8 5.9 -5.8 17.6 0 23.4 4 3.9 7.9 3.9 11.8 3.9s7.8 0 11.7 -3.9z"/></svg>