<svg height="1000" width="562.5" xmlns="http://www.w3.org/2000/svg"><path d="M459 906.3L425.8 875H136.7l-33.2 31.3H58.6L166 802.7l33.2 9.8L168 843.8h226.5l-31.2 -31.3 35.1 -9.8 105.5 103.6H459zM281.3 718.8c-50.8 0 -93.8 -43 -93.8 -93.8s43 -93.7 93.8 -93.7S375 574.2 375 625s-43 93.8 -93.7 93.8zm0 -152.4c-33.3 0 -58.6 25.4 -58.6 58.6s25.3 58.6 58.6 58.6 58.5 -25.4 58.5 -58.6 -25.3 -58.6 -58.5 -58.6zM439.5 125c68.3 0 123 54.7 123 123v437.5c0 68.4 -281.2 127 -281.2 127S0 753.9 0 685.5V248C0 179.7 58.6 125 127 125h29.3c0 -17.6 13.6 -31.2 31.2 -31.2H375c17.6 0 31.3 13.6 31.3 31.2h33.2zm-250 0v31.3H373V125H189.5zm341.8 558.6V248c0 -25.3 -9.8 -46.8 -27.4 -64.4s-39.1 -27.3 -64.4 -27.3h-33.2c0 17.5 -13.7 31.2 -31.3 31.2H187.5c-17.6 0 -31.2 -13.7 -31.2 -31.2H127c-52.8 0 -95.7 41 -95.7 91.7v437.5c1.9 4 19.5 25.4 128.9 60.6 52.7 15.6 103.5 31.2 121.1 35.2 17.5 -4 70.3 -19.6 123 -35.2 109.4 -35.2 127 -58.6 127 -62.5zM437.5 281.3H125v125h312.5v-125zm0 -31.3c17.6 0 31.3 13.7 31.3 31.3v125c0 17.5 -13.7 31.2 -31.3 31.2H125c-17.6 0 -31.2 -13.7 -31.2 -31.2v-125C93.8 263.7 107.4 250 125 250h312.5z"/></svg>