<svg height="1000" width="562.5" xmlns="http://www.w3.org/2000/svg"><path d="M281.3 125c-138.7 0 -250 103.5 -250 230.5 0 78.1 46.8 191.4 136.7 334 42.9 70.3 85.9 130.8 113.3 166 27.3 -35.2 72.2 -95.7 115.2 -166 87.9 -142.6 134.8 -255.9 134.8 -334C531.3 228.5 419.9 125 281.3 125zm0 -31.2c156.2 0 281.2 117.1 281.2 261.7 0 203.1 -281.2 550.8 -281.2 550.8S0 558.6 0 355.5C0 210.9 125 93.8 281.3 93.8zm0 156.2c68.3 0 125 56.6 125 125s-56.7 125 -125 125 -125 -56.6 -125 -125 56.6 -125 125 -125zm0 216.8c50.7 0 91.7 -41 91.7 -91.8s-41 -91.8 -91.7 -91.8 -91.8 41 -91.8 91.8 41 91.8 91.8 91.8z"/></svg>