<svg height="1000" width="939.5" xmlns="http://www.w3.org/2000/svg"><path d="M238.3 832c-11.7 9.8 -27.4 9.8 -39.1 0 -9.7 -11.7 -9.7 -27.3 0 -39 11.7 -9.8 27.4 -9.8 39.1 0 9.7 11.7 9.7 29.3 0 39zM710.9 125zM384.8 470.7l15.6 15.6c-7.8 7.8 -15.6 13.7 -23.4 21.5 -35.2 -35.1 -25.4 -27.3 -25.4 -27.3 -3.9 -3.9 -5.9 -11.7 -2 -19.6l7.8 -11.7C308.6 400.4 281.3 375 257.8 369.1c-7.8 -1.9 -13.7 -3.9 -21.5 -3.9 -19.5 0 -35.1 5.9 -42.9 13.7s-23.5 31.3 -9.8 44.9l23.4 23.5c3.9 3.9 3.9 11.7 0 15.6l-64.4 68.4c-2 1.9 -5.9 1.9 -7.8 1.9s-5.9 0 -7.8 -1.9L3.9 406.3c-3.9 -4 -3.9 -9.8 0 -13.7l66.4 -66.4c2 -2 5.9 -3.9 7.8 -3.9 0 0 33.2 15.6 48.9 0s0 -39.1 11.7 -56.7 31.2 -37.1 44.9 -50.8S252 148.4 341.8 111.3C373 97.7 406.3 93.8 433.6 93.8c29.3 0 54.7 5.8 72.3 17.5 11.7 7.8 37.1 25.4 21.4 25.4 0 0 -70.3 -11.7 -119.1 29.3 -35.2 31.3 -56.6 60.6 -58.6 103.5s11.7 66.4 66.4 121.1l11.7 -5.8c2 -2 5.9 -2 7.8 -2 4 0 9.8 2 11.8 3.9 0 0 -7.8 -9.7 29.3 27.4 -7.8 5.8 -15.7 13.6 -23.5 21.4C433.6 418 441.4 425.8 435.5 419.9zm-5.9 -44.9l3.9 3.9 13.7 -15.6 -2 -2C337.9 357.4 316.4 324.2 318.4 267.6c1.9 -46.9 25.4 -87.9 70.3 -125 9.7 -7.8 19.5 -13.7 33.2 -17.6 -23.5 0 -44.9 5.9 -68.4 15.6 -76.2 31.3 -125 74.2 -148.4 95.7 -11.7 11.7 -29.3 31.3 -41 46.9v9.8c0 13.6 3.9 35.1 -13.7 52.7 -13.7 11.7 -33.2 19.5 -58.6 19.5l-13.7 -1.9 -39 37.1 89.8 87.9L168 451.2c-11.7 -11.7 -25.4 -19.6 -25.4 -39.1 0 -17.6 17.6 -48.8 37.1 -62.5C197.3 337.9 212.9 334 236.3 334c11.7 0 19.6 1.9 29.3 3.9 31.3 7.8 58.6 33.2 105.5 80.1zm457 365.2C796.9 759.8 693.4 669.9 597.7 578.1c7.8 -7.8 15.6 -15.6 21.4 -23.4C738.3 668 873 781.3 873 781.3c4 3.9 4 11.7 0 15.6L765.6 904.3c-1.9 2 -5.8 2 -7.8 2s-5.8 0 -7.8 -2c0 0 -109.4 -130.9 -224.6 -250 7.8 -7.8 13.7 -15.6 21.5 -23.4 91.8 95.7 181.6 197.2 212.9 234.3zm70.4 -546.9c25.3 25.4 35.1 56.7 33.2 80.1s-11.8 70.3 -58.6 117.2C847.7 474.6 793 500 740.2 500c-21.4 0 -44.9 -5.9 -64.4 -15.6 -3.9 -2 -9.8 -3.9 -15.6 -3.9s-13.7 1.9 -21.5 9.7c-3.9 3.9 -17.6 19.6 -41 43 -5.9 7.8 -13.7 15.6 -21.5 23.4 -15.7 15.7 -33.2 33.2 -50.8 52.8 -7.8 7.8 -13.7 15.6 -21.5 23.4C398.4 744.1 269.5 880.9 269.5 880.9c-15.6 17.5 -35.1 25.4 -56.6 25.4S168 896.5 152.3 880.9c-33.2 -33.2 -35.1 -87.9 0 -119.2 0 0 136.8 -126.9 248.1 -232.4l21.5 -21.5C441.4 490.2 459 472.7 474.6 457c7.8 -7.8 15.6 -15.6 23.4 -21.5 25.4 -23.4 39.1 -39 43 -41 13.7 -13.6 9.8 -29.3 5.9 -39 -37.1 -86 3.9 -162.1 42.9 -203.2C630.9 109.4 683.6 95.7 707 93.8h3.9c23.5 0 54.7 11.7 76.2 33.2L685.5 228.5l17.6 99.6 99.6 19.6zm1.9 78.2c0 -3.9 0 -15.7 -5.9 -29.3l-76.1 78.1 -11.7 9.8 -15.7 -2 -99.6 -17.6 -21.5 -3.9 -3.9 -21.5L654.3 234.4l-2 -15.6L664.1 207l76.1 -76.1C730.5 127 720.7 125 712.9 125H709c-19.5 0 -62.5 13.7 -95.7 48.8 -17.6 19.6 -72.3 86 -37.1 170 1.9 5.8 5.8 17.5 5.8 31.2 0 11.7 -1.9 27.3 -17.5 43 -15.7 15.6 -375 353.5 -390.7 367.2h-1.9c-11.7 9.7 -13.7 23.4 -13.7 33.2 0 15.6 5.9 29.3 15.6 41 9.8 9.7 25.4 15.6 39.1 15.6 7.8 0 21.5 -2 33.2 -15.6h1.9C261.7 843.8 599.6 486.3 617.2 468.8c15.6 -15.7 31.2 -19.6 43 -19.6 13.6 0 23.4 3.9 31.2 7.8 13.7 7.8 29.3 11.8 48.8 11.8 43 0 89.9 -19.6 119.2 -48.9 37.1 -37.1 46.9 -74.2 48.8 -97.6z"/></svg>