<svg height="1000" width="750" xmlns="http://www.w3.org/2000/svg"><path d="M691.4 312.5c35.2 0 58.6 27.3 58.6 60.5v343.8c0 33.2 -23.4 64.5 -58.6 64.5h-625C31.3 781.3 0 750 0 716.8V373c0 -33.2 31.3 -60.5 66.4 -60.5h25.4v-31.2h66.4v31.2h25.4c62.5 -70.3 84 -93.7 107.4 -93.7h171.9c23.4 0 44.9 23.4 107.4 93.7h121.1zm-205.1 334l3.9 -3.9 -21.4 -23.5 -4 3.9c-25.3 21.5 -56.6 33.3 -89.8 33.3 -70.3 0 -128.9 -56.7 -138.7 -121.1h60.6l-76.2 -97.7 -74.2 97.7h58.6c9.7 82 82 152.3 169.9 152.3 41 0 80.1 -13.7 111.3 -41zm43 -46.9L603.5 500h-58.6C541 460.9 523.4 416 492.2 388.7 460.9 359.4 418 343.8 375 343.8c-41 0 -80.1 13.6 -111.3 41l-3.9 3.9 21.5 23.4 3.9 -3.9C310.5 386.7 341.8 375 375 375c70.3 0 128.9 56.6 138.7 125h-60.6z"/></svg>