<svg height="1000" width="750" xmlns="http://www.w3.org/2000/svg"><path d="M375 562.5c-138.7 0 -250 -111.3 -250 -250s111.3 -250 250 -250 250 111.3 250 250 -111.3 250 -250 250zm0 -421.9c-93.7 0 -171.9 78.2 -171.9 171.9S281.3 484.4 375 484.4 546.9 406.3 546.9 312.5 468.8 140.6 375 140.6zm0 312.5c-78.1 0 -140.6 -62.5 -140.6 -140.6S296.9 171.9 375 171.9s140.6 62.5 140.6 140.6S453.1 453.1 375 453.1zm0 140.7c23.4 0 44.9 -2 66.4 -7.9L375 730.5l-93.7 207L187.5 781.3H0L162.1 496.1c50.8 58.6 127 97.7 212.9 97.7zm212.9 -97.7L750 781.3H562.5l-93.7 156.2L390.6 765.6l87.9 -191.4c43 -17.6 80.1 -44.9 109.4 -78.1z"/></svg>