<svg height="1000" width="832" xmlns="http://www.w3.org/2000/svg"><path d="M830.1 525.4c9.7 66.4 -7.8 123 -37.1 126.9l-15.7 2C742.2 808.6 609.4 927.7 443.4 937.5h-21.5C293 937.5 177.7 869.1 113.3 763.7L82 769.5h-3.9C46.9 769.5 11.7 714.8 2 644.5 -7.8 570.3 11.7 505.9 44.9 502l21.5 -2C99.6 343.8 234.4 222.7 402.3 212.9c7.9 0 13.7 -2 21.5 -2 140.7 0 263.7 82.1 324.2 203.2h15.7c37.1 0 58.6 50.7 66.4 111.3zM123 730.5c7.9 -27.4 7.9 -66.4 2 -107.5 -5.9 -37.1 -19.5 -70.3 -33.2 -95.7l-41 5.9c-2 2 -11.7 9.8 -15.6 29.3 -5.9 21.5 -5.9 48.8 -2 76.2s11.7 54.7 23.4 74.2c9.8 17.6 19.6 25.4 21.5 25.4zM796.9 595.7c3.9 -19.5 5.8 -41 1.9 -64.4C794.9 502 787.1 476.6 779.3 460.9c-2 -5.8 -9.8 -15.6 -15.6 -15.6h-23.5c9.8 25.4 17.6 60.6 13.7 109.4C752 515.6 744.1 480.5 728.5 443.4l-7.8 -15.7C693.4 373 652.3 328.1 599.6 294.9S486.3 244.1 423.8 244.1h-19.5c-74.2 3.9 -142.6 31.3 -199.2 80.1C150.4 371.1 113.3 435.5 97.7 505.9l-2 13.6c23.4 19.6 46.9 54.7 52.7 99.6 5.9 50.8 -3.9 89.9 -19.5 113.3l9.8 15.6c29.3 46.9 70.3 87.9 119.1 115.3 50.8 27.3 107.4 43 164.1 43h19.5c74.2 -4 140.6 -31.3 197.3 -80.1C666 802.7 689.5 777.3 707 746.1c19.6 -31.3 31.3 -64.5 39.1 -99.6L752 623l35.1 -1.9c2 -2 5.9 -9.8 9.8 -25.4zM451.2 742.2c-15.7 0 -33.2 -11.7 -33.2 -27.4s13.6 -33.2 29.3 -33.2 31.2 13.7 31.2 29.3 -11.7 31.3 -27.3 31.3zm154.3 -68.4c15.6 0 31.2 11.7 31.2 27.4s-13.7 33.2 -29.3 33.2 -31.2 -13.7 -31.2 -29.3 13.6 -31.3 29.3 -31.3zM244.1 144.5c-5.8 -3.9 -9.7 -9.7 -7.8 -15.6 0 -3.9 5.9 -11.7 11.7 -17.6 15.7 -13.6 37.2 -21.5 37.2 -21.5C293 78.1 304.7 68.4 320.3 64.5c3.9 0 5.9 -2 9.8 -2 9.7 0 21.5 3.9 27.3 7.8 15.6 -1.9 31.3 2 37.1 2s9.8 1.9 13.7 3.9c2 -2 3.9 -3.9 7.8 -3.9 7.8 0 15.6 7.8 15.6 15.6s-7.8 15.6 -15.6 15.6h-1.9l-2 2 -5.8 5.8 -5.9 5.9 -17.6 7.8v-2l13.7 -7.8 5.8 -5.8s4 -2 5.9 -3.9l2 -2c-5.9 -1.9 -9.8 -9.7 -9.8 -15.6 0 -3.9 0 -5.9 1.9 -7.8 -1.9 0 -3.9 -2 -7.8 -2s-15.6 -1.9 -33.2 0c-13.6 2 -25.4 3.9 -41 7.8 -1.9 0 -3.9 2 -5.8 2C332 84 345.7 84 357.4 84h13.7c3.9 5.8 5.9 11.7 7.8 19.5 3.9 21.5 -7.8 43 -25.4 52.8l9.8 42.9L332 207l-9.7 -44.9c-19.6 -3.9 -37.1 -19.5 -41 -41 -2 -7.8 -2 -13.7 0 -19.5l-5.9 1.9c-7.8 3.9 -15.6 9.8 -21.5 13.7 -5.9 5.8 -9.8 9.8 -9.8 15.6 0 0 -1.9 3.9 2 5.9s7.8 5.8 15.6 7.8c5.9 1.9 13.7 1.9 21.5 1.9h3.9l2 2h-27.4c-7.8 -2 -13.7 -3.9 -17.6 -5.9zm86 -54.7c-11.7 0 -21.5 9.8 -21.5 21.5s9.8 19.6 21.5 19.6 19.5 -7.9 19.5 -19.6S341.8 89.8 330.1 89.8z"/></svg>