<svg height="1000" width="832" xmlns="http://www.w3.org/2000/svg"><path d="M830.1 525.4c9.7 66.4 -7.8 123 -37.1 126.9h-15.7C742.2 806.6 609.4 927.7 443.4 937.5 304.7 945.3 181.6 873 113.3 763.7L82 769.5C48.8 773.4 11.7 718.8 2 644.5S11.7 505.9 44.9 502l21.5 -2C99.6 343.8 234.4 222.7 402.3 212.9c150.4 -7.8 283.2 74.2 345.7 201.2 21.5 42.9 31.3 89.8 33.3 140.6 3.9 -72.3 -9.8 -111.3 -21.5 -140.6 41 -3.9 62.5 48.8 70.3 111.3zM91.8 515.6c17.6 25.4 35.2 66.4 41 113.3 5.9 48.8 2 89.9 -9.8 119.1 17.6 -19.5 27.4 -70.3 19.6 -125C134.8 570.3 113.3 531.3 91.8 515.6zm359.4 226.6c15.6 0 27.3 -15.6 27.3 -31.3s-15.6 -27.3 -31.2 -27.3 -27.4 15.6 -27.4 31.2 15.6 27.4 31.3 27.4zm158.2 -7.8c15.6 0 27.3 -17.6 27.3 -33.2s-15.6 -27.4 -31.2 -27.4 -29.3 15.7 -29.3 31.3 17.6 29.3 33.2 29.3zM238.3 136.7c-2 -1.9 -2 -5.8 -2 -7.8 0 -5.9 5.9 -11.7 11.7 -17.6s13.7 -11.7 25.4 -17.5c2 0 2 -2 3.9 -2 2 -2 5.9 -2 7.9 -2C293 78.1 304.7 66.4 320.3 62.5c13.7 -2 27.4 0 37.1 7.8h7.8c11.8 0 21.5 -1.9 29.3 0 5.9 2 11.8 3.9 15.7 5.9 1.9 0 3.9 -2 5.8 -2 5.9 0 11.7 5.9 11.7 11.7s-3.9 11.8 -9.7 11.8l-2 1.9c-1.9 2 -1.9 3.9 -3.9 5.9l-5.8 5.8s-4 2 -5.9 3.9l-17.6 9.8v-3.9l13.7 -5.9 5.8 -5.8 5.9 -5.9s2 -3.9 3.9 -5.8c-3.9 -2 -7.8 -5.9 -7.8 -11.8 0 -1.9 0 -3.9 2 -5.8 -4 -2 -7.9 -2 -11.8 -2H361.3c-13.6 2 -25.4 3.9 -41 7.8 -1.9 0 -5.8 2 -7.8 2C339.8 82 361.3 82 371.1 84c3.9 5.8 5.9 11.7 7.8 19.5 3.9 23.5 -7.8 44.9 -29.3 54.7l9.8 50.8 -21.5 3.9 -9.8 -50.8c-23.4 0 -42.9 -17.6 -46.8 -41 -2 -7.8 -2 -13.7 0 -19.5h-2c-2 0 -2 1.9 -3.9 1.9 -7.8 3.9 -15.6 9.8 -21.5 13.7 -5.9 5.8 -9.8 11.7 -9.8 15.6v3.9s0 2 2 2c3.9 3.9 7.8 5.8 15.6 7.8 5.9 1.9 15.6 1.9 23.5 1.9h1.9l2 2h-5.9c-7.8 0 -15.6 -2 -21.5 -2 -7.8 -1.9 -13.7 0 -17.6 -3.9 -1.9 -1.9 -3.9 -3.9 -3.9 -5.8l-1.9 -2z"/></svg>