<svg height="1000" width="812.5" xmlns="http://www.w3.org/2000/svg"><path d="M810.5 544.9v2C789.1 736.3 634.8 886.7 445.3 904.3h-3.9c-3.9 0 -5.9 2 -9.8 2h-25.3C181.6 906.3 0 724.6 0 500V474.6c0 -3.9 2 -5.8 2 -9.8v-3.9C19.5 271.5 169.9 117.2 359.4 95.7c15.6 -1.9 31.2 -1.9 46.9 -1.9 224.6 0 406.2 181.6 406.2 406.2 0 13.7 0 27.3 -2 39.1v5.8zM779.3 500c0 -205.1 -168 -373 -373 -373 -5.9 0 -9.8 1.9 -15.7 1.9 0 21.5 3.9 41 7.8 60.6l39.1 -11.8 9.8 29.3 -41 13.7c3.9 13.7 7.8 27.3 13.6 41 3.9 9.8 9.8 21.5 15.6 31.3l33.3 -23.5 17.5 25.4 -37.1 25.4c13.7 23.5 31.3 44.9 50.8 64.5l27.3 -29.3 23.5 23.4 -29.3 29.3c21.5 19.5 43 35.2 66.4 48.8l23.4 -35.1 27.4 17.6 -23.5 33.2c9.8 3.9 19.6 9.7 29.3 13.6 13.7 5.9 27.4 9.8 43 13.7l13.7 -39.1 29.3 9.8 -11.7 37.1c19.5 3.9 39 7.8 58.5 7.8 0 -5.8 2 -9.7 2 -15.6zm-746.1 0c0 205.1 168 373 373.1 373h7.8c-2 -17.5 -2 -33.2 -5.9 -50.7l-43 13.6 -9.7 -31.2L400.4 791c-3.9 -15.6 -9.8 -31.2 -15.6 -46.9C380.9 734.4 377 726.6 373 716.8l-39 25.4 -17.6 -25.4 41 -27.3C343.8 666 326.2 642.6 306.6 621.1l-33.2 33.2L252 632.8l33.2 -33.2c-19.6 -19.5 -43 -35.1 -66.4 -48.8l-27.4 41 -27.3 -17.6 27.3 -39c-9.8 -3.9 -19.5 -9.8 -29.3 -13.7 -13.7 -5.9 -29.3 -11.7 -44.9 -15.6l-15.6 46.8L72.3 543l13.6 -45c-17.5 -3.9 -35.1 -3.9 -52.7 -5.8v7.8zm412.1 371.1C617.2 853.5 753.9 718.8 775.4 546.9c-21.5 -2 -44.9 -5.9 -66.4 -9.8l-17.6 52.7 -29.3 -9.7 15.6 -48.8C650.4 523.4 623 511.7 597.7 498l-29.3 45L543 525.4l27.3 -41C544.9 468.8 519.5 451.2 498 429.7l-37.1 37.1 -21.4 -21.5 37.1 -37.1C457 386.7 439.5 363.3 423.8 337.9l-41 27.3 -17.6 -25.4 43 -29.3c-13.7 -25.3 -23.4 -52.7 -31.2 -80l-48.9 15.6 -9.7 -31.3 50.7 -15.6c-3.9 -23.4 -7.8 -44.9 -9.7 -68.3C187.5 152.3 52.7 289.1 35.2 460.9c19.5 2 41 3.9 60.5 7.9l15.6 -45 29.3 9.8 -13.6 43c27.3 7.8 54.6 17.5 82 31.2l25.4 -37.1 27.3 17.6 -25.4 35.1c25.4 15.7 48.9 33.2 70.3 54.7l33.2 -33.2 21.5 21.5 -33.2 33.2c21.5 23.4 39.1 46.9 54.7 72.3l37.1 -25.4 17.6 27.3 -39.1 25.4c13.7 27.4 23.5 54.7 31.3 82.1l44.9 -13.7 9.8 29.3 -46.9 15.6c3.9 19.5 5.9 39.1 7.8 58.6z"/></svg>