<svg height="1000" width="437.5" xmlns="http://www.w3.org/2000/svg"><path d="M437.5 341.8c0 177.7 -62.5 183.6 -62.5 330.1 0 72.2 31.3 128.9 31.3 179.7 0 48.8 -17.6 54.7 -62.5 54.7h-250c-45 0 -62.5 -5.9 -62.5 -54.7 0 -50.8 31.2 -109.4 31.2 -181.7C62.5 523.4 0 521.5 0 343.8 0 304.7 2 183.6 37.1 117.2 44.9 101.6 62.5 93.8 99.6 93.8h238.3c37.1 0 54.7 7.8 62.5 23.4 35.1 66.4 37.1 185.5 37.1 224.6zM64.5 130.9C50.8 156.3 41 197.3 35.2 248h367.1C396.5 197.3 386.7 156.3 373 130.9c0 -2 -1.9 -2 -3.9 -2C365.2 127 355.5 125 337.9 125H99.6c-17.6 0 -27.3 2 -31.2 3.9 -2 0 -3.9 0 -3.9 2z"/></svg>