<svg height="1000" width="875" xmlns="http://www.w3.org/2000/svg"><path d="M710.9 564.5c111.4 82 177.8 152.3 162.1 181.6C847.7 791 630.9 718.8 390.6 582S-23.4 298.8 2 253.9c15.6 -29.3 111.3 -9.8 240.2 44.9l-17.6 17.6c-13.7 -5.9 -27.3 -11.7 -41 -15.6C97.7 269.5 27.3 257.8 35.2 271.5s29.3 44.9 99.6 101.5c19.5 15.7 41 33.3 64.4 50.8C232.4 322.3 326.2 250 437.5 250c138.7 0 250 111.3 250 250 0 62.5 -23.4 121.1 -62.5 164.1 27.3 11.7 52.7 23.4 76.2 31.2 85.9 31.3 123 33.2 138.6 33.2 11.8 0 -33.2 -54.7 -103.5 -111.3 -9.7 -7.8 -21.5 -19.5 -33.2 -27.4 3.9 -7.8 5.9 -17.5 7.8 -25.3zM187.5 492.2c52.7 37.1 117.2 82 183.6 119.1 72.3 41 140.6 70.3 203.1 97.7 -39 25.4 -85.9 41 -136.7 41a249.2 249.2 0 0 1 -250 -250v-7.8z"/></svg>