<svg height="1000" width="875" xmlns="http://www.w3.org/2000/svg"><path d="M828.1 500c25.4 0 46.9 21.5 46.9 46.9s-21.5 46.9 -46.9 46.9 -46.8 -21.5 -46.8 -46.9c0 -3.9 0 -9.8 1.9 -13.7 -7.8 -1.9 -17.6 -5.9 -33.2 -5.9 -3.9 76.2 -27.3 144.6 -64.5 201.2 11.8 9.8 27.4 25.4 37.2 52.8 23.4 1.9 42.9 23.4 42.9 46.8 0 25.4 -21.5 46.9 -46.8 46.9s-46.9 -21.5 -46.9 -46.9c0 -15.6 9.7 -31.2 21.5 -39C685.5 771.5 673.8 759.8 666 753.9 611.3 824.2 537.1 869.1 453.1 875h-31.2C337.9 869.1 263.7 824.2 209 753.9c-7.8 5.9 -19.5 17.6 -27.4 35.2 11.8 7.8 21.5 23.4 21.5 39 0 25.4 -21.5 46.9 -46.8 46.9s-46.9 -21.5 -46.9 -46.9c0 -23.4 19.5 -44.9 42.9 -46.8 9.8 -27.4 25.4 -45 37.2 -52.8C152.3 671.9 128.9 603.5 125 527.3c-15.6 2 -25.4 4 -33.2 5.9 2 3.9 2 9.8 2 13.7 0 25.4 -21.5 46.9 -46.9 46.9S0 572.3 0 546.9 21.5 500 46.9 500c9.7 0 17.6 3.9 25.4 7.8C82 503.9 99.6 498 125 496.1c0 -54.7 11.7 -105.5 29.3 -152.3C138.7 332 123 314.5 111.3 296.9h-1.9C84 296.9 62.5 275.4 62.5 250S84 203.1 109.4 203.1s46.9 21.5 46.9 46.9c0 13.7 -5.9 27.3 -15.7 35.2 5.9 9.7 13.7 17.5 25.4 27.3C220.7 199.2 322.3 125 437.5 125S654.3 201.2 709 314.5c11.7 -9.8 19.5 -19.6 25.4 -29.3 -9.8 -7.9 -15.6 -21.5 -15.6 -35.2 0 -25.4 21.4 -46.9 46.8 -46.9s46.9 21.5 46.9 46.9 -21.5 46.9 -46.9 46.9h-1.9c-11.7 17.6 -27.4 35.1 -43 46.9 17.6 46.8 29.3 97.6 29.3 152.3 25.4 1.9 43 7.8 52.7 11.7 7.8 -3.9 15.7 -7.8 25.4 -7.8zM765.6 234.4c-7.8 0 -15.6 7.8 -15.6 15.6s7.8 15.6 15.6 15.6 15.7 -7.8 15.7 -15.6 -7.9 -15.6 -15.7 -15.6zm-656.2 31.2c7.8 0 15.6 -7.8 15.6 -15.6s-7.8 -15.6 -15.6 -15.6S93.8 242.2 93.8 250s7.8 15.6 15.6 15.6zM46.9 562.5c7.8 0 15.6 -7.8 15.6 -15.6S54.7 531.3 46.9 531.3s-15.6 7.8 -15.6 15.6 7.8 15.6 15.6 15.6zm109.4 281.3c7.8 0 15.6 -7.9 15.6 -15.7s-7.8 -15.6 -15.6 -15.6 -15.7 7.8 -15.7 15.6 7.8 15.7 15.7 15.7zm562.5 -31.3c-7.9 0 -15.7 7.8 -15.7 15.6s7.8 15.7 15.7 15.7 15.6 -7.9 15.6 -15.7 -7.8 -15.6 -15.6 -15.6zM437.5 156.3c-85.9 0 -166 48.8 -216.8 125 11.7 17.5 25.4 35.1 41 50.7 46.9 46.9 109.4 72.3 175.8 72.3S566.4 378.9 613.3 332c15.6 -15.6 29.3 -33.2 41 -50.7 -50.8 -76.2 -130.9 -125 -216.8 -125zM156.3 500c0 183.6 117.1 334 265.6 343.8V435.5C330.1 431.6 250 382.8 203.1 310.5 173.8 365.2 156.3 429.7 156.3 500zm296.8 343.8C601.6 834 718.8 683.6 718.8 500c0 -70.3 -17.6 -134.8 -46.9 -189.5C625 382.8 543 429.7 453.1 435.5v408.3zm375 -281.3c7.8 0 15.7 -7.8 15.7 -15.6s-7.9 -15.6 -15.7 -15.6 -15.6 7.8 -15.6 15.6 7.8 15.6 15.6 15.6z"/></svg>