<svg height="1000" width="750" xmlns="http://www.w3.org/2000/svg"><path d="M638.7 716.8c9.7 15.6 15.6 35.2 15.6 46.9 0 15.6 -5.9 27.3 -13.7 35.1 -9.7 7.8 -25.4 13.7 -44.9 13.7H154.3c-21.5 0 -39.1 -3.9 -46.9 -11.7 -3.9 -2 -11.7 -9.8 -11.7 -35.2 0 -11.7 5.9 -33.2 17.6 -48.8L244.1 500h263.7l130.9 216.8zm89.8 -25.4c15.6 31.3 21.5 62.5 21.5 89.9 -2 70.3 -52.7 125 -123 125H127C56.6 906.3 2 851.6 0 781.3c0 -27.4 7.8 -58.6 23.4 -89.9L250 310.5V125h-31.2V93.8h312.5V125H500v185.5zM296.9 187.5v31.3h46.9v-31.3h-46.9zm0 93.8v31.2H375v-31.2h-78.1zM263.7 375l-17.6 31.3h97.7V375h-80.1zm421.8 390.6c0 -17.6 -5.8 -42.9 -19.5 -64.4L525.4 468.8H226.6L85.9 701.2c-13.6 19.5 -21.4 44.9 -21.4 64.4 0 54.7 31.2 78.2 89.8 78.2h441.4c58.6 0 87.9 -31.3 89.8 -78.2z"/></svg>