<svg height="1000" width="734.4" xmlns="http://www.w3.org/2000/svg"><path d="M718.8 668c15.6 9.7 19.5 27.3 11.7 42.9 -5.9 9.8 -17.6 17.6 -29.3 17.6 -5.9 0 -11.7 -1.9 -15.7 -5.8l-56.6 -33.2c-5.9 27.3 -3.9 52.7 -3.9 54.6 2 17.6 -9.8 33.2 -27.3 37.2h-5.9c-15.6 0 -27.3 -9.8 -29.3 -25.4 -3.9 -15.7 -5.9 -56.7 7.8 -97.7L400.4 558.6v199.2c52.7 9.8 85.9 39.1 85.9 39.1 9.8 7.8 15.7 15.6 15.7 25.4 0 7.8 -2 13.6 -5.9 19.5 -5.9 7.8 -15.6 9.8 -27.3 9.8 -7.9 0 -15.7 -2 -21.5 -5.9 -3.9 -1.9 -17.6 -15.6 -46.9 -23.4v66.4c0 17.6 -15.6 33.2 -33.2 33.2S334 906.3 334 888.7v-64.5c-23.5 7.8 -46.9 21.5 -48.8 23.5v1.9c-5.9 3.9 -13.7 5.9 -19.6 5.9 -11.7 0 -17.6 -7.8 -19.5 -9.8 -7.8 -7.8 -9.8 -17.6 -9.8 -27.3 0 -7.9 2 -13.7 7.8 -17.6h2c11.7 -9.8 46.9 -35.2 87.9 -43V556.6l-173.8 99.7c17.5 44.9 11.7 93.7 11.7 99.6 -2 15.6 -15.6 25.4 -31.3 25.4h-5.8c-17.6 -4 -27.4 -19.6 -25.4 -37.2 0 0 3.9 -27.3 -3.9 -54.6l-56.7 33.2c-3.9 3.9 -9.7 5.8 -15.6 5.8 -11.7 0 -23.4 -7.8 -29.3 -17.6C-3.9 695.3 0 675.8 15.6 666l56.7 -33.2c-21.5 -19.5 -45 -29.3 -45 -29.3C11.7 597.7 3.9 578.1 9.8 562.5 13.7 550.8 25.4 541 39.1 541c3.9 0 7.8 0 11.7 2 5.8 1.9 44.9 19.5 78.1 58.6L304.7 500 128.9 398.4C95.7 437.5 52.7 457 50.8 457c-3.9 2 -7.8 2 -11.7 2C25.4 459 13.7 449.2 9.8 437.5c-5.9 -15.6 3.9 -35.2 19.5 -41 0 0 21.5 -9.8 43 -29.3L15.6 332C0 322.3 -3.9 304.7 3.9 289.1c5.9 -9.8 17.6 -17.6 29.3 -17.6 5.9 0 11.7 1.9 15.6 5.8l58.6 31.3c7.8 -27.3 2 -50.8 2 -52.7 -2 -17.6 9.7 -33.2 25.4 -37.1h5.8c15.7 0 27.4 9.7 29.3 25.3 0 0 2 46.9 -15.6 97.7L334 443.4V242.2c-43 -7.8 -80.1 -33.2 -87.9 -41s-11.7 -13.7 -11.7 -19.6 -2 -13.6 3.9 -23.4c7.8 -11.7 21.5 -11.7 27.3 -11.7s15.7 1.9 23.5 7.8 23.4 13.7 44.9 21.5v-64.5c0 -17.5 15.6 -33.2 33.2 -33.2s33.2 15.7 33.2 33.2v64.5c27.3 -7.8 43 -17.6 44.9 -19.5 5.9 -4 13.7 -5.9 21.5 -5.9 11.7 0 21.5 1.9 27.3 9.8 3.9 5.8 7.9 11.7 7.9 19.5 0 9.8 -7.9 19.5 -15.7 25.4 -5.8 3.9 -37.1 27.3 -85.9 37.1v201.2l169.9 -99.6c-13.7 -39.1 -11.7 -80.1 -7.8 -99.7 2 -15.6 15.6 -25.3 31.3 -25.3h5.8c17.6 3.9 27.4 19.5 25.4 37.1 0 0 -3.9 27.3 3.9 54.6l56.6 -33.2c4 -3.9 9.8 -5.8 15.7 -5.8 11.7 0 23.4 7.8 29.3 17.6 7.8 15.6 3.9 35.1 -11.7 44.9l-56.7 33.2c21.5 19.5 43 29.3 43 29.3 15.6 5.8 25.4 25.4 19.5 41C720.7 449.2 709 459 695.3 459c-3.9 0 -7.8 0 -11.7 -2 -2 0 -44.9 -19.5 -78.1 -58.6L433.6 500l171.9 101.6c33.2 -39.1 74.2 -56.7 78.1 -58.6s7.8 -2 11.7 -2c13.7 0 25.4 9.8 29.3 21.5 5.9 15.6 -3.9 35.2 -19.5 41 0 0 -21.5 9.8 -43 29.3z"/></svg>