<svg height="1000" width="875" xmlns="http://www.w3.org/2000/svg"><path d="M638.7 156.3c134.7 0 236.3 83.9 236.3 226.5 0 60.6 -25.4 138.7 -80.1 205.1S707 689.5 599.6 759.8s-162.1 84 -162.1 84 -54.7 -13.7 -162.1 -84S134.8 654.3 80.1 587.9 0 443.4 0 382.8C0 240.2 101.6 156.3 236.3 156.3c76.2 0 160.2 35.1 201.2 103.5 41 -68.4 125 -103.5 201.2 -103.5zm132.8 412.1c23.4 -27.4 43 -60.6 54.7 -95.7 11.7 -31.3 17.6 -60.6 17.6 -89.9 0 -58.6 -19.6 -109.4 -56.7 -144.5C769.5 222.7 748 209 722.7 201.2c-25.4 -9.8 -54.7 -13.7 -84 -13.7 -74.2 0 -142.6 35.2 -173.9 87.9l-27.3 44.9 -27.3 -44.9C378.9 222.7 310.5 187.5 236.3 187.5c-29.3 0 -58.6 3.9 -84 13.7C127 209 105.5 222.7 87.9 238.3 50.8 273.4 31.3 324.2 31.3 382.8c0 29.3 5.8 58.6 17.5 89.9 11.7 35.1 31.3 68.3 54.7 95.7 52.8 62.5 82 95.7 189.5 166 78.1 52.7 126.9 70.3 144.5 76.1 17.6 -5.8 66.4 -23.4 144.5 -76.1 107.5 -70.3 136.8 -103.5 189.5 -166z"/></svg>