<svg height="1000" width="875" xmlns="http://www.w3.org/2000/svg"><path d="M230.5 552.7c101.5 0 199.2 80.1 175.8 199.3C384.8 853.5 300.8 890.6 230.5 902.3c-11.7 2 -27.4 4 -43 4C121.1 906.3 27.3 886.7 0 832c46.9 -17.5 66.4 -48.8 66.4 -93.7 0 -95.7 62.5 -185.6 164.1 -185.6zM851.6 117.2c25.4 25.4 33.2 58.6 9.7 87.9L560.5 546.9c4 17.6 4 33.2 -3.9 44.9L449.2 712.9v1.9c-1.9 2 -3.9 2 -5.8 2s-3.9 0 -5.9 -2 -2 -3.9 -2 -5.8v-2c4 -103.5 -82 -171.8 -175.7 -177.7h-3.9s-3.9 -2 -3.9 -2c-4 -3.9 -4 -7.8 0 -11.7L377 414.1c7.8 -5.9 15.6 -7.8 25.3 -7.8 5.9 0 13.7 0 19.6 1.9L763.7 107.4c11.7 -9.7 25.4 -13.6 37.1 -13.6 17.6 0 35.1 7.8 50.8 23.4zM252 515.6z"/></svg>