<svg height="1000" width="937.5" xmlns="http://www.w3.org/2000/svg"><path d="M722.7 281.3c119.1 0 214.8 97.6 214.8 218.7S841.8 718.8 722.7 718.8H214.8C95.7 718.8 0 621.1 0 500S95.7 281.3 214.8 281.3 429.7 378.9 429.7 500c0 78.1 -41 146.5 -103.5 185.5h285.1C548.8 646.5 507.8 578.1 507.8 500c0 -121.1 95.7 -218.7 214.9 -218.7zM31.3 500c0 103.5 82 185.5 183.5 185.5S396.5 603.5 396.5 500 316.4 314.5 214.8 314.5 31.3 396.5 31.3 500zm691.4 185.5c101.5 0 183.6 -82 183.6 -185.5S824.2 314.5 722.7 314.5 541 396.5 541 500s80.1 185.5 181.7 185.5zm-3.9 -279.2C668 406.3 625 449.2 625 500s43 93.8 93.8 93.8 93.7 -43 93.7 -93.8 -43 -93.7 -93.7 -93.7zm0 -31.3c68.3 0 125 56.6 125 125s-56.7 125 -125 125 -125 -56.6 -125 -125 56.6 -125 125 -125zm-500 31.3C168 406.3 125 449.2 125 500s43 93.8 93.8 93.8 93.7 -43 93.7 -93.8 -43 -93.7 -93.7 -93.7zm0 -31.3c68.3 0 125 56.6 125 125s-56.7 125 -125 125S93.8 568.4 93.8 500s56.6 -125 125 -125z"/></svg>