<svg height="1000" width="562.5" xmlns="http://www.w3.org/2000/svg"><path d="M62.5 312.5v-125H500v125H62.5zm31.3 -93.7v62.5h375v-62.5h-375zM500 125c35.2 0 62.5 27.3 62.5 62.5v625c0 35.2 -27.3 62.5 -62.5 62.5H62.5C27.3 875 0 847.7 0 812.5v-625C0 152.3 27.3 125 62.5 125H500zm31.3 687.5v-625c0 -17.6 -13.7 -31.2 -31.3 -31.2H62.5c-17.6 0 -31.2 13.6 -31.2 31.2v625c0 17.6 13.6 31.3 31.2 31.3H500c17.6 0 31.3 -13.7 31.3 -31.3zM93.8 468.8h93.7V500h-125V375h31.3v93.8zm0 156.2h93.7v31.3h-125v-125h31.3V625zm0 156.3h93.7v31.2h-125v-125h31.3v93.8zM250 468.8h93.8V500h-125V375H250v93.8zm156.3 0H500V500H375V375h31.3v93.8zM250 625h93.8v31.3h-125v-125H250V625zm0 156.3h93.8v31.2h-125v-125H250v93.8zm156.3 0H500v31.2H375V531.3h31.3v250z"/></svg>