<svg height="1000" width="812.5" xmlns="http://www.w3.org/2000/svg"><path d="M435.5 127c209 15.6 373.1 207 377 435.5h-3.9c-11.7 -44.9 -48.8 -78.1 -95.7 -78.1 -44.9 0 -85.9 33.2 -97.7 78.1h-9.7c-11.7 -44.9 -50.8 -78.1 -95.7 -78.1 -37.1 0 -68.4 21.5 -86 52.7v291c0 43 -35.1 78.2 -78.1 78.2s-78.1 -35.2 -78.1 -78.2c0 -7.8 7.8 -15.6 15.6 -15.6s15.6 7.8 15.6 15.6c0 25.4 21.5 46.9 46.9 46.9s46.9 -21.5 46.9 -46.9V535.2c-17.6 -31.3 -50.8 -50.8 -86 -50.8 -44.9 0 -85.9 33.2 -97.6 78.1h-9.8c-11.7 -44.9 -50.8 -78.1 -95.7 -78.1S17.6 517.6 5.9 562.5H0v-2C0 330.1 166 142.6 377 127v-2c0 -17.6 13.6 -31.2 29.3 -31.2s29.2 13.6 29.2 31.2v2z"/></svg>