<svg height="1000" width="625" xmlns="http://www.w3.org/2000/svg"><path d="M625 312.5c0 64.5 -46.9 117.2 -109.4 125 0 54.7 -25.4 101.6 -70.3 136.7C398.4 609.4 339.8 627 298.8 634.8c-66.4 11.7 -101.5 48.8 -115.2 68.3 39.1 21.5 66.4 62.5 66.4 109.4 0 68.4 -56.6 125 -125 125S0 880.9 0 812.5C0 750 46.9 697.3 107.4 689.5v-379C46.9 302.7 0 250 0 187.5c0 -68.4 56.6 -125 125 -125s125 56.6 125 125c0 64.5 -48.8 117.2 -111.3 125v375c5.8 0 9.7 2 15.6 3.9 15.6 -21.5 56.6 -72.3 140.6 -87.9C332 597.7 384.8 582 425.8 550.8c39 -29.3 58.6 -68.4 58.6 -113.3C421.9 429.7 375 377 375 312.5c0 -68.4 56.6 -125 125 -125s125 56.6 125 125zM31.3 187.5c0 50.8 42.9 93.8 93.7 93.8s93.8 -43 93.8 -93.8S175.8 93.8 125 93.8s-93.7 42.9 -93.7 93.7zm187.5 625c0 -50.8 -43 -93.7 -93.8 -93.7s-93.7 42.9 -93.7 93.7 42.9 93.8 93.7 93.8 93.8 -43 93.8 -93.8zM500 406.3c50.8 0 93.8 -43 93.8 -93.8s-43 -93.7 -93.8 -93.7 -93.7 42.9 -93.7 93.7 42.9 93.8 93.7 93.8z"/></svg>