<svg height="1000" width="812.5" xmlns="http://www.w3.org/2000/svg"><path d="M738.3 263.7c46.9 66.4 74.2 148.4 74.2 236.3 0 224.6 -179.7 406.3 -404.3 406.3S0 724.6 0 500 183.6 93.8 408.2 93.8c87.9 0 168 27.3 234.4 74.2 11.7 -9.8 25.4 -15.7 41 -15.7 37.1 0 68.4 31.3 68.4 68.4 0 15.6 -4 31.3 -13.7 43zm-66.4 501.9C707 730.5 732.4 689.5 752 644.5c19.5 -46.8 29.3 -93.7 29.3 -144.5S771.5 400.4 752 353.5c-9.8 -25.4 -23.5 -48.8 -39.1 -70.3 -9.8 3.9 -19.5 5.9 -29.3 5.9 -37.1 0 -68.4 -31.3 -68.4 -68.4 0 -9.8 3.9 -21.5 7.8 -29.3 -21.4 -15.6 -44.9 -29.3 -70.3 -39.1C505.9 132.8 457 125 406.3 125s-99.7 7.8 -146.5 27.3c-45 19.6 -84 46.9 -119.2 82.1S80.1 308.6 60.5 353.5C41 400.4 31.3 449.2 31.3 500s9.7 97.7 29.2 144.5c19.6 45 45 86 80.1 121.1s74.2 60.6 119.2 80.1c46.8 19.5 95.7 29.3 146.5 29.3s99.6 -9.8 146.4 -29.3c45 -19.5 84 -44.9 119.2 -80.1zM406.3 312.5c103.5 0 187.5 84 187.5 187.5s-84 187.5 -187.5 187.5S218.8 603.5 218.8 500 302.7 312.5 406.3 312.5z"/></svg>