<svg height="1000" width="562.5" xmlns="http://www.w3.org/2000/svg"><path d="M531.3 125c9.7 0 31.2 0 31.2 21.5v712.9c0 7.8 -7.8 15.6 -15.6 15.6s-15.6 -7.8 -15.6 -15.6V605.5C513.7 603.5 502 593.8 502 593.8s-62.5 -45 -62.5 -156.3C439.5 275.4 482.4 125 531.3 125zm0 33.2c-5.9 5.9 -21.5 29.3 -37.2 84 -15.6 56.6 -23.4 126.9 -23.4 195.3 0 27.3 3.9 68.4 25.4 103.5 9.8 15.6 19.5 23.5 21.5 25.4 3.9 3.9 11.7 5.9 13.7 5.9V158.2zM359.4 125s46.9 209 46.9 250 -25.4 76.2 -62.5 87.9c-5.9 1.9 -15.7 3.9 -15.7 3.9v392.6c0 7.8 -7.8 15.6 -15.6 15.6s-15.6 -7.8 -15.6 -15.6V466.8s-5.9 0 -15.6 -3.9C244.1 451.2 218.8 416 218.8 375s46.8 -250 46.8 -250h15.7l-19.6 203.1c0 7.8 7.8 13.7 15.6 13.7S293 335.9 293 328.1L304.7 125h15.6L332 328.1c0 7.8 7.8 13.7 15.7 13.7s15.6 -5.9 15.6 -13.7L343.8 125h15.6zm-46.9 310.5c56.6 0 62.5 -50.7 62.5 -60.5v-9.8c-7.8 5.9 -17.6 7.8 -27.3 7.8 -13.7 0 -23.5 -5.8 -35.2 -5.8S291 373 277.3 373c-9.7 0 -19.5 -1.9 -27.3 -7.8v7.8c0 9.8 5.9 62.5 62.5 62.5zM93.8 125c50.7 0 93.7 125 93.7 250 0 35.2 -19.5 66.4 -46.9 82 -21.5 11.8 -31.2 11.8 -31.2 11.8v390.6c0 7.8 -7.8 15.6 -15.6 15.6S78.1 867.2 78.1 859.4V468.8s-11.7 0 -33.2 -13.7C17.6 439.5 0 408.2 0 375 0 250 43 125 93.8 125zM125 429.7c19.5 -9.8 31.3 -33.2 31.3 -54.7 0 -58.6 -9.8 -115.2 -25.4 -160.2 -9.8 -25.3 -19.6 -41 -25.4 -48.8s-11.7 -9.7 -11.7 -9.7S87.9 158.2 82 166s-15.6 23.5 -25.4 48.8C41 259.8 31.3 318.4 31.3 375c0 21.5 11.7 41 29.2 52.7l2 2c2 0 3.9 1.9 5.9 1.9s3.9 2 5.8 2c5.9 1.9 13.7 3.9 19.6 3.9s13.6 -2 19.5 -3.9c1.9 -2 5.8 -2 7.8 -2s1.9 -1.9 3.9 -1.9z"/></svg>