<svg height="1000" width="812.5" xmlns="http://www.w3.org/2000/svg"><path d="M693.4 212.9c158.2 158.2 158.2 416 0 574.2s-416.1 158.2 -574.3 0 -158.2 -416 0 -574.2 416.1 -158.2 574.3 0zm-550.8 23.4c-86 86 -121.1 203.2 -105.5 314.5l13.7 13.7c5.8 3.9 37.1 35.1 78.1 29.3 23.4 -4 52.7 -50.8 74.2 -82.1 7.8 -11.7 17.6 -23.4 23.5 -31.2 33.2 -41 66.4 -45 87.9 -41 46.8 5.8 87.8 52.7 105.4 95.7 13.7 35.1 35.2 56.6 62.5 58.6 29.3 1.9 60.6 -19.6 84 -58.6 2 -3.9 5.9 -7.9 7.8 -13.7 19.6 -33.2 46.9 -84 101.6 -84 56.6 0 97.6 58.6 103.5 68.4 2 -97.7 -35.2 -195.4 -109.4 -269.6C525.4 91.8 287.1 91.8 142.6 236.3z"/></svg>