<svg height="1000" width="500" xmlns="http://www.w3.org/2000/svg"><path d="M308.6 968.8c-11.7 0 -23.4 -5.9 -31.3 -13.7 -5.8 -5.9 -13.6 -15.6 -13.6 -35.2V685.5h-27.4v234.4c0 19.6 -7.8 31.3 -13.6 37.1 -7.9 7.8 -19.6 11.8 -31.3 11.8S166 964.8 158.2 957c-5.9 -5.8 -13.7 -17.5 -13.7 -37.1V685.5H58.6l85.9 -332h-11.7L84 529.3c-7.8 25.4 -25.4 35.2 -41 35.2 -13.7 0 -25.4 -5.9 -33.2 -17.6C0 535.2 -2 517.6 2 500L58.6 296.9c7.8 -29.3 41 -74.2 95.7 -76.2h191.4c54.7 2 87.9 50.8 95.7 76.2L498 502c4 17.5 2 35.1 -7.8 46.8 -7.8 9.8 -21.4 15.7 -33.2 15.7 -15.6 0 -33.2 -9.8 -41 -35.2L369.1 353.5h-15.6l87.9 332h-87.9v234.4c0 19.6 -7.8 29.3 -13.7 35.2 -7.8 7.8 -19.5 13.7 -31.2 13.7zM207 656.3h87.9v263.6c0 13.7 5.9 17.6 13.7 17.6s15.6 -3.9 15.6 -17.6V656.3h78.1l-89.8 -334h80.1l52.7 199.2c2 7.8 5.9 11.7 11.7 11.7 3.9 0 7.8 0 9.8 -3.9 3.9 -3.9 3.9 -11.7 2 -19.5L412.1 306.6C406.3 291 384.8 253.9 345.7 252H156.3c-43 1.9 -62.5 41 -66.5 54.6L33.2 509.8c-1.9 7.8 -1.9 15.6 2 19.5 1.9 3.9 3.9 3.9 7.8 3.9 5.8 0 9.7 -3.9 11.7 -11.7l54.7 -199.2h76.1l-85.9 334h76.2v263.6c0 17.6 13.7 17.6 15.6 17.6s15.6 0 15.6 -17.6V656.3zM250 207c-46.9 0 -85.9 -39 -85.9 -87.9s39 -87.8 85.9 -87.8 85.9 39 85.9 87.8S296.9 207 250 207zm0 -144.5c-31.2 0 -54.7 25.4 -54.7 56.6s23.5 56.7 54.7 56.7 54.7 -25.4 54.7 -56.7S281.3 62.5 250 62.5z"/></svg>