<svg height="1000" width="750" xmlns="http://www.w3.org/2000/svg"><path d="M523.4 320.3c11.8 11.7 11.8 31.3 0 43l-68.3 70.3c-5.9 5.9 -17.6 5.9 -23.5 0s-5.8 -17.6 0 -23.4l52.8 -50.8H140.6c-29.3 0 -56.6 9.7 -78.1 31.2s-31.2 48.9 -31.2 78.2v46.8H0v-46.8C0 390.6 62.5 328.1 140.6 328.1h347.7l-52.8 -50.8c-5.8 -5.8 -5.8 -17.5 0 -23.4 4 -3.9 7.9 -3.9 11.8 -3.9s7.8 0 11.7 3.9zm195.4 164.1H750v46.9c0 78.1 -62.5 140.6 -140.6 140.6H261.7l52.8 50.8c5.8 5.8 5.8 17.5 0 23.4 -4 3.9 -7.9 3.9 -11.8 3.9s-7.8 0 -11.7 -3.9l-64.4 -66.4c-11.8 -11.7 -11.8 -31.3 0 -43l68.3 -70.3c5.9 -5.9 17.6 -5.9 23.5 0s5.8 17.6 0 23.4l-52.8 50.8h343.8c29.3 0 56.6 -9.7 78.1 -31.2s31.3 -48.9 31.3 -78.1v-46.9z"/></svg>