<svg height="1000" width="812.5" xmlns="http://www.w3.org/2000/svg"><path d="M406.3 125c-50.8 0 -99.7 9.8 -146.5 29.3 -45 19.5 -84 44.9 -119.2 80.1S80.1 308.6 60.5 353.5C41 400.4 31.3 449.2 31.3 500s9.7 99.6 29.2 146.5c19.6 44.9 45 84 80.1 119.1s74.2 60.6 119.2 80.1c46.8 19.5 95.7 29.3 146.5 29.3s99.6 -9.8 146.4 -29.3c45 -19.5 84 -44.9 119.2 -80.1S732.4 691.4 752 646.5c19.5 -46.9 29.3 -95.7 29.3 -146.5S771.5 400.4 752 353.5c-19.6 -44.9 -45 -84 -80.1 -119.1S597.7 173.8 552.7 154.3C505.9 134.8 457 125 406.3 125zm0 -31.2c224.6 0 406.2 181.6 406.2 406.2S630.9 906.3 406.3 906.3 0 724.6 0 500 181.6 93.8 406.3 93.8zM500 437.5c0 -25.4 21.5 -46.9 46.9 -46.9s46.9 21.5 46.9 46.9 -21.5 46.9 -46.9 46.9S500 462.9 500 437.5zm-281.2 0c0 -25.4 21.4 -46.9 46.8 -46.9s46.9 21.5 46.9 46.9 -21.5 46.9 -46.9 46.9 -46.8 -21.5 -46.8 -46.9zm187.5 283.2c-93.8 0 -171.9 -68.4 -187.5 -158.2h375C578.1 652.3 500 720.7 406.3 720.7z"/></svg>