<svg height="1000" width="812.5" xmlns="http://www.w3.org/2000/svg"><path d="M406.3 93.8c224.6 0 406.2 181.6 406.2 406.2S630.9 906.3 406.3 906.3 0 724.6 0 500 181.6 93.8 406.3 93.8zm0 33.2C201.2 127 33.2 294.9 33.2 500c0 91.8 33.2 173.8 87.9 238.3 35.2 -15.6 121.1 -44.9 175.8 -60.6 3.9 -1.9 5.8 -1.9 5.8 -21.4 0 -21.5 -1.9 -35.2 -7.8 -46.9 -7.8 -15.6 -13.6 -39.1 -17.6 -60.6 -7.8 -9.7 -19.5 -29.3 -27.3 -64.4 -5.9 -31.3 -3.9 -43 0 -54.7 0 -2 2 -2 2 -3.9 1.9 -7.8 0 -44.9 -5.9 -74.2C242.2 332 248 285.2 275.4 250c17.6 -23.4 52.7 -50.8 113.3 -54.7h33.2c62.5 3.9 97.6 31.3 115.2 54.7 27.4 35.2 33.2 82 29.3 101.6 -5.9 29.3 -7.8 66.4 -5.9 74.2v3.9c4 11.7 7.9 23.4 2 54.7 -7.8 35.1 -19.5 54.7 -27.3 64.4 -3.9 21.5 -9.8 45 -17.6 60.6 -5.9 13.6 -13.7 31.2 -13.7 46.9 0 19.5 2 17.5 5.9 19.5 52.7 15.6 142.5 46.9 181.6 62.5C746.1 673.8 779.3 591.8 779.3 500c0 -205.1 -168 -373 -373 -373zM142.6 763.7C210.9 830.1 304.7 873 406.3 873S601.6 830.1 668 763.7C625 746.1 546.9 720.7 500 707c-15.6 -5.8 -23.4 -17.5 -25.4 -25.4s-1.9 -13.6 -1.9 -25.3c0 -21.5 7.8 -45 15.6 -60.6 5.8 -11.7 13.7 -31.2 15.6 -50.8l2 -9.7 5.8 -7.9c3.9 -3.9 13.7 -17.5 19.6 -48.8 3.9 -25.4 1.9 -31.2 0 -37.1 0 -1.9 -2 -3.9 -2 -7.8 -3.9 -15.6 2 -62.5 5.9 -87.9 1.9 -11.7 0 -46.9 -23.5 -76.2 -13.7 -17.5 -39 -39 -89.8 -42.9h-33.2c-48.9 3.9 -76.2 25.4 -89.9 42.9 -23.4 29.3 -25.4 64.5 -23.4 76.2 3.9 25.4 9.8 72.3 5.9 87.9v1.9c0 2 -2 4 -2 5.9 -2 5.9 -3.9 11.7 2 37.1 5.8 31.3 15.6 44.9 19.5 48.8l5.8 7.9v9.7c2 19.6 9.8 41 15.7 52.8 7.8 15.6 9.7 33.2 9.7 58.6 0 11.7 2 19.5 0 25.3 -1.9 7.9 -9.7 19.6 -25.4 25.4h-1.9c-46.9 13.7 -123.1 41 -162.1 56.7z"/></svg>