<svg height="1000" width="750" xmlns="http://www.w3.org/2000/svg"><path d="M625 437.5c68.4 0 125 56.6 125 125s-56.6 125 -125 125c-64.5 0 -115.2 -48.8 -123 -109.4h-2c-21.5 0 -64.5 -1.9 -119.1 -23.4C314.5 529.3 222.7 470.7 138.7 341.8v345.7c62.5 7.8 111.3 60.5 111.3 125 0 68.4 -56.6 125 -125 125S0 880.9 0 812.5C0 750 46.9 697.3 107.4 689.5v-379C46.9 302.7 0 250 0 187.5c0 -68.4 56.6 -125 125 -125s125 56.6 125 125c0 58.6 -39.1 107.4 -93.7 121.1 82 134.8 171.8 191.4 236.3 216.8 50.8 19.5 89.8 21.5 107.4 21.5 7.8 -62.5 60.5 -109.4 125 -109.4zM31.3 187.5c0 50.8 42.9 93.8 93.7 93.8s93.8 -43 93.8 -93.8S175.8 93.8 125 93.8s-93.7 42.9 -93.7 93.7zm187.5 625c0 -50.8 -43 -93.7 -93.8 -93.7s-93.7 42.9 -93.7 93.7 42.9 93.8 93.7 93.8 93.8 -43 93.8 -93.8zM625 656.3c50.8 0 93.8 -43 93.8 -93.8s-43 -93.7 -93.8 -93.7 -93.7 42.9 -93.7 93.7 42.9 93.8 93.7 93.8z"/></svg>