<svg height="1000" width="750" xmlns="http://www.w3.org/2000/svg"><path d="M457 906.3c-74.2 0 -158.2 -7.9 -220.7 -15.7C193.4 884.8 169.9 877 146.5 867.2 115.2 855.5 85.9 843.8 15.6 843.8 7.8 843.8 0 835.9 0 828.1s7.8 -15.6 15.6 -15.6c76.2 0 107.4 13.7 140.7 25.4 23.4 7.8 44.9 17.6 83.9 21.5 95.7 11.7 216.8 21.5 322.3 7.8 72.3 -9.8 111.3 -23.4 123 -52.7 4 -9.8 -1.9 -21.5 -5.8 -31.3 -3.9 -7.8 -5.9 -13.7 -5.9 -19.5 0 -11.7 7.8 -17.6 17.6 -25.4 11.7 -9.8 27.4 -23.5 27.4 -41s-7.9 -27.4 -17.6 -39.1c-7.8 -7.8 -15.7 -17.6 -15.7 -29.3s5.9 -19.5 9.8 -25.4c5.9 -7.8 13.7 -17.6 13.7 -41 0 -17.6 -7.8 -25.4 -17.6 -33.2s-27.3 -23.4 -11.7 -46.9c13.7 -19.5 3.9 -42.9 -5.9 -54.7S658.2 412.1 609.4 416c-33.2 2 -107.4 13.7 -154.3 21.5 -21.5 3.9 -39.1 5.9 -44.9 5.9 -9.8 0 -21.5 1.9 -33.2 -2 -15.7 -3.9 -27.4 -13.7 -31.3 -31.2 -3.9 -15.7 2 -29.3 11.7 -46.9 7.8 -15.6 15.6 -35.2 25.4 -64.5C396.5 252 402.3 181.6 380.9 142.6 375 132.8 367.2 127 355.5 125s-21.5 2 -23.5 3.9c-3.9 3.9 -7.8 23.4 -11.7 39.1 -5.8 25.4 -13.7 64.4 -25.4 87.9C279.3 291 226.6 339.8 175.8 384.8c-7.8 7.8 -15.6 13.6 -19.5 17.5 -13.7 13.7 -31.3 37.2 -45 58.6C99.6 478.5 89.8 492.2 82 500c-17.5 17.6 -44.9 31.3 -66.4 31.3C7.8 531.3 0 523.4 0 515.6S7.8 500 15.6 500c11.7 0 29.3 -7.8 43 -21.5 5.9 -5.8 17.6 -19.5 27.3 -35.1 15.7 -23.5 33.2 -48.9 50.8 -64.5 3.9 -3.9 11.7 -9.8 19.6 -17.6C189.5 332 252 275.4 267.6 242.2c9.7 -21.5 17.6 -58.6 23.4 -82 7.8 -29.3 11.7 -43 17.6 -50.8C318.4 97.7 334 93.8 357.4 93.8s39.1 13.6 50.8 33.2c23.4 41 25.4 115.2 5.9 179.6 -9.8 33.2 -21.5 54.7 -29.3 70.4 -5.9 11.7 -9.8 21.4 -9.8 25.3 2 9.8 7.8 11.8 33.2 9.8 5.9 0 21.5 -1.9 41 -5.8 48.8 -7.9 121.1 -19.6 156.3 -21.5 50.8 -3.9 72.2 -2 91.8 21.5s29.3 62.5 7.8 93.7l5.8 5.9c11.8 9.7 29.3 25.4 29.3 56.6 0 35.2 -11.7 50.8 -19.5 60.5 -1.9 2 -3.9 4 -3.9 5.9 2 2 5.9 5.9 7.8 9.8 9.8 11.7 25.4 29.3 25.4 58.6 0 33.2 -25.4 52.7 -39.1 64.4l-3.9 3.9v3.9c5.9 11.8 15.7 35.2 5.9 56.7C691.4 877 627 890.6 566.4 898.4c-31.2 3.9 -70.3 7.9 -109.4 7.9z"/></svg>