<svg height="1000" width="781.3" xmlns="http://www.w3.org/2000/svg"><path d="M578.1 843.8s70.3 42.9 156.3 62.5c-64.5 0 -103.5 -17.6 -156.3 -31.3 -42.9 19.5 -130.8 31.3 -187.5 31.3S248 892.6 203.1 875c-52.7 13.7 -93.7 31.3 -156.2 31.3 87.9 -19.6 156.2 -62.5 156.2 -62.5C253.9 861.3 332 875 390.6 875s136.7 -13.7 187.5 -31.2zM761.7 513.7c11.7 5.8 19.6 17.6 19.6 31.2 0 3.9 0 9.8 -2 13.7L671.9 843.8c-54.7 0 -111.4 -37.2 -111.4 -37.2C525.4 824.2 457 839.8 406.3 843.8H375c-50.8 -4 -119.1 -19.6 -154.3 -37.2 0 0 -56.6 37.2 -111.3 37.2L2 558.6C0 554.7 0 548.8 0 544.9c0 -13.6 7.8 -25.4 19.5 -31.2L390.6 343.8l371.1 169.9zm-457 48.8c13.7 0 23.4 -19.5 23.4 -43s-9.7 -42.9 -23.4 -42.9 -23.4 19.5 -23.4 42.9 9.7 43 23.4 43zm171.9 0c13.6 0 23.4 -19.5 23.4 -43s-9.8 -42.9 -23.4 -42.9 -23.5 19.5 -23.5 42.9 9.8 43 23.5 43zM656.3 248l39 203.2L627 421.9 595.7 250c-5.9 -21.5 -15.6 -31.2 -33.2 -31.2H216.8c-17.6 0 -27.3 9.7 -31.3 31.2l-31.2 171.9 -68.4 29.3L125 248c9.8 -50.7 33.2 -91.7 78.1 -91.7h66.4l15.7 -62.5h208.9l15.7 62.5h68.3c43 0 66.4 39 78.2 91.7z"/></svg>