<svg height="1000" width="500" xmlns="http://www.w3.org/2000/svg"><path d="M468.8 218.8c11.7 -2 21.4 -2 31.2 -4V552.7c-9.8 2 -19.5 2 -31.2 3.9 -21.5 2 -46.9 5.9 -76.2 5.9 -48.8 0 -91.8 -7.8 -134.8 -17.6s-82 -25.4 -125 -25.4c-58.6 0 -89.8 9.8 -101.5 13.7v279.3H0V214.8L5.9 209C9.8 207 41 187.5 132.8 187.5c46.9 0 87.9 7.8 130.9 17.6 41 7.8 82 21.5 126.9 21.5 29.3 0 56.7 -5.9 78.2 -7.8zm0 306.6V250c-21.5 2 -48.9 7.8 -78.2 7.8 -48.8 0 -89.8 -11.7 -132.8 -21.5s-82 -17.5 -125 -17.5c-58.6 0 -89.8 9.7 -101.5 13.6V500C50.8 494.1 82 488.3 132.8 488.3c46.9 0 87.9 15.6 130.9 25.4 41 7.8 84 17.6 128.9 17.6 29.3 0 54.7 -4 76.2 -5.9z"/></svg>