<svg height="1000" width="812.5" xmlns="http://www.w3.org/2000/svg"><path d="M656.3 718.8c17.5 0 31.2 13.6 31.2 31.2s-13.7 31.3 -31.2 31.3S625 767.6 625 750s13.7 -31.2 31.3 -31.2zm-80.1 -293c130.8 0 236.3 105.5 236.3 238.3S707 906.3 576.2 906.3 337.9 796.9 337.9 664.1c0 -35.2 7.8 -68.4 21.5 -99.6 -5.9 -9.8 -19.6 -21.5 -21.5 -33.2 -2 -9.8 5.9 -17.6 3.9 -27.4s-31.3 -35.1 -35.2 -39.1 -21.4 0 -25.3 -3.9 -31.3 -29.3 -35.2 -39c-5.9 -15.6 1.9 -29.3 -9.8 -43 -11.7 -15.6 -23.4 -19.5 -41 -19.5 -13.7 0 -21.5 -5.9 -31.2 -15.6C152.3 332 152.3 320.3 152.3 304.7s-7.8 -21.5 -17.5 -31.3 -17.6 -19.5 -29.3 -27.3S78.1 248 68.4 238.3C56.6 226.6 31.3 205.1 2 175.8 -7.8 166 27.3 127 41 113.3c9.8 -7.8 25.4 -19.5 43 -19.5 9.8 0 19.5 3.9 29.3 13.6 19.5 21.5 287.1 242.2 388.7 326.2 23.4 -7.8 48.8 -7.8 74.2 -7.8zm80.1 386.7c35.1 0 62.5 -27.3 62.5 -62.5s-27.4 -62.5 -62.5 -62.5 -62.5 27.3 -62.5 62.5 27.3 62.5 62.5 62.5z"/></svg>