<svg height="1000" width="875" xmlns="http://www.w3.org/2000/svg"><path d="M500 158.2c87.9 7.8 171.9 44.9 234.4 107.4 70.3 70.3 109.4 166 109.4 265.7 0 50.7 -9.8 99.6 -29.3 146.4 -19.6 45 -45 84 -80.1 119.2S660.2 857.4 615.2 877c-46.8 19.5 -95.7 29.3 -146.4 29.3 -80.1 0 -158.3 -25.4 -222.7 -72.3C214.8 810.5 189.5 783.2 166 752c-15.6 -21.5 -29.3 -45 -41 -70.4l351.6 -87.8 23.4 -7.9V158.2zM468.8 125C693.4 125 875 306.6 875 531.3S693.4 937.5 468.8 937.5C289.1 937.5 134.8 820.3 82 658.2l386.8 -95.7V125zM406.3 93.8c-60.6 1.9 -117.2 13.6 -166.1 35.1 -46.8 21.5 -85.9 50.8 -119.1 89.9C64.5 285.2 31.3 375 31.3 466.8c0 25.4 5.8 89.8 23.4 136.7l351.6 -89.8V93.8zm31.2 -31.3v476.6L37.1 640.6C0 578.1 0 466.8 0 466.8 0 289.1 113.3 62.5 425.8 62.5h11.7z"/></svg>