<svg height="1000" width="750" xmlns="http://www.w3.org/2000/svg"><path d="M187.5 781.3c25.4 0 46.9 21.4 46.9 46.8S212.9 875 187.5 875s-46.9 -21.5 -46.9 -46.9 21.5 -46.8 46.9 -46.8zm0 62.5c7.8 0 15.6 -7.9 15.6 -15.7s-7.8 -15.6 -15.6 -15.6 -15.6 7.8 -15.6 15.6 7.8 15.7 15.6 15.7zM625 781.3c25.4 0 46.9 21.4 46.9 46.8S650.4 875 625 875s-46.9 -21.5 -46.9 -46.9 21.5 -46.8 46.9 -46.8zm0 62.5c7.8 0 15.6 -7.9 15.6 -15.7S632.8 812.5 625 812.5s-15.6 7.8 -15.6 15.6 7.8 15.7 15.6 15.7zM750 250l-31.2 250 -529.3 93.8 9.7 58.5c13.7 66.5 41 66.5 50.8 66.5h468.8V750H250c-21.5 0 -41 -9.8 -54.7 -27.3C183.6 707 173.8 685.5 169.9 658.2l-84 -457C82 185.5 80.1 177.7 72.3 169.9 60.5 160.2 37.1 156.3 0 156.3V125c44.9 0 74.2 7.8 91.8 21.5 13.7 11.7 19.5 27.3 23.4 41zm-56.6 222.7l21.4 -193.4L121.1 218.8l62.5 343.7z"/></svg>