<svg height="1000" width="812.5" xmlns="http://www.w3.org/2000/svg"><path d="M576.2 425.8c130.8 0 236.3 105.5 236.3 238.3S707 906.3 576.2 906.3 337.9 796.9 337.9 664.1c0 -35.2 7.8 -68.4 21.5 -99.6 -5.9 -9.8 -19.6 -21.5 -21.5 -33.2 -2 -9.8 5.9 -17.6 3.9 -27.4s-31.3 -35.1 -35.2 -39.1 -21.4 0 -25.3 -3.9 -31.3 -29.3 -35.2 -39c-5.9 -15.6 1.9 -29.3 -9.8 -43 -11.7 -15.6 -23.4 -19.5 -41 -19.5 -13.7 0 -21.5 -5.9 -31.2 -15.6C152.3 332 152.3 320.3 152.3 304.7s-7.8 -21.5 -17.5 -31.3 -17.6 -19.5 -29.3 -27.3S78.1 248 68.4 238.3C56.6 226.6 31.3 205.1 2 175.8 -7.8 166 27.3 127 41 113.3c9.8 -7.8 25.4 -19.5 43 -19.5 9.8 0 19.5 3.9 29.3 13.6 19.5 21.5 287.1 242.2 388.7 326.2 23.4 -7.8 48.8 -7.8 74.2 -7.8zm0 449.2c113.3 0 205.1 -95.7 205.1 -210.9 0 -56.7 -21.5 -107.5 -60.6 -146.5S630.9 457 576.2 457c-23.5 0 -44.9 0 -64.5 5.9l-17.6 5.9L482.4 457C345.7 343.8 111.3 150.4 91.8 128.9 87.9 125 85.9 125 84 125c-5.9 0 -15.6 3.9 -21.5 9.8 -2 1.9 -3.9 5.8 -5.9 7.8 -5.8 5.8 -19.5 15.6 -21.4 21.5L78.1 209H84c9.8 0 23.4 0 39 9.8l37.2 37.1c9.7 9.7 23.4 21.4 23.4 48.8 0 13.7 0 13.7 3.9 17.6 3.9 5.8 3.9 5.8 7.8 5.8 27.4 0 46.9 9.8 64.5 31.3 13.6 15.6 13.6 33.2 13.6 42.9 0 2 2 5.9 2 7.9 1.9 3.9 9.8 13.6 15.6 19.5s23.5 0 33.2 9.8 43 50.7 48.8 58.5 -5.8 27.4 0 33.3 21.5 31.2 21.5 31.2l-7.8 15.6c-11.7 27.4 -17.6 56.7 -17.6 86 0 117.2 93.8 210.9 207.1 210.9zm80.1 -187.5c35.1 0 62.5 27.3 62.5 62.5s-27.4 62.5 -62.5 62.5S593.8 785.2 593.8 750s27.3 -62.5 62.5 -62.5zm0 93.8c17.5 0 31.2 -13.7 31.2 -31.3s-13.7 -31.2 -31.2 -31.2S625 732.4 625 750s13.7 31.3 31.3 31.3z"/></svg>