<svg height="1000" width="812.5" xmlns="http://www.w3.org/2000/svg"><path d="M406.3 93.8c224.6 0 406.2 181.6 406.2 406.2S630.9 906.3 406.3 906.3 0 724.6 0 500 181.6 93.8 406.3 93.8zM199.2 293c-3.9 3.9 168 234.3 168 234.3l1.9 2c9.8 11.7 21.5 19.5 37.2 19.5 27.3 0 48.8 -21.5 48.8 -48.8 0 -13.7 -5.9 -25.4 -15.6 -35.2l-5.9 -5.8S205.1 289.1 199.2 293zm207.1 580c207 0 375 -166 375 -373s-168 -375 -375 -375v187.5h31.2V160.2c171.9 17.5 308.6 164 308.6 339.8 0 187.5 -152.3 339.8 -339.8 339.8S64.5 687.5 64.5 500c0 -93.7 37.1 -179.7 99.6 -242.2l-21.5 -23.4C74.2 302.7 33.2 396.5 33.2 500c0 207 166 373 373.1 373z"/></svg>