<svg height="1000" width="750" xmlns="http://www.w3.org/2000/svg"><path d="M373 687.5l-31.2 152.3v7.9c0 7.8 2 15.6 7.8 19.5 5.9 5.8 13.7 7.8 23.4 7.8 15.7 0 31.3 -7.8 31.3 -27.3 0 -2 -2 -5.9 -2 -7.9v-1.9L373 691.4v-3.9zm0 -31.2c15.7 0 29.3 13.6 31.3 29.2L433.6 832c1.9 5.9 1.9 9.8 1.9 15.7 0 35.1 -27.3 58.6 -62.5 58.6s-62.5 -23.5 -62.5 -58.6c0 -3.9 2 -9.8 2 -13.7l29.3 -154.3c3.9 -13.7 15.6 -23.4 31.2 -23.4zm99.7 37.1zm52.7 19.5l60.5 82v2l3.9 3.9s4 3.9 9.8 3.9 11.7 -2 13.7 -3.9c3.9 -3.9 3.9 -9.8 3.9 -15.6 0 -3.9 -2 -5.9 -2 -5.9l-3.9 -2c-1.9 0 -1.9 -3.9 -1.9 -3.9h-2l-1.9 -1.9zm-33.2 -56.6c5.8 0 9.8 1.9 15.6 5.8l117.2 84c3.9 1.9 5.9 5.9 9.8 7.8 17.5 15.6 19.5 48.8 0 68.4 -9.8 9.7 -23.5 13.6 -35.2 13.6 -13.7 0 -25.4 -3.9 -33.2 -13.6 -1.9 -2 -3.9 -3.9 -5.9 -7.8L472.7 693.4c-5.9 -9.8 -3.9 -21.5 3.9 -29.3 3.9 -3.9 9.7 -7.8 15.6 -7.8zm109.4 -2zm-455.1 0zm78.1 58.6l-80.1 58.6 -1.9 1.9h-2c-1.9 0 -3.9 3.9 -3.9 3.9 -5.8 5.9 -5.8 17.6 0 23.5 3.9 3.9 7.8 3.9 11.7 3.9s7.9 0 11.8 -3.9l3.9 -3.9v-2zm33.2 -56.6c5.9 0 11.7 3.9 15.6 7.8 7.9 7.8 9.8 19.5 3.9 29.3l-87.8 121.1c-2 3.9 -4 5.8 -5.9 7.8 -9.8 9.7 -23.4 13.6 -35.2 13.6S125 832 115.2 822.3c-19.5 -19.6 -19.5 -48.9 0 -68.4 3.9 -3.9 5.9 -5.9 9.8 -7.8l117.2 -84c3.9 -3.9 9.8 -5.8 15.6 -5.8zM419.9 132.8c-7.8 80.1 -68.3 136.7 -123 187.5 -46.9 43 -89.9 84 -97.7 132.8 -5.8 44.9 3.9 80.1 31.3 109.4 5.8 5.9 9.7 13.7 15.6 17.6 37.1 -74.2 107.4 -115.3 166 -148.5 17.6 -9.7 35.2 -17.5 48.8 -27.3 33.2 -21.5 56.7 -43 68.4 -66.4 11.7 -19.5 15.6 -39.1 15.6 -66.4 0 -48.8 -35.1 -84 -64.4 -105.5 -19.6 -15.6 -43 -27.3 -60.6 -33.2zm-31.2 -39c46.8 0 187.5 64.4 187.5 177.7 0 58.6 -19.6 107.4 -99.6 158.2 -72.3 46.9 -181.7 84 -212.9 195.3 0 0 -113.3 -44.9 -93.8 -177.7S412.1 252 388.7 93.8zm181.6 289c9.8 27.4 13.7 95.7 3.9 125C543 599.6 488.3 625 418 625c-29.3 0 -68.4 -23.4 -89.9 -54.7 7.8 -7.8 13.7 -11.7 21.5 -19.5 0 0 5.9 7.8 21.5 21.5s37.1 21.5 48.8 21.5c31.3 0 54.7 -5.9 74.2 -19.6 21.5 -15.6 39.1 -41 50.8 -78.1 2 -5.9 5.9 -21.5 3.9 -39.1s-3.9 -39 -3.9 -39c9.8 -11.7 19.6 -23.5 25.4 -35.2zM240.2 152.3c25.4 0 58.6 15.7 78.2 50.8 -3.9 9.8 -15.7 25.4 -15.7 25.4 -5.8 -9.7 -11.7 -15.6 -17.5 -23.4s-13.7 -9.8 -19.6 -13.7c-1.9 -1.9 -3.9 -1.9 -5.8 -3.9 -7.8 25.4 -23.5 46.9 -37.1 62.5 -9.8 11.7 -19.6 21.5 -21.5 29.3s1.9 25.4 9.7 33.2c0 0 -11.7 13.7 -19.5 23.4C179.7 328.1 168 304.7 169.9 279.3c3.9 -41 66.4 -70.3 62.5 -127h7.8zm-95.7 502L25.4 679.7C13.7 681.6 2 675.8 0 664.1s5.9 -21.5 17.6 -23.5l1.9 -1.9L138.7 625c7.8 0 15.6 5.9 17.6 13.7 0 7.8 -4 13.6 -11.8 15.6zm461 0c-7.8 -2 -11.7 -7.8 -11.7 -15.6 1.9 -7.8 9.7 -13.7 17.5 -13.7l119.2 13.7 1.9 1.9c11.7 2 19.6 11.7 17.6 23.5s-13.7 17.5 -25.4 15.6z"/></svg>