<svg height="1000" width="812.5" xmlns="http://www.w3.org/2000/svg"><path d="M435.5 127c209 15.6 373.1 207 377 435.5h-3.9c-11.7 -44.9 -48.8 -78.1 -95.7 -78.1 -44.9 0 -85.9 33.2 -97.7 78.1h-9.7c-11.7 -44.9 -50.8 -78.1 -95.7 -78.1 -37.1 0 -68.4 21.5 -86 52.7v291c0 43 -35.1 78.2 -78.1 78.2s-78.1 -35.2 -78.1 -78.2c0 -7.8 7.8 -15.6 15.6 -15.6s15.6 7.8 15.6 15.6c0 25.4 21.5 46.9 46.9 46.9s46.9 -21.5 46.9 -46.9V535.2c-17.6 -31.3 -50.8 -50.8 -86 -50.8 -44.9 0 -85.9 33.2 -97.6 78.1h-9.8c-11.7 -44.9 -50.8 -78.1 -95.7 -78.1S17.6 517.6 5.9 562.5H0v-2C0 330.1 166 142.6 377 127v-2c0 -17.6 13.6 -31.2 29.3 -31.2s29.2 13.6 29.2 31.2v2zm277.4 326.1c19.5 0 39.1 3.9 56.6 13.7 -15.6 -66.4 -46.8 -127 -89.8 -177.7C615.2 212.9 527.3 166 433.6 158.2c0 0 -11.7 -1.9 -27.3 -1.9s-27.4 1.9 -27.4 1.9C285.2 166 197.3 209 132.8 283.2 85.9 335.9 56.6 398.4 41 468.8c19.5 -9.8 39.1 -15.7 62.5 -15.7 41 0 78.1 19.6 101.6 50.8 23.4 -31.2 60.5 -50.8 101.5 -50.8s78.2 19.6 101.6 50.8c23.4 -31.2 60.6 -50.8 101.6 -50.8s78.1 19.6 101.5 50.8c23.5 -31.2 60.6 -50.8 101.6 -50.8z"/></svg>