<svg height="1000" width="375" xmlns="http://www.w3.org/2000/svg"><path d="M279.3 585.9C335.9 617.2 375 679.7 375 750c0 103.5 -84 187.5 -187.5 187.5S0 853.5 0 750C0 679.7 39.1 617.2 95.7 585.9V152.3c0 -50.7 41 -89.8 91.8 -89.8s91.8 39.1 91.8 89.8v433.6zM187.5 875c68.4 0 125 -56.6 125 -125 0 -58.6 -41 -107.4 -93.7 -121.1V281.3c0 -17.6 -13.7 -31.3 -31.3 -31.3s-31.2 13.7 -31.2 31.3v347.6C101.6 642.6 62.5 691.4 62.5 750c0 68.4 56.6 125 125 125zM93.8 750c0 -52.7 41 -93.7 93.7 -93.7s93.8 41 93.8 93.7 -41.1 93.8 -93.8 93.8S93.8 802.7 93.8 750z"/></svg>