<svg height="1000" width="750" xmlns="http://www.w3.org/2000/svg"><path d="M750 697.3c0 33.2 -25.4 52.7 -39.1 64.4l-3.9 3.9c0 2 2 2 2 3.9 5.8 11.8 15.6 35.2 5.8 56.7C693.4 877 627 890.6 566.4 898.4c-33.2 3.9 -70.3 7.9 -109.4 7.9 -74.2 0 -158.2 -7.9 -220.7 -15.7C193.4 884.8 169.9 877 146.5 867.2 115.2 855.5 85.9 843.8 15.6 843.8 7.8 843.8 0 835.9 0 828.1V515.6C0 507.8 7.8 500 15.6 500c11.7 0 29.3 -7.8 43 -21.5 5.9 -5.8 17.6 -19.5 27.3 -35.1 15.7 -23.5 33.2 -48.9 50.8 -64.5 3.9 -3.9 11.7 -9.8 19.6 -17.6C189.5 332 252 277.3 267.6 244.1c9.7 -21.4 17.6 -58.6 23.4 -82 7.8 -29.3 11.7 -44.9 17.6 -52.7C318.4 97.7 334 93.8 357.4 93.8s39.1 13.6 50.8 33.2c23.4 41 25.4 115.2 5.9 179.6 -9.8 33.2 -21.5 54.7 -29.3 70.4 -5.9 11.7 -9.8 21.4 -9.8 25.3 2 9.8 7.8 11.8 33.2 9.8 5.9 0 21.5 -1.9 41 -5.8 48.8 -7.9 121.1 -19.6 156.3 -21.5 50.8 -3.9 72.2 0 91.8 23.4s29.3 60.6 7.8 91.8l5.8 5.9c11.8 9.7 29.3 25.4 29.3 56.6 0 35.2 -11.7 50.8 -19.5 60.5 -1.9 2 -3.9 4 -3.9 5.9 2 2 5.9 5.9 7.8 9.8 9.8 11.7 25.4 29.3 25.4 58.6z"/></svg>