<svg height="1000" width="875" xmlns="http://www.w3.org/2000/svg"><path d="M437.5 125C679.7 125 875 320.3 875 562.5c0 111.3 -41 210.9 -109.4 289.1 -7.8 7.8 -13.6 15.6 -21.5 23.4l-19.5 -19.5 -1.9 -3.9c-37.2 -35.2 -80.1 -64.5 -127 -84C544.9 746.1 492.2 736.3 437.5 736.3s-107.4 9.8 -158.2 31.3c-46.9 19.5 -89.8 48.8 -127 84l-1.9 3.9L130.9 875c-7.9 -7.8 -13.7 -15.6 -21.5 -23.4C41 773.4 0 673.8 0 562.5 0 320.3 195.3 125 437.5 125zm375 595.7C832 675.8 841.8 627 843.8 578.1h-62.5v-31.2h62.5C841.8 498 832 449.2 812.5 404.3c-17.6 -43 -44.9 -82 -76.2 -117.2l-52.7 52.7 -11.7 -11.7 -9.8 -9.7h-1.9l52.7 -52.8C677.7 232.4 638.7 205.1 595.7 187.5 550.8 168 502 158.2 451.2 156.3v74.2h-31.3v-74.2c-48.8 1.9 -95.7 11.7 -140.6 31.2 -43 19.5 -84 44.9 -119.1 78.1l52.7 52.8 -11.7 11.7 -9.8 9.7 -52.7 -52.7c-31.3 35.2 -58.6 74.2 -76.2 117.2C43 449.2 33.2 500 31.3 548.8h62.5v31.3H31.3c1.9 48.8 11.7 95.7 31.2 140.6 17.6 39.1 39.1 76.2 68.4 109.4C209 752 318.4 705.1 437.5 705.1S666 752 744.1 830.1c29.3 -33.2 50.8 -70.3 68.4 -109.4zM656.3 341.8l3.9 2 -146.5 164c11.7 15.6 17.6 35.2 17.6 54.7 0 50.8 -43 93.8 -93.8 93.8 -19.5 0 -37.1 -7.9 -52.7 -17.6l-25.4 23.4 -21.5 -21.5 23.4 -23.4C349.6 601.6 343.8 582 343.8 562.5c0 -50.8 42.9 -93.7 93.7 -93.7 19.5 0 37.1 5.8 52.7 15.6zM437.5 625c35.2 0 62.5 -27.3 62.5 -62.5S472.7 500 437.5 500 375 527.3 375 562.5s27.3 62.5 62.5 62.5z"/></svg>