<svg height="1000" width="812.5" xmlns="http://www.w3.org/2000/svg"><path d="M625 531.3c103.5 0 187.5 83.9 187.5 187.5S728.5 906.3 625 906.3H187.5C84 906.3 0 822.3 0 718.8S84 531.3 187.5 531.3H625zM187.5 843.8c68.4 0 125 -56.7 125 -125s-56.6 -125 -125 -125 -125 56.6 -125 125 56.6 125 125 125zm0 -375C84 468.8 0 384.8 0 281.3S84 93.8 187.5 93.8H625c103.5 0 187.5 83.9 187.5 187.5S728.5 468.8 625 468.8H187.5zM625 156.3c-68.4 0 -125 56.6 -125 125s56.6 125 125 125 125 -56.7 125 -125 -56.6 -125 -125 -125z"/></svg>