<svg height="1000" width="750" xmlns="http://www.w3.org/2000/svg"><path d="M714.8 679.7c23.5 21.5 27.4 68.3 0 93.7C638.7 839.8 531.3 875 423.8 875h-1.9C314.5 875 205.1 839.8 123 767.6 -41 623 -41 386.7 123 242.2 210.9 164.1 322.3 125 431.6 125c93.8 0 183.6 29.3 250 87.9 89.9 80.1 89.9 210.9 0 291L623 556.6c-27.3 25.4 -27.3 60.6 0 86 13.7 11.7 21.5 15.6 45 19.5 15.6 2 33.2 5.9 46.8 17.6zM109.4 421.9c0 35.1 27.3 62.5 62.5 62.5s62.5 -27.4 62.5 -62.5S207 359.4 171.9 359.4s-62.5 27.3 -62.5 62.5zM187.5 668c35.2 0 62.5 -27.4 62.5 -62.5S222.7 543 187.5 543 125 570.3 125 605.5s27.3 62.5 62.5 62.5zm125 -314.5c35.2 0 62.5 -27.3 62.5 -62.5s-27.3 -62.5 -62.5 -62.5S250 255.9 250 291s27.3 62.5 62.5 62.5zm140.6 427.8c50.8 0 93.8 -43 93.8 -93.8s-43 -93.7 -93.8 -93.7 -93.7 42.9 -93.7 93.7 42.9 93.8 93.7 93.8zM500 375c35.2 0 62.5 -27.3 62.5 -62.5S535.2 250 500 250s-62.5 27.3 -62.5 62.5S464.8 375 500 375z"/></svg>