<svg height="1000" width="812.5" xmlns="http://www.w3.org/2000/svg"><path d="M406.3 93.8c224.6 0 406.2 181.6 406.2 406.2S630.9 906.3 406.3 906.3 0 724.6 0 500 181.6 93.8 406.3 93.8zm373 406.2c0 -107.4 -46.9 -205.1 -121.1 -273.4C630.9 293 597.7 353.5 556.6 412.1c29.3 23.4 60.6 41 95.7 56.7 41.1 17.5 84 27.3 127 31.2zM634.8 205.1C572.3 156.3 492.2 127 406.3 127c3.9 42.9 11.7 85.9 29.2 126.9 19.6 48.8 50.8 91.8 87.9 128.9 3.9 2 3.9 5.9 7.9 7.8C570.3 334 605.5 273.4 632.8 209c0 -2 2 -2 2 -3.9zM375 128.9c-99.6 7.8 -187.5 56.6 -250 127 125 54.6 236.3 134.7 330.1 232.4 21.5 -23.5 41 -46.9 58.6 -72.3C435.5 343.8 382.8 242.2 375 128.9zm80.1 406.3c-29.3 31.2 -60.6 58.6 -93.8 85.9 54.7 68.4 87.9 154.3 91.8 248 64.5 -7.8 123.1 -33.2 171.9 -68.3C582 703.1 525.4 615.2 455.1 535.2zM418 527.3l15.6 -15.6 -19.5 -19.5C324.2 402.3 220.7 332 105.5 281.3 70.3 330.1 44.9 388.7 37.1 453.1c121.1 5.9 226.6 60.6 302.7 144.6 27.4 -21.5 52.8 -45 78.2 -70.4zM35.2 484.4c0 5.8 -2 9.7 -2 15.6 0 87.9 31.3 169.9 84 234.4 70.3 -31.3 138.7 -70.3 199.2 -117.2l-13.7 -13.7c-37.1 -37.1 -80 -68.3 -128.9 -87.9C130.9 498 84 486.3 35.2 484.4zm103.5 275.4C207 830.1 300.8 873 406.3 873c5.8 0 9.7 -1.9 15.6 -1.9 -2 -48.8 -11.7 -93.8 -31.3 -138.7C377 699.2 357.4 668 335.9 640.6 275.4 687.5 209 728.5 138.7 759.8zm511.7 21.5c72.3 -62.5 119.1 -150.4 126.9 -250C687.5 525.4 603.5 490.2 537.1 437.5c-19.5 25.4 -39.1 50.8 -60.5 74.2 70.3 80.1 130.8 169.9 173.8 269.6z"/></svg>