<svg height="1000" width="812.5" xmlns="http://www.w3.org/2000/svg"><path d="M54.7 365.2c0 66.4 43 130.9 97.6 162.1l-19.5 -5.8C91.8 509.8 29.3 453.1 21.5 394.5 9.8 394.5 0 380.9 0 365.2s7.8 -27.3 19.5 -29.3C31.3 259.8 91.8 199.2 148.4 199.2h13.7C97.7 226.6 54.7 291 54.7 365.2zM668 125c-15.7 0 -25.4 5.9 -33.2 9.8l-2 1.9c-43 25.4 -97.6 48.8 -158.2 66.4C416 220.7 359.4 230.5 316.4 230.5H199.2c-23.4 11.7 -41 29.3 -56.6 50.8 -15.6 25.3 -25.4 54.6 -25.4 83.9 0 52.8 27.3 103.6 72.3 128.9l1.9 2 2 1.9c3.9 4 19.5 7.9 29.3 9.8 11.7 3.9 25.3 5.9 37.1 11.7 21.5 11.8 31.2 29.3 27.3 50.8 0 3.9 -1.9 13.7 -3.9 25.4 -11.7 58.6 -37.1 193.4 -41 220.7 -3.9 29.3 -2 33.2 1.9 39.1 3.9 1.9 13.7 5.8 37.2 11.7 19.5 3.9 42.9 7.8 56.6 7.8h5.9c0 -2 3.9 -5.9 3.9 -11.7 1.9 -9.8 0 -23.5 0 -43 0 -15.6 -2 -41 -3.9 -68.3C335.9 648.4 330.1 580.1 359.4 548.8c9.7 -9.7 23.4 -15.6 37.1 -15.6 84 0 148.4 25.4 209 48.8 11.7 3.9 23.4 9.8 35.1 13.7 15.7 5.9 21.5 7.8 27.4 7.8s23.4 -1.9 46.8 -25.4c15.7 -15.6 25.4 -33.2 35.2 -54.7 2 -3.9 3.9 -9.7 5.9 -13.6 15.6 -41 25.4 -93.8 25.4 -148.5S771.5 253.9 755.9 212.9c-2 -3.9 -3.9 -9.8 -5.9 -13.7 -9.8 -21.5 -21.5 -39 -35.2 -52.7C699.2 132.8 685.5 125 668 125zm0 -31.2c25.4 0 48.8 9.7 68.3 29.2 15.7 15.7 31.3 37.2 43 62.5 2 4 3.9 9.8 5.9 15.7 17.5 44.9 27.3 101.5 27.3 160.1s-9.8 113.3 -27.3 158.2c-2 5.9 -3.9 9.8 -5.9 15.7 -11.7 25.3 -25.4 46.8 -43 64.4 -31.2 31.3 -54.7 35.2 -66.4 35.2s-23.4 -3.9 -41 -9.8C554.7 597.7 490.2 562.5 396.5 562.5c-50.8 0 -15.6 189.5 -15.6 257.8s-7.9 86 -43 86S234.4 890.6 220.7 875 209 847.7 212.9 812.5s41 -222.7 44.9 -248 -60.5 -23.5 -84 -43C121.1 490.2 85.9 431.6 85.9 365.2c0 -74.2 45 -138.6 107.5 -166h125s216.8 -39 300.7 -89.8C627 103.5 640.6 93.8 668 93.8zm-9.8 93.7c-1.9 0 -11.7 5.9 -23.4 33.2 -15.7 35.2 -25.4 85.9 -25.4 140.6s9.7 105.5 25.4 140.7c11.7 25.3 21.5 37.1 25.4 39 5.8 -1.9 19.5 -15.6 29.3 -39 7.8 -19.6 29.3 -74.3 29.3 -140.7 0 -68.3 -21.5 -121.1 -29.3 -140.6 -11.8 -25.4 -27.4 -33.2 -31.3 -33.2zm0 -31.2c19.5 0 46.9 19.5 60.6 50.7 17.5 37.1 31.2 93.8 31.2 154.3s-15.6 115.3 -31.2 152.4c-13.7 31.2 -41.1 58.6 -60.6 58.6s-39.1 -27.4 -52.7 -58.6C589.8 476.6 578.1 421.9 578.1 361.3S589.8 244.1 605.5 207c13.6 -31.2 33.2 -50.7 52.7 -50.7z"/></svg>