<svg height="1000" width="812.5" xmlns="http://www.w3.org/2000/svg"><path d="M693.4 212.9c158.2 158.2 158.2 416 0 574.2s-416.1 158.2 -574.3 0 -158.2 -416 0 -574.2 416.1 -158.2 574.3 0zM406.3 156.3c-7.9 0 -15.7 7.8 -15.7 15.6s7.8 15.6 15.7 15.6 15.6 -7.8 15.6 -15.6 -7.8 -15.6 -15.6 -15.6zM109.4 328.1c-3.9 7.8 -2 17.6 5.8 21.5s15.7 2 19.6 -5.8 3.9 -17.6 -3.9 -21.5 -17.6 -2 -21.5 5.8zM78.1 515.6c7.8 0 15.7 -7.8 15.7 -15.6S85.9 484.4 78.1 484.4 62.5 492.2 62.5 500s7.8 15.6 15.6 15.6zm52.8 162.1c7.8 -3.9 7.8 -13.6 3.9 -21.4s-11.8 -9.8 -19.6 -5.9 -9.7 13.7 -5.8 21.5 13.6 9.7 21.5 5.8zm125 115.3c3.9 -7.8 1.9 -17.6 -5.9 -21.5s-17.6 -2 -21.5 5.8 -1.9 15.7 5.9 19.6 17.6 3.9 21.5 -3.9zM250 228.5c7.8 -3.9 9.8 -13.7 5.9 -21.5s-13.7 -7.8 -21.5 -3.9 -9.8 11.7 -5.9 19.6 13.7 9.7 21.5 5.8zm156.3 615.3c7.8 0 15.6 -7.9 15.6 -15.7s-7.8 -15.6 -15.6 -15.6 -15.7 7.8 -15.7 15.6 7.8 15.7 15.7 15.7zm15.6 -316.5c15.6 -7.8 19.5 -27.3 11.7 -42.9 -5.9 -9.8 -17.6 -15.6 -27.3 -15.6L347.7 359.4c-3.9 -7.8 -13.7 -7.8 -21.5 -3.9s-7.8 13.6 -3.9 21.5l56.6 107.4c-5.9 9.7 -5.9 21.5 0 31.2 3.9 3.9 7.8 9.8 11.7 11.7V750c0 7.8 7.8 15.6 15.7 15.6s15.6 -7.8 15.6 -15.6V527.3zm156.2 269.6c7.8 -3.9 9.8 -11.7 5.9 -19.6s-13.7 -9.7 -21.5 -5.8 -9.8 13.7 -5.9 21.5 13.7 7.8 21.5 3.9zM584 222.7c3.9 -7.9 1.9 -15.7 -5.9 -19.6s-17.6 -3.9 -21.5 3.9 -1.9 17.6 5.9 21.5 17.6 2 21.5 -5.8zm119.1 449.2c3.9 -7.8 3.9 -17.6 -3.9 -21.5s-17.6 -2 -21.5 5.9 -1.9 17.5 5.9 21.4 15.6 2 19.5 -5.8zm-3.9 -322.3c7.8 -3.9 7.8 -13.7 3.9 -21.5s-11.7 -9.7 -19.5 -5.8 -9.8 13.6 -5.9 21.5 13.7 9.7 21.5 5.8zm35.2 166c7.8 0 15.6 -7.8 15.6 -15.6s-7.8 -15.6 -15.6 -15.6 -15.6 7.8 -15.6 15.6 7.8 15.6 15.6 15.6z"/></svg>