<svg height="1000" width="625" xmlns="http://www.w3.org/2000/svg"><path d="M605.5 93.8c11.7 -2 19.5 7.8 19.5 15.6v589.8c0 41 -17.6 74.2 -52.7 93.8 -25.4 15.6 -56.7 19.5 -76.2 19.5h-7.8c-31.3 -3.9 -82 -25.4 -82 -91.8 0 -72.3 78.1 -91.8 125 -101.6 9.7 -1.9 19.5 -3.9 25.3 -5.8 15.7 -3.9 27.4 -13.7 33.2 -25.4 4 -7.8 4 -17.6 4 -25.4V287.1l-375 76.2V791c0 50.8 -25.4 80.1 -46.9 93.8 -29.3 19.5 -62.5 21.5 -76.2 21.5 -5.9 0 -9.8 -2 -13.7 -2C44.9 900.4 0 873 0 812.5 0 740.2 78.1 720.7 125 710.9c9.8 -1.9 21.5 -3.9 27.3 -5.8 15.7 -3.9 25.4 -13.7 31.3 -25.4 3.9 -7.8 3.9 -19.5 3.9 -23.4V187.5c0 -7.8 7.8 -13.7 15.6 -15.6S595.7 95.7 605.5 93.8zM187.5 791v-70.3c-7.8 5.9 -15.6 9.8 -27.3 13.7 -7.9 1.9 -15.7 5.8 -27.4 7.8C80.1 753.9 31.3 767.6 31.3 812.5c0 19.5 5.8 35.2 19.5 46.9S82 875 85.9 875h9.8c7.8 0 35.2 -2 58.6 -17.6 21.5 -13.6 33.2 -35.1 33.2 -66.4zm406.3 -91.8v-70.3c-7.9 5.9 -15.7 9.8 -27.4 13.7 -7.8 1.9 -15.6 5.8 -27.3 7.8 -52.8 11.7 -101.6 25.4 -101.6 70.3 0 52.7 43 60.6 52.7 60.6h5.9c15.6 0 41 -4 60.5 -15.7C582 752 593.8 730.5 593.8 699.2zm0 -443.3v-127l-375 72.3v128.9z"/></svg>