<svg height="1000" width="375" xmlns="http://www.w3.org/2000/svg"><path d="M359.4 375c9.7 0 15.6 5.9 15.6 15.6v306.7C375 794.9 293 875 199.2 875h-23.4C130.9 875 87.9 855.5 52.7 822.3 17.6 787.1 0 742.2 0 697.3V265.6C0 187.5 62.5 125 140.6 125s140.7 62.5 140.7 140.6v418c0 58.6 -41.1 97.7 -93.8 97.7S91.8 740.2 91.8 683.6V453.1c0 -9.7 7.8 -15.6 17.6 -15.6s15.6 5.9 15.6 15.6v230.5c0 33.2 29.3 66.4 62.5 66.4S248 716.8 248 683.6v-418C248 205.1 201.2 158.2 140.6 158.2S31.3 205.1 31.3 265.6v431.7c0 76.1 66.4 146.5 144.5 146.5h23.4c37.1 0 74.2 -17.6 101.6 -45 25.4 -27.3 41 -64.4 41 -101.5V390.6c0 -9.7 7.8 -15.6 17.6 -15.6z"/></svg>