<svg height="1000" width="531.3" xmlns="http://www.w3.org/2000/svg"><path d="M419.9 539.1v1.9 -1.9zm0 -7.8v1.9 -1.9zm-308.6 -7.9c0 89.9 68.4 164.1 154.3 164.1 17.6 0 35.2 -3.9 50.8 -9.8 -15.6 5.9 -33.2 9.8 -50.8 9.8 -85.9 0 -154.3 -74.2 -154.3 -164.1zm154.3 132.9c11.7 0 23.5 -2 35.2 -5.9l15.6 27.3c-15.6 5.9 -33.2 9.8 -50.8 9.8 -85.9 0 -154.3 -74.2 -154.3 -164.1V328.1l31.3 52.8v142.5c0 72.3 54.7 132.9 123 132.9zM419.9 523.4v7.9 -7.9zm0 9.8v7.8 -7.8zm-29.3 85.9C406.3 595.7 416 570.3 419.9 541c-3.9 29.3 -13.6 54.7 -29.3 78.1zM265.6 93.8c86 0 154.3 74.2 154.3 164V541c-3.9 29.3 -13.6 54.7 -29.3 78.1L373 587.9c9.8 -19.5 15.7 -41 15.7 -64.5V255.9C388.7 183.6 334 125 265.6 125c-52.7 0 -97.6 35.2 -115.2 84l-19.5 -33.2c27.3 -48.8 76.1 -82 134.7 -82zM281.3 748c23.4 -1.9 44.9 -5.8 66.4 -13.6l15.6 25.4c-25.4 11.7 -52.8 17.5 -82 19.5V875h140.6v31.3H107.4V875H252v-95.7C121.1 769.5 15.6 662.1 15.6 531.3v-125h31.3v125c0 54.6 21.5 107.4 60.5 148.4s86 64.4 142.6 68.3l15.6 2zM515.6 531.3c0 68.3 -29.3 130.8 -74.2 175.7l-15.6 -27.3h1.9c37.1 -41 56.7 -93.8 56.7 -148.4v-125h31.2v125zM27.3 62.5l504 859.4 -27.4 15.6L0 78.1z"/></svg>