<svg height="1000" width="750" xmlns="http://www.w3.org/2000/svg"><path d="M554.7 125C662.1 125 750 175.8 750 279.3V832h-43C673.8 773.4 621.1 750 554.7 750c-78.1 0 -144.5 54.7 -160.2 125h-39C339.8 804.7 273.4 750 195.3 750 128.9 750 68.4 781.3 43 832H0V279.3C0 175.8 87.9 125 195.3 125c80.1 0 152.4 27.3 179.7 85.9C398.4 152.3 474.6 125 554.7 125zM359.4 802.7V277.3c-2 -83.9 -76.2 -121 -164.1 -121 -85.9 0 -158.2 37.1 -164 119.1v513.7h1.9C70.3 738.3 127 718.8 195.3 718.8s128.9 33.2 164.1 83.9zM718.8 289.1V259.8C712.9 177.7 640.6 156.3 554.7 156.3c-89.9 0 -164.1 39 -164.1 125v521.4c35.2 -50.7 95.7 -83.9 164.1 -83.9s128.9 19.5 164.1 70.3v-500z"/></svg>