<svg height="1000" width="750" xmlns="http://www.w3.org/2000/svg"><path d="M431.6 156.3c-105.4 0 -210.9 39 -289 109.3C105.5 298.8 78.1 334 58.6 377 41 418 31.3 460.9 31.3 503.9s7.8 85.9 27.3 127c19.5 42.9 46.9 80 84 113.2 37.1 31.3 80.1 56.7 128.9 74.3 46.9 15.6 99.6 25.4 150.4 25.4h1.9c103.5 0 203.2 -33.3 271.5 -93.8 7.8 -5.9 7.8 -15.6 7.8 -21.5 0 -9.7 -3.9 -19.5 -9.7 -25.4s-17.6 -7.8 -29.3 -9.7h-2c-27.3 -3.9 -43 -11.8 -60.5 -27.4C582 648.4 570.3 625 570.3 599.6s11.7 -48.8 31.3 -66.4l60.5 -52.7c37.1 -33.2 56.7 -74.2 56.7 -121.1S699.2 269.5 662.1 236.3c-58.6 -50.8 -140.6 -80 -230.5 -80zm0 -31.3c93.8 0 183.6 29.3 250 87.9 89.9 80.1 89.9 210.9 0 291L623 556.6c-27.3 25.4 -27.3 60.6 0 86 13.7 11.7 19.6 15.6 43 19.5 15.6 2 35.2 5.9 48.8 17.6 23.5 21.5 27.4 68.3 0 93.7C638.7 839.8 531.3 875 423.8 875h-1.9C314.5 875 205.1 839.8 123 767.6 -41 623 -41 386.7 123 242.2 210.9 164.1 322.3 125 431.6 125zM500 281.3c-17.6 0 -31.2 13.6 -31.2 31.2s13.6 31.3 31.2 31.3 31.3 -13.7 31.3 -31.3S517.6 281.3 500 281.3zm0 -31.3c35.2 0 62.5 27.3 62.5 62.5S535.2 375 500 375s-62.5 -27.3 -62.5 -62.5S464.8 250 500 250zm-187.5 9.8c-17.6 0 -31.2 13.6 -31.2 31.2s13.6 31.3 31.2 31.3 31.3 -13.7 31.3 -31.3 -13.7 -31.2 -31.3 -31.2zm0 -31.3c35.2 0 62.5 27.4 62.5 62.5s-27.3 62.5 -62.5 62.5S250 326.2 250 291s27.3 -62.5 62.5 -62.5zM171.9 390.6c-17.6 0 -31.3 13.7 -31.3 31.3s13.7 31.2 31.3 31.2 31.2 -13.6 31.2 -31.2 -13.6 -31.3 -31.2 -31.3zm0 -31.2c35.1 0 62.5 27.3 62.5 62.5s-27.4 62.5 -62.5 62.5S109.4 457 109.4 421.9s27.3 -62.5 62.5 -62.5zm15.6 214.8c-17.6 0 -31.2 13.7 -31.2 31.3s13.6 31.2 31.2 31.2 31.3 -13.7 31.3 -31.2 -13.7 -31.3 -31.3 -31.3zm0 -31.2c35.2 0 62.5 27.3 62.5 62.5S222.7 668 187.5 668 125 640.6 125 605.5 152.3 543 187.5 543zm265.6 238.3c-50.8 0 -93.7 -43 -93.7 -93.8s42.9 -93.7 93.7 -93.7 93.8 42.9 93.8 93.7 -43 93.8 -93.8 93.8zm0 -156.3c-35.1 0 -62.5 27.3 -62.5 62.5S418 750 453.1 750s62.5 -27.3 62.5 -62.5S488.3 625 453.1 625z"/></svg>