<svg height="1000" width="875" xmlns="http://www.w3.org/2000/svg"><path d="M312.5 500c0 -68.4 56.6 -125 125 -125s125 56.6 125 125 -56.6 125 -125 125 -125 -56.6 -125 -125zm546.9 -15.6c7.8 0 15.6 7.8 15.6 15.6s-7.8 15.6 -15.6 15.6h-46.9C804.7 710.9 648.4 867.2 453.1 875v46.9c0 7.8 -7.8 15.6 -15.6 15.6s-15.6 -7.8 -15.6 -15.6V875C226.6 867.2 70.3 710.9 62.5 515.6H15.6C7.8 515.6 0 507.8 0 500s7.8 -15.6 15.6 -15.6h46.9C70.3 289.1 226.6 132.8 421.9 125V78.1c0 -7.8 7.8 -15.6 15.6 -15.6s15.6 7.8 15.6 15.6V125c195.3 7.8 351.6 164.1 359.4 359.4h46.9zM679.7 742.2c60.5 -60.6 97.6 -140.6 101.6 -226.6h-78.2c-7.8 0 -15.6 -7.8 -15.6 -15.6s7.8 -15.6 15.6 -15.6h78.2c-4 -86 -41.1 -166 -101.6 -226.6S539.1 160.2 453.1 156.3v78.1c0 7.8 -7.8 15.6 -15.6 15.6s-15.6 -7.8 -15.6 -15.6v-78.1c-86 3.9 -166 41 -226.6 101.5S97.7 398.4 93.8 484.4h78.1c7.8 0 15.6 7.8 15.6 15.6s-7.8 15.6 -15.6 15.6H93.8c3.9 86 41 166 101.5 226.6s140.6 97.6 226.6 101.6v-78.2c0 -7.8 7.8 -15.6 15.6 -15.6s15.6 7.8 15.6 15.6v78.2c86 -4 166 -41.1 226.6 -101.6z"/></svg>