<svg height="1000" width="562.5" xmlns="http://www.w3.org/2000/svg"><path d="M363.3 812.5l35.1 -9.8 105.5 103.6H459L425.8 875H136.7l-33.2 31.3H58.6L166 802.7l33.2 9.8L168 843.8h226.5zM439.5 125c68.3 0 123 54.7 123 123v437.5c0 68.4 -281.2 127 -281.2 127S0 753.9 0 685.5V248C0 179.7 58.6 125 127 125h29.3c0 -17.6 13.6 -31.2 31.2 -31.2H375c17.6 0 31.3 13.6 31.3 31.2h33.2zm-250 0v31.3H373V125H189.5zm91.8 593.8c50.7 0 93.7 -43 93.7 -93.8s-43 -93.7 -93.7 -93.7 -93.8 42.9 -93.8 93.7 43 93.8 93.8 93.8zM468.8 406.3v-125c0 -17.6 -13.7 -31.3 -31.3 -31.3H125c-17.6 0 -31.2 13.7 -31.2 31.3v125c0 17.5 13.6 31.2 31.2 31.2h312.5c17.6 0 31.3 -13.7 31.3 -31.2zM281.3 566.4c33.2 0 58.5 25.4 58.5 58.6s-25.3 58.6 -58.5 58.6S222.7 658.2 222.7 625s25.3 -58.6 58.6 -58.6z"/></svg>