<svg height="1000" width="625" xmlns="http://www.w3.org/2000/svg"><path d="M220.7 218.8H64.5c-17.6 0 -33.2 13.6 -33.2 29.2v312.5c0 17.6 15.6 33.3 33.2 33.3h152.3V625c0 68.4 -23.4 119.1 -48.8 156.3h37.1c5.8 -7.9 11.7 -17.6 19.5 -33.3C242.2 710.9 250 668 250 623V248c0 -17.5 -11.7 -29.2 -29.3 -29.2zm0 -31.3c35.2 0 60.6 25.4 60.6 60.5v375c0 123.1 -60.6 189.5 -60.6 189.5h-125S185.5 750 185.5 625h-121C29.3 625 0 595.7 0 560.5V248c0 -35.1 29.3 -60.5 64.5 -60.5h156.2zm343.8 31.3H408.2c-17.6 0 -33.2 13.6 -33.2 29.2v312.5c0 17.6 15.6 33.3 33.2 33.3H560.5V625c0 68.4 -23.4 119.1 -48.8 156.3h37.1c5.9 -7.9 11.7 -17.6 19.6 -33.3 17.5 -37.1 25.4 -80 25.4 -125V248c0 -17.5 -11.8 -29.2 -29.3 -29.2zm0 -31.3c35.1 0 60.5 25.4 60.5 60.5v375c0 123.1 -60.5 189.5 -60.5 189.5h-125S529.3 750 529.3 625H408.2c-35.2 0 -64.4 -29.3 -64.4 -64.5V248c0 -35.1 29.2 -60.5 64.4 -60.5h156.3z"/></svg>