<svg height="1000" width="750" xmlns="http://www.w3.org/2000/svg"><path d="M244.1 162.1c-9.7 3.9 -17.5 5.9 -25.3 9.8 5.8 48.8 -9.8 91.8 -45 126.9s-72.2 52.8 -113.3 52.8H48.8C44.9 359.4 41 367.2 37.1 377c43 31.2 66.4 76.1 66.4 123 0 29.3 -9.7 56.6 -25.4 82 -11.7 17.6 -25.4 35.2 -41 48.9 3.9 9.7 7.8 17.5 11.7 25.4h21.5c39.1 0 74.2 15.6 103.5 44.9 35.2 35.1 48.9 76.1 43 125 7.8 3.9 17.6 7.8 27.3 11.7 13.7 -15.6 29.3 -31.3 46.9 -43 25.4 -15.6 54.7 -23.4 84 -23.4s58.6 7.8 84 23.4c17.6 11.7 33.2 27.4 46.9 43 9.7 -3.9 17.5 -7.8 25.4 -11.7 -5.9 -48.9 9.7 -89.9 44.9 -125s72.2 -52.8 113.3 -52.8h11.7c3.9 -7.8 7.8 -17.5 11.7 -27.3C669.9 589.8 646.5 546.9 646.5 500s23.4 -89.8 66.4 -121.1c-3.9 -9.8 -7.8 -19.5 -11.7 -27.3h-11.7c-41.1 0 -78.2 -17.6 -113.3 -52.8s-48.9 -76.1 -43 -125c-7.8 -3.9 -17.6 -7.8 -27.3 -11.7 -13.7 15.6 -29.3 29.3 -46.9 41 -25.4 15.7 -54.7 25.4 -84 25.4s-58.6 -9.7 -84 -25.4a236.085 236.085 0 0 1 -46.9 -41zM375 718.8C253.9 718.8 156.3 621.1 156.3 500c0 -58.6 23.4 -113.3 64.4 -154.3S316.4 281.3 375 281.3s113.3 23.4 154.3 64.4 64.5 95.7 64.5 154.3 -23.5 113.3 -64.5 154.3S433.6 718.8 375 718.8zM492.2 125c25.4 7.8 52.7 19.5 76.2 31.3 -11.8 48.8 -3.9 87.8 29.3 121 25.3 25.4 56.6 43 91.8 43 9.7 0 19.5 -1.9 29.3 -3.9 11.7 23.4 23.4 48.8 31.2 74.2C707 416 677.7 453.1 677.7 500S707 584 750 609.4c-7.8 25.4 -19.5 50.8 -31.2 74.2 -9.8 -2 -19.6 -3.9 -29.3 -3.9 -35.2 0 -66.5 17.6 -91.8 43 -33.2 33.2 -43 72.2 -31.3 121.1C543 855.5 517.6 867.2 492.2 875 466.8 832 421.9 802.7 375 802.7S283.2 832 257.8 875c-25.4 -7.8 -52.7 -19.5 -76.2 -31.2 11.8 -48.9 3.9 -87.9 -29.3 -121.1 -23.4 -23.5 -50.7 -35.2 -82 -35.2 -11.7 0 -25.4 2 -39 5.9C19.5 669.9 7.8 642.6 0 617.2 43 591.8 72.3 546.9 72.3 500S43 416 0 390.6c7.8 -25.4 17.6 -50.8 31.3 -74.2 9.7 2 19.5 3.9 29.2 3.9 35.2 0 66.5 -17.6 91.8 -43 33.2 -33.2 41.1 -72.2 29.3 -121 23.5 -11.8 50.8 -23.5 76.2 -31.3 25.4 43 70.3 72.3 117.2 72.3S466.8 168 492.2 125zM375 687.5c103.5 0 187.5 -84 187.5 -187.5S478.5 312.5 375 312.5 187.5 396.5 187.5 500s84 187.5 187.5 187.5z"/></svg>