<svg height="1000" width="750" xmlns="http://www.w3.org/2000/svg"><path d="M0 302.7C0 269.5 25.4 250 39.1 238.3l3.9 -3.9c0 -2 -2 -2 -2 -3.9C35.2 218.8 25.4 195.3 35.2 173.8 56.6 123 123 109.4 183.6 101.6c33.2 -3.9 70.3 -7.8 109.4 -7.8 74.2 0 158.2 7.8 220.7 15.6 42.9 5.8 66.4 13.6 89.8 23.4 31.3 11.7 60.6 23.5 130.9 23.5 7.8 0 15.6 7.8 15.6 15.6v312.5c0 7.8 -7.8 15.6 -15.6 15.6 -11.7 0 -29.3 7.8 -43 21.5 -5.9 5.8 -17.6 19.5 -27.3 35.1 -15.7 23.5 -33.2 48.9 -50.8 64.5 -3.9 3.9 -11.7 9.8 -19.5 17.6C560.5 668 498 722.7 482.4 755.9c-9.7 21.4 -17.6 58.6 -23.4 82 -7.8 29.3 -11.7 44.9 -17.6 52.7 -9.8 11.7 -25.4 15.7 -48.8 15.7S353.5 892.6 341.8 873C318.4 832 316.4 757.8 335.9 693.4c9.8 -33.2 21.5 -54.7 29.3 -70.4 5.9 -11.7 9.8 -21.4 9.8 -25.3 -2 -9.8 -7.8 -11.8 -33.2 -9.8 -5.9 0 -21.5 1.9 -41 5.9 -48.8 7.8 -123.1 19.5 -158.2 21.4 -50.8 3.9 -70.3 0 -89.9 -23.4S23.4 531.3 44.9 500l-5.8 -5.9C27.3 484.4 9.8 468.8 9.8 437.5c0 -35.2 11.7 -50.8 19.5 -60.5 2 -2 3.9 -4 3.9 -5.9 -1.9 -2 -5.9 -5.9 -7.8 -9.8C15.6 349.6 0 332 0 302.7z"/></svg>