<svg height="1000" width="750" xmlns="http://www.w3.org/2000/svg"><path d="M718.8 156.3H31.3v687.5h687.5V156.3zM750 125v750H0V125h750zM250 328.1v-31.2h375v31.2H250zm0 187.5v-31.2h375v31.2H250zm0 187.5v-31.2h375v31.2H250zM125 312.5c0 -17.6 13.7 -31.2 31.3 -31.2s31.2 13.6 31.2 31.2 -13.7 31.3 -31.2 31.3S125 330.1 125 312.5zm0 187.5c0 -17.6 13.7 -31.2 31.3 -31.2s31.2 13.6 31.2 31.2 -13.7 31.3 -31.2 31.3S125 517.6 125 500zm0 187.5c0 -17.6 13.7 -31.2 31.3 -31.2s31.2 13.6 31.2 31.2 -13.7 31.3 -31.2 31.3S125 705.1 125 687.5z"/></svg>