<svg height="1000" width="750" xmlns="http://www.w3.org/2000/svg"><path d="M728.5 691.4c15.6 31.3 21.5 62.5 21.5 89.9 -2 70.3 -52.7 125 -123 125H127C56.6 906.3 2 851.6 0 781.3c0 -27.4 7.8 -58.6 23.4 -89.9L250 310.5V125h-31.2V93.8h218.7V125H281.3v62.5h62.5v31.3h-62.5v62.5H375v31.2h-93.7v5.9l-4 7.8L248 375h95.8v31.3H230.5L50.8 707c-25.4 48.9 -27.4 84 -3.9 123.1C62.5 857.4 91.8 875 127 875h500c33.2 0 64.4 -15.6 80 -43 7.8 -15.6 11.8 -33.2 11.8 -50.7 0 -23.5 -4 -48.9 -17.6 -74.3L474.6 326.2l-5.8 -7.8V93.8h62.5V125H500v185.5zm-642.6 9.8L226.6 468.8h298.8L666 701.2c13.7 21.5 19.5 44.9 19.5 64.4 -1.9 46.9 -31.2 78.2 -89.8 78.2H154.3c-58.6 0 -89.8 -23.5 -89.8 -78.2 0 -17.6 7.8 -44.9 21.4 -64.4zM507.8 500H244.1L113.3 716.8c-9.8 15.6 -17.6 37.1 -17.6 48.8 0 25.4 7.8 33.2 11.7 35.2 7.8 7.8 25.4 11.7 46.9 11.7h441.4c19.5 0 35.2 -5.9 44.9 -13.7 7.8 -7.8 13.7 -19.5 13.7 -35.1 0 -11.7 -5.9 -31.3 -15.6 -46.9z"/></svg>