<svg height="1000" width="875" xmlns="http://www.w3.org/2000/svg"><path d="M437.5 187.5c162.1 0 324.2 70.3 437.5 183.6l-72.3 76.2c-46.8 -46.9 -103.5 -84 -164 -109.4 -62.5 -27.4 -130.9 -41 -201.2 -41s-136.7 13.6 -201.2 41c-60.5 25.4 -117.2 62.5 -164 109.4L0 371.1C113.3 257.8 275.4 187.5 437.5 187.5zm0 220.7c111.3 0 212.9 44.9 287.1 117.2l-78.1 78.1c-56.7 -54.7 -130.9 -85.9 -209 -85.9s-152.3 31.2 -209 85.9l-78.1 -78.1C224.6 453.1 326.2 408.2 437.5 408.2zm0 218.8c50.8 0 95.7 23.4 125 60.5l-125 125 -125 -125c29.3 -37.1 74.2 -60.5 125 -60.5z"/></svg>