<svg height="1000" width="812.5" xmlns="http://www.w3.org/2000/svg"><path d="M406.3 93.8c224.6 0 406.2 181.6 406.2 406.2S630.9 906.3 406.3 906.3 0 724.6 0 500 181.6 93.8 406.3 93.8zm80 769.5c5.9 -2 9.8 -2 15.7 -3.9l46.8 -125 -39 -76.2v-1.9H302.7l-39 76.1 48.8 127c3.9 1.9 9.8 1.9 13.7 3.9 23.4 5.8 48.8 9.7 74.2 9.7 27.3 0 58.6 -3.9 85.9 -9.7zm-209 -712.9C207 177.7 144.5 224.6 101.6 285.2l42.9 125 9.8 3.9L250 459 388.7 341.8V228.5zm433.6 134.8C668 224.6 605.5 175.8 535.2 150.4l-113.3 78.1v113.3L560.5 459 666 412.1zm-675.7 248c5.8 66.4 29.3 128.9 64.4 179.7l136.7 1.9 41 -76.1 -39 -150.4 -2 -2 -95.7 -42.9zm541 181.6l136.7 -1.9C748 662.1 771.5 599.6 777.3 533.2L671.9 443.4l-97.7 44.9 -39 150.4z"/></svg>