<svg height="1000" width="750" xmlns="http://www.w3.org/2000/svg"><path d="M375 218.8c-189.5 0 -343.7 121 -343.7 269.5 0 50.8 19.5 99.6 52.7 142.6 0 1.9 0 3.9 1.9 5.8s3.9 2 3.9 3.9c7.9 11.7 11.8 25.4 11.8 39.1 0 5.8 1.9 5.8 -25.4 91.8l76.1 -33.2c4 -2 19.6 -7.8 21.5 -7.8h2c9.7 -3.9 19.5 -5.9 31.2 -5.9 9.8 0 17.6 2 27.4 3.9l1.9 2h3.9C277.3 742.2 320.3 750 377 750c93.7 0 179.6 -29.3 244.1 -78.1C683.6 623 718.8 558.6 718.8 488.3 718.8 339.8 564.5 218.8 375 218.8zm0 -31.3c207 0 375 134.8 375 300.8s-166 293 -373 293c-52.8 0 -101.6 -5.9 -146.5 -21.5h-3.9c-5.9 -2 -11.8 -3.9 -19.6 -3.9s-17.5 1.9 -23.4 3.9h1.9 -1.9c-2 0 -17.6 7.8 -19.5 7.8l-97.7 42.9 -3.9 2H50.8C39.1 810.5 35.2 800.8 37.1 793S70.3 681.6 70.3 679.7c0 -7.8 -1.9 -15.6 -5.8 -21.5l1.9 2 -7.8 -7.9C21.5 605.5 0 548.8 0 488.3 0 322.3 168 187.5 375 187.5z"/></svg>