<svg height="1000" width="875" xmlns="http://www.w3.org/2000/svg"><path d="M668 279.3c113.3 0 207 82 207 197.3 0 103.5 -76.2 193.3 -173.8 208.9L544.9 900.4c-3.9 3.9 -9.7 5.9 -13.6 5.9s-5.9 -2 -7.9 -4c-7.8 -3.9 -9.7 -11.7 -3.9 -19.5L660.2 689.5H541l-85.9 117.1c-3.9 3.9 -9.8 5.9 -13.7 5.9s-5.9 0 -7.8 -2c-7.8 -5.8 -9.8 -13.6 -3.9 -21.4L502 689.5H382.8L230.5 898.4c-3.9 3.9 -7.8 7.9 -15.7 7.9 -3.9 0 -5.8 0 -7.8 -2 -7.8 -5.9 -9.7 -13.7 -3.9 -21.5L343.8 689.5H224.6l-85.9 117.1c-3.9 3.9 -9.8 5.9 -13.7 5.9s-5.9 0 -7.8 -2c-7.8 -5.8 -9.8 -13.6 -3.9 -21.4l72.2 -99.6H166C74.2 689.5 0 607.4 0 515.6 0 429.7 66.4 355.5 148.4 343.8V334c0 -138.7 113.3 -240.2 250 -240.2s220.7 80 244.2 185.5H668zm25.4 377c83.9 -13.7 150.4 -91.8 150.4 -179.7 0 -46.9 -17.6 -87.9 -50.8 -119.2S714.8 310.5 668 310.5c0 0 -27.4 0 -50.8 2l-3.9 -25.4C603.5 240.2 578.1 199.2 543 171.9 505.9 140.6 455.1 125 398.4 125c-58.6 0 -113.2 19.5 -154.3 58.6S179.7 275.4 179.7 332v9.8l1.9 29.3 -27.3 3.9c-33.2 3.9 -64.5 19.5 -87.9 46.9s-35.1 58.6 -35.1 93.7c0 37.1 13.6 72.3 39 99.6s60.6 43 95.7 43h488.3s39.1 -1.9 39.1 -1.9z"/></svg>