<svg height="1000" width="625" xmlns="http://www.w3.org/2000/svg"><path d="M345.7 125c-19.5 0 -37.1 17.6 -37.1 37.1v289.1c0 7.8 -7.8 15.6 -15.6 15.6S277.3 459 277.3 451.2V224.6c0 -19.5 -17.5 -37.1 -37.1 -37.1s-37.1 17.6 -37.1 37.1v392.6l-48.8 -43C125 546.9 97.7 531.3 74.2 531.3c-11.7 0 -23.4 5.8 -35.1 15.6 -21.5 21.5 11.7 54.7 46.8 93.7 33.2 39.1 123.1 168 199.3 212.9 0 0 27.3 21.5 70.3 21.5H457c82.1 0 136.8 -70.3 136.8 -169.9v-418c0 -19.5 -17.6 -37.1 -37.2 -37.1s-37.1 17.6 -37.1 37.1v195.3c0 7.8 -7.8 15.6 -15.6 15.6s-15.6 -7.8 -15.6 -15.6v-289c0 -19.6 -17.6 -37.1 -37.1 -37.1s-37.1 17.5 -37.1 37.1v226.5c0 7.8 -7.8 15.6 -15.7 15.6s-15.6 -7.8 -15.6 -15.6V162.1c0 -19.5 -17.6 -37.1 -37.1 -37.1zm0 -31.2c29.3 0 54.7 19.5 64.5 44.9 11.7 -7.8 25.3 -13.7 41 -13.7 37.1 0 68.3 31.3 68.3 68.4v35.1c11.8 -7.8 23.5 -9.7 37.1 -9.7 37.2 0 68.4 31.2 68.4 68.3v418c0 56.6 -15.6 107.4 -44.9 142.6 -31.3 37.1 -74.2 58.6 -123.1 58.6H355.5c-46.9 0 -80.1 -21.5 -87.9 -27.4C203.1 839.8 134.8 753.9 89.8 697.3 78.1 681.6 70.3 669.9 62.5 662.1c-2 -3.9 -7.8 -5.8 -9.8 -9.8C35.2 632.8 21.5 615.2 11.7 597.7 -9.8 558.6 3.9 535.2 15.6 523.4h2C33.2 507.8 52.7 500 74.2 500c29.3 0 60.6 13.7 97.7 46.9V224.6c0 -37.1 31.2 -68.3 68.3 -68.3 13.7 0 27.4 3.9 37.1 11.7v-5.9c0 -37.1 31.3 -68.3 68.4 -68.3z"/></svg>