<svg height="1000" width="812.5" xmlns="http://www.w3.org/2000/svg"><path d="M390.6 171.9c0 -7.8 7.8 -15.6 15.7 -15.6s15.6 7.8 15.6 15.6 -7.8 15.6 -15.6 15.6 -15.7 -7.8 -15.7 -15.6zm0 656.2c0 -7.8 7.8 -15.6 15.7 -15.6s15.6 7.8 15.6 15.6 -7.8 15.7 -15.6 15.7 -15.7 -7.9 -15.7 -15.7zM718.8 500c0 -7.8 7.8 -15.6 15.6 -15.6S750 492.2 750 500s-7.8 15.6 -15.6 15.6S718.8 507.8 718.8 500zm-656.3 0c0 -7.8 7.8 -15.6 15.6 -15.6s15.7 7.8 15.7 15.6 -7.9 15.6 -15.7 15.6S62.5 507.8 62.5 500zm44.9 -164.1c0 -7.8 7.8 -15.6 15.6 -15.6s15.7 7.8 15.7 15.6 -7.8 15.7 -15.7 15.7 -15.6 -7.8 -15.6 -15.7zm568.4 328.2c0 -7.8 7.8 -15.7 15.6 -15.7s15.6 7.9 15.6 15.7 -7.8 15.6 -15.6 15.6 -15.6 -7.8 -15.6 -15.6zM554.7 214.8c0 -7.8 7.8 -15.6 15.6 -15.6s15.6 7.8 15.6 15.6 -7.8 15.7 -15.6 15.7 -15.6 -7.8 -15.6 -15.7zM226.6 785.2c0 -7.9 7.8 -15.7 15.6 -15.7s15.6 7.8 15.6 15.7 -7.8 15.6 -15.6 15.6S226.6 793 226.6 785.2zM107.4 664.1c0 -7.8 7.8 -15.7 15.6 -15.7s15.7 7.9 15.7 15.7 -7.8 15.6 -15.7 15.6 -15.6 -7.8 -15.6 -15.6zM675.8 335.9c0 -7.8 7.8 -15.6 15.6 -15.6s15.6 7.8 15.6 15.6 -7.8 15.7 -15.6 15.7 -15.6 -7.8 -15.6 -15.7zM226.6 214.8c0 -7.8 7.8 -15.6 15.6 -15.6s15.6 7.8 15.6 15.6 -7.8 15.7 -15.6 15.7 -15.6 -7.8 -15.6 -15.7zm328.1 570.4c0 -7.9 7.8 -15.7 15.6 -15.7s15.6 7.8 15.6 15.7 -7.8 15.6 -15.6 15.6S554.7 793 554.7 785.2zM433.6 484.4c7.8 15.6 3.9 35.1 -11.7 42.9V750c0 7.8 -7.8 15.6 -15.6 15.6S390.6 757.8 390.6 750V527.3c-3.9 -1.9 -7.8 -7.8 -11.7 -11.7 -5.9 -9.7 -5.9 -21.5 0 -31.2L322.3 377c-3.9 -7.9 -2 -17.6 5.8 -21.5s17.6 -2 21.5 5.8l58.6 107.5c9.8 0 19.5 5.8 25.4 15.6zM693.4 212.9c158.2 158.2 158.2 416 0 574.2s-416.1 158.2 -574.3 0 -158.2 -416 0 -574.2 416.1 -158.2 574.3 0zm-23.5 550.8c144.6 -144.6 144.6 -382.8 0 -527.4s-382.8 -144.5 -527.3 0 -144.6 382.8 0 527.4 382.8 144.5 527.3 0z"/></svg>