<svg height="1000" width="375" xmlns="http://www.w3.org/2000/svg"><path d="M279.3 585.9C335.9 617.2 375 679.7 375 750c0 103.5 -84 187.5 -187.5 187.5S0 853.5 0 750C0 679.7 39.1 617.2 95.7 585.9V152.3c0 -50.7 41 -89.8 91.8 -89.8s91.8 39.1 91.8 89.8v433.6zm17.6 275.4C326.2 832 343.8 791 343.8 750c0 -56.6 -31.3 -109.4 -80.1 -136.7L248 605.5V152.3c0 -33.2 -27.3 -58.5 -60.5 -58.5S127 119.1 127 152.3V605.5l-15.7 7.8c-48.8 27.3 -80 80.1 -80 136.7 0 85.9 70.3 156.3 156.2 156.3 41 0 80.1 -15.7 109.4 -45zM218.8 628.9c52.7 13.7 93.7 62.5 93.7 121.1 0 68.4 -56.6 125 -125 125S62.5 818.4 62.5 750c0 -58.6 39.1 -107.4 93.8 -121.1V281.3c0 -17.6 13.6 -31.3 31.2 -31.3s31.3 13.7 31.3 31.3v347.6z"/></svg>