<svg height="1000" width="875" xmlns="http://www.w3.org/2000/svg"><path d="M357.4 171.9L541 457l9.8 15.7 17.6 -2 130.8 -3.9h19.6c33.2 0 66.4 5.9 91.7 13.7 21.5 7.8 29.3 13.6 33.3 17.5 -4 4 -11.8 9.8 -33.3 17.6 -25.3 7.8 -58.5 13.7 -91.7 13.7h-19.6l-130.8 -3.9h-17.6L541 541 357.4 828.1h-31.2l99.6 -263.6 15.6 -41.1 -43 -1.9 -246.1 -9.8h-17.5l-9.8 11.7L46.9 625 91.8 511.7 95.7 500l-3.9 -11.7L46.9 375l78.1 97.7 9.8 11.7h15.6l248 -7.8 43 -2 -15.6 -41L326.2 171.9h31.2zM375 140.6l191.4 298.9 132.8 -4h19.6c85.9 0 156.2 27.4 156.2 62.5s-70.3 62.5 -156.2 62.5h-19.6l-132.8 -1.9L375 859.4h-93.7L396.5 554.7 150.4 543 62.5 656.3H0L62.5 500 0 343.8h62.5l85.9 109.3 248.1 -7.8L281.3 140.6H375z"/></svg>