<svg height="1000" width="687.5" xmlns="http://www.w3.org/2000/svg"><path d="M656.3 656.3c31.2 31.2 50.7 68.3 0 128.9 -48.9 58.6 -82.1 58.6 -125 58.6 -46.9 0 -113.3 -27.4 -181.7 -78.2C287.1 720.7 259.8 699.2 197.3 634.8 130.9 566.4 89.8 509.8 43 425.8 -9.8 328.1 -3.9 281.3 7.8 246.1c7.8 -23.4 27.4 -46.9 54.7 -64.5l2 -1.9c11.7 -7.8 35.1 -23.4 62.5 -23.4 25.3 0 46.8 11.7 66.4 35.1l1.9 2c21.5 27.3 46.9 60.5 62.5 91.8 19.5 41 19.5 74.2 -1.9 103.5 -17.6 23.4 -23.5 37.1 -23.5 44.9s9.8 17.6 25.4 35.2l2 1.9c31.2 35.2 39 44.9 50.7 56.6 2 2 5.9 4 7.9 5.9l3.9 3.9c13.6 13.7 21.5 23.4 56.6 54.7l2 2c13.6 11.7 17.5 15.6 23.4 15.6 9.8 0 31.2 -13.7 56.6 -29.3 7.9 -5.9 21.5 -9.8 33.2 -9.8 52.8 0 132.9 56.7 162.2 86zm-23.5 107.4c37.1 -43 25.4 -60.6 2 -84C609.4 652.3 537.1 603.5 494.1 603.5c-5.8 0 -11.7 2 -15.6 3.9 -37.1 23.5 -54.7 35.2 -72.2 35.2s-29.3 -11.7 -45 -25.4h-1.9c-37.1 -31.3 -44.9 -41 -58.6 -56.7l-3.9 -3.9c-2 -1.9 -5.9 -3.9 -7.8 -5.8 -11.8 -11.7 -21.5 -23.5 -52.8 -58.6v-2c-19.5 -21.4 -33.2 -35.1 -35.1 -54.7s9.7 -39 31.2 -66.4c29.3 -39 -9.7 -93.7 -60.5 -154.3l-2 -1.9C156.3 197.3 142.6 189.5 127 189.5c-19.6 0 -35.2 11.7 -45 17.5 -1.9 0 -3.9 2 -3.9 2 -21.5 13.7 -35.1 31.2 -41 46.9 -9.8 31.2 -13.7 68.3 33.2 154.3 44.9 82 84 136.7 148.5 203.1 60.5 62.5 87.8 82 148.4 125 62.5 44.9 125 74.2 164.1 74.2 41 0 62.5 -2 101.5 -48.8z"/></svg>