<svg height="1000" width="812.5" xmlns="http://www.w3.org/2000/svg"><path d="M406.3 93.8c224.6 0 406.2 181.6 406.2 406.2S630.9 906.3 406.3 906.3C181.6 906.3 0 724.6 0 500S181.6 93.8 406.3 93.8zm0 779.2c207 0 373 -166 373 -373s-166 -373 -373 -373C199.2 127 33.2 293 33.2 500s168 373 373.1 373zM535.2 335.9c11.7 43 17.5 93.8 19.5 148.5H421.9V351.6c39 -2 76.1 -7.8 113.3 -15.7zM421.9 160.2c39 11.7 80.1 66.4 105.4 146.4 -33.2 7.9 -70.3 11.8 -105.4 13.7V160.2zM283.2 306.6c25.4 -82 68.4 -134.7 107.4 -146.4v160.1c-37.1 -1.9 -72.2 -5.8 -107.4 -13.7zm367.2 -46.8c-29.3 15.6 -60.6 29.3 -93.8 39C539.1 242.2 515.6 197.3 486.3 168c62.5 15.6 119.2 46.8 164.1 91.8zM584 484.4C582 427.7 576.2 375 564.5 328.1c37.1 -11.7 72.2 -27.3 105.4 -44.9 44.9 54.7 74.2 125 78.1 201.2H584zm-326.2 0c2 -54.7 5.9 -105.5 17.6 -148.5 37.1 9.8 76.2 13.7 115.2 15.7v132.8H257.8zm296.9 31.2c-2 54.7 -7.8 105.5 -19.5 148.5C498 654.3 460.9 650.4 421.9 648.4V515.6h132.8zM275.4 664.1c-11.7 -43 -15.6 -93.8 -17.6 -148.5h132.8v132.8c-39 2 -78.1 5.9 -115.2 15.7zm115.2 175.7c-39 -11.7 -82 -64.4 -107.4 -146.4 35.2 -7.9 70.3 -11.8 107.4 -13.7v160.1zm95.7 -7.8c29.3 -29.3 52.8 -74.2 70.3 -130.8 33.2 9.7 64.5 21.5 93.8 37.1C605.5 783.2 548.8 816.4 486.3 832zM326.2 168c-29.3 29.3 -52.8 76.1 -70.3 130.8 -31.3 -9.7 -64.5 -21.5 -93.8 -37.1 43 -44.9 101.6 -78.1 164.1 -93.7zm238.3 503.9C576.2 625 582 572.3 584 515.6h164c-3.9 76.2 -33.2 146.5 -78.1 201.2C636.7 699.2 601.6 683.6 564.5 671.9zm-142.6 7.8c35.1 1.9 72.2 5.8 105.4 13.7 -25.3 82 -66.4 134.7 -105.4 146.4V679.7zM248 328.1c-11.7 46.9 -21.4 99.6 -21.4 156.3H64.5c3.9 -76.2 33.2 -146.5 78.1 -201.2 33.2 17.6 68.3 33.2 105.4 44.9zm-21.4 187.5c1.9 56.7 7.8 109.4 19.5 156.3 -37.1 11.7 -70.3 27.3 -103.5 44.9C97.7 662.1 68.4 591.8 64.5 515.6h162.1zm-64.5 222.7c29.3 -15.6 62.5 -27.4 93.8 -37.1 17.5 54.7 41 101.5 70.3 130.8C263.7 816.4 205.1 783.2 162.1 738.3z"/></svg>