<svg height="1000" width="703.1" xmlns="http://www.w3.org/2000/svg"><path d="M269.5 169.9c-33.2 11.7 -64.4 27.4 -93.7 48.9S121.1 263.7 99.6 293C54.7 353.5 31.3 423.8 31.3 498c0 91.8 37.1 179.7 101.5 244.2S283.2 843.8 375 843.8c101.6 0 195.3 -45 261.7 -121.1h-19.5C513.7 722.7 416 683.6 343.8 611.3S232.4 441.4 232.4 337.9c0 -58.6 11.7 -115.2 37.1 -168zM334 125c-13.7 19.5 -25.4 37.1 -35.2 58.6 -23.4 46.9 -35.1 99.6 -35.1 154.3 0 93.7 37.1 183.6 103.5 250s156.2 105.5 250 105.5c5.8 0 11.7 -2 17.6 -2 23.4 -1.9 46.8 -3.9 68.3 -9.8 -11.7 21.5 -25.4 41.1 -41 60.6C593.8 824.2 490.2 875 375 875 168 875 0 705.1 0 498 0 330.1 109.4 189.5 261.7 140.6 285.2 132.8 308.6 127 334 125z"/></svg>