<svg height="1000" width="750" xmlns="http://www.w3.org/2000/svg"><path d="M455.1 296.9c27.3 11.7 52.7 27.3 74.2 48.8 41 41 64.5 95.7 64.5 154.3 0 50.8 -17.6 99.6 -48.9 138.7l-5.8 5.8L392.6 498l54.7 -205c1.9 0 5.8 3.9 7.8 3.9zM418 285.2l-54.7 203.1L160.2 543c0 -2 -2 -3.9 -2 -7.8 -1.9 -11.8 -1.9 -23.5 -1.9 -35.2 0 -58.6 23.4 -113.3 64.4 -154.3S316.4 281.3 375 281.3c11.7 0 23.4 0 35.2 1.9 1.9 0 5.8 2 7.8 2zm-250 289l203.1 -54.7L517.6 666l-5.9 5.9c-39 31.2 -85.9 46.9 -136.7 46.9 -58.6 0 -113.3 -23.5 -154.3 -64.5 -21.5 -21.5 -37.1 -46.9 -48.8 -74.2 0 -2 -3.9 -3.9 -3.9 -5.9zm582 -41l-64.5 15.6 -5.8 27.4 52.7 39L709 673.8l-66.4 -9.7L627 687.5l33.2 54.7 -43 44.9 -58.6 -33.2 -19.5 15.6 9.7 64.5 -56.6 23.4 -41 -52.7 -27.4 5.8L408.2 875h-62.5l-17.6 -64.5 -25.4 -5.8 -41 54.7 -56.6 -23.5 7.8 -66.4 -21.5 -15.6L132.8 791 87.9 746.1 123 685.5l-13.6 -21.4L41 673.8 17.6 617.2l54.7 -43 -3.9 -23.4L0 533.2v-62.5l68.4 -17.6 3.9 -23.4 -56.7 -43 23.5 -58.6 70.3 9.8L123 318.4 85.9 255.9l43 -43 62.5 37.1 21.5 -15.6L205.1 166l56.6 -25.4 43 56.7 23.4 -3.9L345.7 125h62.5l17.6 68.4 23.4 3.9 43 -54.7 56.6 23.4 -9.7 68.4 19.5 15.6 60.5 -35.2 43 45 -33.2 58.6 13.7 19.5 68.3 -9.8 23.5 58.6 -54.7 41 5.8 25.4 64.5 17.6v62.5zM375 750c138.7 0 250 -111.3 250 -250S513.7 250 375 250 125 361.3 125 500s111.3 250 250 250z"/></svg>