<svg height="1000" width="808.6" xmlns="http://www.w3.org/2000/svg"><path d="M171.9 156.3h558.6c42.9 0 78.1 35.1 78.1 78.1v531.2c0 43 -35.2 78.2 -78.1 78.2H171.9c-43 0 -78.1 -35.2 -78.1 -78.2 0 -7.8 7.8 -15.6 15.6 -15.6s15.6 7.8 15.6 15.6c0 25.4 21.5 46.9 46.9 46.9h558.6c25.4 0 46.8 -21.5 46.8 -46.9V234.4c0 -25.4 -21.4 -46.9 -46.8 -46.9H171.9c-25.4 0 -46.9 21.5 -46.9 46.9 0 7.8 -7.8 15.6 -15.6 15.6S93.8 242.2 93.8 234.4c0 -43 35.1 -78.1 78.1 -78.1zm349.6 326.1c11.7 11.7 11.7 27.4 0 39.1L361.3 683.6c-3.9 3.9 -7.8 3.9 -11.7 3.9s-7.8 0 -11.7 -3.9c-5.9 -5.9 -5.9 -17.6 0 -23.4L482.4 515.6H15.6C7.8 515.6 0 507.8 0 500s7.8 -15.6 15.6 -15.6h466.8L334 339.8c-5.9 -5.8 -5.9 -17.5 0 -23.4s17.6 -5.9 23.4 0z"/></svg>