<svg height="1000" width="875" xmlns="http://www.w3.org/2000/svg"><path d="M867.2 457s7.8 46.9 7.8 113.3c0 93.8 -11.7 173.8 -11.7 173.8 -50.8 9.8 -89.9 11.8 -128.9 11.8 -19.6 0 -37.1 1.9 -56.7 1.9 -48.8 0 -29.3 -15.6 -52.7 -15.6 -21.5 0 -107.4 7.8 -187.5 7.8s-166 -7.8 -187.5 -7.8c-23.4 0 -3.9 15.6 -52.7 15.6 -19.6 0 -37.1 -1.9 -56.7 -1.9 -39 0 -78.1 -2 -128.9 -11.8 0 0 -11.7 -80 -11.7 -173.8C0 505.9 7.8 457 7.8 457c27.4 -31.2 80.1 -60.5 80.1 -60.5l-29.3 -5.9c-13.7 0 -44.9 -3.9 -50.8 -9.7S0 369.1 0 363.3s3.9 -15.6 9.8 -21.5S39.1 332 54.7 330.1s17.6 0 21.5 1.9 5.8 23.5 5.8 33.2l15.7 3.9c9.7 -23.4 23.4 -70.3 42.9 -105.4 23.5 -41 44.9 -52.8 54.7 -56.7s19.5 -5.8 86 -11.7c66.4 -7.8 123 -7.8 156.2 -7.8s89.8 0 156.3 7.8 76.1 7.8 85.9 11.7 31.2 15.7 54.7 56.7c19.5 35.1 33.2 82 42.9 105.4l15.7 -3.9c0 -9.7 1.9 -29.3 5.8 -33.2 3.9 -1.9 5.9 -3.9 21.5 -1.9s39.1 5.8 44.9 11.7 9.8 15.6 9.8 21.5 -2 11.7 -7.8 17.6 -37.1 9.7 -50.8 9.7l-29.3 5.9s52.7 29.3 80.1 60.5zM152.3 302.7c-7.8 19.6 -21.4 64.5 -19.5 70.3s0 7.9 27.4 5.9S353.5 375 437.5 375s252 2 279.3 3.9 23.4 0 25.4 -5.9 -11.7 -50.7 -19.5 -70.3 -27.4 -52.7 -43 -64.4c0 0 -93.8 -19.5 -242.2 -19.5s-240.2 19.5 -240.2 19.5c-15.7 11.7 -37.1 44.9 -45 64.4zm27.4 226.6c19.5 0 54.7 -7.8 54.7 -7.8s-29.3 -29.3 -84 -44.9S66.4 459 35.2 460.9c0 0 -3.9 21.5 0 43s50.7 29.3 54.6 29.3 11.8 -5.9 21.5 -5.9 48.9 2 68.4 2zm425.8 134.8c25.4 -3.9 54.7 -31.3 35.1 -58.6 -11.7 -15.7 -39 -27.4 -93.7 -35.2 -58.6 -7.8 -95.7 -7.8 -109.4 -7.8s-50.8 0 -109.4 7.8c-54.7 7.8 -78.1 19.5 -93.7 35.2 -21.5 25.4 9.7 54.7 35.1 58.6s113.3 3.9 168 3.9 142.6 0 168 -3.9zM839.8 505.9c4 -21.5 0 -45 0 -45 -31.2 -1.9 -58.5 0 -113.2 15.7s-86 44.9 -86 44.9 35.2 7.8 54.7 7.8 58.6 -2 68.4 -2 17.6 7.9 21.5 7.9 50.7 -7.9 54.6 -29.3zM720.7 804.7v-33.2c37.1 0 82 -2 132.8 -11.7 0 0 -1.9 25.4 -3.9 41 0 3.9 -1.9 11.7 -11.7 11.7H726.6c-3.9 0 -5.9 -3.9 -5.9 -7.8zM25.4 800.8c-2 -15.6 -3.9 -41 -3.9 -41 50.8 9.7 95.7 11.7 132.8 11.7v33.2c0 3.9 -2 7.8 -5.9 7.8H37.1c-9.8 0 -11.7 -7.8 -11.7 -11.7z"/></svg>