<svg height="1000" width="875" xmlns="http://www.w3.org/2000/svg"><path d="M875 812.5H0v-625h875v625zM31.3 781.3h812.5V218.8H31.3v562.5zm433.5 -19.6h-54.6c-70.4 0 -158.2 0 -222.7 -5.8C117.2 750 76.2 709 72.3 638.7V623C68.4 574.2 66.4 543 66.4 500c0 -46.9 0 -76.2 5.9 -138.7C80.1 293 119.1 252 187.5 244.1c62.5 -5.8 171.9 -5.8 250 -5.8s187.5 0 250 5.8c68.4 7.9 107.4 46.9 115.2 117.2 5.9 62.5 5.9 91.8 5.9 138.7 0 43 -2 74.2 -5.9 123v15.7C798.8 709 757.8 750 687.5 755.9c-64.5 5.8 -152.3 5.8 -222.7 5.8zm-27.3 -31.2h27.3c68.4 0 156.3 0 218.8 -5.9 54.7 -5.8 84 -33.2 87.9 -87.9v-15.6c3.9 -48.8 5.8 -80.1 5.8 -121.1 0 -46.9 0 -76.2 -5.8 -136.7 -5.9 -54.7 -33.2 -82 -87.9 -87.9 -60.6 -5.9 -168 -5.9 -246.1 -5.9s-185.5 0 -246.1 5.9c-54.7 5.9 -82 33.2 -87.9 87.9 -5.8 60.5 -5.8 89.8 -5.8 136.7 0 41 1.9 72.3 5.8 121.1v15.6c3.9 54.7 33.2 82.1 87.9 87.9 62.5 5.9 150.4 5.9 218.8 5.9h27.3zM597.7 347.7c-17.6 0 -35.2 3.9 -48.9 7.8 -11.7 3.9 -23.4 11.7 -33.2 21.5s-17.6 23.4 -23.4 42.9 -9.8 46.9 -9.8 80.1 2 60.5 7.8 82c3.9 19.6 13.7 33.2 21.5 43s15.6 15.6 27.4 19.5c13.6 3.9 31.2 5.9 50.7 5.9 39.1 0 66.5 -7.8 82.1 -25.4 11.7 -11.7 17.6 -29.3 21.5 -52.7h-29.3c-3.9 13.6 -9.8 25.4 -19.6 35.1 -13.6 15.6 -33.2 23.5 -54.7 23.5 -41 0 -74.2 -31.3 -78.1 -78.2 0 -3.9 -1.9 -21.4 -1.9 -50.7 0 -33.2 1.9 -54.7 1.9 -54.7 3.9 -23.5 11.7 -41 23.5 -54.7 13.6 -15.6 33.2 -23.5 54.6 -23.5 35.2 0 64.5 23.5 74.3 58.6h27.3c-3.9 -23.4 -9.8 -41 -21.5 -52.7 -15.6 -17.6 -39 -27.3 -72.2 -27.3zm0 -31.3c42.9 0 74.2 13.7 95.7 37.1S724.6 416 724.6 459h-87.9v-2c0 -35.1 -21.5 -56.6 -46.9 -56.6 -27.3 0 -42.9 17.6 -46.8 50.8 0 0 -2 19.5 -2 50.8s2 46.8 2 46.8c1.9 29.3 19.5 50.8 46.8 50.8s45 -19.5 45 -50.8V541h89.8c0 46.9 -9.8 82 -31.2 105.5s-56.7 37.1 -105.5 37.1c-23.4 0 -43 -3.9 -60.6 -9.8s-29.3 -15.6 -41 -29.3 -19.5 -31.2 -25.4 -54.7 -9.7 -54.6 -9.7 -89.8 3.9 -64.5 11.7 -87.9 15.6 -43 29.3 -56.6 29.3 -23.5 46.9 -29.3 37.1 -9.8 58.6 -9.8zm-302.8 31.3c-17.6 0 -35.1 3.9 -48.8 7.8 -11.7 3.9 -23.4 11.7 -33.2 21.5s-17.6 23.4 -23.4 42.9 -9.8 46.9 -9.8 80.1 1.9 60.5 7.8 82c3.9 19.6 13.7 33.2 21.5 43s15.6 15.6 27.3 19.5c13.7 3.9 31.3 5.9 50.8 5.9 39.1 0 66.4 -7.8 82 -25.4 11.8 -11.7 17.6 -29.3 21.5 -52.7h-29.3c-3.9 13.6 -7.8 25.4 -17.5 35.1 -13.7 15.6 -35.2 23.5 -56.7 23.5 -41 0 -74.2 -31.3 -78.1 -78.2 0 -3.9 -2 -21.4 -2 -50.7 0 -33.2 3.9 -54.7 3.9 -54.7 3.9 -23.5 11.8 -41 23.5 -54.7C248 377 267.6 369.1 289.1 369.1c35.1 0 62.5 23.5 72.2 58.6h29.3c-3.9 -23.4 -11.7 -41 -23.4 -52.7 -15.6 -17.6 -39.1 -27.3 -72.3 -27.3zm0 -31.3c43 0 74.2 13.7 95.7 37.1S421.9 416 421.9 459H334v-2c0 -35.1 -21.5 -56.6 -46.9 -56.6 -27.3 0 -43 17.6 -46.9 50.8 0 0 -1.9 19.5 -1.9 50.8s1.9 46.8 1.9 46.8c2 29.3 19.6 50.8 46.9 50.8S332 580.1 332 548.8V541h89.9c0 46.9 -9.8 82 -31.3 105.5S334 683.6 285.2 683.6c-23.5 0 -41.1 -3.9 -58.6 -9.8s-31.3 -15.6 -43 -29.3 -19.5 -31.2 -25.4 -54.7 -9.8 -54.6 -9.8 -89.8 3.9 -64.5 11.8 -87.9 15.6 -43 29.3 -56.6 29.3 -23.5 46.8 -29.3 37.1 -9.8 58.6 -9.8z"/></svg>