<svg height="1000" width="812.5" xmlns="http://www.w3.org/2000/svg"><path d="M593.8 498l11.7 -1.9 19.5 -5.9c29.3 43 46.9 95.7 46.9 150.4 0 146.5 -119.2 265.7 -265.6 265.7S140.6 787.1 140.6 640.6c0 -54.7 17.6 -107.4 46.9 -150.4l19.5 5.9 11.8 1.9c-31.3 41.1 -46.9 91.8 -46.9 142.6 0 62.5 23.4 119.2 68.3 164.1S343.8 875 406.3 875s121 -25.4 166 -70.3 68.3 -101.6 68.3 -164.1C640.6 589.8 625 539.1 593.8 498zm-103.6 29.3c35.2 25.4 56.7 66.5 56.7 113.3 0 78.2 -62.5 140.7 -140.6 140.7S265.6 718.8 265.6 640.6c0 -46.8 21.5 -87.9 56.7 -113.3l42.9 11.8c-39 15.6 -68.3 54.7 -68.3 101.5 0 60.6 48.8 109.4 109.4 109.4S515.6 701.2 515.6 640.6c0 -46.8 -29.3 -85.9 -68.3 -101.5zM0 93.8h812.5v312.5L406.3 519.5 0 406.3V93.8zM781.3 125h-750v62.5h750V125zm-750 257.8L250 445.3V218.8H31.3v164zm375 103.5l125 -33.2V218.8h-250v234.3zm156.2 -41l218.8 -62.5v-164H562.5v226.5z"/></svg>