<svg height="1000" width="625" xmlns="http://www.w3.org/2000/svg"><path d="M312.5 93.8c-23.4 0 -50.8 13.6 -82 37.1 -33.2 25.4 -66.4 64.4 -95.7 109.3 -31.3 46.9 -56.7 99.6 -74.3 154.3C41 453.1 31.3 509.8 31.3 564.5c0 56.6 7.8 105.4 21.4 150.3C66.4 755.9 84 791 109.4 820.3c23.4 27.4 54.7 50.8 87.9 64.5 35.1 13.6 72.2 21.5 115.2 21.5s80.1 -7.9 115.2 -21.5c33.2 -13.7 64.5 -37.1 87.9 -64.5 25.4 -29.3 43 -64.4 56.7 -105.5 13.6 -42.9 21.5 -93.7 21.5 -150.3 0 -54.7 -9.8 -111.4 -29.3 -170 -17.6 -54.7 -43 -107.4 -74.3 -154.3C460.9 195.3 427.7 156.3 394.5 130.9c-31.2 -23.5 -58.6 -37.1 -82 -37.1zm0 -31.3c125 0 312.5 259.8 312.5 502s-125 373 -312.5 373S0 806.6 0 564.5s187.5 -502 312.5 -502z"/></svg>