<svg height="1000" width="562.5" xmlns="http://www.w3.org/2000/svg"><path d="M562.5 220.7V250h-39.1l-46.8 568.4c0 31.2 -25.4 56.6 -56.7 56.6H144.5c-31.2 0 -56.6 -25.4 -56.6 -56.6L41 250H0v-29.3h156.3v-39.1c0 -31.2 25.3 -56.6 56.6 -56.6h136.7c31.3 0 56.7 25.4 56.7 56.6v39.1h156.2zm-377 -39.1v39.1H377v-39.1c0 -15.6 -11.8 -27.3 -27.4 -27.3H212.9c-15.6 0 -27.4 11.7 -27.4 27.3zm263.7 634.8L494.1 250H70.3l44.9 566.4v2c0 15.6 13.7 27.3 29.3 27.3h275.4c15.6 0 29.3 -11.7 29.3 -27.3v-2zM267.6 783.2V312.5h27.3v470.7h-27.3zM406.3 312.5l-21.5 470.7h-27.4L377 312.5h29.3zm-222.7 0l21.5 470.7h-27.4L156.3 312.5h27.3z"/></svg>