<svg height="1000" width="625" xmlns="http://www.w3.org/2000/svg"><path d="M312.5 132.8c-33.2 27.4 -95.7 80.1 -162.1 173.8C72.3 416 33.2 517.6 31.3 621.1v7.8c0 31.3 5.8 58.6 17.5 87.9 7.8 15.6 17.6 31.2 27.4 44.9C128.9 832 216.8 875 312.5 875c156.3 0 281.3 -109.4 281.3 -246.1 0 -103.5 -39.1 -209 -119.2 -322.3C425.8 238.3 371.1 179.7 312.5 132.8zm0 -39c44.9 35.1 115.2 93.7 187.5 195.3s125 216.8 125 339.8c0 154.3 -140.6 277.4 -312.5 277.4 -109.4 0 -207 -48.9 -261.7 -125C39.1 765.6 29.3 746.1 21.5 728.5 7.8 697.3 0 664.1 0 628.9v-7.8C2 500 52.7 390.6 125 289.1S267.6 125 312.5 93.8zM332 802.7c-31.2 0 -64.4 -1.9 -89.8 -13.6C412.1 761.7 474.6 699.2 515.6 548.8c9.8 21.5 11.7 46.9 11.7 72.3 0 99.6 -87.8 181.6 -195.3 181.6z"/></svg>