<svg height="1000" width="562.5" xmlns="http://www.w3.org/2000/svg"><path d="M209 783.2l43 25.4 -29.3 17.6zm130.8 43l-29.3 -17.6 43 -25.4zM252 511.7l-89.9 54.7 -17.6 11.7 -9.7 -27.3 -19.6 -60.6c15.7 -5.8 31.3 -11.7 39.1 -21.4 23.4 23.4 56.6 39 95.7 42.9h2zm-89.9 93.8l89.9 54.7 -68.4 42.9 -29.3 -93.7zm119.2 74.2l87.8 54.7h2l-2 1.9L281.3 791l-86 -54.7 -3.9 -1.9h2zm89.8 -93.8l-89.8 56.7 -89.9 -56.7 89.9 -56.6zm37.1 -117.1c7.8 9.7 25.4 17.5 41 23.4l-19.5 58.6 -9.8 29.3 -19.5 -11.7 -89.9 -56.7h2c39.1 -3.9 72.3 -19.5 95.7 -42.9zM234.4 857.4l46.9 -29.3 48.8 29.3 -5.9 15.6s-13.7 37.2 -42.9 37.2c-27.4 0 -43 -37.2 -43 -37.2zm76.1 -197.2l89.9 -54.7 9.8 3.9 -31.3 93.7zM523.4 320.3c23.5 13.7 39.1 39.1 39.1 66.4 0 43 -35.2 78.1 -78.1 78.1 -25.4 0 -62.5 -9.7 -76.2 -27.3 -29.3 29.3 -74.2 43 -126.9 43s-97.7 -13.7 -127 -43c-13.7 17.6 -52.7 27.3 -76.2 27.3C35.2 464.8 0 429.7 0 386.7 0 357.4 15.6 334 39.1 320.3c21.4 25.4 54.7 33.2 54.7 33.2 -17.6 -11.7 -31.3 -41 -31.3 -41v-2c0 -121 97.7 -220.7 218.8 -220.7S500 187.5 500 308.6v1.9s-13.7 31.3 -31.2 43c0 0 33.2 -7.8 54.6 -33.2z"/></svg>