<svg height="1000" width="875" xmlns="http://www.w3.org/2000/svg"><path d="M845.7 482.4H875v35.2h-29.3c-3.9 42.9 -25.4 84 -56.6 113.3 -33.2 31.2 -76.2 48.8 -121.1 48.8C568.4 679.7 488.3 599.6 488.3 500c0 -19.5 -23.5 -43 -50.8 -43s-50.8 23.5 -50.8 43c0 99.6 -80.1 179.7 -179.7 179.7 -44.9 0 -87.9 -17.6 -121.1 -48.8C54.7 601.6 33.2 560.5 29.3 517.6H0v-35.2h29.3c3.9 -42.9 25.4 -84 56.6 -115.2 33.2 -31.3 76.2 -46.9 121.1 -46.9 82.1 0 152.4 52.7 173.9 130.9 13.6 -13.7 35.1 -23.5 56.6 -23.5s43 9.8 56.6 23.5C515.6 373 585.9 320.3 668 320.3c44.9 0 87.9 17.6 121.1 48.8 31.2 29.3 52.7 70.4 56.6 113.3z"/></svg>