<svg height="1000" width="812.5" xmlns="http://www.w3.org/2000/svg"><path d="M646.5 259.8c218.7 218.7 158.2 638.6 158.2 638.6s-50.8 7.9 -127 7.9C535.2 906.3 308.6 882.8 166 740.2 -52.7 521.5 7.8 101.6 7.8 101.6s50.8 -7.8 127 -7.8c142.5 0 369.1 23.4 511.7 166zM39.1 380.9l5.8 35.1L322.3 138.7l-35.2 -5.9zm388.6 273.4l23.5 23.4 54.7 -56.6 44.9 43 -56.7 56.6 23.5 21.5L648.4 611.3 627 587.9l-56.7 56.6 -43 -44.9L584 544.9l-23.5 -23.4 -54.6 56.6 -45 -44.9 56.7 -54.7 -23.5 -23.4 -54.6 56.6 -45 -44.9 56.7 -54.7 -23.5 -23.4L373 445.3l-44.9 -44.9 56.7 -54.7 -23.5 -23.4 -54.7 56.6 -44.9 -43 56.7 -56.6 -23.5 -21.5L164.1 388.7l21.4 23.4 56.7 -56.6 43 44.9 -56.7 54.7 23.5 23.4 54.6 -56.6 45 44.9 -56.7 54.7 23.5 23.4L373 488.3l45 44.9 -56.7 54.7 23.5 23.4 54.7 -56.6 44.9 44.9zm97.7 212.9l248 -248.1L767.6 584 490.2 861.3z"/></svg>