<svg height="1000" width="812.5" xmlns="http://www.w3.org/2000/svg"><path d="M406.3 93.8c224.6 0 406.2 181.6 406.2 406.2S630.9 906.3 406.3 906.3 0 724.6 0 500 181.6 93.8 406.3 93.8zm0 779.2c205 0 373 -167.9 373 -373s-168 -373 -373 -373S33.2 294.9 33.2 500s168 373 373.1 373zm7.8 -587.8c64.4 0 117.2 41 117.2 107.4 0 42.9 -21.5 70.3 -50.8 97.6 -45 45 -43 52.8 -45 103.6h-37.1c2 -54.7 13.7 -84 58.6 -125 21.5 -19.6 37.1 -45 37.1 -74.3 0 -46.8 -37.1 -78.1 -82 -78.1 -62.5 0 -95.7 31.3 -93.7 89.9h-37.1c0 -82.1 48.8 -121.1 132.8 -121.1zm0 363.2c17.5 0 33.2 15.7 33.2 33.2s-15.7 33.2 -33.2 33.2 -33.2 -15.6 -33.2 -33.2 15.6 -33.2 33.2 -33.2z"/></svg>