<svg height="1000" width="875" xmlns="http://www.w3.org/2000/svg"><path d="M230.5 552.7c101.5 0 199.2 80.1 175.8 199.3C384.8 853.5 300.8 890.6 230.5 902.3c-11.7 2 -27.4 4 -43 4C121.1 906.3 27.3 886.7 0 832c46.9 -17.5 66.4 -48.8 66.4 -93.7 0 -95.7 62.5 -185.6 164.1 -185.6zM375 746.1c9.8 -50.8 -5.9 -84 -23.4 -105.5C324.2 607.4 277.3 584 230.5 584c-48.9 0 -80.1 25.4 -97.7 46.9 -23.4 27.3 -35.1 66.4 -35.1 107.4 0 43 -17.6 80.1 -48.9 103.5 31.3 21.5 89.9 33.2 138.7 33.2 17.6 0 29.3 0 37.1 -2 39.1 -7.8 68.4 -19.5 93.8 -37.1 31.2 -21.4 48.8 -50.7 56.6 -89.8zM851.6 117.2c25.4 25.4 33.2 58.6 9.7 87.9L560.5 546.9c4 17.6 4 33.2 -3.9 44.9L449.2 712.9v1.9c-1.9 2 -3.9 2 -5.8 2s-3.9 0 -5.9 -2 -2 -3.9 -2 -5.8v-2c4 -103.5 -82 -171.8 -175.7 -177.7h-3.9s-3.9 -2 -3.9 -2c-4 -3.9 -4 -7.8 0 -11.7L377 414.1c7.8 -5.9 15.6 -7.8 25.3 -7.8 5.9 0 13.7 0 19.6 1.9L763.7 107.4c11.7 -9.7 25.4 -13.6 37.1 -13.6 17.6 0 35.1 7.8 50.8 23.4zm-13.7 68.3c7.8 -9.7 5.9 -15.6 5.9 -19.5 -2 -7.8 -7.9 -17.6 -15.7 -25.4C818.4 130.9 810.5 125 800.8 125c-5.9 0 -11.7 2 -17.6 5.9L429.7 443.4l-17.6 -5.9h-17.6l-82 70.3c35.2 9.8 66.4 27.4 91.8 50.8 27.3 25.4 46.9 58.6 56.6 93.7l70.4 -78.1c1.9 -3.9 0 -11.7 -2 -19.5l-3.9 -15.6zM252 515.6z"/></svg>