<svg height="1000" width="437.5" xmlns="http://www.w3.org/2000/svg"><path d="M418 93.8c11.7 -2 19.5 7.8 19.5 15.6v171.9l-218.7 42.9V791c0 50.8 -25.4 80.1 -46.9 93.8 -29.3 19.5 -62.5 21.5 -76.2 21.5 -5.9 0 -9.8 -2 -13.7 -2C44.9 900.4 0 873 0 812.5 0 740.2 78.1 720.7 125 710.9c9.8 -1.9 21.5 -3.9 27.3 -5.8 15.7 -3.9 25.4 -13.7 31.3 -25.4 3.9 -7.8 3.9 -19.5 3.9 -23.4V150.4c0 -7.8 7.8 -13.7 15.6 -15.6S408.2 95.7 418 93.8zM187.5 791v-70.3c-7.8 5.9 -15.6 9.8 -27.3 13.7 -7.9 1.9 -15.7 5.8 -27.4 7.8C80.1 753.9 31.3 769.5 31.3 812.5c0 19.5 5.8 35.2 19.5 46.9S82 873 85.9 873s5.9 2 9.8 2c7.8 0 35.2 -2 58.6 -17.6 21.5 -13.6 33.2 -37.1 33.2 -66.4zM406.3 255.9v-127l-187.5 35.2V293z"/></svg>