<svg height="1000" width="750" xmlns="http://www.w3.org/2000/svg"><path d="M500 312.5l27.3 -25.4L750 500 527.3 712.9 500 687.5 695.3 500zm-250 0L54.7 500 250 687.5l-27.3 25.4L0 500 222.7 287.1zM343.8 500c0 -17.6 13.6 -31.2 31.2 -31.2s31.3 13.6 31.3 31.2 -13.7 31.3 -31.3 31.3S343.8 517.6 343.8 500zm-125 0c0 -17.6 13.6 -31.2 31.2 -31.2s31.3 13.6 31.3 31.2 -13.7 31.3 -31.3 31.3S218.8 517.6 218.8 500zm250 0c0 -17.6 13.6 -31.2 31.2 -31.2s31.3 13.6 31.3 31.2 -13.7 31.3 -31.3 31.3S468.8 517.6 468.8 500z"/></svg>