<svg height="1000" width="812.5" xmlns="http://www.w3.org/2000/svg"><path d="M658.2 449.2c101.6 0 154.3 21.5 154.3 50.8s-52.7 50.8 -154.3 50.8c-52.7 0 -117.2 -11.7 -168 -25.4 -1.9 5.9 -3.9 11.7 -7.8 17.6 44.9 27.3 101.6 62.5 138.7 99.6 72.3 72.2 93.7 123 72.3 144.5 -5.9 3.9 -11.8 7.8 -19.6 7.8 -27.3 0 -70.3 -25.4 -125 -80.1C511.7 677.7 476.6 621.1 449.2 576.2c-5.8 3.9 -13.7 5.8 -19.5 7.8 13.7 50.8 27.3 115.2 27.3 168 0 101.5 -21.5 154.3 -50.7 154.3S355.5 853.5 355.5 752c0 -52.8 13.6 -117.2 27.3 -168 -5.8 -2 -11.7 -3.9 -17.6 -7.8 -27.3 44.9 -64.4 101.5 -101.5 138.6 -54.7 54.7 -97.7 80.1 -125 80.1 -7.8 0 -13.7 -1.9 -19.6 -7.8 -21.4 -21.5 0 -72.3 72.3 -144.5 37.1 -37.1 93.8 -72.3 138.7 -99.6 -3.9 -5.9 -5.9 -11.7 -7.8 -17.6 -50.8 13.7 -115.3 25.4 -168 25.4C52.7 550.8 0 529.3 0 500s52.7 -50.8 154.3 -50.8c52.7 0 117.2 13.7 168 27.4 1.9 -5.9 3.9 -11.8 7.8 -17.6C285.2 431.6 228.5 394.5 191.4 357.4 119.1 285.2 97.7 234.4 119.1 212.9c5.9 -3.9 11.8 -7.8 19.6 -7.8 27.3 0 70.3 25.4 125 80.1 37.1 37.1 72.2 93.7 99.6 138.6 5.8 -3.9 11.7 -5.8 17.6 -7.8C367.2 365.2 355.5 300.8 355.5 248 355.5 146.5 377 93.8 406.3 93.8S457 146.5 457 248c0 52.8 -13.6 117.2 -27.3 168 5.8 2 13.7 3.9 19.5 7.8 27.4 -44.9 62.5 -101.5 99.6 -138.6 54.7 -54.7 97.7 -80.1 125 -80.1 7.8 0 13.7 1.9 19.6 7.8 21.4 21.5 0 72.3 -72.3 144.5C584 394.5 527.3 431.6 482.4 459c3.9 5.8 5.9 11.7 7.8 17.6 50.8 -13.7 115.3 -27.4 168 -27.4zM568.4 306.6C544.9 332 515.6 369.1 486.3 416l3.9 3.9c46.9 -29.3 84 -56.6 109.4 -82 27.4 -27.4 48.8 -52.7 60.6 -74.2 9.7 -15.7 11.7 -25.4 11.7 -29.3 -7.8 0 -39.1 7.8 -103.5 72.2zM394.5 152.3c-5.8 23.5 -9.7 56.7 -9.7 95.7 0 35.2 7.8 82.1 19.5 136.8h3.9C419.9 330.1 427.7 283.2 427.7 248c0 -39 -3.9 -72.2 -9.7 -95.7 -3.9 -17.5 -9.8 -23.4 -11.7 -27.3 -2 3.9 -7.9 9.8 -11.8 27.3zm-72.2 267.6c1.9 -1.9 1.9 -3.9 3.9 -3.9C296.9 369.1 269.5 332 244.1 306.6 179.7 242.2 148.4 234.4 140.6 234.4c0 3.9 2 13.6 11.7 29.3 11.8 21.5 33.2 46.8 60.6 74.2 25.4 25.4 62.5 52.7 109.4 82zm-168 101.6c35.2 0 82 -5.9 136.7 -19.5v-4C236.3 486.3 189.5 478.5 154.3 478.5c-39.1 0 -72.3 3.9 -95.7 9.8C41 492.2 35.2 498 31.3 500c3.9 2 9.7 7.8 27.3 11.7 23.4 5.9 56.6 9.8 95.7 9.8zm89.8 171.9C269.5 668 296.9 630.9 326.2 584c-2 -2 -3.9 -2 -3.9 -3.9 -46.9 29.3 -84 58.6 -109.4 84 -27.4 27.3 -48.8 52.7 -60.6 74.2 -9.7 15.6 -11.7 23.4 -11.7 27.3 7.8 0 39.1 -7.8 103.5 -72.2zM418 847.7c5.8 -23.5 9.7 -56.7 9.7 -95.7 0 -35.2 -7.8 -82.1 -19.5 -136.8h-3.9C390.6 669.9 384.8 716.8 384.8 752c0 39 3.9 72.2 9.7 95.7 3.9 17.5 9.8 23.4 11.8 27.3 1.9 -3.9 7.8 -9.8 11.7 -27.3zM406.3 562.5c35.1 0 62.5 -27.3 62.5 -62.5s-27.4 -62.5 -62.5 -62.5 -62.5 27.3 -62.5 62.5 27.3 62.5 62.5 62.5zm83.9 17.6c0 1.9 -1.9 3.9 -3.9 3.9 29.3 46.9 56.7 84 82.1 109.4 64.4 64.4 95.7 72.2 103.5 72.2 0 -3.9 -2 -11.7 -11.7 -27.3C648.4 716.8 627 691.4 599.6 664.1c-25.4 -25.4 -62.5 -54.7 -109.4 -84zm263.7 -68.4c17.6 -3.9 23.4 -9.7 27.4 -11.7 -4 -2 -9.8 -7.8 -27.4 -11.7 -23.4 -5.9 -56.6 -9.8 -95.7 -9.8 -35.2 0 -82 7.8 -136.7 19.5v4c54.7 11.7 101.5 19.5 136.7 19.5 39.1 0 72.3 -3.9 95.7 -9.8zM527.3 734.4c13.7 13.6 27.4 27.3 39.1 37.1C584 832 580.1 869.1 558.6 877c-3.9 1.9 -5.9 1.9 -9.8 1.9 -19.5 0 -42.9 -21.5 -66.4 -64.4 2 -19.6 3.9 -39.1 3.9 -62.5s-1.9 -48.9 -5.8 -74.3c15.6 21.5 31.2 41.1 46.8 56.7zm19.6 115.2c1.9 -7.8 3.9 -27.3 -5.9 -62.5 -7.8 -7.8 -15.6 -15.6 -25.4 -23.4 0 15.6 0 31.2 -1.9 44.9 17.6 29.3 29.3 39.1 33.2 41zm-261.7 -584C271.5 252 257.8 240.2 246.1 230.5 228.5 169.9 232.4 130.9 253.9 123c3.9 -1.9 5.9 -1.9 9.8 -1.9 19.5 0 42.9 21.5 66.4 64.4 -2 19.6 -3.9 39.1 -3.9 62.5s1.9 48.9 5.8 74.3c-15.6 -21.5 -31.2 -41 -46.8 -56.7zM265.6 152.3c-1.9 7.9 -3.9 25.4 5.9 60.6 7.8 7.8 15.6 17.6 25.4 25.4 0 -15.6 0 -33.2 1.9 -46.9 -17.5 -29.3 -29.3 -37.1 -33.2 -39.1zM171.9 623c-13.7 13.7 -27.4 27.4 -37.1 39.1 -25.4 7.8 -46.9 9.8 -62.5 9.8 -23.5 0 -37.1 -7.8 -43 -19.6C21.5 632.8 41 605.5 91.8 578.1c19.5 2 39.1 2 62.5 2s48.8 -2 74.2 -5.9c-21.5 15.6 -41 33.2 -56.6 48.8zm-99.6 19.6c11.7 0 27.3 -2 46.8 -5.9 7.9 -7.8 17.6 -17.6 25.4 -27.3 -15.6 0 -33.2 0 -46.8 -2C68.4 625 60.5 634.8 58.6 640.6c1.9 0 5.9 2 13.7 2zM640.6 378.9c13.7 -13.7 27.4 -27.3 37.1 -39.1 25.4 -7.8 46.9 -11.7 62.5 -11.7 23.5 0 37.1 7.8 43 19.6 7.8 19.5 -11.7 48.8 -62.5 76.1 -19.5 -1.9 -39.1 -3.9 -62.5 -3.9s-48.8 3.9 -74.2 7.8c21.5 -15.6 41 -33.2 56.6 -48.8zm99.6 -21.5c-11.7 0 -27.3 3.9 -46.8 7.8 -7.9 7.8 -17.6 17.6 -25.4 27.4 15.6 0 33.2 0 46.8 1.9C744.1 377 752 365.2 753.9 359.4c-1.9 0 -5.9 -2 -13.7 -2zm-455 377c15.6 -15.6 31.2 -35.2 46.8 -56.7 -3.9 25.4 -5.8 50.8 -5.8 74.3 0 19.5 0 39 1.9 54.6C300.8 853.5 277.3 877 257.8 877c-3.9 0 -5.8 0 -9.8 -2 -19.5 -7.8 -25.3 -43 -9.7 -97.7 15.6 -11.7 31.2 -27.3 46.9 -42.9zm-25.4 113.3c5.8 -3.9 19.5 -17.6 39 -48.9 0 -11.7 -1.9 -23.4 -1.9 -35.1 -11.7 11.7 -21.5 19.5 -33.2 29.3 -7.8 33.2 -5.9 48.8 -3.9 54.7zM527.3 265.6c-15.6 15.7 -31.2 37.1 -46.8 58.6 3.9 -25.4 5.8 -52.7 5.8 -76.2 0 -19.5 0 -37.1 -1.9 -52.7C511.7 148.4 535.2 125 554.7 125c3.9 0 5.8 -2 9.8 0 19.5 7.8 25.3 44.9 9.7 99.6 -15.6 11.7 -31.2 25.4 -46.9 41zm25.4 -111.3c-5.8 3.9 -19.5 15.6 -39 46.9 0 11.7 1.9 23.4 1.9 37.1 11.7 -11.7 21.5 -21.5 33.2 -31.3 7.8 -33.2 5.9 -46.8 3.9 -52.7zM101.6 421.9C46.9 390.6 21.5 363.3 31.3 341.8c5.8 -11.7 21.4 -19.5 42.9 -19.5 15.6 0 33.2 3.9 54.7 9.7 11.7 15.7 27.4 31.3 43 46.9s35.1 33.2 56.6 48.8c-25.4 -3.9 -50.8 -7.8 -74.2 -7.8 -19.5 0 -37.1 0 -52.7 2zM74.2 351.6c-5.8 0 -11.7 1.9 -13.7 1.9 4 5.9 15.7 19.5 46.9 39.1 11.7 0 25.4 -2 37.1 -2C132.8 378.9 123 369.1 113.3 357.4 97.7 353.5 84 351.6 74.2 351.6zm636.7 226.5c54.7 31.3 80.1 60.6 70.4 82.1 -5.9 11.7 -21.5 17.5 -43 17.5 -15.6 0 -33.2 -3.9 -54.7 -9.7 -11.7 -15.7 -27.3 -29.3 -43 -45S605.5 589.8 584 574.2c25.4 3.9 50.8 5.9 74.2 5.9 19.5 0 37.1 0 52.7 -2zm27.4 70.3c5.8 0 11.7 -1.9 13.7 -1.9 -4 -5.9 -15.7 -19.5 -46.9 -39.1 -11.7 0 -25.4 2 -37.1 2 11.7 11.7 21.5 21.5 31.2 33.2 15.6 3.9 29.3 5.8 39.1 5.8z"/></svg>