<svg height="1000" width="875" xmlns="http://www.w3.org/2000/svg"><path d="M0 187.5h875v625H0v-625zM777.3 500c0 -46.9 0 -76.2 -5.8 -136.7 -5.9 -54.7 -33.2 -82 -87.9 -87.9 -60.6 -5.9 -168 -5.9 -246.1 -5.9s-185.5 0 -246.1 5.9c-54.7 5.9 -82 33.2 -87.9 87.9 -5.8 60.5 -5.8 89.8 -5.8 136.7 0 41 1.9 72.3 5.8 121.1v15.6c3.9 54.7 33.2 82.1 87.9 87.9 62.5 5.9 150.4 5.9 218.8 5.9h54.6c68.4 0 156.3 0 218.8 -5.9 54.7 -5.8 84 -33.2 87.9 -87.9v-15.6c3.9 -48.8 5.8 -80.1 5.8 -121.1zM597.7 316.4c42.9 0 74.2 13.7 95.7 37.1S724.6 416 724.6 459h-87.9v-2c0 -35.1 -21.5 -56.6 -46.9 -56.6 -27.3 0 -42.9 17.6 -46.8 50.8 0 0 -2 19.5 -2 50.8s2 46.8 2 46.8c1.9 29.3 19.5 50.8 46.8 50.8s45 -19.5 45 -50.8V541h89.8c0 46.9 -9.8 82 -31.2 105.5s-56.7 37.1 -105.5 37.1c-23.4 0 -43 -3.9 -60.6 -9.8s-29.3 -15.6 -41 -29.3 -19.5 -31.2 -25.4 -54.7 -9.7 -54.6 -9.7 -89.8 3.9 -64.5 11.7 -87.9 15.6 -43 29.3 -56.6 29.3 -23.5 46.9 -29.3 37.1 -9.8 58.6 -9.8zm-302.8 0c43 0 74.2 13.7 95.7 37.1S421.9 416 421.9 459H334v-2c0 -35.1 -21.5 -56.6 -46.9 -56.6 -27.3 0 -43 17.6 -46.9 50.8 0 0 -1.9 19.5 -1.9 50.8s1.9 46.8 1.9 46.8c2 29.3 19.6 50.8 46.9 50.8S332 580.1 332 548.8V541h89.9c0 46.9 -9.8 82 -31.3 105.5S334 683.6 285.2 683.6c-23.5 0 -41.1 -3.9 -58.6 -9.8s-31.3 -15.6 -43 -29.3 -19.5 -31.2 -25.4 -54.7 -9.8 -54.6 -9.8 -89.8 3.9 -64.5 11.8 -87.9 15.6 -43 29.3 -56.6 29.3 -23.5 46.8 -29.3 37.1 -9.8 58.6 -9.8z"/></svg>