<svg height="1000" width="687.5" xmlns="http://www.w3.org/2000/svg"><path d="M406.3 781.3h31.2c0 52.7 -43 93.7 -93.7 93.7S250 834 250 781.3h31.3c0 35.1 27.3 62.5 62.5 62.5s62.5 -27.4 62.5 -62.5zM105.5 62.5l503.9 859.4L582 937.5 78.1 78.1zm199.2 140.6c-23.4 3.9 -46.9 11.7 -66.4 23.5l-15.6 -27.4c23.4 -13.7 50.7 -23.4 76.1 -27.3v-2c0 -25.4 19.6 -44.9 45 -44.9s44.9 19.5 44.9 44.9v2c89.8 15.6 185.5 82 185.5 275.4 0 226.5 44.9 240.2 113.3 302.7H544.9l-17.6 -31.2h80.1c-13.6 -15.7 -27.3 -33.3 -37.1 -58.6C550.8 613.3 543 546.9 543 447.3c0 -80.1 -17.6 -142.6 -52.8 -183.6C462.9 232.4 423.8 209 382.8 203.1c-35.1 -3.9 -44.9 -3.9 -78.1 0zM80.1 718.8H418l17.5 31.2H0C70.3 687.5 113.3 673.8 113.3 447.3c0 -78.2 15.6 -136.8 41 -177.8l17.6 31.3c-19.6 39 -27.4 87.9 -27.4 146.5 0 101.5 -7.8 166 -27.3 212.9 -9.8 25.3 -23.4 42.9 -37.1 58.6z"/></svg>