<svg height="1000" width="562.5" xmlns="http://www.w3.org/2000/svg"><path d="M500 125c35.2 0 62.5 27.3 62.5 62.5v625c0 35.2 -27.3 62.5 -62.5 62.5H62.5C27.3 875 0 847.7 0 812.5v-625C0 152.3 27.3 125 62.5 125H500zm-15.6 421.9h-93.8v250h93.8v-250zm0 -156.3h-93.8v93.8h93.8v-93.8zM328.1 703.1h-93.7v93.8h93.7v-93.8zm0 -156.2h-93.7v93.7h93.7v-93.7zm0 -156.3h-93.7v93.8h93.7v-93.8zM171.9 703.1H78.1v93.8h93.8v-93.8zm0 -156.2H78.1v93.7h93.8v-93.7zm0 -156.3H78.1v93.8h93.8v-93.8zM78.1 296.9h406.3v-93.8H78.1v93.8z"/></svg>