<svg height="1000" width="875" xmlns="http://www.w3.org/2000/svg"><path d="M830.1 187.5c25.4 0 44.9 19.5 44.9 44.9v593.8c0 27.3 -19.5 48.8 -44.9 48.8H48.8C23.4 875 0 851.6 0 826.2V169.9C0 144.5 21.5 125 48.8 125h218.8c15.6 0 23.4 3.9 33.2 13.7l44.9 44.9c3.9 3.9 5.9 3.9 11.7 3.9h472.7zM48.8 156.3c-7.8 0 -17.5 5.8 -17.5 13.6v144.6c5.8 -2 9.7 -2 15.6 -2h781.2c5.9 0 9.8 0 15.7 2v-82.1c0 -7.8 -5.9 -13.6 -13.7 -13.6H357.4c-13.6 0 -23.4 -4 -33.2 -13.7l-44.9 -44.9c-3.9 -3.9 -5.9 -3.9 -11.7 -3.9H48.8zm795 669.9V359.4c0 -7.8 -7.9 -15.6 -15.7 -15.6H46.9c-7.8 0 -15.6 7.8 -15.6 15.6v466.8c0 7.8 9.7 17.6 17.5 17.6h781.3c7.8 0 13.7 -9.8 13.7 -17.6z"/></svg>