<svg height="1000" width="750" xmlns="http://www.w3.org/2000/svg"><path d="M748 500l2 2 -11.7 11.7c-41 41 -91.8 93.7 -152.4 134.7C515.6 695.3 445.3 718.8 375 718.8 212.9 718.8 121.1 623 13.7 513.7L0 500l2 -2C78.1 419.9 132.8 373 185.5 339.8 248 300.8 308.6 281.3 375 281.3c162.1 0 285.2 117.1 373 218.7zM375 656.3c85.9 0 156.3 -70.4 156.3 -156.3S460.9 343.8 375 343.8 218.8 414.1 218.8 500 289.1 656.3 375 656.3zM363.3 443.4c0 37.1 31.2 68.3 68.3 68.3 13.7 0 27.4 -3.9 37.2 -11.7 0 52.7 -43 93.8 -93.8 93.8S281.3 552.7 281.3 500s42.9 -93.7 93.7 -93.7c-7.8 9.7 -11.7 23.4 -11.7 37.1z"/></svg>