<svg height="1000" width="812.5" xmlns="http://www.w3.org/2000/svg"><path d="M406.3 93.8c224.6 0 406.2 181.6 406.2 406.2 0 15.6 0 31.3 -2 46.9C787.1 750 615.2 906.3 406.3 906.3 181.6 906.3 0 724.6 0 500 0 291 156.3 119.1 359.4 95.7c15.6 -1.9 31.2 -1.9 46.9 -1.9zm7.8 779.2c9.7 0 21.4 0 31.2 -1.9 -1.9 -19.5 -3.9 -39.1 -7.8 -58.6l46.9 -15.6 -9.8 -29.3 -44.9 13.7c-7.8 -27.4 -17.6 -54.7 -31.3 -82.1l39.1 -25.4 -17.6 -27.3 -37.1 25.4C367.2 646.5 349.6 623 328.1 599.6l33.2 -33.2 -21.5 -21.5 -33.2 33.2c-21.4 -21.5 -44.9 -39 -70.3 -54.7l25.4 -35.1 -27.3 -17.6L209 507.8c-27.4 -13.7 -54.7 -23.4 -82 -31.2l13.6 -43 -29.3 -9.8 -15.6 45c-19.5 -4 -41 -5.9 -60.5 -7.9 -2 9.8 -2 21.5 -2 31.3 17.6 1.9 35.2 1.9 52.7 5.8l-13.6 45 29.3 9.7 15.6 -46.8c15.6 3.9 31.2 9.7 44.9 15.6 9.8 3.9 19.5 9.8 29.3 13.7l-27.3 39 27.3 17.6 27.4 -41c23.4 13.7 46.8 29.3 66.4 48.8L252 632.8l21.4 21.5 33.2 -33.2c19.6 21.5 37.2 44.9 50.8 68.4l-41 27.3 17.6 25.4 39 -25.4c4 9.8 7.9 17.6 11.8 27.3 5.8 15.7 11.7 31.3 15.6 46.9l-44.9 13.7 9.7 31.2 43 -13.6c3.9 15.6 3.9 33.2 5.9 50.7zM709 537.1c21.5 3.9 44.9 7.8 66.4 9.8 1.9 -9.8 1.9 -21.5 1.9 -31.3 -19.5 -1.9 -39 -3.9 -58.5 -7.8l11.7 -37.1 -29.3 -9.8L687.5 500c-15.6 -3.9 -29.3 -7.8 -43 -13.7 -9.7 -3.9 -19.5 -9.7 -29.3 -13.6l23.5 -33.2 -27.4 -17.6L587.9 457C564.5 443.4 543 427.7 521.5 408.2l29.3 -29.3 -23.5 -23.4L498 384.8c-19.5 -19.6 -35.1 -41 -48.8 -64.5l37.1 -25.4 -17.5 -25.4L435.5 293c-5.8 -9.8 -11.7 -21.5 -15.6 -31.3 -5.8 -13.7 -9.7 -27.3 -13.6 -41l41 -13.7 -9.8 -29.3 -39.1 11.8c-3.9 -19.6 -5.8 -39.1 -7.8 -60.6 -9.7 0 -21.5 0 -31.2 2 1.9 23.4 5.8 44.9 9.7 68.3l-50.7 15.6 9.7 31.3L377 230.5c7.8 27.3 17.5 54.7 31.2 80l-43 29.3 17.6 25.4 41 -27.3c15.7 25.4 33.2 48.8 52.8 70.3l-37.1 37.1 21.4 21.5L498 429.7c21.5 21.5 46.9 39.1 72.3 54.7l-27.3 41 25.4 17.6 29.3 -45c25.3 13.7 52.7 25.4 80 33.3l-15.6 48.8 29.3 9.7z"/></svg>