<svg height="1000" width="875" xmlns="http://www.w3.org/2000/svg"><path d="M181.6 509.8c99.7 0 183.6 84 183.6 183.6S281.3 875 181.6 875 0 793 0 693.4 82 509.8 181.6 509.8zm107.5 289C318.4 769.5 334 732.4 334 693.4c0 -41.1 -15.6 -78.2 -44.9 -107.5S222.7 541 181.6 541s-76.1 15.6 -105.4 44.9S31.3 652.3 31.3 693.4c0 39 15.6 76.1 44.9 105.4s64.4 45 105.4 45 78.2 -15.7 107.5 -45zM562.5 250C527.3 250 500 222.7 500 187.5S527.3 125 562.5 125s62.5 27.3 62.5 62.5S597.7 250 562.5 250zm130.9 259.8c99.6 0 181.6 84 181.6 183.6S793 875 693.4 875 509.8 793 509.8 693.4s84 -183.6 183.6 -183.6zm105.4 289c29.3 -29.3 45 -66.4 45 -105.4 0 -41.1 -15.7 -78.2 -45 -107.5S734.4 541 693.4 541s-78.2 15.6 -107.5 44.9S541 652.3 541 693.4s15.6 76.1 44.9 105.4 66.4 45 107.5 45 76.1 -15.7 105.4 -45zM656.3 375c17.5 0 31.2 13.7 31.2 31.3s-13.7 31.2 -31.2 31.2H544.9S507.8 390.6 470.7 335.9L375 437.5c35.2 27.3 93.8 48.8 93.8 74.2v175.8c0 17.6 -13.7 31.3 -31.3 31.3s-31.2 -13.7 -31.2 -31.3V558.6S375 527.3 285.2 476.6C273.4 468.8 250 457 250 423.8c0 -15.6 5.9 -33.2 17.6 -44.9L408.2 244.1c11.7 -11.7 27.3 -17.5 43 -17.5 21.5 0 41 13.6 52.7 31.2L562.5 375h93.8z"/></svg>