<svg height="1000" width="875" xmlns="http://www.w3.org/2000/svg"><path d="M734.4 507.8c78.1 0 140.6 62.5 140.6 140.6v31.3c0 78.1 -62.5 140.6 -140.6 140.6h-46.9c0 7.8 -7.8 15.6 -15.6 15.6s-15.6 -7.8 -15.6 -15.6V416h-46.9c-7.8 0 -15.6 -9.7 -15.6 -17.6 0 -78.1 -76.2 -140.6 -156.3 -140.6S281.3 322.3 281.3 400.4c0 7.8 -7.9 15.6 -15.7 15.6h-46.8v404.3c0 7.8 -7.9 15.6 -15.7 15.6s-15.6 -7.8 -15.6 -15.6h-46.9C62.5 820.3 0 757.8 0 679.7v-31.3C0 570.3 62.5 507.8 140.6 507.8h46.9v-93.7c0 -136.8 113.3 -250 250 -250s250 113.2 250 250v93.7h46.9z"/></svg>