<svg height="1000" width="875" xmlns="http://www.w3.org/2000/svg"><path d="M669.9 248c-11.7 31.3 -33.2 60.6 -56.6 84 -46.9 46.9 -109.4 72.3 -175.8 72.3S308.6 378.9 261.7 332c-23.4 -23.4 -44.9 -52.7 -56.6 -84C261.7 171.9 345.7 125 437.5 125s175.8 46.9 232.4 123zm-484.4 31.3c43 87.9 132.9 150.4 236.4 156.2V875C343.8 871.1 271.5 830.1 218.8 767.6c-15.7 11.7 -19.6 17.6 -25.4 29.3 15.6 17.6 13.6 44.9 -2 62.5 -17.6 19.5 -46.9 21.5 -66.4 3.9s-21.5 -46.9 -3.9 -66.4L127 791s3.9 -1.9 3.9 -1.9c7.8 -25.4 25.4 -50.8 52.7 -72.3C154.3 666 132.8 607.4 127 543c-13.7 0 -23.5 1.9 -33.2 5.8 0 25.4 -21.5 45 -46.9 45S0 572.3 0 546.9 21.5 500 46.9 500h5.8c7.8 -3.9 15.7 -9.8 23.5 -11.7 13.6 -3.9 27.3 -7.8 48.8 -7.8 2 -45 11.7 -87.9 25.4 -127C138.7 345.7 128.9 339.8 121.1 332 109.4 322.3 99.6 304.7 93.8 293c-2 0 -5.9 0 -7.9 -2C62.5 279.3 56.6 250 68.4 226.6s41 -29.3 64.4 -17.6c21.5 11.7 29.3 39 19.5 60.5 4 7.8 5.9 13.7 7.9 15.7 3.9 3.9 9.7 5.8 15.6 9.7 3.9 -5.8 5.8 -9.7 9.7 -15.6zM828.1 500c25.4 0 46.9 21.5 46.9 46.9s-21.5 46.9 -46.9 46.9 -46.8 -19.6 -46.8 -45C771.5 544.9 761.7 543 748 543c-5.8 64.4 -27.3 125 -56.6 175.8 27.4 21.4 44.9 44.9 52.7 70.3 0 0 2 0 3.9 1.9l5.9 5.9c17.6 19.5 15.6 48.8 -3.9 66.4s-48.8 15.6 -66.4 -3.9c-15.6 -17.6 -17.6 -43 -2 -60.6 -5.8 -11.7 -11.7 -17.5 -25.3 -29.3C603.5 832 531.3 871.1 453.1 875V435.5c103.5 -5.8 193.4 -68.3 236.4 -156.2 3.9 5.9 5.8 11.7 9.7 17.6 5.9 -3.9 11.7 -7.8 15.6 -11.7 2 -2 4 -9.8 7.9 -15.7 -9.8 -21.5 -2 -48.8 19.5 -60.5 23.4 -11.7 52.7 -5.9 64.4 17.6s5.9 52.7 -17.5 64.4c-2 2 -5.9 3.9 -7.8 3.9 -5.9 11.7 -15.7 27.4 -27.4 37.1 -7.8 7.8 -17.6 13.7 -29.3 21.5 13.7 39.1 23.4 82 25.4 127 21.5 0 35.2 3.9 48.8 7.8 7.8 1.9 15.7 7.8 23.5 11.7h5.8z"/></svg>