<svg height="1000" width="875" xmlns="http://www.w3.org/2000/svg"><path d="M812.5 562.5c35.2 0 62.5 27.3 62.5 62.5s-27.3 62.5 -62.5 62.5c-29.3 0 -52.7 -19.5 -60.5 -44.9H625c-5.9 0 -13.7 -3.9 -15.6 -9.8L564.5 492.2 453.1 878.9c-1.9 5.9 -7.8 11.7 -15.6 11.7S423.8 884.8 421.9 877L308.6 201.2 203.1 630.9c-1.9 7.8 -7.8 11.7 -15.6 11.7H0v-31.3h175.8L296.9 121.1c1.9 -7.8 7.8 -11.7 15.6 -11.7s13.7 5.8 15.6 13.6l113.3 681.7L546.9 433.6c1.9 -5.9 7.8 -9.8 15.6 -9.8s13.7 3.9 15.6 9.8l58.6 177.7H752c5.8 -27.3 31.2 -48.8 60.5 -48.8z"/></svg>