<svg height="1000" width="750" xmlns="http://www.w3.org/2000/svg"><path d="M722.7 673.8l27.3 13.7C679.7 822.3 543 906.3 392.6 906.3c-107.4 0 -205.1 -43 -279.3 -119.2C41 710.9 0 609.4 0 500S41 289.1 113.3 212.9C187.5 136.7 285.2 93.8 392.6 93.8c109.4 0 203.1 41 261.7 117.1 56.6 74.3 74.2 170 50.8 271.5C681.6 582 630.9 627 591.8 648.4c-43 23.5 -84 31.3 -125 17.6 -9.8 -3.9 -15.6 -7.8 -21.5 -11.7 -9.8 -9.8 -17.6 -21.5 -19.5 -39.1h-2c-11.7 11.8 -25.4 23.5 -42.9 35.2S343.8 668 324.2 668c-15.6 0 -29.3 -3.9 -42.9 -9.8S255.9 642.6 248 632.8s-15.6 -23.4 -19.5 -37.1 -7.8 -27.3 -7.8 -43c0 -27.3 3.9 -54.7 13.7 -82s21.5 -52.7 37.1 -74.2 35.1 -39.1 58.6 -52.7 48.8 -19.6 76.2 -19.6c17.5 0 33.2 5.9 48.8 15.6s25.4 27.4 35.1 50.8l19.6 -52.7h41l-74.2 228.5c-2 7.8 -5.9 17.6 -7.8 25.4s-2 13.7 -2 19.5 2 13.7 5.9 17.6v2c21.4 17.5 68.3 9.7 103.5 -9.8 33.2 -17.6 76.1 -58.6 97.6 -146.5 21.5 -91.8 5.9 -177.7 -44.9 -244.1C576.2 162.1 492.2 125 392.6 125c-97.7 0 -189.5 39.1 -257.8 109.4C68.4 304.7 31.3 398.4 31.3 500s37.1 195.3 103.5 265.6C203.1 835.9 294.9 875 392.6 875c138.7 0 265.6 -76.2 330.1 -201.2zm-293 -115.2C441.4 539.1 449.2 519.5 457 498s9.8 -42.9 9.8 -60.5c0 -9.8 -2 -19.5 -5.9 -27.3 -3.9 -9.8 -7.8 -15.7 -13.6 -23.5S435.5 373 427.7 369.1s-15.6 -5.8 -23.4 -5.8c-19.5 0 -37.1 5.8 -54.7 17.6s-33.2 27.3 -44.9 46.8 -21.5 39.1 -27.4 60.6 -7.8 41 -7.8 60.5c0 23.5 5.9 45 17.6 58.6S314.5 627 334 627s37.1 -5.9 52.7 -19.6 31.3 -29.3 43 -48.8z"/></svg>