<svg height="1000" width="875" xmlns="http://www.w3.org/2000/svg"><path d="M658.2 285.2C777.3 285.2 875 373 875 498S777.3 714.8 658.2 714.8H216.8C97.7 714.8 0 623 0 498S97.7 285.2 216.8 285.2h441.4zM328.1 521.5v-43c0 -5.8 -3.9 -9.7 -9.7 -9.7H250v-68.4c0 -5.9 -3.9 -9.8 -9.8 -9.8h-42.9c-5.9 0 -9.8 3.9 -9.8 9.8v68.4h-68.4c-5.8 0 -9.7 3.9 -9.7 9.7v41c0 5.9 3.9 11.8 9.7 11.8h68.4v68.3c0 5.9 3.9 9.8 9.8 9.8h41c5.8 0 11.7 -3.9 11.7 -9.8v-68.3h68.4c5.8 0 9.7 -4 9.7 -9.8zm234.4 15.6c21.5 0 37.1 -15.6 37.1 -37.1S584 462.9 562.5 462.9s-39.1 15.6 -39.1 37.1 17.6 37.1 39.1 37.1zm82 82c21.5 0 39.1 -15.6 39.1 -37.1S666 544.9 644.5 544.9s-37.1 15.6 -37.1 37.1 15.6 37.1 37.1 37.1zm0 -162.1c21.5 0 39.1 -17.5 39.1 -39S666 380.9 644.5 380.9s-37.1 15.6 -37.1 37.1 15.6 39 37.1 39zm84 80.1c21.5 0 37.1 -15.6 37.1 -37.1S750 462.9 728.5 462.9s-39 15.6 -39 37.1 17.5 37.1 39 37.1z"/></svg>