<svg height="1000" width="970.7" xmlns="http://www.w3.org/2000/svg"><path d="M949.2 500l21.5 21.5L869.1 625 765.6 521.5 785.2 500l66.4 64.5C871.1 449.2 839.8 326.2 750 236.3 605.5 91.8 367.2 91.8 222.7 236.3c-29.3 29.3 -52.8 62.5 -70.4 97.7L123 318.4c19.6 -39.1 45 -74.3 76.2 -105.5 158.2 -158.2 416 -158.2 574.2 0 95.7 95.7 132.9 226.6 113.3 349.6zM750 763.7c29.3 -29.3 50.8 -62.5 68.4 -97.7l31.2 15.6c-19.5 37.2 -44.9 74.3 -76.2 105.5 -158.2 158.2 -416 158.2 -574.2 0C103.5 691.4 64.5 560.5 84 437.5L21.5 500 0 478.5 103.5 375l101.6 103.5L183.6 500l-64.5 -64.5c-19.5 115.3 13.7 238.3 103.6 328.2 144.5 144.5 382.8 144.5 527.3 0z"/></svg>