<svg height="1000" width="875" xmlns="http://www.w3.org/2000/svg"><path d="M343.8 531.3c0 -52.8 41 -93.8 93.7 -93.8s93.8 41 93.8 93.8S490.2 625 437.5 625s-93.7 -41 -93.7 -93.7zm0 0c0 -52.8 41 -93.8 93.7 -93.8s93.8 41 93.8 93.8S490.2 625 437.5 625s-93.7 -41 -93.7 -93.7zm531.2 0c0 162.1 -89.8 298.8 -222.7 375L498 640.6c39.1 -21.5 64.5 -62.5 64.5 -109.3H875zm-437.5 -125c-23.4 0 -44.9 5.8 -64.5 17.5L216.8 154.3C281.3 117.2 357.4 93.8 437.5 93.8s156.3 21.4 220.7 58.5L500 423.8c-17.6 -11.7 -39.1 -17.5 -62.5 -17.5zm-125 125c0 46.8 25.4 87.8 64.5 109.3L222.7 906.3C89.8 830.1 0 693.4 0 531.3h312.5z"/></svg>