<svg height="1000" width="687.5" xmlns="http://www.w3.org/2000/svg"><path d="M144.5 312.5H43C19.5 312.5 0 293 0 269.5V168c0 -23.5 19.5 -43 43 -43h101.5c23.5 0 43 19.5 43 43v101.5c0 23.5 -19.5 43 -43 43zm250 0H293c-23.5 0 -43 -19.5 -43 -43V168c0 -23.5 19.5 -43 43 -43h101.5c23.5 0 43 19.5 43 43v101.5c0 23.5 -19.5 43 -43 43zm250 0H543c-23.5 0 -43 -19.5 -43 -43V168c0 -23.5 19.5 -43 43 -43h101.5c23.5 0 43 19.5 43 43v101.5c0 23.5 -19.5 43 -43 43zm-500 281.3H43c-23.5 0 -43 -19.6 -43 -43V449.2c0 -23.4 19.5 -42.9 43 -42.9h101.5c23.5 0 43 19.5 43 42.9v101.6c0 23.4 -19.5 43 -43 43zm250 0H293c-23.5 0 -43 -19.6 -43 -43V449.2c0 -23.4 19.5 -42.9 43 -42.9h101.5c23.5 0 43 19.5 43 42.9v101.6c0 23.4 -19.5 43 -43 43zm250 0H543c-23.5 0 -43 -19.6 -43 -43V449.2c0 -23.4 19.5 -42.9 43 -42.9h101.5c23.5 0 43 19.5 43 42.9v101.6c0 23.4 -19.5 43 -43 43zM144.5 875H43C19.5 875 0 855.5 0 832V730.5c0 -23.5 19.5 -43 43 -43h101.5c23.5 0 43 19.5 43 43V832c0 23.5 -19.5 43 -43 43zm250 0H293c-23.5 0 -43 -19.5 -43 -43V730.5c0 -23.5 19.5 -43 43 -43h101.5c23.5 0 43 19.5 43 43V832c0 23.5 -19.5 43 -43 43zm250 0H543c-23.5 0 -43 -19.5 -43 -43V730.5c0 -23.5 19.5 -43 43 -43h101.5c23.5 0 43 19.5 43 43V832c0 23.5 -19.5 43 -43 43z"/></svg>