<svg height="1000" width="812.5" xmlns="http://www.w3.org/2000/svg"><path d="M709 585.9S695.3 584 675.8 584s-44.9 1.9 -56.7 13.7C597.7 619.1 334 875 334 875L0 552.7 205.1 349.6l-95.7 -95.7c-37.1 -37.1 -37.1 -95.7 0 -132.8C127 103.5 152.3 93.8 175.8 93.8s46.9 9.7 64.4 27.3l111.4 109.4zM130.9 232.4l95.7 95.7 89.8 -87.9 -97.6 -97.6C207 130.9 191.4 125 173.8 125s-31.2 5.9 -42.9 17.6 -17.6 27.3 -17.6 44.9 5.8 33.2 17.6 44.9zm587.9 423.9s93.7 103.5 93.7 156.2c0 50.8 -43 93.8 -93.7 93.8C668 906.3 625 865.2 625 812.5s93.8 -156.2 93.8 -156.2z"/></svg>