<svg height="1000" width="812.5" xmlns="http://www.w3.org/2000/svg"><path d="M406.3 93.8c224.6 0 406.2 181.6 406.2 406.2S630.9 906.3 406.3 906.3 0 724.6 0 500 181.6 93.8 406.3 93.8zm265.6 140.6C636.7 199.2 597.7 173.8 552.7 154.3c-11.7 -5.9 -25.4 -9.8 -37.1 -13.7L502 337.9c27.3 15.6 50.7 39.1 66.4 66.4l197.2 -11.7c-3.9 -13.7 -7.8 -27.4 -13.6 -39.1 -19.6 -44.9 -45 -84 -80.1 -119.1zM781.3 500c0 -27.3 -2 -52.7 -7.9 -78.1L582 435.5c7.8 19.6 11.8 43 11.8 64.5 0 23.4 -4 44.9 -11.8 64.5l191.4 13.6c5.9 -25.4 7.9 -50.8 7.9 -78.1zm-375 156.3c85.9 0 156.2 -70.4 156.2 -156.3S492.2 343.8 406.3 343.8 250 414.1 250 500s70.3 156.3 156.3 156.3zM31.3 500c0 27.3 1.9 52.7 7.8 78.1l191.4 -13.6c-7.8 -19.6 -11.7 -43 -11.7 -64.5 0 -23.4 3.9 -44.9 11.7 -64.5L39.1 421.9c-5.9 25.4 -7.8 50.8 -7.8 78.1zM484.4 132.8C459 127 433.6 125 406.3 125c-25.4 0 -52.8 2 -78.2 7.8l13.7 191.4c19.5 -7.8 41 -11.7 64.5 -11.7s44.9 3.9 64.4 11.7zM140.6 234.4c-35.1 35.1 -60.5 74.2 -80.1 119.1 -5.8 11.7 -9.7 25.4 -13.6 37.1l197.2 13.7c15.7 -27.3 39.1 -50.8 66.4 -66.4L296.9 140.6c-11.7 3.9 -25.4 7.8 -37.1 13.7 -45 19.5 -84 44.9 -119.2 80.1zm0 531.2c35.2 35.2 74.2 60.6 119.2 80.1 11.7 5.9 25.4 9.8 37.1 13.7l13.6 -197.3C283.2 646.5 259.8 623 244.1 595.7L46.9 609.4c3.9 11.7 7.8 25.4 13.6 37.1 19.6 44.9 45 84 80.1 119.1zm187.5 101.6c25.4 5.8 50.8 7.8 78.2 7.8 25.3 0 52.7 -2 78.1 -7.8L470.7 675.8c-19.5 7.8 -41 11.7 -64.4 11.7 -21.5 0 -45 -3.9 -64.5 -11.7zM671.9 765.6C707 730.5 732.4 691.4 752 646.5c5.8 -11.7 9.7 -25.4 13.6 -37.1L568.4 595.7C552.7 623 529.3 646.5 502 662.1l13.6 197.3c11.7 -3.9 25.4 -7.8 37.1 -13.7 45 -19.5 84 -44.9 119.2 -80.1z"/></svg>