<svg height="1000" width="812.5" xmlns="http://www.w3.org/2000/svg"><path d="M277.3 259.8c-31.2 -3.9 -58.5 5.8 -82 29.3s-33.2 50.7 -29.3 82 21.5 64.4 48.8 91.8L543 791 427.7 906.3 80.1 558.6C-25.4 453.1 -25.4 279.3 80.1 173.8c105.4 -105.4 279.3 -105.4 384.7 0l347.7 345.7L697.3 636.7 369.1 308.6c-27.3 -27.3 -60.5 -44.9 -91.8 -48.8zm496.1 259.7l-56.6 -56.6 -78.1 76.2 58.6 58.6zM503.9 791l-58.6 -58.6 -76.2 78.1 58.6 56.7zM195.3 482.4C130.9 418 113.3 332 175.8 269.5c60.5 -60.5 148.4 -44.9 212.9 19.6l230.4 230.4 78.2 -76.1 -252 -250C398.4 146.5 339.8 121.1 273.4 121.1S146.5 146.5 99.6 193.4 27.3 300.8 27.3 367.2s25.4 125 72.3 171.9l250 251.9 78.1 -78.1z"/></svg>