<svg height="1000" width="703.1" xmlns="http://www.w3.org/2000/svg"><path d="M453.1 541c-48.8 64.5 -74.2 82 -74.2 82l-27.3 17.6c-13.7 7.8 -39.1 27.4 -56.7 54.7 -27.3 44.9 -48.8 107.4 -50.8 113.3 -7.8 27.3 -23.4 50.8 -42.9 68.4 -21.5 19.5 -48.9 29.3 -76.2 29.3 -33.2 0 -66.4 -15.7 -89.8 -43C11.7 837.9 0 802.7 0 767.6s11.7 -70.3 35.2 -95.7c23.4 -27.4 54.6 -43 89.8 -43 23.4 0 46.9 7.8 66.4 21.5l19.5 -39.1c5.9 -13.6 13.7 -29.3 21.5 -42.9 3.9 -7.9 9.8 -17.6 17.6 -29.3 5.9 -9.8 11.7 -17.6 17.6 -27.4 15.6 -23.4 29.3 -42.9 29.3 -44.9l29.3 -39.1 5.8 -7.8 19.6 -25.4L574.2 93.8c11.7 0 29.3 3.9 39.1 13.6 23.4 21.5 37.1 44.9 37.1 80.1 0 25.4 -7.8 54.7 -21.5 89.8C609.4 324.2 503.9 476.6 453.1 541zM125 822.3c25.4 0 46.9 -25.4 46.9 -54.7S150.4 712.9 125 712.9s-46.9 25.4 -46.9 54.7 21.5 54.7 46.9 54.7zM351.6 562.5c17.5 0 31.2 -13.7 31.2 -31.2S369.1 500 351.6 500s-31.3 13.7 -31.3 31.3 13.7 31.2 31.3 31.2zm-125 -54.7C158.2 414.1 91.8 318.4 74.2 277.3 60.5 242.2 52.7 214.8 52.7 187.5c0 -35.2 13.7 -68.4 37.1 -85.9 7.9 -5.9 19.6 -7.8 37.2 -7.8l205 275.3 -91.8 127c-3.9 5.9 -5.8 11.7 -9.7 17.6 -2 -2 -2 -3.9 -3.9 -5.9zm351.5 121.1c68.4 0 125 62.5 125 138.7s-56.6 138.7 -125 138.7c-27.3 0 -54.7 -9.8 -76.1 -29.3 -19.6 -17.6 -35.2 -41.1 -43 -68.4 -2 -5.9 -23.5 -68.4 -50.8 -113.3 -9.8 -13.7 -19.5 -23.4 -29.3 -33.2l70.3 -64.4 21.5 -27.4c7.8 13.7 13.7 27.4 19.5 41 7.8 15.7 15.7 27.4 21.5 39.1 19.6 -13.7 43 -21.5 66.4 -21.5zm0 193.4c25.4 0 46.9 -25.4 46.9 -54.7s-21.5 -54.7 -46.9 -54.7 -46.8 25.4 -46.8 54.7 21.4 54.7 46.8 54.7z"/></svg>