<svg height="1000" width="875" xmlns="http://www.w3.org/2000/svg"><path d="M539.1 398.4c21.4 0 39 17.6 39 39.1s-17.6 39.1 -39 39.1S500 459 500 437.5s17.6 -39.1 39.1 -39.1zm85.9 86c21.5 0 39.1 17.6 39.1 39s-17.6 39.1 -39.1 39.1 -39.1 -17.6 -39.1 -39.1 17.6 -39 39.1 -39zm-423.8 -125c42.9 0 76.1 35.1 76.1 78.1s-33.2 78.1 -76.1 78.1S125 480.5 125 437.5s33.2 -78.1 76.2 -78.1zm0 115.2c21.5 0 37.1 -15.6 37.1 -37.1s-15.6 -37.1 -37.1 -37.1 -37.1 15.6 -37.1 37.1 15.6 37.1 37.1 37.1zM625 312.5c21.5 0 39.1 17.6 39.1 39.1s-17.6 39 -39.1 39 -39.1 -17.6 -39.1 -39 17.6 -39.1 39.1 -39.1zm85.9 85.9c21.5 0 39.1 17.6 39.1 39.1s-17.6 39.1 -39.1 39.1 -39 -17.6 -39 -39.1 17.6 -39.1 39 -39.1zm136.8 87.9c41 171.9 35.1 296.9 -13.7 320.3 -7.8 3.9 -17.6 5.9 -25.4 5.9 -43 0 -87.9 -46.9 -132.8 -101.6C625 648.4 613.3 646.5 460.9 646.5h-46.8c-152.4 0 -164.1 1.9 -214.9 64.4C154.3 765.6 109.4 812.5 66.4 812.5c-7.8 0 -17.6 -2 -25.4 -5.9C-7.8 783.2 -13.7 658.2 27.3 486.3s84 -265.6 171.9 -291c19.6 -5.8 35.2 -7.8 50.8 -7.8 54.7 0 91.8 29.3 187.5 29.3S570.3 187.5 625 187.5c15.6 0 31.3 2 50.8 7.8 87.9 25.4 130.8 119.2 171.9 291zm-27.4 293c19.5 -9.8 44.9 -93.8 -1.9 -285.2C777.3 318.4 734.4 244.1 666 224.6c-15.6 -3.9 -27.3 -5.8 -41 -5.8 -19.5 0 -37.1 3.9 -58.6 9.7C535.2 236.3 496.1 248 437.5 248S339.8 236.3 308.6 228.5c-21.5 -5.8 -39.1 -9.7 -58.6 -9.7 -13.7 0 -25.4 1.9 -41 5.8C140.6 244.1 97.7 318.4 56.6 494.1 9.8 685.5 35.2 769.5 54.7 779.3c3.9 2 7.8 2 11.7 2 11.7 0 27.4 -7.9 44.9 -23.5s37.1 -35.1 62.5 -66.4 46.9 -54.7 86 -66.4c33.2 -9.8 74.2 -9.8 154.3 -9.8h46.8c80.1 0 121.1 0 154.3 9.8 39.1 11.7 60.6 35.2 86 66.4s44.9 50.8 62.5 66.4 33.2 23.5 44.9 23.5c3.9 0 7.8 0 11.7 -2z"/></svg>