<svg height="1000" width="500" xmlns="http://www.w3.org/2000/svg"><path d="M187.5 93.8C357.4 209 519.5 418 498 615.2 472.7 857.4 294.9 906.3 250 906.3S2 832 0 615.2C-2 349.6 238.3 357.4 187.5 93.8zM250 892.6s78.1 -66.4 78.1 -146.5S250 601.6 250 601.6 169.9 666 169.9 746.1 250 892.6 250 892.6zM466.8 613.3c7.8 -86 -19.5 -179.7 -80.1 -273.5C343.8 275.4 287.1 212.9 224.6 160.2c0 103.5 -46.9 162.1 -95.7 220.7C78.1 441.4 31.3 500 31.3 615.2c0 45 9.7 87.9 29.2 125 15.7 31.3 39.1 56.7 68.4 80.1 15.6 11.7 31.3 21.5 44.9 29.3C156.3 822.3 138.7 785.2 138.7 746.1c0 -91.8 85.9 -162.1 89.8 -166L250 562.5l21.5 17.6c3.9 3.9 87.9 74.2 87.9 166 0 43 -17.6 80.1 -37.1 109.4 11.7 -5.9 27.3 -15.7 39 -25.4 27.4 -21.5 48.9 -48.8 66.4 -80.1 21.5 -39.1 33.2 -84 39.1 -136.7z"/></svg>