<svg height="1000" width="816.4" xmlns="http://www.w3.org/2000/svg"><path d="M752 125c37.1 0 64.4 25.4 64.4 62.5v558.6c0 37.1 -27.3 66.4 -64.4 66.4H472.7s-48.9 7.8 -48.9 37.1V875h-31.2v-25.4c0 -29.3 -21.5 -37.1 -48.8 -37.1H64.5C27.3 812.5 0 783.2 0 746.1V187.5C0 150.4 27.3 125 64.5 125h292.9c19.6 0 39.1 9.8 50.8 23.4C419.9 134.8 439.5 125 459 125h293zM392.6 802.7V199.2c0 -17.6 -23.5 -42.9 -48.8 -42.9H64.5c-17.6 0 -31.3 13.6 -31.3 31.2v558.6c0 17.6 13.7 35.2 31.3 35.2h281.2c19.5 0 37.1 5.8 46.9 21.4zM533.2 156.3v195.3l44.9 -27.4 17.6 -11.7 17.6 11.7 44.9 27.4V156.3h-125zm250 589.8V187.5c0 -17.6 -13.7 -31.2 -31.2 -31.2h-62.5v255.8l-93.8 -62.5L502 412.1V156.3h-29.3c-25.4 0 -48.9 25.3 -48.9 42.9v603.5c9.8 -17.5 27.4 -21.4 46.9 -21.4H752c17.5 0 31.2 -17.6 31.2 -35.2z"/></svg>