<svg height="1000" width="812.5" xmlns="http://www.w3.org/2000/svg"><path d="M187.5 625c-50.8 0 -93.7 43 -93.7 93.8s42.9 93.7 93.7 93.7 93.8 -43 93.8 -93.7S238.3 625 187.5 625zm0 -31.2c68.4 0 125 56.6 125 125s-56.6 125 -125 125 -125 -56.7 -125 -125 56.6 -125 125 -125zM623 562.5c86 0 158.3 70.3 158.3 156.3S709 875 623 875H187.5C101.6 875 31.3 804.7 31.3 718.8S101.6 562.5 187.5 562.5H623zm2 -31.2c103.5 0 187.5 83.9 187.5 187.5S728.5 906.3 625 906.3H187.5C84 906.3 0 822.3 0 718.8S84 531.3 187.5 531.3H625zm0 -343.8c-50.8 0 -93.7 43 -93.7 93.8S574.2 375 625 375s93.8 -43 93.8 -93.7 -43 -93.8 -93.8 -93.8zm0 -31.2c68.4 0 125 56.6 125 125s-56.6 125 -125 125S500 349.6 500 281.3s56.6 -125 125 -125zM189.5 125H625c85.9 0 156.3 70.3 156.3 156.3S710.9 437.5 625 437.5H187.5C101.6 437.5 31.3 367.2 31.3 281.3S103.5 125 189.5 125zm-2 -31.2H625c103.5 0 187.5 83.9 187.5 187.5S728.5 468.8 625 468.8H187.5C84 468.8 0 384.8 0 281.3S84 93.8 187.5 93.8z"/></svg>