<svg height="1000" width="687.5" xmlns="http://www.w3.org/2000/svg"><path d="M406.3 781.3h31.2c0 50.7 -43 93.7 -93.7 93.7S250 832 250 781.3h31.3c0 33.2 27.3 62.5 62.5 62.5s62.5 -29.3 62.5 -62.5zm167.9 -334c0 226.5 44.9 240.2 113.3 302.7H0C70.3 687.5 113.3 675.8 113.3 449.2c0 -193.3 95.7 -259.7 185.5 -275.4v-3.9c0 -25.4 19.6 -44.9 45 -44.9s44.9 19.5 44.9 44.9v3.9c89.8 15.7 185.5 80.1 185.5 273.5zM80.1 718.8h527.3c-13.6 -15.7 -27.3 -33.3 -37.1 -58.6C550.8 613.3 543 546.9 543 447.3c0 -80.1 -17.6 -142.6 -52.8 -183.6C462.9 232.4 423.8 209 382.8 203.1c-35.1 -3.9 -44.9 -3.9 -78.1 0 -43 5.9 -80.1 29.3 -107.4 60.6 -35.2 41 -52.8 103.5 -52.8 183.6 0 99.6 -7.8 166 -27.3 212.9 -9.8 25.3 -23.4 42.9 -37.1 58.6z"/></svg>