<svg height="1000" width="750" xmlns="http://www.w3.org/2000/svg"><path d="M589.8 414.1C681.6 439.5 750 525.4 750 625c0 121.1 -97.7 218.8 -218.7 218.8 -60.6 0 -117.2 -25.4 -156.3 -66.5 -39.1 41.1 -95.7 66.5 -156.2 66.5C97.7 843.8 0 746.1 0 625 0 525.4 68.4 439.5 160.2 414.1c-2 -13.7 -3.9 -25.4 -3.9 -39.1 0 -121.1 97.6 -218.7 218.7 -218.7S593.8 253.9 593.8 375c0 13.7 -2 25.4 -4 39.1zM375 771.5l2 3.9c5.8 -5.9 11.7 -13.7 17.5 -21.5 27.4 -37.1 43 -80.1 43 -128.9 0 -13.7 -2 -25.4 -3.9 -39.1 70.3 -19.5 125 -72.2 148.4 -140.6 3.9 -9.8 5.9 -19.5 7.8 -29.3 -1.9 0 -3.9 -1.9 -5.8 -1.9v-2c-7.8 -1.9 -15.6 -1.9 -23.5 -3.9 -9.7 -1.9 -19.5 -1.9 -29.2 -1.9 -60.6 0 -117.2 25.3 -156.3 66.4C335.9 431.6 279.3 406.3 218.8 406.3c-9.8 0 -19.6 0 -29.3 1.9 -7.9 2 -15.7 2 -23.5 3.9v2c-1.9 0 -3.9 1.9 -5.8 1.9 1.9 9.8 3.9 19.5 7.8 29.3 23.4 68.4 78.1 121.1 148.4 140.6 -1.9 13.7 -3.9 25.4 -3.9 39.1 0 48.8 15.6 91.8 43 128.9 5.8 7.8 11.7 15.6 17.5 21.5zm29.3 -179.7c2 9.8 2 21.5 2 33.2 0 39.1 -11.8 74.2 -31.3 103.5C355.5 699.2 343.8 664.1 343.8 625c0 -11.7 0 -23.4 1.9 -33.2 9.8 2 19.5 2 29.3 2s19.5 0 29.3 -2zM550.8 439.5c-19.5 56.6 -66.4 99.6 -125 115.2 -7.8 -21.5 -17.6 -41 -31.3 -58.6 35.2 -35.2 84 -58.6 136.8 -58.6 5.8 0 13.6 2 19.5 2zm-156.3 121c-5.8 0 -13.6 2 -19.5 2s-13.7 -2 -19.5 -2c5.8 -13.6 11.7 -27.3 19.5 -39 7.8 11.7 13.7 25.4 19.5 39zm-175.7 -123c52.7 0 101.5 23.4 136.7 58.6 -13.7 17.6 -23.5 37.1 -31.3 58.6C265.6 539.1 218.8 496.1 199.2 439.5c5.9 0 13.7 -2 19.6 -2z"/></svg>