<svg height="1000" width="812.5" xmlns="http://www.w3.org/2000/svg"><path d="M388.7 468.8h37.1l17.6 31.2 -17.6 31.3h-39.1L369.1 502zm17.6 -375c224.6 0 406.2 181.6 406.2 406.2S630.9 906.3 406.3 906.3 0 724.6 0 500 181.6 93.8 406.3 93.8zm-2 468.7h371.1c1.9 -9.8 3.9 -21.5 3.9 -31.2H460.9L646.5 210.9c-7.8 -5.8 -17.6 -11.7 -25.4 -17.5L460.9 468.8 275.4 148.4c-5.9 2 -9.8 3.9 -15.6 5.9 -3.9 2 -9.8 3.9 -13.7 5.9l160.2 277.3H37.1c-1.9 9.8 -3.9 21.5 -3.9 31.3h320.3L168 789.1c7.8 5.8 17.5 13.6 25.4 19.5L351.6 533.2l183.6 318.4 17.5 -5.9 11.8 -5.9z"/></svg>