<svg height="1000" width="875" xmlns="http://www.w3.org/2000/svg"><path d="M437.5 218.8zm181.6 435.5c21.5 7.8 -21.4 -7.8 0 0 54.7 19.5 89.9 68.4 89.9 127H166c0 -43 17.6 -82.1 52.8 -107.5 29.2 -21.5 60.5 -23.4 95.7 -31.2 13.6 -2 46.8 -9.8 50.7 -25.4s2 -29.3 2 -44.9c0 -5.9 0 -5.9 -3.9 -9.8 -7.8 -7.8 -11.7 -17.6 -15.6 -27.3 -3.9 -15.7 -5.9 -31.3 -7.9 -46.9 -17.5 3.9 -19.5 -31.3 -23.4 -41 -1.9 -7.8 -13.7 -46.9 5.9 -41 -5.9 -9.8 -7.8 -25.4 -9.8 -37.2 -3.9 -25.3 -3.9 -50.7 5.9 -76.1 19.5 -50.8 72.2 -76.2 125 -74.2 50.7 1.9 99.6 31.2 115.2 82 7.8 23.4 5.9 50.8 1.9 76.2 -1.9 9.7 -3.9 21.4 -7.8 29.3 19.6 -5.9 7.8 39 5.9 44.9 -3.9 9.7 -5.9 41 -23.4 37.1 -2 19.5 -3.9 43 -13.7 60.5 -2 3.9 -13.7 15.7 -13.7 19.6v21.4c0 9.8 0 19.6 3.9 29.3s19.6 13.7 27.4 15.7c27.3 9.7 52.7 9.7 80 19.5zm-394.5 56.6c-11.7 11.8 17.6 -19.5 0 0 -11.7 11.8 -19.5 23.5 -23.4 39.1h472.6C666 720.7 640.6 697.3 615.2 685.5s-54.7 -7.8 -80 -17.5 -48.9 -17.6 -54.7 -48.9c-3.9 -21.4 -3.9 -42.9 -3.9 -64.4 0 -3.9 13.6 -13.7 15.6 -17.6 5.8 -9.8 7.8 -21.5 9.8 -33.2 1.9 -9.8 0 -23.4 7.8 -29.3 9.7 -7.8 13.6 -13.7 17.5 -25.4 4 -15.6 5.9 -23.4 -1.9 -37.1 -5.9 -9.8 0 -15.6 1.9 -25.4 5.9 -21.5 7.9 -46.9 4 -70.3 -15.7 -72.3 -121.1 -87.9 -168 -37.1 -23.5 25.4 -23.5 60.5 -17.6 91.8 2 11.7 11.7 27.3 5.9 37.1 -2 5.9 -9.8 11.7 -7.8 19.5 3.9 9.8 3.9 21.5 7.8 31.3 3.9 7.8 7.8 11.7 13.6 15.6s5.9 11.7 5.9 17.6c1.9 13.7 3.9 33.2 11.7 44.9 5.9 7.8 15.6 11.7 15.6 21.5v41c-1.9 15.6 -3.9 35.2 -15.6 46.9 -13.7 11.7 -35.1 19.5 -52.7 23.4 -21.5 5.9 -44.9 5.9 -64.5 13.7 -15.6 5.9 -29.3 15.6 -41 27.3zm-5.8 -82c-29.3 13.7 17.5 -7.8 0 0 -17.6 9.8 -35.2 21.5 -48.9 37.1 -1.9 3.9 -11.7 21.5 -13.6 21.5H0c0 -39.1 25.4 -66.4 60.5 -78.1 11.8 -3.9 52.8 -7.8 58.6 -21.5 3.9 -9.8 0 -21.5 0 -31.3 -19.5 2 -46.8 -1.9 -62.5 -13.6 -3.9 -3.9 5.9 -17.6 7.9 -23.5l5.8 -23.4c2 -17.6 2 -37.1 2 -54.7 0 -31.2 -2 -66.4 15.6 -93.7 15.6 -25.4 44.9 -35.2 74.2 -35.2 46.9 0 84 25.4 91.8 72.3 5.9 31.2 2 62.5 3.9 93.7 0 15.6 3.9 31.3 9.8 46.9 1.9 3.9 9.7 13.7 5.8 17.6l-11.7 5.8c-9.7 3.9 -21.5 5.9 -33.2 7.8 -1.9 0 -15.6 0 -17.6 2s0 17.6 0 21.5c0 7.8 2 11.7 9.8 13.7 11.7 3.9 37.1 5.8 44.9 15.6 3.9 5.8 2 9.7 -3.9 9.7 -15.6 2 -29.3 2 -42.9 9.8zm-80.1 27.4c11.7 -19.6 31.2 -35.2 50.8 -46.9 -17.6 -17.6 -9.8 -50.8 -7.9 -72.3 0 -3.9 0 -9.8 3.9 -9.8h15.7c11.7 0 21.5 -1.9 33.2 -3.9 -13.7 -44.9 0 -91.8 -9.8 -136.7 -5.8 -31.2 -29.3 -44.9 -60.5 -44.9 -33.2 0 -52.8 17.6 -58.6 48.8 -7.8 43 5.8 89.9 -7.8 132.8 17.5 2 33.2 3.9 50.7 3.9 2 0 2 54.7 2 56.7 -2 23.4 -15.6 35.1 -37.1 43 -23.5 7.8 -56.7 5.8 -70.3 29.3h95.7zm580.1 31.2c-4 -15.6 -19.6 -27.3 -31.3 -37.1C671.9 638.7 652.3 625 632.8 621.1c-5.8 -2 -31.2 1.9 -25.4 -9.8 3.9 -7.8 17.6 -9.7 25.4 -11.7s29.3 -3.9 31.3 -13.7c0 -1.9 1.9 -27.3 0 -27.3 -11.8 0 -23.5 -2 -35.2 -3.9 -7.8 -2 -13.7 -3.9 -21.5 -7.8 -11.7 -5.9 -3.9 -11.7 0 -21.5 27.4 -62.5 -19.5 -171.9 62.5 -205.1 29.3 -11.7 66.4 -9.8 93.8 5.9 29.3 17.6 39 52.7 39 85.9 0 39.1 -7.8 85.9 13.7 121.1 3.9 5.9 7.8 7.8 0 11.7 -3.9 2 -7.8 2 -11.7 3.9l-23.4 5.9s-17.6 1.9 -25.4 1.9c0 7.9 -3.9 25.4 1.9 33.2 11.7 13.7 41 13.7 56.7 19.6 35.1 11.7 60.5 39 60.5 78.1H718.8zm-2 -52.7c7.8 7.8 -9.8 -9.8 0 0s15.6 21.5 29.3 21.5H832C818.4 632.8 781.3 634.8 757.8 625c-21.5 -7.8 -31.2 -23.4 -33.2 -46.9 0 -3.9 -1.9 -52.7 2 -52.7 17.5 0 35.1 0 50.7 -2 -13.6 -44.9 2 -91.8 -7.8 -136.7 -5.8 -29.3 -29.3 -44.9 -58.6 -44.9 -33.2 0 -54.6 15.6 -60.5 48.8 -7.8 44.9 3.9 89.9 -9.8 132.8 11.7 3.9 23.5 3.9 35.2 3.9s15.6 -1.9 17.6 9.8c1.9 21.5 9.7 54.7 -7.9 72.3 11.8 7.8 21.5 15.6 31.3 25.4z"/></svg>