<svg height="1000" width="812.5" xmlns="http://www.w3.org/2000/svg"><path d="M539.1 156.3c44.9 5.8 74.2 70.3 64.4 142.5C593.8 365.2 552.7 416 509.8 416H502c-45 -5.8 -72.3 -70.3 -62.5 -142.6 9.7 -66.4 48.8 -117.1 91.8 -117.1H539.1zM572.3 293c3.9 -27.4 1.9 -54.7 -7.8 -76.2 -7.9 -15.6 -17.6 -27.3 -29.3 -29.3h-3.9c-23.5 0 -54.7 37.1 -62.5 91.8 -4 27.3 0 54.7 9.7 76.2 7.8 15.6 17.6 27.3 29.3 29.3h2c23.4 0 54.7 -37.1 62.5 -91.8zM533.2 156.3zm236.3 173.8c43 17.6 56.7 87.9 29.3 154.3 -23.4 56.6 -66.4 91.8 -105.4 91.8 -7.9 0 -13.7 -2 -21.5 -3.9 -43 -17.6 -54.7 -86 -27.4 -152.4C668 363.3 709 326.2 748 326.2c7.9 0 13.7 1.9 21.5 3.9zm0 142.6c11.8 -27.4 13.7 -54.7 9.8 -78.2C775.4 377 767.6 363.3 757.8 359.4c-3.9 -2 -5.8 -2 -9.8 -2 -11.7 0 -23.4 5.9 -37.1 17.6 -15.6 13.7 -29.3 33.2 -39 56.6 -11.7 27.4 -13.7 54.7 -9.8 78.2 3.9 17.5 11.7 29.3 21.5 33.2 3.9 1.9 5.9 1.9 9.8 1.9 11.7 0 23.4 -5.8 37.1 -17.6 15.6 -13.6 29.3 -31.2 39 -54.6zM546.9 576.2c46.9 72.2 138.6 78.1 162.1 140.6 3.9 11.7 7.8 25.4 7.8 37.1 0 50.8 -39.1 89.9 -89.8 89.9 -62.5 0 -146.5 -46.9 -220.7 -46.9S248 843.8 185.5 843.8c-50.7 0 -89.8 -39.1 -89.8 -89.9 0 -11.7 2 -25.4 5.9 -37.1 23.4 -62.5 117.2 -68.4 164 -140.6C320.3 490.2 343.8 459 406.3 459s85.9 31.2 140.6 117.2zM627 812.5c33.2 0 58.5 -27.3 58.5 -60.5 0 -7.9 0 -13.7 -3.9 -21.5v-2C673.8 707 650.4 695.3 621.1 677.7c-35.2 -19.5 -74.2 -41 -101.6 -83.9 -25.4 -39.1 -42.9 -68.4 -60.5 -84 -15.6 -13.7 -29.3 -19.6 -52.7 -19.6 -43 0 -58.6 19.6 -113.3 103.6 -27.4 42.9 -66.4 64.4 -101.6 83.9 -29.3 17.6 -52.7 29.3 -60.5 50.8v2C127 738.3 127 744.1 127 752c0 33.2 25.3 60.5 58.5 60.5 25.4 0 56.7 -11.7 91.8 -21.5 43 -13.7 86 -25.4 129 -25.4s85.9 13.7 128.9 27.4c35.1 9.7 66.4 19.5 91.8 19.5zM302.7 416C259.8 416 218.8 365.2 209 298.8c-9.8 -72.2 19.5 -136.7 64.4 -142.5h7.9c42.9 0 83.9 50.7 93.7 117.1 9.8 72.3 -19.5 136.8 -64.5 142.6h-7.8zM248 216.8c-9.7 21.5 -11.7 48.8 -7.8 76.2 7.8 54.7 39.1 91.8 62.5 91.8h3.9c11.8 -2 19.6 -13.7 27.4 -29.3 9.8 -21.5 13.7 -48.9 9.8 -76.2 -7.9 -54.7 -39.1 -91.8 -62.5 -91.8h-4c-11.7 2 -21.4 13.7 -29.3 29.3zM140.6 572.3c-7.8 1.9 -13.6 3.9 -21.5 3.9 -39 0 -82 -35.2 -105.4 -91.8C-13.7 418 0 347.7 43 330.1c7.8 -2 13.6 -3.9 21.5 -3.9 39 0 82 37.1 105.4 93.7 27.4 66.4 13.7 134.8 -29.3 152.4zM43 472.7c9.7 23.4 23.4 41 39 54.6 13.7 11.8 25.4 17.6 37.1 17.6 3.9 0 5.9 0 9.8 -1.9 23.4 -9.8 33.2 -58.6 11.7 -111.4 -9.7 -23.4 -23.4 -42.9 -39 -56.6C87.9 363.3 76.2 357.4 64.5 357.4c-4 0 -5.9 0 -9.8 2 -9.8 3.9 -17.6 17.6 -21.5 35.1 -3.9 23.5 -1.9 50.8 9.8 78.2z"/></svg>