<svg height="1000" width="875" xmlns="http://www.w3.org/2000/svg"><path d="M591.8 511.7L453.1 373v502h-31.2V373L283.2 511.7l-21.5 -23.4L437.5 312.5l177.7 175.8zm152.3 -164C818.4 359.4 875 421.9 875 500c0 85.9 -70.3 156.3 -156.2 156.3H531.3V625h187.5c68.3 0 125 -56.6 125 -125 0 -29.3 -9.8 -56.6 -29.3 -80.1 -19.6 -21.5 -45 -37.1 -74.3 -41L714.8 375l-1.9 -23.4C707 298.8 681.6 250 642.6 212.9 601.6 175.8 554.7 156.3 500 156.3c-74.2 0 -146.5 35.1 -187.5 97.6l-15.6 23.4 -23.5 -11.7c-11.7 -5.8 -23.4 -7.8 -37.1 -7.8 -23.4 0 -46.8 7.8 -64.4 25.4s-27.4 41 -27.4 64.5v21.4L123 377c-27.3 7.8 -50.7 23.4 -66.4 46.8S31.3 472.7 31.3 500c0 68.4 56.6 125 125 125h187.5v31.3H156.3C70.3 656.3 0 585.9 0 500 0 429.7 44.9 369.1 113.3 347.7c0 -66.4 54.7 -121.1 121.1 -121.1 17.6 0 37.1 3.9 52.7 11.7C332 169.9 412.1 125 500 125c128.9 0 230.5 97.7 244.1 222.7z"/></svg>