<svg height="1000" width="875" xmlns="http://www.w3.org/2000/svg"><path d="M609.4 414.1c-7.8 0 -15.6 -7.8 -15.6 -15.7 0 -78.1 -76.2 -140.6 -156.3 -140.6S281.3 320.3 281.3 398.4c0 7.9 -7.9 15.7 -15.7 15.7S250 406.3 250 398.4c0 -48.8 23.4 -87.9 58.6 -121.1s80.1 -50.7 128.9 -50.7 93.8 17.5 128.9 50.7S625 349.6 625 398.4c0 7.9 -7.8 15.7 -15.6 15.7zm125 93.7c78.1 0 140.6 62.5 140.6 140.6v31.3c0 78.1 -62.5 140.6 -140.6 140.6h-46.9c0 7.8 -7.8 15.6 -15.6 15.6s-15.6 -7.8 -15.6 -15.6V414.1c0 -58.6 -23.5 -113.3 -64.5 -154.3S496.1 195.3 437.5 195.3s-113.3 23.5 -154.3 64.5 -64.4 95.7 -64.4 154.3v406.2c0 7.8 -7.9 15.6 -15.7 15.6s-15.6 -7.8 -15.6 -15.6h-46.9C62.5 820.3 0 757.8 0 679.7v-31.3C0 570.3 62.5 507.8 140.6 507.8h46.9v-93.7c0 -136.8 113.3 -250 250 -250s250 113.2 250 250v93.7h46.9zM187.5 789.1v-250h-46.9c-29.3 0 -56.6 9.7 -78.1 31.2s-31.2 48.8 -31.2 78.1v31.3c0 29.3 9.7 54.7 31.2 76.2s48.8 33.2 78.1 33.2h46.9zM843.8 679.7v-31.3c0 -29.3 -9.8 -56.6 -31.3 -78.1s-48.8 -31.2 -78.1 -31.2h-46.9v250h46.9c29.3 0 56.6 -11.8 78.1 -33.2s31.3 -46.9 31.3 -76.2z"/></svg>