<svg height="1000" width="750" xmlns="http://www.w3.org/2000/svg"><path d="M293 93.8c74.2 0 158.2 7.8 220.7 15.6 42.9 5.8 66.4 13.6 89.8 23.4 31.3 11.7 60.6 23.5 130.9 23.5 7.8 0 15.6 7.8 15.6 15.6s-7.8 15.6 -15.6 15.6c-76.2 0 -107.4 -13.7 -140.6 -25.4 -23.5 -7.8 -45 -17.6 -84 -21.5C414.1 128.9 293 119.1 187.5 132.8c-72.3 9.8 -111.3 23.5 -123 52.7 -4 9.8 1.9 21.5 5.8 31.3 3.9 7.8 5.9 13.7 5.9 19.5 0 11.7 -7.8 17.6 -17.6 25.4 -11.7 9.8 -27.3 23.5 -27.3 41s7.8 27.4 17.5 39.1c7.8 7.8 15.7 17.6 15.7 29.3s-5.9 19.5 -9.8 25.4c-5.9 7.8 -13.7 17.6 -13.7 41 0 17.6 9.8 25.4 19.5 33.2s25.4 23.4 9.8 46.9c-13.7 19.5 -3.9 42.9 5.9 54.7s15.6 15.6 64.4 11.7c33.2 -2 107.4 -13.7 154.3 -21.5 21.5 -3.9 39.1 -5.9 44.9 -5.9 9.8 0 21.5 -1.9 33.2 2 15.7 3.9 27.4 13.7 31.3 31.2 3.9 15.7 -2 29.3 -11.7 46.9 -7.8 15.6 -15.6 35.2 -25.4 64.5 -13.7 46.8 -19.5 117.2 1.9 156.2 5.9 9.8 13.7 15.6 25.4 17.6s21.5 -2 23.5 -3.9c3.9 -3.9 7.8 -23.4 11.7 -39.1 5.8 -25.4 13.7 -64.4 25.4 -87.9C470.7 709 523.4 660.2 574.2 615.2c7.8 -7.8 15.6 -13.6 19.6 -17.5C607.4 584 625 560.5 638.7 539.1 650.4 521.5 660.2 507.8 668 500c17.5 -17.6 44.9 -31.2 66.4 -31.2 7.8 0 15.6 7.8 15.6 15.6S742.2 500 734.4 500c-11.7 0 -29.3 7.8 -43 21.5 -5.9 5.8 -17.6 19.5 -27.3 35.1 -15.7 23.5 -31.3 48.9 -48.9 64.5 -3.9 3.9 -13.6 9.8 -21.4 17.6C560.5 668 500 724.6 484.4 757.8c-9.8 21.5 -17.6 58.6 -23.5 82 -7.8 29.3 -13.6 43 -19.5 50.8 -9.8 11.7 -25.4 15.7 -48.8 15.7S353.5 892.6 341.8 873C318.4 832 316.4 757.8 335.9 693.4c9.8 -33.2 21.5 -54.7 29.3 -70.4 5.9 -11.7 9.8 -21.4 9.8 -25.3 -2 -9.8 -7.8 -11.8 -33.2 -9.8 -5.9 0 -21.5 1.9 -41 5.9 -48.8 7.8 -121.1 19.5 -156.3 21.4 -50.7 3.9 -72.2 2 -91.8 -21.4S25.4 531.3 46.9 500L41 494.1C29.3 484.4 9.8 468.8 9.8 437.5c0 -35.2 11.7 -50.8 19.5 -60.5 2 -2 3.9 -4 3.9 -5.9 -1.9 -2 -5.9 -5.9 -7.8 -9.8C15.6 349.6 0 330.1 0 300.8 0 267.6 25.4 248 39.1 236.3l3.9 -3.9v-3.9C37.1 216.8 27.3 195.3 37.1 173.8 58.6 123 123 109.4 183.6 101.6c31.2 -3.9 70.3 -7.8 109.4 -7.8z"/></svg>