<svg height="1000" width="750" xmlns="http://www.w3.org/2000/svg"><path d="M740.2 636.7c11.8 11.7 11.8 31.3 0 43l-64.4 66.4c-3.9 3.9 -7.8 3.9 -11.7 3.9s-7.8 0 -11.8 -3.9c-5.8 -5.9 -5.8 -17.6 0 -23.4l52.8 -50.8H500c-3.9 0 -7.8 -2 -11.7 -5.9L375 523.4 261.7 666c-3.9 3.9 -7.8 5.9 -11.7 5.9H15.6C7.8 671.9 0 664.1 0 656.3s7.8 -15.7 15.6 -15.7h226.6L355.5 500 242.2 359.4H15.6C7.8 359.4 0 351.6 0 343.8s7.8 -15.7 15.6 -15.7H250c3.9 0 7.8 2 11.7 5.9l246.1 306.6h193.4l-52.8 -50.8c-5.8 -5.8 -5.8 -17.5 0 -23.4s17.6 -5.9 23.5 0zM507.8 359.4L416 476.6l-19.5 -25.4L488.3 334c3.9 -3.9 7.8 -5.9 11.7 -5.9h205.1l-52.8 -50.8c-5.8 -5.8 -5.8 -17.5 0 -23.4 4 -3.9 7.9 -3.9 11.8 -3.9s7.8 0 11.7 3.9l64.4 66.4c11.8 11.7 11.8 31.3 0 43l-68.3 70.3c-5.9 5.9 -17.6 5.9 -23.5 0s-5.8 -17.6 0 -23.4l52.8 -50.8H507.8z"/></svg>