<svg height="1000" width="562.5" xmlns="http://www.w3.org/2000/svg"><path d="M531.3 125c9.7 0 31.2 0 31.2 21.5v697.3c0 17.5 -13.7 31.2 -31.2 31.2S500 861.3 500 843.8v-250s-62.5 -45 -62.5 -156.3C437.5 275.4 482.4 125 531.3 125zm-187.5 0h15.6s46.9 209 46.9 250 -25.4 74.2 -62.5 87.9v380.9c0 17.5 -13.7 31.2 -31.3 31.2s-31.2 -13.7 -31.2 -31.2V462.9C244.1 449.2 218.8 416 218.8 375s46.8 -250 46.8 -250h15.7l-19.6 203.1c0 7.8 7.8 15.7 15.6 15.7S293 335.9 293 328.1L304.7 125h15.6L332 328.1c0 7.8 7.8 15.7 15.7 15.7s15.6 -7.9 15.6 -15.7zm-250 0c50.7 0 93.7 125 93.7 250 0 41 -25.4 74.2 -62.5 87.9v380.9c0 17.5 -13.7 31.2 -31.2 31.2S62.5 861.3 62.5 843.8V462.9C25.4 449.2 0 416 0 375 0 250 43 125 93.8 125z"/></svg>