<svg height="1000" width="812.5" xmlns="http://www.w3.org/2000/svg"><path d="M748 627l31.3 113.2s2 3.9 2 5.9c0 7.8 -7.9 15.6 -15.7 15.6 -3.9 0 -7.8 -1.9 -7.8 -1.9l-111.3 -41c-5.9 -2 -11.7 -4 -19.5 -4 -5.9 0 -11.8 2 -17.6 4s-29.3 9.7 -50.8 15.6S496.1 750 466.8 750c-187.5 0 -334 -150.4 -334 -330.1 0 -23.4 3.9 -44.9 7.8 -66.4C171.9 205.1 308.6 93.8 472.7 93.8c187.5 0 339.8 146.4 339.8 326.1 0 64.5 -21.5 125 -54.7 175.8 -1.9 2 -1.9 3.9 -3.9 5.9C750 609.4 748 619.1 748 627zM513.7 787.1s0 2 1.9 2zm13.6 -21.5c7.9 -1.9 17.6 -3.9 25.4 -5.8 -7.8 9.7 -13.6 17.5 -13.6 17.5C480.5 845.7 396.5 886.7 304.7 886.7c-41 0 -82 -9.7 -119.2 -23.4 -7.8 -3.9 -11.7 -3.9 -11.7 -3.9 -3.9 0 -7.8 0 -11.7 1.9l-109.4 43c-1.9 0 -3.9 2 -5.8 2 -3.9 0 -5.9 -2 -9.8 -4 -3.9 -3.9 -7.8 -9.7 -5.8 -15.6 0 0 23.4 -117.2 23.4 -121.1s-2 -7.8 -5.9 -15.6C17.6 703.1 0 646.5 0 589.8 0 507.8 37.1 429.7 101.6 373l15.6 -13.6c-2 7.8 -5.9 17.6 -7.8 25.4s-2 17.5 -3.9 25.4c-2 11.7 -3.9 27.3 -3.9 41 0 179.7 146.4 330.1 333.9 330.1 19.6 0 46.9 -4 66.5 -7.9 9.7 -1.9 17.5 -5.8 25.3 -7.8z"/></svg>