<svg height="1000" width="875" xmlns="http://www.w3.org/2000/svg"><path d="M699.2 238.3L875 250l-46.9 687.5 -750 -52.7L89.8 730.5l-44.9 3.9L0 109.4 687.5 62.5zM72.3 701.2l19.5 -2 5.9 -103.5L68.4 168l560.5 -39.1 7.8 105.5 31.3 1.9L658.2 95.7l-625 44.9zm54.7 -502l478.5 33.2 -3.9 -70.3 -500 35.2 11.7 173.8zm671.8 705.1l43 -623L152.3 232.4l-42.9 623.1zM646.5 392.6c17.6 1.9 29.3 15.6 27.3 33.2s-15.6 31.2 -33.2 29.3 -31.2 -15.6 -29.3 -33.2 17.6 -31.3 35.2 -29.3zm-462.9 -127l625 43 -31.3 437.5 -623 -43zm84 414.1L543 699.2 419.9 494.1zM582 701.2l86 5.8L584 568.4 535.2 627zm166 11.7l27.4 -375L212.9 298.8l-25.4 375 43 2L421.9 439.5l97.6 158.2 68.4 -84L707 709z"/></svg>