<svg height="1000" width="812.5" xmlns="http://www.w3.org/2000/svg"><path d="M646.5 259.8c218.7 218.7 158.2 638.6 158.2 638.6s-50.8 7.9 -127 7.9C535.2 906.3 308.6 882.8 166 740.2 -52.7 521.5 7.8 101.6 7.8 101.6s50.8 -7.8 127 -7.8c142.5 0 369.1 23.4 511.7 166zM33.2 127c-3.9 37.1 -9.8 117.1 0 208.9 2 15.7 3.9 31.3 5.9 45l248 -248.1C238.3 127 187.5 123 134.8 123c-43 0 -80.1 2 -101.6 4zm154.3 591.8c58.6 58.5 140.6 103.5 242.2 128.9 19.5 5.8 39.1 9.7 60.5 13.6L767.6 584C759.8 541 748 498 734.4 460.9 707 388.7 671.9 328.1 625 281.3 566.4 222.7 484.4 177.7 382.8 152.3c-19.5 -5.8 -39 -9.7 -60.5 -13.6L44.9 416c7.8 43 19.6 86 33.2 123.1 27.4 72.2 62.5 132.8 109.4 179.7zM779.3 873c3.9 -37.1 9.8 -117.1 0 -208.9 -2 -15.7 -3.9 -31.3 -5.9 -45l-248 248.1c48.8 5.8 99.6 9.8 152.3 9.8 43 0 80.1 -2 101.6 -4zM505.9 621.1l-54.7 56.6 -23.5 -23.4 56.7 -54.7 -44.9 -44.9 -54.7 56.6 -23.5 -23.4L418 533.2l-45 -44.9 -54.6 56.6 -23.5 -23.4 56.7 -54.7 -45 -44.9L252 478.5l-23.5 -23.4 56.7 -54.7 -43 -44.9 -56.7 56.6 -21.4 -23.4L294.9 257.8l23.5 21.5 -56.7 56.6 44.9 43 54.7 -56.6 23.5 23.4 -56.7 54.7 44.9 44.9 54.7 -56.6 23.5 23.4 -56.7 54.7 45 44.9 54.6 -56.6 23.5 23.4 -56.7 54.7 43 44.9 56.6 -56.6 23.5 23.4 -56.7 54.7 43 44.9L627 587.9l21.4 23.4L517.6 742.2l-23.5 -21.5 56.7 -56.6z"/></svg>