<svg height="1000" width="812.5" xmlns="http://www.w3.org/2000/svg"><path d="M656.3 281.3c35.1 0 62.5 27.3 62.5 62.5v312.5c0 35.1 -27.4 62.5 -62.5 62.5H62.5C27.3 718.8 0 691.4 0 656.3V343.8c0 -35.2 27.3 -62.5 62.5 -62.5h593.8zm31.2 375V343.8c0 -17.6 -13.7 -31.3 -31.2 -31.3H62.5c-17.6 0 -31.2 13.7 -31.2 31.3v312.5c0 17.5 13.6 31.2 31.2 31.2h593.8c17.5 0 31.2 -13.7 31.2 -31.2zM628.9 343.8c17.6 0 27.4 9.7 27.4 27.3v257.8c0 17.6 -9.8 27.4 -27.4 27.4H89.8c-17.5 0 -27.3 -9.8 -27.3 -27.4V371.1c0 -17.6 9.8 -27.3 27.3 -27.3h539.1zM750 392.6c37.1 21.5 62.5 60.5 62.5 107.4S787.1 585.9 750 607.4V392.6z"/></svg>