<svg height="1000" width="687.5" xmlns="http://www.w3.org/2000/svg"><path d="M656.3 656.3c31.2 31.2 50.7 68.3 0 128.9 -48.9 58.6 -82.1 58.6 -125 58.6 -46.9 0 -113.3 -27.4 -181.7 -78.2C287.1 720.7 259.8 699.2 197.3 634.8 130.9 566.4 89.8 509.8 43 425.8 -9.8 328.1 -3.9 281.3 7.8 246.1c7.8 -23.4 27.4 -46.9 54.7 -64.5l2 -1.9c11.7 -7.8 35.1 -23.4 62.5 -23.4 25.3 0 46.8 11.7 66.4 35.1l1.9 2c21.5 27.3 46.9 60.5 62.5 91.8 19.5 41 19.5 74.2 -1.9 103.5 -17.6 23.4 -23.5 37.1 -23.5 44.9s9.8 17.6 25.4 35.2l2 1.9c31.2 35.2 39 44.9 50.7 56.6 2 2 5.9 4 7.9 5.9l3.9 3.9c13.6 13.7 21.5 23.4 56.6 54.7l2 2c13.6 11.7 17.5 15.6 23.4 15.6 9.8 0 31.2 -13.7 56.6 -29.3 7.9 -5.9 21.5 -9.8 33.2 -9.8 52.8 0 132.9 56.7 162.2 86z"/></svg>