<svg height="1000" width="812.5" xmlns="http://www.w3.org/2000/svg"><path d="M386.7 416l9.8 5.9 58.6 58.6 7.8 11.7c3.9 7.8 0 17.6 -3.9 21.5l-89.9 89.8C248 724.6 127 871.1 127 871.1c-2 1.9 -5.9 3.9 -7.9 3.9s-5.8 -2 -7.8 -3.9L3.9 765.6C0 761.7 0 753.9 3.9 750c0 0 150.4 -121.1 271.5 -242.2L365.2 418c2 -2 7.8 -3.9 11.8 -3.9 1.9 0 7.8 0 9.7 1.9zm421.9 7.8c3.9 3.9 5.9 11.7 1.9 15.7L701.2 546.9c-2 1.9 -5.9 1.9 -7.8 1.9s-3.9 0 -5.9 -1.9l-68.4 -66.4c-3.9 -3.9 -3.9 -11.7 0 -15.7l19.6 -19.5c0 -13.7 -9.8 -29.3 -19.6 -35.1 -7.8 -3.9 -27.3 -9.8 -46.8 -9.8 -7.8 0 -15.7 1.9 -23.5 3.9 -19.5 5.9 -37.1 21.5 -72.2 54.7L418 400.4c37.1 -39.1 48.8 -64.5 46.8 -99.6 -1.9 -43 -29.3 -76.2 -60.5 -101.6 -19.5 -15.6 -54.7 -19.5 -85.9 -19.5 -19.6 0 -37.1 0 -45 1.9h-5.8c-15.6 0 -3.9 -17.5 5.8 -27.3C287.1 140.6 330.1 125 380.9 125c27.3 0 58.6 3.9 89.8 17.6 91.8 37.1 146.5 89.8 160.2 103.5s33.2 33.2 44.9 50.8 -3.9 44.9 9.7 58.6c7.9 7.8 25.4 9.7 35.2 9.7l5.9 -7.8c1.9 -1.9 5.8 -3.9 7.8 -3.9s5.8 2 7.8 3.9z"/></svg>