<svg height="1000" width="875" xmlns="http://www.w3.org/2000/svg"><path d="M15.6 750v-31.2h843.8V750H15.6zm15.7 62.5v-31.2h812.5v31.2H31.3zM437.5 328.1c60.5 0 109.4 48.9 109.4 109.4S498 546.9 437.5 546.9 328.1 498 328.1 437.5 377 328.1 437.5 328.1zM0 187.5h875v500H0v-500zM187.5 625v-31.2h-125V625h125zm0 -343.7V250h-125v31.3h125zm250 296.8c78.1 0 140.6 -62.5 140.6 -140.6S515.6 296.9 437.5 296.9 296.9 359.4 296.9 437.5s62.5 140.6 140.6 140.6zm375 46.9v-31.2h-125V625h125zm0 -343.7V250h-125v31.3h125z"/></svg>