<svg height="1000" width="875" xmlns="http://www.w3.org/2000/svg"><path d="M0 734.4h552.7C564.5 707 593.8 687.5 625 687.5s60.5 19.5 72.3 46.9H875v62.5H697.3c-11.8 27.3 -41 46.9 -72.3 46.9s-60.5 -19.6 -72.3 -46.9H0zM0 468.8h177.7c11.8 -27.4 41.1 -46.9 72.3 -46.9s60.5 19.5 72.3 46.9H875v62.5H322.3c-11.8 27.3 -41 46.8 -72.3 46.8s-60.5 -19.5 -72.3 -46.8H0zM0 203.1h552.7c11.8 -27.3 41.1 -46.8 72.3 -46.8s60.5 19.5 72.3 46.8H875v62.5H697.3c-11.8 27.4 -41 46.9 -72.3 46.9S564.5 293 552.7 265.6H0z"/></svg>