<svg height="1000" width="437.5" xmlns="http://www.w3.org/2000/svg"><path d="M375 62.5c35.2 0 62.5 29.3 62.5 64.5v744.1c0 35.2 -27.3 66.4 -62.5 66.4H64.5C29.3 937.5 0 906.3 0 871.1V127C0 91.8 29.3 62.5 64.5 62.5H375zm-185.5 44.9c-4 0 -7.9 3.9 -7.9 7.8s3.9 7.8 7.9 7.8H248c4 0 7.9 -3.9 7.9 -7.8s-3.9 -7.8 -7.9 -7.8h-58.5zM218.8 916c19.5 0 35.1 -13.7 35.1 -33.2s-15.6 -35.1 -35.1 -35.1 -33.3 15.6 -33.3 35.1 13.7 33.2 33.3 33.2zm187.5 -87.9v-666h-375v666h375zm-187.5 35.2c11.7 0 19.5 9.7 19.5 19.5 0 11.7 -7.8 19.5 -19.5 19.5s-19.6 -7.8 -19.6 -19.5c0 -9.8 7.8 -19.5 19.6 -19.5z"/></svg>