<svg height="1000" width="812.5" xmlns="http://www.w3.org/2000/svg"><path d="M390.6 906.3v-125h31.3v125h-31.3zm0 -687.5v-125h31.3v125h-31.3zM0 515.6v-31.2h125v31.2H0zm687.5 0v-31.2h125v31.2h-125zM107.4 775.4l87.9 -87.9 23.5 21.5 -87.9 89.8zM593.8 291l87.8 -89.8 23.5 23.4 -87.9 87.9zM130.9 201.2l87.9 89.8 -21.5 21.5 -89.9 -87.9zm484.3 486.3l89.9 87.9 -23.5 23.4L593.8 709zM406.3 343.8C320.3 343.8 250 414.1 250 500s70.3 156.3 156.3 156.3S562.5 585.9 562.5 500 492.2 343.8 406.3 343.8zm0 -31.3c103.5 0 187.5 84 187.5 187.5s-84 187.5 -187.5 187.5S218.8 603.5 218.8 500 302.7 312.5 406.3 312.5z"/></svg>