<svg height="1000" width="812.5" xmlns="http://www.w3.org/2000/svg"><path d="M632.8 181.6c62.5 45 179.7 168 179.7 168L656.3 533.2V875h-500V531.3L0 349.6s117.2 -123 179.7 -168C218.8 152.3 257.8 125 300.8 125s43 15.6 105.5 15.6S468.8 125 511.7 125s82.1 27.3 121.1 56.6zM322.3 158.2c-13.7 0 -21.5 7.8 -21.5 31.3 0 44.9 46.9 85.9 105.5 85.9s105.4 -41 105.4 -85.9c0 -23.5 -7.8 -31.3 -21.5 -31.3 -19.5 0 -48.8 13.7 -83.9 13.7s-64.5 -13.7 -84 -13.7zm334 232.4v95.7C679.7 457 755.9 369.1 769.5 351.6 734.4 314.5 660.2 238.3 615.2 207c-25.4 -17.5 -50.7 -39 -76.1 -46.8 1.9 7.8 3.9 17.5 3.9 29.3 0 31.2 -15.7 62.5 -43 83.9 -25.4 21.5 -58.6 33.2 -93.7 33.2s-68.4 -11.7 -93.8 -33.2c-27.3 -23.4 -43 -52.7 -43 -83.9 0 -11.8 2 -21.5 3.9 -29.3C248 168 222.7 189.5 197.3 207 152.3 238.3 76.2 314.5 41 351.6c13.7 17.5 87.9 103.5 115.3 134.7v-95.7c0 -7.8 7.8 -15.6 15.6 -15.6s15.6 7.8 15.6 15.6v453.2H625V390.6c0 -7.8 7.8 -15.6 15.6 -15.6s15.7 7.8 15.7 15.6z"/></svg>