<svg height="1000" width="875" xmlns="http://www.w3.org/2000/svg"><path d="M718.8 437.5H875L773.4 816.4c-9.7 33.2 -41 58.6 -78.1 58.6H179.7c-37.1 0 -68.4 -25.4 -78.1 -58.6L0 437.5h156.3V250c0 -68.4 56.6 -125 125 -125h312.5c68.3 0 125 56.6 125 125v187.5zM834 468.8H656.3v93.7h152.3L834 468.8zm-759.8 125l35.2 125h109.4v-125H74.2zm175.8 0v125h171.9v-125H250zm375 -31.3v-93.7H453.1v93.7H625zm-203.1 0v-93.7H250v93.7h171.9zm0 187.5H250v93.8h171.9V750zm31.2 0v93.8H625V750H453.1zm0 -31.2H625v-125H453.1v125zm203.2 -125v125h111.3l33.2 -125H656.3zM187.5 250v187.5h500V250c0 -25.4 -9.8 -48.8 -27.3 -66.4s-41.1 -27.3 -66.4 -27.3H281.3c-25.4 0 -48.9 9.7 -66.5 27.3s-27.3 41 -27.3 66.4zm31.3 218.8H41l25.4 93.7h152.4v-93.7zm-86 339.8c5.9 21.5 25.4 35.2 46.9 35.2h39.1V750H117.2zm609.4 0L757.8 750H656.3v93.8h39c21.5 0 41 -15.7 46.9 -35.2z"/></svg>