<svg height="1000" width="937.5" xmlns="http://www.w3.org/2000/svg"><path d="M722.7 281.3c119.1 0 214.8 97.6 214.8 218.7S841.8 718.8 722.7 718.8H214.8C95.7 718.8 0 621.1 0 500S95.7 281.3 214.8 281.3 429.7 378.9 429.7 500c0 78.1 -41 148.4 -103.5 185.5h285.1C548.8 648.4 507.8 578.1 507.8 500c0 -121.1 95.7 -218.7 214.9 -218.7zM218.8 625c68.3 0 125 -56.6 125 -125S287.1 375 218.8 375s-125 56.6 -125 125 56.6 125 125 125zm500 0c68.3 0 125 -56.6 125 -125S787.1 375 718.8 375s-125 56.6 -125 125 56.6 125 125 125zm0 -218.7c50.7 0 93.7 42.9 93.7 93.7s-43 93.8 -93.7 93.8S625 550.8 625 500s43 -93.7 93.8 -93.7zm-500 0c50.7 0 93.7 42.9 93.7 93.7s-43 93.8 -93.7 93.8S125 550.8 125 500s43 -93.7 93.8 -93.7z"/></svg>