<svg height="1000" width="687.5" xmlns="http://www.w3.org/2000/svg"><path d="M593.8 230.5v50.8H62.5V625H43C25.4 625 9.8 609.4 9.8 591.8c0 -31.3 21.5 -43 21.5 -68.4V314.5C31.3 277.3 0 293 0 236.3v-7.8c0 -50.8 35.2 -87.9 84 -87.9h46.9c15.6 -29.3 46.8 -50.8 82 -50.8 27.3 0 52.7 9.8 68.4 29.3C302.7 85.9 330.1 62.5 382.8 62.5s103.5 39.1 115.2 91.8l21.5 2c41 0 74.3 33.2 74.3 74.2zM562.5 250v-19.5c0 -23.5 -15.6 -39.1 -43 -43s-46.8 -3.9 -46.8 -3.9l-3.9 -23.4c-4 -19.6 -15.7 -35.2 -31.3 -46.9S402.3 93.8 382.8 93.8c-31.2 0 -60.5 17.5 -82 46.8l-15.6 19.6 -21.5 -19.6C248 128.9 230.5 119.1 212.9 119.1c-23.4 0 -43 13.7 -52.7 33.2l-7.9 19.6H84c-13.7 0 -27.4 5.8 -37.1 15.6 -9.8 11.7 -15.6 23.4 -15.6 41v7.8c0 5.9 1.9 13.7 7.8 13.7h523.4zM367.2 437.5c0 -21.5 17.6 -39.1 39.1 -39.1s39 17.6 39 39.1 -17.6 39.1 -39 39.1S367.2 459 367.2 437.5zm-54.7 93.8c0 -17.6 13.7 -31.3 31.3 -31.3s31.2 13.7 31.2 31.3 -13.7 31.2 -31.2 31.2 -31.3 -13.7 -31.3 -31.2zm46.9 156.2c0 -13.7 9.7 -23.4 23.4 -23.4s23.5 9.7 23.5 23.4 -9.8 23.4 -23.5 23.4 -23.4 -9.7 -23.4 -23.4zm-328.1 250v-31.2H625v31.2H31.3zm625 -531.2c17.5 0 31.2 13.6 31.2 31.2v250c0 17.6 -13.7 31.3 -31.2 31.3h-93.8v125l31.3 31.2H62.5l31.3 -31.2V312.5h468.7v93.8h93.8zm-125 437.5v-500H125v500h406.3zm125 -156.3v-250h-93.8v250h93.8z"/></svg>