<svg height="1000" width="593.8" xmlns="http://www.w3.org/2000/svg"><path d="M468.8 93.8c68.3 0 125 56.6 125 125v437.5c0 68.3 -56.7 125 -125 125H125C56.6 781.3 0 724.6 0 656.3V218.8c0 -68.4 56.6 -125 125 -125h343.8zm-281.3 46.8c-7.8 0 -15.6 7.8 -15.6 15.7s7.8 15.6 15.6 15.6h218.8c7.8 0 15.6 -7.8 15.6 -15.6s-7.8 -15.7 -15.6 -15.7H187.5zM125 734.4c31.3 0 54.7 -23.5 54.7 -54.7S156.3 625 125 625s-54.7 23.4 -54.7 54.7 23.5 54.7 54.7 54.7zm343.8 0c31.2 0 54.6 -23.5 54.6 -54.7S500 625 468.8 625s-54.7 23.4 -54.7 54.7 23.4 54.7 54.7 54.7zm78.1 -296.9V250c0 -17.6 -13.7 -31.2 -31.3 -31.2H78.1c-17.6 0 -31.2 13.6 -31.2 31.2v187.5c0 17.6 13.6 31.3 31.2 31.3h437.5c17.6 0 31.3 -13.7 31.3 -31.3zm-29.3 468.8L484.4 875h-375l-33.2 31.3H31.3L127 812.5h44.9l-31.3 31.3h312.5l-31.2 -31.3h44.9l95.7 93.8h-44.9z"/></svg>