<svg height="1000" width="812.5" xmlns="http://www.w3.org/2000/svg"><path d="M484.4 93.8c181.6 0 328.1 146.4 328.1 328.1S666 750 484.4 750c-86 0 -162.1 -33.2 -220.7 -85.9L146.5 781.3l84 82c5.8 5.8 5.8 17.6 0 23.4 -3.9 3.9 -7.8 3.9 -11.7 3.9s-7.9 0 -11.8 -3.9l-82 -84 -97.7 99.6c-3.9 4 -7.8 4 -11.7 4s-7.8 0 -11.7 -4C-2 896.5 -2 884.8 3.9 878.9l99.6 -97.6 -84 -82.1c-5.8 -5.8 -5.8 -17.6 0 -23.4s17.6 -5.9 23.5 0l82 84L242.2 642.6C189.5 584 156.3 507.8 156.3 421.9 156.3 240.2 302.7 93.8 484.4 93.8zm209 539C750 576.2 781.3 502 781.3 421.9S750 267.6 693.4 210.9 564.5 125 484.4 125s-154.3 29.3 -211 85.9 -85.9 130.9 -85.9 211 29.3 154.3 85.9 210.9 130.9 86 211 86 152.3 -29.3 209 -86z"/></svg>