<svg height="1000" width="750" xmlns="http://www.w3.org/2000/svg"><path d="M574.2 457c11.7 11.8 19.6 27.4 19.6 45 0 21.4 -9.8 39 -25.4 50.7S468.8 625 361.3 703.1l-74.2 -60.5c-3.9 -3.9 -7.8 -5.9 -11.7 -5.9 -2 0 -3.9 0 -5.9 2 -3.9 3.9 -3.9 11.7 2 19.5l56.6 68.4 -224.6 164c-11.7 7.8 -25.4 15.7 -41 15.7C27.3 906.3 0 878.9 0 843.8c0 -13.7 2 -25.4 7.8 -35.2C11.7 804.7 41 759.8 80.1 697.3l41 33.2c3.9 3.9 7.8 3.9 11.7 3.9 2 0 5.9 0 7.8 -2 3.9 -3.9 2 -11.7 -3.9 -19.5L99.6 668C152.3 584 216.8 480.5 263.7 406.3l70.3 58.5c3.9 4 7.8 5.9 11.7 5.9 2 0 3.9 -1.9 5.9 -3.9 3.9 -3.9 3.9 -9.8 -2 -17.6l-64.4 -78.1c21.4 -35.2 37.1 -56.6 37.1 -56.6C334 294.9 351.6 283.2 375 283.2c17.6 0 35.2 7.8 46.9 19.5L574.2 457zm-23.4 70.3c7.8 -5.8 11.7 -15.6 11.7 -25.3 0 -7.9 -3.9 -17.6 -9.8 -23.5l-9.7 -7.8v-1.9L408.2 334l-9.8 -9.8c-5.8 -5.8 -15.6 -9.7 -23.4 -9.7 -11.7 0 -19.5 5.8 -25.4 15.6l-9.8 15.6c-3.9 5.9 -9.7 13.7 -15.6 23.4l48.8 58.6 2 2c15.6 19.5 15.6 43 0 58.6l-2 1.9 -1.9 2c-7.8 5.8 -15.6 9.8 -25.4 9.8s-21.5 -4 -31.2 -11.8v-1.9h-2l-41 -35.2 -46.9 76.2L138.7 666l23.4 27.4c15.6 19.5 15.6 44.9 0 60.5 -7.8 7.8 -17.6 11.7 -29.3 11.7 -9.8 0 -21.5 -3.9 -31.2 -11.7l-13.7 -9.8c-5.9 9.8 -9.8 17.6 -15.6 25.4C48.8 806.6 41 820.3 37.1 826.2c-1.9 5.8 -3.9 11.7 -3.9 17.6 0 17.5 13.7 31.2 31.3 31.2 5.8 0 11.7 -3.9 21.4 -9.8L283.2 720.7l-35.2 -43h-1.9c-15.6 -19.5 -15.6 -44.9 0 -60.5 7.8 -7.8 19.5 -11.7 29.3 -11.7s21.5 3.9 31.2 11.7h2l54.7 46.9C459 593.8 544.9 531.3 550.8 527.3zM734.4 224.6L750 252l-9.8 5.8L539.1 375l-33.2 -33.2L644.5 101.6l3.9 -7.8 27.4 15.6 -5.9 7.8L546.9 334 724.6 230.5z"/></svg>