<svg height="1000" width="625" xmlns="http://www.w3.org/2000/svg"><path d="M625 298.8v27.4h-48.8V375h-27.4v-48.8H500v-27.4h48.8V250h27.4v48.8H625zM521.5 710.9C546.9 720.7 625 750 625 812.5H0C0 750 78.1 720.7 103.5 710.9s60.6 -11.7 84 -17.5c13.7 -3.9 33.2 -9.8 39.1 -17.6s1.9 -80.1 1.9 -80.1 -11.7 -19.5 -17.6 -35.2S197.3 498 197.3 498s-13.7 0 -17.6 -23.4C175.8 449.2 168 441.4 168 421.9c0 -17.6 9.7 -19.6 9.7 -19.6s-7.8 -25.3 -9.7 -82c-2 -66.4 48.8 -132.8 144.5 -132.8S459 253.9 457 320.3c-1.9 56.7 -9.7 82 -9.7 82s9.7 2 9.7 19.6c0 19.5 -5.8 29.3 -11.7 54.7C441.4 500 427.7 500 427.7 500s-7.8 44.9 -13.6 60.5 -17.6 35.2 -17.6 35.2 -3.9 72.3 1.9 80.1 25.4 13.7 39.1 17.6c23.4 5.8 58.6 7.8 84 17.5z"/></svg>