<svg height="1000" width="906.3" xmlns="http://www.w3.org/2000/svg"><path d="M845.7 355.5c39.1 39 60.6 89.8 60.6 144.5s-21.5 105.5 -60.6 144.5S752 703.1 697.3 703.1 589.8 683.6 550.8 644.5L306.6 404.3C281.3 378.9 244.1 365.2 207 365.2s-72.2 13.7 -97.6 39.1 -41 60.5 -41 95.7c0 37.1 15.6 70.3 41 95.7s60.5 39.1 97.6 39.1 74.3 -13.7 99.6 -39.1l76.2 -74.2 48.8 48.8 -76.1 74.2c-39.1 39.1 -93.8 58.6 -148.5 58.6S99.6 683.6 60.5 644.5 0 554.7 0 500 21.5 394.5 60.5 355.5 152.3 296.9 207 296.9s109.4 19.5 148.5 58.6l244.1 240.2c25.4 25.4 60.6 39.1 97.7 39.1s74.2 -13.7 99.6 -39.1 39 -60.5 39 -95.7c0 -37.1 -13.6 -70.3 -39 -95.7s-62.5 -39.1 -99.6 -39.1 -72.3 13.7 -97.7 39.1l-76.2 74.2 -48.8 -48.8 76.2 -74.2c39 -39.1 93.7 -58.6 148.4 -58.6s107.4 19.5 146.5 58.6z"/></svg>