<svg height="1000" width="750" xmlns="http://www.w3.org/2000/svg"><path d="M109.4 78.1l27.3 -15.6 503.9 859.4 -27.3 15.6zM375 281.3c166 0 289.1 119.1 375 218.7C695.3 556.6 623 634.8 533.2 679.7l-11.7 -21.5C599.6 619.1 662.1 552.7 714.8 500 630.9 406.3 519.5 304.7 375 304.7c-19.5 0 -39.1 1.9 -56.6 5.8l-13.7 -21.4c23.4 -3.9 46.9 -7.8 70.3 -7.8zm0 414c19.5 0 39.1 -1.9 56.6 -5.8l13.7 21.4c-21.5 3.9 -46.9 7.9 -70.3 7.9C207 718.8 113.3 615.2 0 500 76.2 419.9 146.5 359.4 216.8 322.3l11.7 21.5C166 377 105.5 429.7 35.2 500 136.7 605.5 226.6 695.3 375 695.3zm111.3 -97.6l-13.6 -23.5C490.2 552.7 500 527.3 500 500 500 433.6 443.4 378.9 375 378.9h-15.6l-13.7 -21.5c9.8 -1.9 19.5 -3.9 29.3 -3.9 82 0 150.4 66.4 150.4 146.5 0 37.1 -15.6 72.3 -39.1 97.7zM263.7 402.3l13.6 23.5C259.8 447.3 250 472.7 250 500c0 66.4 56.6 121.1 125 121.1h15.6l13.7 21.5c-9.8 1.9 -19.5 3.9 -29.3 3.9C293 646.5 224.6 580.1 224.6 500c0 -37.1 15.6 -72.3 39.1 -97.7zm33.2 58.6l17.6 27.4c0 3.9 -2 7.8 -2 11.7 0 27.3 17.6 48.8 41 56.6l17.6 29.3c-46.9 -1.9 -84 -41 -84 -85.9 0 -13.7 3.9 -27.3 9.8 -39.1zm156.2 78.2l-17.6 -27.4c0 -3.9 2 -7.8 2 -11.7h25.4c0 13.7 -3.9 27.3 -9.8 39.1z"/></svg>