<svg height="1000" width="703.1" xmlns="http://www.w3.org/2000/svg"><path d="M695.3 679.7c7.8 3.9 9.8 15.6 5.9 23.4s-15.7 11.7 -23.5 7.8L603.5 668c-15.6 39 -9.7 78.1 -9.7 78.1 1.9 9.8 -5.9 17.6 -13.7 19.5s-15.6 -1.9 -17.6 -11.7c0 -1.9 -7.8 -54.7 13.7 -103.5L369.1 529.3v242.2c52.8 5.8 91.8 37.1 93.8 39 7.8 5.9 7.8 13.7 1.9 21.5 -5.8 5.9 -15.6 9.8 -23.4 3.9 0 0 -31.2 -25.4 -72.3 -31.2v84c0 9.7 -7.8 17.6 -17.5 17.6S334 898.4 334 888.7v-84c-41 5.8 -74.2 31.2 -74.2 31.2 -7.8 5.9 -17.6 3.9 -23.5 -3.9s-5.8 -15.6 2 -21.5c1.9 -1.9 43 -33.2 95.7 -39V529.3L125 650.4c21.5 48.8 15.6 101.6 15.6 103.5 -1.9 9.8 -9.7 13.7 -17.6 11.7s-15.6 -9.7 -13.6 -19.5c0 0 5.8 -39.1 -9.8 -78.1l-74.2 42.9c-7.8 3.9 -19.5 0 -23.4 -7.8S0 683.6 7.8 679.7l74.2 -43C56.6 603.5 19.5 589.8 19.5 589.8 11.7 585.9 5.9 574.2 7.8 566.4s13.7 -11.7 21.5 -7.8c2 0 48.8 19.5 80.1 62.5L318.4 500l-209 -121.1c-31.3 43 -78.1 62.5 -80.1 62.5 -7.8 3.9 -19.5 0 -21.5 -7.8s3.9 -19.5 11.7 -23.4c0 0 37.1 -13.7 62.5 -46.9l-74.2 -43C0 316.4 -2 304.7 2 296.9s15.6 -9.8 23.4 -5.9l74.2 41c15.6 -39 9.8 -78.1 9.8 -78.1 -2 -9.8 5.8 -17.6 13.6 -19.5s15.7 1.9 17.6 11.7c0 1.9 5.9 54.7 -15.6 103.5l209 121.1V228.5c-52.7 -5.8 -93.8 -37.1 -95.7 -39 -7.8 -5.9 -5.9 -13.7 0 -21.5 5.8 -5.9 15.6 -7.8 23.4 -2 0 0 31.3 23.5 72.3 29.3v-84c0 -9.7 7.8 -17.5 17.6 -17.5s17.5 7.8 17.5 17.5v84c41.1 -5.8 72.3 -29.3 72.3 -29.3 7.8 -5.8 17.6 -5.8 23.4 2s5.9 15.6 -1.9 21.5c-2 1.9 -41 33.2 -93.8 39v242.2L576.2 349.6C554.7 300.8 562.5 248 562.5 246.1c2 -9.8 9.8 -13.7 17.6 -11.7s15.6 9.7 13.7 19.5c0 0 -5.9 39.1 9.7 78.1l74.2 -42.9c7.8 -3.9 19.6 0 23.5 7.8s1.9 19.5 -5.9 23.4l-74.2 43c25.4 33.2 62.5 46.9 62.5 46.9 7.8 3.9 13.7 15.6 11.7 23.4s-13.7 11.7 -21.5 7.8c-1.9 0 -48.8 -19.5 -80 -62.5L384.8 500l209 121.1c31.2 -43 78.1 -62.5 80 -62.5 7.8 -3.9 19.6 0 21.5 7.8s-3.9 19.5 -11.7 23.4c0 0 -37.1 13.7 -62.5 46.9z"/></svg>