<svg height="1000" width="789.1" xmlns="http://www.w3.org/2000/svg"><path d="M752 375L644.5 273.4 627 291c68.3 62.5 111.3 154.3 111.3 253.9 0 86 -31.3 162.1 -84 222.7l72.3 87.9L701.2 875l-68.4 -84c-62.5 58.6 -146.5 95.7 -238.3 95.7 -91.8 0 -175.7 -37.1 -238.2 -95.7l-68.4 84L64.5 855.5l70.3 -87.9C82 707 50.8 630.9 50.8 544.9c0 -99.6 43 -191.4 111.3 -253.9l-17.6 -17.6L39.1 375C15.6 347.7 0 312.5 0 273.4 0 187.5 68.4 117.2 156.3 113.3h9.7c39.1 0 76.2 13.7 105.5 35.1L166 252l21.5 19.5C238.3 234.4 296.9 209 363.3 203.1c0 -15.6 15.6 -31.2 31.2 -31.2s29.3 15.6 29.3 31.2c66.4 5.9 127 31.3 177.8 68.4L623 250 517.6 148.4C546.9 127 584 113.3 623 113.3h9.8c87.9 3.9 156.3 74.2 156.3 160.1 0 39.1 -13.7 74.3 -37.1 101.6zM425.8 593.8V312.5h-31.3v250H207v31.3h218.8z"/></svg>