<svg height="1000" width="750" xmlns="http://www.w3.org/2000/svg"><path d="M468.8 568.4h-31.3C328.1 568.4 240.2 585.9 166 623c-35.1 17.6 -68.3 41.1 -99.6 68.4C87.9 632.8 115.2 582 148.4 541s74.3 -74.2 119.2 -99.6C318.4 414.1 375 394.5 441.4 384.8l27.4 -3.9V259.8l234.3 224.6L468.8 699.2V568.4zm281.2 -84L437.5 771.5V599.6c-209 0 -334 66.4 -437.5 212.9 41 -209 146.5 -418 437.5 -459v-166zM166 623c74.2 -37.1 162.1 -54.6 271.5 -54.6l31.3 1.9v132.8L703.1 484.4 468.8 257.8v125l-27.4 2c-66.4 9.7 -123 29.3 -173.8 56.6 -44.9 25.4 -86 58.6 -119.2 99.6s-60.5 91.8 -82 150.4C97.7 664.1 130.9 640.6 166 623z"/></svg>