<svg height="1000" width="812.5" xmlns="http://www.w3.org/2000/svg"><path d="M693.4 212.9c158.2 158.2 158.2 416 0 574.2s-416.1 158.2 -574.3 0 -158.2 -416 0 -574.2 416.1 -158.2 574.3 0zm-550.8 23.4c-86 86 -121.1 201.2 -105.5 312.5 5.9 5.9 9.8 11.7 13.7 15.7 5.8 3.9 37.1 35.1 78.1 29.3 23.4 -4 52.7 -50.8 74.2 -82.1 7.8 -11.7 17.6 -23.4 23.5 -31.2 33.2 -41 66.4 -45 87.9 -41 46.8 5.8 87.8 52.7 105.4 95.7 13.7 35.1 35.2 56.6 62.5 58.6 29.3 1.9 60.6 -19.6 84 -58.6 2 -3.9 5.9 -7.9 7.8 -13.7 19.6 -33.2 46.9 -84 101.6 -84 56.6 0 97.6 58.6 103.5 68.4 2 -97.7 -35.2 -195.4 -109.4 -269.6C525.4 91.8 287.1 91.8 142.6 236.3zm527.3 527.4c58.6 -58.6 91.8 -130.9 103.5 -207.1C765.6 541 759.8 533.2 753.9 523.4c-7.8 -11.7 -11.7 -15.6 -25.4 -29.3 -11.7 -11.7 -31.2 -25.3 -52.7 -25.3 -35.2 0 -56.7 37.1 -74.2 68.3 -2 5.9 -5.9 9.8 -7.8 13.7 -29.3 48.8 -70.4 78.1 -113.3 74.2 -39.1 -2 -70.3 -29.3 -89.9 -76.2s-54.7 -76.1 -80.1 -80c-21.4 -4 -41 7.8 -60.5 31.2 -5.9 7.8 -11.7 17.6 -19.5 29.3 -27.4 39.1 -60.6 87.9 -97.7 93.7 -5.8 0 -9.8 2 -15.6 2C85.9 625 60.5 611.3 46.9 599.6c15.6 60.6 48.8 117.2 95.7 164.1 144.5 144.5 382.8 144.5 527.3 0z"/></svg>