<svg height="1000" width="750" xmlns="http://www.w3.org/2000/svg"><path d="M691.4 312.5c35.2 0 58.6 25.4 58.6 60.5v343.8c0 35.2 -23.4 64.5 -58.6 64.5h-625C31.3 781.3 0 752 0 716.8V373c0 -35.1 31.3 -60.5 66.4 -60.5h25.4v-31.2h66.4v31.2h25.4c62.5 -70.3 84 -93.7 107.4 -93.7h171.9c23.4 0 44.9 23.4 107.4 93.7h121.1zM375 703.1c91.8 0 168 -74.2 168 -166s-76.2 -166 -168 -166 -168 74.2 -168 166 76.2 166 168 166zM595.7 408.2V375h-33.2v33.2h33.2zM375 402.3c74.2 0 136.7 60.6 136.7 134.8S449.2 671.9 375 671.9 238.3 611.3 238.3 537.1 300.8 402.3 375 402.3zm0 197.3c35.2 0 62.5 -27.3 62.5 -62.5S410.2 474.6 375 474.6s-62.5 27.4 -62.5 62.5 27.3 62.5 62.5 62.5z"/></svg>