<svg height="1000" width="875" xmlns="http://www.w3.org/2000/svg"><path d="M478.5 576.2c70.3 0 130.9 52.7 144.5 121.1 2 9.7 2 19.5 2 29.3v15.6c0 1.9 -2 3.9 -2 5.8 -11.7 70.4 -70.3 127 -144.5 127H117.2C56.6 875 5.9 826.2 0 765.6v-11.7C0 691.4 46.9 640.6 107.4 634.8c0 -5.9 -1.9 -11.8 -1.9 -17.6 0 -95.7 74.2 -173.8 167.9 -179.7h11.8c27.3 0 50.7 5.9 74.2 15.6 1.9 2 5.8 2 7.8 3.9 5.8 3.9 9.8 5.9 15.6 9.8 3.9 2 5.9 3.9 7.8 5.9s5.9 1.9 7.8 3.9l5.9 5.8c27.3 25.4 46.9 58.6 54.7 95.7 1.9 0 1.9 -1.9 3.9 -1.9h15.6zm337.9 21.5c19.5 0 39.1 -2 58.6 -5.9 -9.8 17.6 -21.5 31.2 -35.2 46.9C793 691.4 730.5 730.5 656.3 744.1v-17.5c0 -46.9 -17.6 -91.8 -50.8 -127C572.3 566.4 529.3 546.9 482.4 544.9 468.8 509.8 447.3 476.6 418 453.1 380.9 421.9 332 406.3 285.2 406.3h-9.8C287.1 279.3 377 173.8 498 136.7c19.6 -5.8 37.2 -9.7 58.6 -11.7h2c-11.7 15.6 -21.5 31.3 -29.3 48.8 -19.5 39.1 -31.3 84 -31.3 128.9 0 78.2 33.3 152.4 89.9 209s132.8 86 212.9 86h15.6z"/></svg>