<svg height="1000" width="812.5" xmlns="http://www.w3.org/2000/svg"><path d="M740.2 812.5l68.4 66.4c5.9 5.9 5.9 17.6 0 23.4 -3.9 4 -7.8 4 -11.7 4s-7.8 0 -11.7 -4L718.8 834l-66.5 68.3c-3.9 4 -7.8 4 -11.7 4s-7.8 0 -11.7 -4c-5.9 -5.8 -5.9 -17.5 0 -23.4l68.4 -66.4 -50.8 -50.8C589.8 830.1 502 875 406.3 875 234.4 875 93.8 734.4 93.8 562.5c0 -95.7 44.9 -183.6 113.2 -240.2l-50.7 -48.9 -68.4 68.4c-3.9 3.9 -7.8 3.9 -11.7 3.9s-7.8 0 -11.7 -3.9c-5.9 -5.9 -5.9 -17.6 0 -23.4L132.8 250 31.3 148.4v148.5c0 7.8 -7.9 15.6 -15.7 15.6S0 304.7 0 296.9V109.4C0 101.6 7.8 93.8 15.6 93.8h187.5c7.8 0 15.7 7.8 15.7 15.6S210.9 125 203.1 125H54.7l101.6 101.6 64.4 -64.5c5.9 -5.8 17.6 -5.8 23.4 0s5.9 17.6 0 23.4L179.7 250l52.7 52.7C283.2 269.5 341.8 250 406.3 250s123 19.5 173.8 52.7L757.8 125H609.4c-7.8 0 -15.6 -7.8 -15.6 -15.6s7.8 -15.6 15.6 -15.6h187.5c7.8 0 15.6 7.8 15.6 15.6v187.5c0 7.8 -7.8 15.6 -15.6 15.6s-15.6 -7.8 -15.6 -15.6V148.4L605.5 322.3c68.3 56.6 113.3 144.5 113.3 240.2 0 64.5 -19.6 123 -52.8 173.8l52.8 54.7 66.4 -68.3c5.8 -5.9 17.5 -5.9 23.4 0s5.9 17.5 0 23.4zM605.5 761.7c52.7 -52.7 82 -125 82 -199.2S658.2 416 605.5 363.3s-125 -82 -199.2 -82 -146.5 29.2 -199.3 82 -82 125 -82 199.2 29.3 146.5 82 199.2 125 82.1 199.3 82.1 146.4 -29.3 199.2 -82.1z"/></svg>