<svg height="1000" width="750" xmlns="http://www.w3.org/2000/svg"><path d="M375 171.9c-78.1 0 -140.6 62.5 -140.6 140.6S296.9 453.1 375 453.1 515.6 390.6 515.6 312.5 453.1 171.9 375 171.9zm0 -31.3c93.8 0 171.9 78.2 171.9 171.9S468.8 484.4 375 484.4 203.1 406.3 203.1 312.5 281.3 140.6 375 140.6zm0 -46.8c-58.6 0 -113.3 23.4 -154.3 64.4s-64.4 95.7 -64.4 154.3 23.4 113.3 64.4 154.3 95.7 64.5 154.3 64.5 113.3 -23.5 154.3 -64.5 64.5 -95.7 64.5 -154.3S570.3 199.2 529.3 158.2 433.6 93.8 375 93.8zm0 -31.3c138.7 0 250 111.3 250 250s-111.3 250 -250 250S125 451.2 125 312.5s111.3 -250 250 -250zM169.9 546.9L54.7 750h150.4l9.7 15.6 62.5 105.5 68.4 -152.3 43 -93.8H375c-76.2 0 -148.4 -29.3 -205.1 -78.1zm-7.8 -50.8c50.8 58.6 127 97.7 212.9 97.7 23.4 0 44.9 -2 66.4 -7.9L375 730.5l-93.7 207L187.5 781.3H0zm418 50.8c-23.5 21.5 -48.8 39 -78.1 50.8l-76.2 167.9 46.9 105.5 62.5 -105.5 9.7 -15.6h150.4zm7.8 -50.8L750 781.3H562.5l-93.7 156.2L390.6 765.6l87.9 -191.4c43 -17.6 80.1 -44.9 109.4 -78.1z"/></svg>