<svg height="1000" width="437.5" xmlns="http://www.w3.org/2000/svg"><path d="M437.5 341.8c0 177.7 -62.5 183.6 -62.5 330.1 0 72.2 31.3 128.9 31.3 179.7 0 48.8 -17.6 54.7 -62.5 54.7h-250c-45 0 -62.5 -5.9 -62.5 -54.7 0 -50.8 31.2 -109.4 31.2 -181.7C62.5 523.4 0 521.5 0 343.8 0 304.7 2 183.6 37.1 117.2 44.9 101.6 62.5 93.8 99.6 93.8h238.3c37.1 0 54.7 7.8 62.5 23.4 35.1 66.4 37.1 185.5 37.1 224.6zM64.5 130.9C50.8 156.3 41 197.3 35.2 248h367.1C396.5 197.3 386.7 156.3 373 130.9c0 -2 -1.9 -2 -3.9 -2C365.2 127 355.5 125 337.9 125H99.6c-17.6 0 -27.3 2 -31.2 3.9 -2 0 -3.9 0 -3.9 2zM373 873c0 -1.9 2 -7.8 2 -21.4 0 -19.6 -3.9 -41.1 -11.7 -66.4C355.5 752 343.8 714.8 343.8 671.9c0 -74.2 15.6 -117.2 31.2 -158.2 15.6 -43 31.3 -84 31.3 -171.9 0 -21.5 0 -43 -2 -62.5H33.2c-1.9 19.5 -1.9 43 -1.9 64.5 0 87.8 15.6 126.9 31.2 169.9 15.6 41 31.3 84 31.3 158.2C93.8 714.8 82 752 74.2 785.2 68.4 810.5 62.5 832 62.5 851.6c0 13.6 2 19.5 2 21.4 3.9 2 9.7 2 29.3 2h250c19.5 0 27.3 0 29.2 -2z"/></svg>