<svg height="1000" width="937.5" xmlns="http://www.w3.org/2000/svg"><path d="M281.3 230.5V125h31.2v105.5h-31.2zM0 437.5v-31.2h107.4v31.2H0zm85.9 -209L105.5 207l62.5 62.5L146.5 291zm349.6 60.6l-21.4 -21.5 62.5 -62.5 21.4 21.5zM109.4 627L89.8 605.5 150.4 543l21.5 21.5zM291 269.5c48.8 0 91.8 23.5 117.2 60.6 0 0 -62.5 23.4 -101.6 82s-37.1 142.6 -37.1 142.6C201.2 544.9 148.4 486.3 148.4 414.1c0 -78.2 64.5 -144.6 142.6 -144.6zm464.9 236.4c99.6 0 181.6 83.9 181.6 183.6S855.5 875 755.9 875H314.5C234.4 875 169.9 804.7 169.9 724.6c0 -76.2 56.7 -142.6 130.9 -148.4V543c3.9 -76.2 46.9 -144.6 109.4 -179.7 9.7 -5.9 19.5 -9.8 29.3 -13.7 25.3 -9.8 50.7 -15.6 80 -15.6 105.5 0 193.4 76.2 214.9 173.8 5.8 0 11.7 -1.9 17.6 -1.9h3.9z"/></svg>