<svg height="1000" width="812.5" xmlns="http://www.w3.org/2000/svg"><path d="M793 748c33.2 5.9 21.5 60.6 -5.9 60.6h-3.9c-7.8 0 -48.8 0 -121.1 -23.4 0 0 -29.3 44.9 -74.2 66.4C566.4 861.3 517.6 875 457 875c-74.2 0 -166 -21.5 -250 -97.7C7.8 595.7 -21.5 125 11.7 125c2 0 2 0 3.9 2 166 175.7 378.9 91.8 519.6 207 105.4 85.9 181.6 244.1 150.3 388.7 0 0 5.9 9.7 107.5 25.3zm-218.8 74.3c33.2 -15.7 48.8 -39.1 58.6 -50.8C281.3 623 140.6 380.9 140.6 380.9s164.1 208.9 515.7 332c5.8 -66.4 1.9 -132.8 -25.4 -197.3C605.5 455.1 566.4 400.4 515.6 359.4 460.9 314.5 388.7 300.8 312.5 289.1 222.7 275.4 121.1 259.8 31.3 185.5c0 11.8 0 25.4 1.9 45 3.9 54.7 11.7 117.2 25.4 175.8C74.2 478.5 97.7 543 123 599.6c29.3 66.4 66.5 117.2 105.5 154.3 35.2 31.3 74.2 54.7 117.2 70.3 35.2 11.7 72.3 19.6 111.3 19.6 54.7 0 99.6 -13.7 117.2 -21.5z"/></svg>