<svg height="1000" width="812.5" xmlns="http://www.w3.org/2000/svg"><path d="M406.3 93.8c224.6 0 406.2 181.6 406.2 406.2S630.9 906.3 406.3 906.3 0 724.6 0 500 181.6 93.8 406.3 93.8zm0 33.2C201.2 127 33.2 294.9 33.2 500c0 91.8 33.2 173.8 87.9 238.3 35.2 -15.6 121.1 -46.9 175.8 -62.5 3.9 -2 5.8 0 5.8 -19.5 0 -21.5 -1.9 -35.2 -7.8 -46.9 -7.8 -15.6 -13.6 -39.1 -17.6 -60.6 -7.8 -9.7 -19.5 -29.3 -27.3 -64.4 -5.9 -31.3 -2 -43 2 -54.7v-3.9c1.9 -7.8 0 -44.9 -5.9 -74.2C242.2 332 248 285.2 275.4 250c17.6 -23.4 52.7 -50.8 113.3 -54.7h35.1c62.5 3.9 95.7 31.3 113.3 54.7 27.4 35.2 33.2 82 29.3 101.6 -5.9 29.3 -7.8 66.4 -5.9 74.2 0 0 2 1.9 2 3.9 3.9 11.7 5.9 23.4 0 54.7 -7.8 35.1 -19.5 52.7 -27.3 62.5 -3.9 21.5 -9.8 46.9 -17.6 62.5 -5.9 13.6 -11.7 29.3 -11.7 44.9 0 19.5 0 19.5 3.9 21.5 52.7 15.6 142.5 46.9 181.6 62.5C746.1 673.8 779.3 589.8 779.3 500c0 -205.1 -168 -373 -373 -373z"/></svg>