<svg height="1000" width="453.1" xmlns="http://www.w3.org/2000/svg"><path d="M226.6 209c-48.9 0 -89.9 -41 -89.9 -89.9s41 -87.8 89.9 -87.8 87.9 39 87.9 87.8c0 23.5 -7.9 46.9 -25.4 62.5C273.4 199.2 250 209 226.6 209zm0 -146.5c-31.3 0 -58.6 25.4 -58.6 56.6s27.3 58.6 58.6 58.6c15.6 0 27.3 -5.8 39 -17.5s17.6 -25.4 17.6 -41.1c0 -31.2 -25.4 -56.6 -56.6 -56.6zm-68.4 906.3c-27.3 0 -56.6 -19.6 -56.6 -58.6l1.9 -543H91.8v205.1c0 17.5 -7.8 29.3 -13.7 35.1 -7.8 7.8 -19.5 13.7 -31.2 13.7S21.5 615.2 13.7 607.4C7.8 601.6 0 589.8 0 572.3V334c0 -27.4 11.7 -52.7 29.3 -74.2 19.5 -23.5 48.8 -35.2 78.1 -35.2h238.3c29.3 0 58.6 11.7 78.1 35.2 17.6 21.5 29.3 46.8 29.3 74.2v238.3c0 13.6 -5.8 27.3 -15.6 35.1 -7.8 7.8 -19.5 13.7 -31.2 13.7S380.9 615.2 373 607.4c-9.7 -7.8 -13.6 -21.5 -13.6 -35.1V367.2h-9.8v543c0 39 -31.2 58.6 -58.6 58.6 -25.4 0 -54.7 -19.6 -56.6 -58.6V634.8h-15.6v275.4c-2 39 -33.3 58.6 -60.6 58.6zm-82 -632.9h42.9c3.9 0 7.9 0 11.8 3.9s3.9 7.9 3.9 11.8l-2 558.6c0 21.4 13.7 27.3 25.4 27.3 13.7 0 27.3 -7.8 27.3 -27.3V619.1c0 -7.8 7.9 -15.6 15.7 -15.6H250c7.8 0 15.6 7.8 15.6 15.6v291.1c2 21.4 13.7 27.3 25.4 27.3 13.7 0 27.4 -7.8 27.4 -27.3V351.6c0 -7.8 7.8 -15.7 15.6 -15.7h41c7.8 0 15.6 7.9 15.6 15.7v220.7c0 15.6 13.7 17.5 15.7 17.5s15.6 -1.9 15.6 -17.5V334c0 -39.1 -31.3 -78.1 -76.2 -78.1H107.4c-37.1 0 -76.1 29.3 -76.1 78.1v238.3c0 15.6 13.6 17.5 15.6 17.5s13.6 -1.9 13.6 -17.5V351.6c0 -7.8 7.9 -15.7 15.7 -15.7z"/></svg>