<svg height="1000" width="781.3" xmlns="http://www.w3.org/2000/svg"><path d="M390.6 875c58.6 0 136.7 -13.7 187.5 -31.2 0 0 70.3 42.9 156.3 62.5 -64.5 0 -103.5 -17.6 -156.3 -31.3 -42.9 19.5 -130.8 31.3 -187.5 31.3S248 892.6 203.1 875c-52.7 13.7 -93.7 31.3 -156.2 31.3 87.9 -19.6 156.2 -62.5 156.2 -62.5C253.9 861.3 332 875 390.6 875zM761.7 513.7c11.7 5.8 19.6 17.6 19.6 31.2 0 3.9 0 9.8 -2 13.7L671.9 843.8c-54.7 0 -111.4 -37.2 -111.4 -37.2 -39 19.6 -119.1 37.2 -169.9 37.2S259.8 826.2 220.7 806.6c0 0 -56.6 37.2 -111.3 37.2L2 558.6C0 554.7 0 548.8 0 544.9c0 -13.6 7.8 -25.4 19.5 -31.2l60.6 -27.4L125 248c9.8 -50.7 33.2 -91.7 78.1 -91.7h66.4l15.7 -62.5h208.9l15.7 62.5h68.3c43 0 66.4 39 78.2 91.7l44.9 238.3 60.5 27.4zM310.5 125l-7.8 31.3h175.8L470.7 125H310.5zM156.3 253.9l-41.1 216.8 72.3 -33.2h-2c-17.5 0 -31.2 -15.6 -29.2 -31.2L185.5 250c4 -21.5 13.7 -31.2 31.3 -31.2h347.7c17.5 0 25.3 9.7 31.2 31.2L625 406.3c3.9 21.4 -11.7 31.2 -29.3 31.2l70.3 33.2L625 253.9c-7.8 -41 -21.5 -66.4 -46.9 -66.4h-375c-25.4 0 -39 25.4 -46.8 66.4zm234.3 89.9l136.7 62.5h66.5L564.5 257.8c0 -3.9 -2 -5.8 -2 -7.8H218.8c0 2 -2 2 -2 5.9l-29.3 150.4h66.4zM218.8 771.5l15.6 7.8c31.2 15.6 93.7 29.3 140.6 33.2V382.8L33.2 543s-1.9 0 -1.9 1.9l99.6 265.6c31.2 -5.8 60.5 -21.4 72.2 -29.2zm431.6 39L750 544.9c0 -1.9 -2 -1.9 -2 -1.9L406.3 382.8v429.7c46.8 -2 109.3 -17.6 140.6 -33.2l15.6 -7.8 15.6 9.8c11.7 7.8 41 23.4 72.3 29.2zm-197.3 -291c0 -23.4 9.8 -42.9 23.5 -42.9s23.4 19.5 23.4 42.9 -9.8 43 -23.4 43 -23.5 -19.5 -23.5 -43zm-171.8 0c0 -23.4 9.7 -42.9 23.4 -42.9s23.4 19.5 23.4 42.9 -9.7 43 -23.4 43 -23.4 -19.5 -23.4 -43z"/></svg>