<svg height="1000" width="875" xmlns="http://www.w3.org/2000/svg"><path d="M619.1 654.3c21.5 7.8 -21.4 -7.8 0 0zm0 0c54.7 19.5 89.9 68.4 89.9 127H166c0 -43 17.6 -82.1 52.8 -107.5 29.2 -21.5 60.5 -23.4 95.7 -31.2 13.6 -2 46.8 -9.8 50.7 -25.4s2 -29.3 2 -44.9c0 -5.9 0 -5.9 -3.9 -9.8 -7.8 -7.8 -11.7 -17.6 -15.6 -27.3 -3.9 -15.7 -5.9 -31.3 -7.9 -46.9 -17.5 3.9 -19.5 -31.3 -23.4 -41 -1.9 -7.8 -13.7 -46.9 5.9 -41 -5.9 -9.8 -7.8 -25.4 -9.8 -37.2 -3.9 -25.3 -3.9 -50.7 5.9 -76.1 19.5 -50.8 72.2 -76.2 125 -74.2 50.7 1.9 99.6 31.2 115.2 82 7.8 23.4 5.9 50.8 1.9 76.2 -1.9 9.7 -3.9 21.4 -7.8 29.3 19.6 -5.9 7.8 39 5.9 44.9 -3.9 9.7 -5.9 41 -23.4 37.1 -2 19.5 -3.9 43 -13.7 60.5 -2 3.9 -13.7 15.7 -13.7 19.6v21.4c0 9.8 0 19.6 3.9 29.3s19.6 13.7 27.4 15.7c27.3 9.7 52.7 9.7 80 19.5zM216.8 628.9h3.9 -3.9zm0 0c-17.6 9.8 -33.2 21.5 -46.9 37.1 -1.9 3.9 -11.7 21.5 -13.6 21.5H0c0 -39.1 23.4 -66.4 58.6 -78.1 11.7 -3.9 52.7 -7.8 58.6 -21.5 3.9 -9.8 1.9 -21.5 1.9 -31.3 -19.5 2 -46.8 -1.9 -62.5 -13.6 -3.9 -3.9 5.9 -17.6 7.9 -23.5 1.9 -7.8 3.9 -13.6 5.8 -21.5 2 -17.5 2 -37.1 2 -54.6 0 -31.3 -2 -68.4 15.6 -95.7 15.6 -25.4 44.9 -35.2 74.2 -35.2 46.9 0 84 25.4 91.8 72.3 5.9 31.2 2 62.5 3.9 93.7 0 15.6 3.9 31.3 9.8 46.9 1.9 3.9 9.7 13.7 5.8 17.6l-11.7 5.8c-9.7 3.9 -21.5 5.9 -33.2 7.8 -1.9 0 -15.6 0 -17.6 2s0 17.6 0 21.5c0 7.8 2 11.7 9.8 13.7 11.7 3.9 37.1 5.8 44.9 15.6 3.9 5.8 2 9.7 -3.9 9.7 -13.7 2 -27.3 3.9 -41 9.8 3.9 -1.9 3.9 -3.9 -1.9 0 -15.7 7.8 -7.9 3.9 -2 0zm597.7 -19.5c35.1 11.7 60.5 39 60.5 78.1H718.8c-4 -15.6 -19.6 -27.3 -31.3 -37.1C671.9 638.7 652.3 625 632.8 621.1c-5.8 -2 -31.2 1.9 -25.4 -9.8 3.9 -7.8 17.6 -9.7 25.4 -11.7s29.3 -3.9 31.3 -13.7c0 -1.9 1.9 -27.3 0 -27.3 -11.8 0 -23.5 -2 -35.2 -3.9 -7.8 -2 -13.7 -3.9 -21.5 -7.8 -11.7 -5.9 -3.9 -11.7 0 -21.5 27.4 -62.5 -19.5 -171.9 62.5 -205.1 29.3 -11.7 66.4 -9.8 93.8 5.9 29.3 17.6 39 52.7 39 85.9 0 39.1 -7.8 85.9 13.7 121.1 3.9 5.9 7.8 7.8 0 11.7 -3.9 2 -7.8 2 -11.7 3.9l-23.4 5.9s-17.6 1.9 -25.4 1.9c0 7.9 -3.9 25.4 1.9 33.2 11.7 13.7 41 13.7 56.7 19.6z"/></svg>