<svg height="1000" width="875" xmlns="http://www.w3.org/2000/svg"><path d="M398.4 218.8c-56.6 0 -113.2 23.4 -154.3 66.4s-64.4 97.6 -64.4 156.2c0 7.8 1.9 17.6 1.9 23.4l2 31.3 -31.3 1.9c-31.2 2 -62.5 19.6 -85.9 46.9s-35.1 60.6 -35.1 95.7c0 37.1 13.6 72.3 39 97.7 25.4 27.3 58.6 43 93.8 43H668c46.8 0 91.8 -21.5 125 -54.7s50.8 -80.1 50.8 -127S824.2 507.8 791 472.7 714.8 418 668 418h-23.5l-27.3 1.9 -5.9 -25.4c-9.7 -48.8 -33.2 -91.8 -68.3 -123C503.9 236.3 453.1 218.8 398.4 218.8zm0 -31.3c136.8 0 220.7 95.7 244.2 201.2H668c113.3 0 207 97.6 207 212.9S781.3 812.5 668 812.5H166C74.2 812.5 0 732.4 0 640.6c0 -85.9 66.4 -164 150.4 -171.8 0 -7.9 -2 -17.6 -2 -25.4 0 -138.7 113.3 -255.9 250 -255.9z"/></svg>