<svg height="1000" width="812.5" xmlns="http://www.w3.org/2000/svg"><path d="M0 218.8h250v257.8L0 406.3V218.8zm406.3 332zm-109.4 89.8c0 -44.9 27.3 -85.9 68.3 -101.5l41.1 11.7 41 -11.7c39 15.6 68.3 54.7 68.3 101.5 0 60.6 -48.8 109.4 -109.3 109.4S296.9 701.2 296.9 640.6zM625 490.2c29.3 43 46.9 95.7 46.9 150.4 0 146.5 -119.2 265.7 -265.6 265.7S140.6 787.1 140.6 640.6c0 -54.7 17.6 -107.4 46.9 -150.4l134.8 37.1c-35.2 25.4 -56.7 66.5 -56.7 113.3 0 78.2 62.5 140.7 140.7 140.7S546.9 718.8 546.9 640.6c0 -46.8 -21.5 -87.9 -56.7 -113.3zM281.3 218.8h250v265.6l-125 35.1 -125 -35.1V218.8zm281.2 0h250v187.5l-250 70.3V218.8zM0 187.5V93.8h812.5v93.7H0z"/></svg>