<svg height="1000" width="875" xmlns="http://www.w3.org/2000/svg"><path d="M818.4 367.2c37.1 37.1 56.6 84 56.6 132.8s-19.5 95.7 -56.6 132.8c-37.1 35.2 -86 54.7 -136.8 54.7S584 668 546.9 632.8L300.8 392.6c-29.3 -29.3 -68.4 -43 -109.4 -43s-78.1 13.7 -107.4 43c-60.6 58.6 -60.6 156.2 0 214.8 29.3 29.3 66.4 43 107.4 43s80.1 -13.7 109.4 -43l84 -82 25.4 27.3 -82.1 80.1C291 668 242.2 687.5 191.4 687.5S93.8 668 56.6 632.8C19.5 595.7 0 548.8 0 500S19.5 404.3 56.6 367.2c37.2 -35.2 84 -54.7 134.8 -54.7S291 332 328.1 367.2l246.1 240.2c29.3 29.3 66.4 43 107.4 43s80.1 -13.7 109.4 -43c60.6 -58.6 60.6 -156.2 0 -214.8 -29.3 -29.3 -68.3 -43 -109.4 -43s-78.1 13.7 -107.4 43l-84 82 -25.4 -27.3 82.1 -80.1C584 332 632.8 312.5 683.6 312.5s97.7 19.5 134.8 54.7z"/></svg>