<svg height="1000" width="875" xmlns="http://www.w3.org/2000/svg"><path d="M0 343.8c0 -35.2 29.3 -62.5 64.5 -62.5h744.1c35.2 0 66.4 27.3 66.4 62.5v310.5c0 35.2 -31.2 64.5 -66.4 64.5H64.5C29.3 718.8 0 689.5 0 654.3V343.8zm44.9 185.5c0 3.9 3.9 7.8 7.8 7.8s7.8 -3.9 7.8 -7.8v-58.6c0 -3.9 -3.9 -7.8 -7.8 -7.8s-7.8 3.9 -7.8 7.8v58.6zM853.5 500c0 -19.5 -13.7 -35.2 -33.2 -35.2s-35.1 15.7 -35.1 35.2 15.6 33.2 35.1 33.2 33.2 -13.7 33.2 -33.2zM765.6 312.5h-666v375h666v-375zM800.8 500c0 -11.7 9.7 -19.5 19.5 -19.5 11.7 0 19.5 7.8 19.5 19.5s-7.8 19.5 -19.5 19.5c-9.8 0 -19.5 -7.8 -19.5 -19.5z"/></svg>