<svg height="1000" width="875" xmlns="http://www.w3.org/2000/svg"><path d="M687.5 500c0 7.8 7.8 15.6 15.6 15.6h109.4C804.7 710.9 648.4 867.2 453.1 875V765.6c0 -7.8 -7.8 -15.6 -15.6 -15.6s-15.6 7.8 -15.6 15.6V875C226.6 867.2 70.3 710.9 62.5 515.6h109.4c7.8 0 15.6 -7.8 15.6 -15.6s-7.8 -15.6 -15.6 -15.6H62.5C70.3 289.1 226.6 132.8 421.9 125v109.4c0 7.8 7.8 15.6 15.6 15.6s15.6 -7.8 15.6 -15.6V125c195.3 7.8 351.6 164.1 359.4 359.4H703.1c-7.8 0 -15.6 7.8 -15.6 15.6zm-250 125c68.4 0 125 -56.6 125 -125S505.9 375 437.5 375s-125 56.6 -125 125 56.6 125 125 125zM859.4 484.4c7.8 0 15.6 7.8 15.6 15.6s-7.8 15.6 -15.6 15.6h-46.9v-31.2h46.9zm-796.9 0v31.2H15.6C7.8 515.6 0 507.8 0 500s7.8 -15.6 15.6 -15.6h46.9zM421.9 875h31.2v46.9c0 7.8 -7.8 15.6 -15.6 15.6s-15.6 -7.8 -15.6 -15.6V875zm31.2 -750h-31.2V78.1c0 -7.8 7.8 -15.6 15.6 -15.6s15.6 7.8 15.6 15.6V125z"/></svg>