<svg height="1000" width="812.5" xmlns="http://www.w3.org/2000/svg"><path d="M406.3 93.8c224.6 0 406.2 181.6 406.2 406.2S630.9 906.3 406.3 906.3 0 724.6 0 500 181.6 93.8 406.3 93.8zm244.1 687.5C607.4 681.6 546.9 591.8 476.6 511.7c21.4 -23.4 41 -48.8 60.5 -74.2 66.4 52.7 150.4 87.9 240.2 93.8 0 -9.8 2 -21.5 2 -31.3 -43 -3.9 -85.9 -13.7 -127 -31.2 -35.1 -15.7 -66.4 -33.3 -95.7 -56.7C597.7 353.5 630.9 293 658.2 226.6c-7.8 -7.8 -15.6 -15.7 -23.4 -21.5 0 1.9 -2 1.9 -2 3.9 -27.3 64.4 -62.5 125 -101.5 181.6 -4 -1.9 -4 -3.9 -7.9 -7.8C486.3 345.7 455.1 302.7 435.5 253.9 418 212.9 410.2 169.9 406.3 127c-9.8 0 -21.5 1.9 -31.3 1.9 7.8 113.3 60.5 214.9 138.7 287.1 -17.6 25.4 -37.1 48.8 -58.6 72.3C361.3 390.6 250 310.5 125 255.9c-7.8 7.8 -13.7 17.5 -19.5 25.4 115.2 50.7 218.7 121 308.6 210.9l19.5 19.5L418 527.3c-25.4 25.4 -50.8 48.9 -78.2 70.4C263.7 513.7 158.2 459 37.1 453.1c-1.9 9.8 -1.9 21.5 -1.9 31.3 48.8 1.9 95.7 13.6 138.6 31.2 48.9 19.6 91.8 50.8 128.9 87.9l13.7 13.7c-60.5 46.9 -128.9 85.9 -199.2 117.2 7.8 7.8 13.7 17.6 21.5 25.4C209 728.5 275.4 687.5 335.9 640.6c21.5 27.4 41.1 58.6 54.7 91.8 19.6 44.9 29.3 89.9 31.3 138.7 9.7 0 21.5 0 31.2 -2C449.2 775.4 416 689.5 361.3 621.1c33.2 -27.3 64.5 -54.7 93.8 -85.9 70.3 80 126.9 167.9 169.9 265.6 7.8 -5.9 17.6 -11.7 25.4 -19.5z"/></svg>