<svg height="1000" width="562.5" xmlns="http://www.w3.org/2000/svg"><path d="M562.5 369.1c0 60.6 -25.4 115.3 -58.6 162.2 -21.5 29.2 -43 54.6 -62.5 87.8 -43 74.3 -35.1 140.7 -35.1 158.2v4h-250v-4c0 -13.6 5.8 -83.9 -37.2 -158.2C99.6 585.9 80.1 560.5 58.6 531.3 25.4 484.4 0 429.7 0 369.1 0 216.8 128.9 93.8 281.3 93.8s281.2 123 281.2 275.3zm-95.7 158.2l11.7 -15.6c31.3 -42.9 52.8 -91.8 52.8 -142.6 0 -64.4 -31.3 -126.9 -78.2 -173.8S345.7 125 281.3 125s-125 23.4 -171.9 70.3S31.3 304.7 31.3 369.1c0 50.8 21.4 99.7 52.7 142.6l37.1 50.8c9.8 11.7 17.6 25.4 25.4 41 33.2 56.7 41 113.3 41 146.5h31.3V531.3l-62.5 -125h33.2l60.5 125V750h62.5V531.3l60.5 -125h33.3l-62.5 125V750H375c0 -33.2 7.8 -87.9 41 -146.5 15.6 -27.3 31.3 -48.8 46.9 -70.3 1.9 -1.9 1.9 -3.9 3.9 -5.9zm-248 379V875h125v31.3h-125zm-31.3 -62.5v-31.3H375v31.3H187.5z"/></svg>