<svg height="1000" width="812.5" xmlns="http://www.w3.org/2000/svg"><path d="M406.3 93.8c224.6 0 406.2 181.6 406.2 406.2S630.9 906.3 406.3 906.3 0 724.6 0 500 181.6 93.8 406.3 93.8zm-250 375v62.5h68.3l35.2 -62.5H156.3zm21.4 218.7l68.4 -56.6 -48.8 -31.3zm78.2 -70.3l48.8 -85.9 37.1 -62.5 56.6 -97.7c3.9 -5.9 2 -11.7 -3.9 -15.6l-31.2 -17.6c-5.9 -3.9 -11.7 -2 -15.6 3.9l-72.3 127 -35.2 62.5L207 587.9zm64.4 -85.9h173.8L459 468.8H355.5zm191.4 0L558.6 502 541 468.8 423.8 261.7c-3.9 -5.8 -9.7 -7.8 -15.6 -3.9l-29.3 17.6c-5.9 3.9 -7.8 9.8 -3.9 15.6l99.6 177.8 35.2 62.5h1.9zm7.8 11.7l23.5 44.9 48.8 -29.3 -15.6 -27.3 -9.8 -17.6 -27.3 17.6zm99.6 144.5c9.8 -7.8 17.6 -43 13.7 -70.3C628.9 587.9 609.4 566.4 574.2 582c-13.7 5.9 -29.3 27.4 -7.8 56.7 17.6 23.4 37.1 15.6 52.7 48.8zm37.2 -156.2v-62.5h-99.7l35.2 62.5h64.5z"/></svg>