<svg height="1000" width="812.5" xmlns="http://www.w3.org/2000/svg"><path d="M0 492.2zm414.1 414.1h1.9 -1.9zM406.3 93.8c224.6 0 406.2 181.6 406.2 406.2 0 15.6 0 31.3 -2 46.9C789.1 736.3 634.8 886.7 445.3 904.3c-11.7 2 -25.4 2 -39 2C181.6 906.3 0 724.6 0 500v-7.8c0 -11.7 0 -21.5 2 -31.3C19.5 271.5 169.9 117.2 359.4 95.7c11.7 -1.9 21.5 -1.9 31.2 -1.9h15.7zM162.1 521.5c50.8 19.5 93.8 50.8 132.8 89.8s70.3 82.1 89.9 132.8c15.6 41.1 27.3 86 29.3 128.9 9.7 0 21.4 0 31.2 -1.9C439.5 767.6 396.5 666 318.4 587.9S138.7 466.8 35.2 460.9c-2 9.8 -2 21.5 -2 31.3 43 1.9 87.9 13.7 128.9 29.3zM488.3 418c80.1 80 181.6 123 287.1 128.9 1.9 -9.8 1.9 -21.5 1.9 -31.3 -46.8 -1.9 -89.8 -11.7 -132.8 -29.3C593.8 466.8 548.8 435.5 509.8 396.5s-70.3 -84 -89.9 -134.8C402.3 218.8 392.6 175.8 390.6 128.9c-9.7 0 -21.5 0 -31.2 2 5.8 105.4 48.8 207 128.9 287.1z"/></svg>