<svg height="1000" width="812.5" xmlns="http://www.w3.org/2000/svg"><path d="M609.4 593.8V500h31.2v93.8h-31.2zM156.3 562.5H416l31.3 31.3H125V500h228.5l31.3 31.3H156.3v31.2zm335.9 -31.2L460.9 500h132.9v93.8h-39.1l-37.1 -37.2h44.9v-25.3h-70.3zm164.1 62.5V500h31.2v93.8h-31.2zm-250 -500c224.6 0 406.2 181.6 406.2 406.2S630.9 906.3 406.3 906.3 0 724.6 0 500 181.6 93.8 406.3 93.8zm0 781.2c50.7 0 99.6 -9.8 146.4 -29.3 39.1 -17.6 76.2 -41 107.5 -70.3L130.9 246.1c-29.3 31.2 -52.8 68.4 -70.4 107.4C41 400.4 31.3 449.2 31.3 500s9.7 99.6 29.2 146.5c19.6 44.9 45 84 80.1 119.1s74.2 60.6 119.2 80.1c46.8 19.5 95.7 29.3 146.5 29.3zM681.6 753.9c29.3 -31.2 52.8 -68.4 70.4 -107.4 19.5 -46.9 29.3 -95.7 29.3 -146.5S771.5 400.4 752 353.5c-19.6 -44.9 -45 -84 -80.1 -119.1S597.7 173.8 552.7 154.3C505.9 134.8 457 125 406.3 125s-99.7 9.8 -146.5 29.3c-39.1 17.6 -76.2 41 -107.5 70.3zM609.4 416c31.2 13.7 31.2 44.9 31.2 58.6v2h-31.2v-2c0 -15.6 -2 -25.4 -13.7 -31.2 -7.8 -3.9 -25.4 -5.9 -76.2 -5.9h-5.8c-25.4 0 -46.9 0 -64.5 -25.4 -9.7 -15.6 -9.7 -39.1 -3.9 -58.6 -7.8 -1.9 -15.6 -1.9 -23.4 -5.8C388.7 334 371.1 308.6 371.1 273.4c0 -64.4 43 -85.9 66.4 -85.9 7.8 0 15.6 7.8 15.6 15.6s-7.8 15.7 -15.6 15.7c-2 0 -35.2 3.9 -35.2 54.6 0 21.5 9.8 37.1 31.3 45 17.6 7.8 35.2 5.8 35.2 5.8 5.8 0 11.7 3.9 13.6 9.8s3.9 11.7 0 15.6c-9.7 13.7 -13.6 35.2 -7.8 43 7.8 11.7 13.7 13.7 39.1 13.7h5.8c46.9 0 72.3 1.9 89.9 9.7zm78.1 60.6h-31.2c0 -54.7 -7.9 -70.3 -13.7 -80.1C630.9 377 615.2 375 593.8 375h-58.6c-5.9 0 -9.8 -3.9 -11.8 -7.8s-1.9 -11.7 0 -15.6c0 0 15.7 -43 11.8 -70.3C533.2 265.6 531.3 250 500 250c-7.8 0 -15.6 -7.8 -15.6 -15.6s7.8 -15.6 15.6 -15.6c37.1 0 60.5 19.5 66.4 56.6 3.9 21.5 0 52.7 -5.9 68.4h33.3c31.2 0 58.5 7.8 76.1 35.1 11.7 19.5 17.6 46.9 17.6 97.7zm0 0z"/></svg>