<svg height="1000" width="812.5" xmlns="http://www.w3.org/2000/svg"><path d="M750 218.8c35.2 0 62.5 25.3 62.5 60.5v310.5c0 35.2 -27.3 62.5 -62.5 62.5h-93.7V875h-500V652.3H62.5C27.3 652.3 0 625 0 589.8V279.3c0 -35.2 27.3 -60.5 62.5 -60.5H125V125h562.5v93.8H750zM156.3 156.3v62.5h500v-62.5h-500zM625 843.8v-375H187.5v375H625zm156.3 -254V279.3C781.3 261.7 767.6 250 750 250H62.5c-17.6 0 -31.2 11.7 -31.2 29.3v310.5c0 17.6 13.6 31.3 31.2 31.3h93.8V437.5h500v183.6H750c17.6 0 31.3 -13.7 31.3 -31.3z"/></svg>