<svg height="1000" width="625" xmlns="http://www.w3.org/2000/svg"><path d="M281.3 187.5c0 -17.6 13.6 -31.2 31.2 -31.2s31.3 13.6 31.3 31.2 -13.7 31.3 -31.3 31.3 -31.2 -13.7 -31.2 -31.3zM593.8 125c17.5 0 31.2 13.7 31.2 31.3V875c0 17.6 -13.7 31.3 -31.2 31.3H31.3C13.7 906.3 0 892.6 0 875V156.3C0 138.7 13.7 125 31.3 125h179.6c-7.8 9.8 -13.6 19.5 -17.5 31.3H46.9c-7.8 0 -15.6 7.8 -15.6 15.6v687.5c0 7.8 7.8 15.6 15.6 15.6h531.2c7.8 0 15.7 -7.8 15.7 -15.6V171.9c0 -7.8 -7.9 -15.6 -15.7 -15.6H431.6c-3.9 -11.8 -9.7 -21.5 -17.5 -31.3h179.7zm-437.5 91.8c0 -17.6 17.5 -29.3 35.1 -29.3h27.4c0 -11.7 1.9 -21.5 5.8 -31.2 3.9 -11.8 9.8 -21.5 17.6 -31.3 17.6 -19.5 43 -31.2 70.3 -31.2s52.7 11.7 70.3 31.2c7.8 9.8 13.7 19.5 17.6 31.3 3.9 9.7 5.9 19.5 5.9 31.2h33.2c17.5 0 29.3 11.7 29.3 29.3V250h93.7v593.8h-500V250h93.8v-33.2zm312.5 95.7H156.3v-31.2H93.8v531.2h437.5V281.3h-62.5v31.2zM250 218.8h-62.5v62.5h250v-62.5H375v-31.3C375 152.3 347.7 125 312.5 125S250 152.3 250 187.5v31.3z"/></svg>