<svg height="1000" width="812.5" xmlns="http://www.w3.org/2000/svg"><path d="M796.9 535.2h-2c-7.8 0 -13.6 -7.9 -13.6 -15.7V498c0 -83.9 -35.2 -187.5 -80.1 -232.4 -5.9 -5.8 -5.9 -15.6 0 -21.5s15.6 -5.8 21.5 0c50.7 50.8 89.8 162.2 89.8 253.9v21.5c0 7.8 -7.8 15.7 -15.6 15.7zM652.3 216.8c-3.9 0 -5.8 -2 -9.7 -3.9C572.3 154.3 490.2 125 406.3 125c-80.1 0 -156.3 23.4 -218.8 68.4 -7.8 5.8 -15.6 3.9 -21.5 -3.9s-3.9 -15.7 3.9 -21.5C238.3 119.1 318.4 93.8 406.3 93.8c91.7 0 179.6 33.2 255.8 95.7 5.9 5.8 7.8 15.6 2 21.4 -3.9 3.9 -7.8 5.9 -11.8 5.9zM44.9 687.5c-5.8 0 -11.7 -3.9 -13.6 -11.7C11.7 613.3 0 562.5 0 498 0 400.4 35.2 304.7 99.6 230.5c5.9 -5.9 15.6 -5.9 21.5 0s7.8 15.6 1.9 21.5C64.5 320.3 31.3 408.2 31.3 498c0 60.6 11.7 111.4 29.2 170 2 7.8 -1.9 17.5 -9.7 19.5h-5.9zm99.6 140.6c-7.8 0 -15.6 -9.7 -15.6 -17.6 5.9 -95.7 0 -130.8 -9.8 -173.8C113.3 605.5 103.5 568.4 99.6 503.9c-5.8 -84 23.4 -164.1 78.1 -222.6 58.6 -62.5 140.7 -95.8 234.4 -95.8 70.3 0 134.8 25.4 187.5 70.4 50.8 44.9 89.9 107.4 111.3 183.6 23.5 83.9 31.3 189.4 19.6 306.6 0 7.8 -9.8 13.7 -17.6 13.7S699.2 750 699.2 742.2c11.7 -113.3 3.9 -214.9 -19.5 -294.9C660.2 377 625 320.3 578.1 279.3s-103.5 -62.5 -166 -62.5c-85.9 0 -160.1 29.3 -212.9 85.9C150.4 355.5 125 427.7 130.9 502c3.9 62.5 11.7 97.6 17.5 128.9 9.8 44.9 17.6 82 11.8 181.6 0 7.8 -7.9 15.6 -15.7 15.6zm91.8 46.9h-1.9c-7.8 -2 -15.6 -9.8 -13.7 -17.6C236.3 748 218.8 625 201.2 521.5c-11.7 -66.4 1.9 -123.1 37.1 -166 37.1 -45 101.5 -70.3 168 -70.3 56.6 0 107.4 21.4 146.4 64.4s66.4 103.5 78.2 175.8c9.7 62.5 13.6 111.3 13.6 152.3 0 84 -9.7 152.4 -9.7 154.3 -2 7.8 -9.8 15.7 -17.6 13.7s-13.7 -9.8 -11.7 -17.6c0 0 9.7 -68.3 9.7 -150.4 0 -39 -5.8 -87.9 -15.6 -148.4C578.1 398.4 503.9 316.4 406.3 316.4c-58.6 0 -113.3 23.4 -144.6 60.6 -29.3 35.1 -39 82 -29.3 138.6C250 623 267.6 746.1 252 861.3c-2 7.8 -7.9 13.7 -15.7 13.7zm287.1 9.8h-1.9c-7.8 -2 -15.6 -9.8 -13.7 -17.6 7.8 -35.2 5.9 -74.2 5.9 -74.2 0 -7.8 7.8 -15.7 15.6 -15.7s15.6 7.9 15.6 15.7c0 1.9 2 39 -5.8 78.1 -2 7.8 -7.8 13.7 -15.7 13.7zm-195.3 15.6h-1.9c-7.8 -2 -15.7 -9.8 -13.7 -17.6 13.7 -109.4 9.8 -228.5 -15.6 -355.5 -11.7 -58.5 3.9 -93.7 19.5 -111.3 19.5 -23.4 48.8 -37.1 85.9 -37.1 56.7 0 99.7 41 119.2 111.3 15.6 54.7 21.5 132.8 23.4 226.6 0 7.8 -7.8 15.6 -15.6 15.6s-15.6 -7.8 -15.6 -15.6c-2 -89.8 -9.8 -166 -23.5 -218.8 -21.4 -80 -68.3 -87.8 -87.9 -87.8 -27.3 0 -48.8 9.7 -62.5 25.3 -15.6 19.6 -19.5 46.9 -11.7 84 25.4 130.9 31.3 253.9 15.7 367.2 0 7.8 -7.9 13.7 -15.7 13.7zm97.7 5.9h-2c-7.8 0 -13.6 -9.8 -13.6 -17.6C425.8 750 414.1 566.4 384.8 496.1c-3.9 -7.8 0 -15.6 7.8 -19.5s17.6 0 21.5 7.8c31.2 74.2 42.9 261.7 27.3 408.2 0 7.8 -7.8 13.7 -15.6 13.7z"/></svg>