<svg height="1000" width="875" xmlns="http://www.w3.org/2000/svg"><path d="M490.2 343.8L455.1 459l-11.7 41h103.5L412.1 714.8l29.3 -113.2 11.7 -39.1H310.5l48.9 -218.7h130.8zm43 -31.3l-46.9 156.3h117.2L328.1 906.3l84 -312.5H271.5L334 312.5h199.2zM668 277.3c113.3 0 207 80.1 207 195.4 0 113.2 -80.1 214.8 -220.7 214.8H496.1l19.5 -31.2h138.7c21.5 0 39.1 -2 39.1 -2 83.9 -13.7 150.4 -91.8 150.4 -179.7 0 -46.9 -17.6 -87.9 -50.8 -119.1S714.8 308.6 668 308.6c0 0 -27.4 0 -50.8 1.9l-3.9 -27.3C603.5 236.3 578.1 195.3 543 168 505.9 136.7 455.1 125 398.4 125c-58.6 0 -113.2 17.6 -154.3 56.6s-64.4 91.8 -64.4 148.5v7.8l3.9 29.3 -29.3 3.9c-33.2 3.9 -62.5 21.5 -85.9 48.8s-37.1 58.6 -37.1 93.8c0 37.1 13.6 72.2 39 99.6s60.6 43 95.7 43h197.3l-7.8 31.2H166C74.2 687.5 0 607.4 0 515.6c0 -85.9 66.4 -164 148.4 -175.8V332c0 -138.6 113.3 -238.2 250 -238.2s220.7 78.1 244.2 183.5H668z"/></svg>