<svg height="1000" width="937.5" xmlns="http://www.w3.org/2000/svg"><path d="M843.8 533.2c52.7 0 93.7 39.1 93.7 91.8s-41 95.7 -93.7 95.7c-41.1 0 -74.3 -25.4 -87.9 -60.5h-99.6c-13.7 0 -25.4 -7.9 -29.3 -21.5l-31.3 -91.8L498 884.8c-3.9 13.6 -15.6 21.5 -29.2 21.5h-2c-13.7 0 -27.3 -9.8 -29.3 -23.5L337.9 281.3 250 636.7c-3.9 13.7 -17.6 23.5 -31.2 23.5H0v-62.5h193.4L312.5 119.1c3.9 -13.6 15.6 -25.3 31.3 -25.3s29.2 13.6 31.2 27.3l101.6 613.3 87.9 -302.8c3.9 -13.6 15.6 -21.4 29.3 -21.4 13.6 0 25.3 7.8 29.2 21.4l56.7 166.1h74.2c11.7 -37.2 48.8 -64.5 89.9 -64.5z"/></svg>