<svg height="1000" width="804.7" xmlns="http://www.w3.org/2000/svg"><path d="M435.5 666s9.8 2 33.3 2 44.9 -5.9 44.9 -5.9c-9.8 17.6 -21.5 33.2 -35.2 46.9L345.7 841.8c-39.1 39.1 -87.9 60.5 -142.6 60.5S97.7 880.9 58.6 841.8 0 753.9 0 699.2 19.5 593.8 58.6 554.7L191.4 421.9c15.6 -15.6 35.2 -27.4 54.7 -37.1 11.7 -5.9 23.4 -9.8 37.1 -13.7 2 0 3.9 -2 5.9 -2 9.7 -1.9 21.4 -5.8 31.2 -5.8h15.6c7.9 0 13.7 1.9 21.5 1.9 3.9 0 5.9 2 9.8 2 43 5.8 82 25.4 111.3 54.7 31.3 29.3 46.9 64.4 52.8 105.4 0 0 -9.8 7.9 -25.4 11.8s-27.4 5.8 -31.3 5.8C470.7 515.6 457 488.3 435.5 466.8c-23.4 -23.4 -56.6 -39.1 -91.7 -41h-7.9c-5.8 0 -13.6 1.9 -19.5 1.9 -9.8 2 -19.5 2 -29.3 5.9s-19.5 9.8 -29.3 15.6c-7.8 5.9 -15.6 11.7 -21.5 17.6L103.5 599.6c-27.3 27.4 -41 62.5 -41 99.6s13.7 72.3 41 99.6 62.5 41 99.6 41 72.3 -13.6 99.6 -41zM744.1 158.2c39.1 39.1 60.6 87.9 60.6 142.6s-21.5 105.5 -60.6 144.5L611.3 578.1c-15.6 15.7 -33.2 27.4 -52.7 37.1 -11.7 5.9 -23.4 11.8 -37.1 15.7 -11.7 3.9 -25.4 5.8 -37.1 5.8h-37.1c-46.9 -3.9 -89.9 -25.4 -123.1 -58.6C293 546.9 277.3 515.6 271.5 472.7c5.8 -2 15.6 -7.9 27.3 -11.8 17.6 -5.8 31.3 -3.9 31.3 -3.9 3.9 29.3 17.6 54.7 39 76.2 23.5 23.4 54.7 39.1 89.9 41h9.8c5.8 0 13.6 -1.9 19.5 -1.9 9.7 -2 19.5 -2 29.3 -5.9s17.6 -9.8 27.3 -15.6c7.8 -5.9 17.6 -11.7 23.5 -17.6L699.2 400.4c27.4 -27.4 43 -62.5 43 -99.6s-15.6 -72.3 -43 -99.6 -60.5 -41 -97.6 -41 -72.3 13.6 -99.6 41L367.2 335.9S353.5 332 335.9 332s-37.1 3.9 -46.8 5.9c9.7 -17.6 21.4 -35.2 35.1 -48.8L457 158.2c39.1 -39.1 89.9 -60.5 144.6 -60.5s103.5 21.4 142.5 60.5z"/></svg>