<svg height="1000" width="812.5" xmlns="http://www.w3.org/2000/svg"><path d="M779.3 244.1c25.4 25.4 35.2 56.7 33.2 80.1s-11.7 70.3 -58.6 117.2C720.7 474.6 666 500 613.3 500c-21.5 0 -43 -5.9 -62.5 -15.6 -3.9 -2 -11.7 -3.9 -17.6 -3.9s-13.7 1.9 -21.5 9.7C494.1 507.8 144.5 880.9 144.5 880.9c-15.6 17.5 -37.1 25.4 -58.6 25.4S41 896.5 25.4 880.9C-7.8 847.7 -9.8 793 25.4 761.7c0 0 375 -353.5 390.6 -367.2 13.7 -13.6 7.8 -29.3 3.9 -39 -37.1 -86 5.9 -162.1 44.9 -203.2C505.9 109.4 558.6 95.7 582 93.8h3.9c23.5 0 54.7 9.7 76.2 31.2L558.6 228.5l19.5 99.6 99.6 19.6z"/></svg>