<svg height="1000" width="875" xmlns="http://www.w3.org/2000/svg"><path d="M15.6 750v-31.2h843.8V750H15.6zm15.7 62.5v-31.2h812.5v31.2H31.3zM0 187.5h875v500H0v-500zm843.8 468.8V218.8H31.3v437.5h812.5zm-156.3 -375V250h125v31.3h-125zm0 343.7v-31.2h125V625h-125zM62.5 281.3V250h125v31.3h-125zm0 343.7v-31.2h125V625h-125zm375 -46.9c-78.1 0 -140.6 -62.5 -140.6 -140.6S359.4 296.9 437.5 296.9s140.6 62.5 140.6 140.6S515.6 578.1 437.5 578.1zm0 -250C377 328.1 328.1 377 328.1 437.5S377 546.9 437.5 546.9 546.9 498 546.9 437.5 498 328.1 437.5 328.1z"/></svg>