<svg height="1000" width="625" xmlns="http://www.w3.org/2000/svg"><path d="M207 394.5zm314.5 316.4C546.9 720.7 625 750 625 812.5H0C0 750 78.1 720.7 103.5 710.9s60.6 -11.7 84 -17.5c13.7 -3.9 33.2 -9.8 39.1 -17.6s1.9 -80.1 1.9 -80.1 -11.7 -19.5 -17.6 -35.2S197.3 498 197.3 498s-13.7 0 -17.6 -23.4C175.8 449.2 168 441.4 168 421.9c0 -17.6 9.7 -19.6 9.7 -19.6s-7.8 -25.3 -9.7 -82c-2 -66.4 48.8 -132.8 144.5 -132.8S459 253.9 457 320.3c-1.9 56.7 -9.7 82 -9.7 82s9.7 2 9.7 19.6c0 19.5 -5.8 29.3 -11.7 54.7C441.4 500 427.7 500 427.7 500s-7.8 44.9 -13.6 60.5 -17.6 35.2 -17.6 35.2 -3.9 72.3 1.9 80.1 25.4 13.7 39.1 17.6c23.4 5.8 58.6 7.8 84 17.5zm-209 70.4h267.6c-3.9 -5.9 -7.8 -11.8 -15.6 -15.7C550.8 755.9 533.2 748 511.7 740.2c-13.7 -3.9 -33.2 -7.8 -50.8 -9.7 -11.7 -2 -19.5 -3.9 -29.3 -5.9 -5.8 -1.9 -41 -9.8 -56.6 -29.3 -7.8 -9.8 -11.7 -23.4 -11.7 -62.5 0 -19.5 1.9 -39 1.9 -39v-7.9l3.9 -7.8c2 -3.9 11.8 -17.6 15.7 -29.3 3.9 -9.7 9.7 -37.1 11.7 -54.7 0 0 0 2 1.9 -7.8s15.7 -7.8 17.6 -15.6 5.9 -13.7 9.8 -35.2S416 412.1 416 402.3c0 -7.8 2 -9.7 2 -9.7 0 -2 7.8 -27.4 7.8 -74.2C425.8 293 416 267.6 398.4 250 377 228.5 349.6 218.8 312.5 218.8c-35.2 0 -66.4 9.7 -87.9 31.2 -17.6 17.6 -25.4 43 -25.4 68.4 2 46.8 7.8 72.2 7.8 74.2s2 5.8 0 11.7c-1.9 9.8 -11.7 9.8 -7.8 31.2s7.8 27.4 9.8 35.2 15.6 5.9 17.6 15.6 1.9 7.8 1.9 7.8c2 17.6 7.8 45 11.7 54.7 3.9 11.7 11.8 25.4 15.7 29.3l3.9 7.8v7.9s1.9 19.5 1.9 39c0 39.1 -3.9 52.7 -11.7 62.5 -15.6 19.5 -50.8 27.4 -56.6 29.3 -9.8 2 -19.6 3.9 -31.3 5.9 -17.6 1.9 -35.1 5.8 -48.8 9.7C91.8 748 74.2 755.9 60.5 765.6c-7.8 3.9 -11.7 9.8 -15.6 15.7h267.6z"/></svg>