<svg height="1000" width="875" xmlns="http://www.w3.org/2000/svg"><path d="M318.4 468.8c5.8 0 9.7 3.9 9.7 9.7v43c0 5.8 -3.9 9.8 -9.7 9.8H250v68.3c0 5.9 -5.9 9.8 -11.7 9.8h-41c-5.9 0 -9.8 -3.9 -9.8 -9.8v-68.3h-68.4c-5.8 0 -9.7 -5.9 -9.7 -11.8v-41c0 -5.8 3.9 -9.7 9.7 -9.7h68.4v-68.4c0 -5.9 3.9 -9.8 9.8 -9.8h42.9c5.9 0 9.8 3.9 9.8 9.8v68.4h68.4zm326.1 76.1c21.5 0 39.1 15.6 39.1 37.1s-17.6 37.1 -39.1 37.1S607.4 603.5 607.4 582s15.6 -37.1 37.1 -37.1zm-82 -82c21.5 0 37.1 15.6 37.1 37.1s-15.6 37.1 -37.1 37.1S523.4 521.5 523.4 500s17.6 -37.1 39.1 -37.1zm166 0c21.5 0 37.1 15.6 37.1 37.1s-15.6 37.1 -37.1 37.1 -39 -15.6 -39 -37.1 17.5 -37.1 39 -37.1zm-84 -82c21.5 0 39.1 15.6 39.1 37.1s-17.6 39 -39.1 39 -37.1 -17.5 -37.1 -39 15.6 -37.1 37.1 -37.1zm13.7 -64.5H216.8c-50.8 0 -95.7 17.6 -130.9 50.8S31.3 447.3 31.3 498s19.5 99.7 54.6 132.9 80.1 52.7 130.9 52.7h441.4c50.8 0 95.7 -19.5 130.9 -52.7S843.8 548.8 843.8 498 824.2 400.4 789.1 367.2 709 316.4 658.2 316.4zm0 -31.2C777.3 285.2 875 373 875 498S777.3 714.8 658.2 714.8H216.8C97.7 714.8 0 623 0 498S97.7 285.2 216.8 285.2h441.4z"/></svg>