<svg height="1000" width="812.5" xmlns="http://www.w3.org/2000/svg"><path d="M406.3 93.8c224.6 0 406.2 181.6 406.2 406.2S630.9 906.3 406.3 906.3 0 724.6 0 500 181.6 93.8 406.3 93.8zm171.8 703.1l2 31.2c11.7 -5.8 21.5 -9.7 31.2 -17.6 0 -50.7 -5.8 -91.7 -41 -125 -39 -37.1 -89.8 -48.8 -89.8 -48.8C460.9 630.9 431.6 627 431.6 627c27.4 -13.7 48.9 -21.5 56.7 -23.5s29.3 -7.8 31.2 -17.6v-27.3c-41 -3.9 -56.6 -11.7 -56.6 -11.7 -11.7 -5.9 -3.9 -11.7 0 -21.5 27.3 -62.5 -19.5 -171.9 62.5 -205.1 13.7 -5.8 29.3 -7.8 48.8 -7.8 23.5 0 44.9 3.9 60.6 13.7 29.3 17.6 39 52.7 39 85.9 0 39.1 -7.8 85.9 13.7 121.1 3.9 5.9 7.8 7.8 0 11.7 0 0 -11.7 9.8 -60.5 11.7 0 0 -4 25.4 1.9 33.2 11.7 13.7 41 13.7 56.6 19.6 25.4 7.8 48.9 27.3 56.7 52.7C765.6 613.3 779.3 558.6 779.3 500c0 -205.1 -168 -373 -373 -373S33.2 294.9 33.2 500c0 70.3 19.5 134.8 52.7 191.4l2 -1.9C117.2 668 150.4 666 185.5 658.2c13.7 -1.9 45 -9.8 48.9 -25.4s3.9 -29.3 3.9 -44.9c0 -5.9 -2 -5.9 -5.9 -9.8 -7.8 -7.8 -11.7 -17.6 -15.6 -27.3 -3.9 -15.6 -5.9 -31.3 -7.8 -46.9 -17.6 3.9 -19.5 -31.2 -23.5 -41 -1.9 -7.8 -3.9 -35.2 7.9 -41 -5.9 -9.8 -7.9 -25.4 -9.8 -37.1 -3.9 -25.4 -3.9 -50.8 5.9 -76.2 19.5 -50.8 70.3 -76.2 123 -74.2 50.8 1.9 101.6 31.2 117.2 82 7.8 23.4 5.8 50.8 1.9 76.2 -1.9 9.7 -5.8 21.5 -9.7 29.3 15.6 5.8 7.8 39 5.8 44.9 -3.9 9.8 -3.9 41 -21.4 37.1 -2 19.5 -4 43 -13.7 60.6 -2 3.9 -15.6 15.6 -15.6 19.5v21.5c0 9.7 0 19.5 3.9 29.3s19.5 13.6 27.3 15.6c27.3 9.8 54.7 9.8 82 19.5 54.7 19.6 87.9 68.4 87.9 127z"/></svg>