<svg height="1000" width="812.5" xmlns="http://www.w3.org/2000/svg"><path d="M406.3 324.2c97.6 0 175.7 78.1 175.7 175.8S503.9 675.8 406.3 675.8 230.5 597.7 230.5 500 308.6 324.2 406.3 324.2zm0 253.9c42.9 0 78.1 -35.1 78.1 -78.1s-35.2 -78.1 -78.1 -78.1S328.1 457 328.1 500s35.2 78.1 78.2 78.1zm0 -484.3c224.6 0 406.2 181.6 406.2 406.2S630.9 906.3 406.3 906.3 0 724.6 0 500 181.6 93.8 406.3 93.8zm0 628.9c123 0 222.6 -99.7 222.6 -222.7S529.3 277.3 406.3 277.3 183.6 377 183.6 500s99.6 222.7 222.7 222.7z"/></svg>