<svg height="1000" width="750" xmlns="http://www.w3.org/2000/svg"><path d="M250 187.5c0 64.5 -48.8 117.2 -111.3 125v375c62.5 7.8 111.3 60.5 111.3 125 0 68.4 -56.6 125 -125 125S0 880.9 0 812.5C0 750 46.9 697.3 107.4 689.5v-379C46.9 302.7 0 250 0 187.5c0 -68.4 56.6 -125 125 -125s125 56.6 125 125zm-218.7 0c0 50.8 42.9 93.8 93.7 93.8s93.8 -43 93.8 -93.8S175.8 93.8 125 93.8s-93.7 42.9 -93.7 93.7zm187.5 625c0 -50.8 -43 -93.7 -93.8 -93.7s-93.7 42.9 -93.7 93.7 42.9 93.8 93.7 93.8 93.8 -43 93.8 -93.8zm423.8 -123c60.5 7.8 107.4 60.5 107.4 123 0 68.4 -56.6 125 -125 125S500 880.9 500 812.5c0 -64.5 48.8 -117.2 111.3 -125V375C611.3 285.2 595.7 203.1 500 203.1H296.9l101.5 97.7c5.9 5.8 5.9 17.6 0 23.4s-17.5 5.9 -23.4 0L259.8 207c-11.8 -11.7 -11.8 -31.2 0 -42.9L371.1 50.8c3.9 -3.9 7.8 -3.9 11.7 -3.9s7.8 0 11.7 3.9c5.9 5.8 5.9 17.6 0 23.4l-97.6 97.7H500c60.5 0 103.5 27.3 125 80.1 17.6 42.9 17.6 95.7 17.6 123v314.5zM625 906.3c50.8 0 93.8 -43 93.8 -93.8s-43 -93.7 -93.8 -93.7 -93.7 42.9 -93.7 93.7 42.9 93.8 93.7 93.8z"/></svg>