<svg height="1000" width="625" xmlns="http://www.w3.org/2000/svg"><path d="M93.8 812.5V281.3H125v62.5h375v-62.5h31.3v531.2H93.8zm345.7 -625c17.5 0 29.3 11.7 29.3 29.3v95.7H156.3v-95.7c0 -17.6 17.5 -29.3 35.1 -29.3h27.4c0 -11.7 1.9 -21.5 5.8 -31.2 3.9 -11.8 9.8 -21.5 17.6 -31.3 17.6 -19.5 43 -31.2 70.3 -31.2s52.7 11.7 70.3 31.2c7.8 9.8 13.7 19.5 17.6 31.3 3.9 9.7 5.9 19.5 5.9 31.2h33.2zm-127 31.3c17.6 0 31.3 -13.7 31.3 -31.3s-13.7 -31.2 -31.3 -31.2 -31.2 13.6 -31.2 31.2 13.6 31.3 31.2 31.3zm187.5 -2v2 -2zM593.8 125c17.5 0 31.2 13.7 31.2 31.3V875c0 17.6 -13.7 31.3 -31.2 31.3H31.3C13.7 906.3 0 892.6 0 875V156.3C0 138.7 13.7 125 31.3 125h179.6c-7.8 9.8 -13.6 19.5 -17.5 37.1h-5.9c-39.1 0 -62.5 31.3 -62.5 66.4V250H62.5v593.8h500V250H500v-33.2c-2 -33.2 -29.3 -60.5 -62.5 -60.5h-5.9c-3.9 -11.8 -9.7 -21.5 -17.5 -31.3h179.7z"/></svg>