<svg height="1000" width="812.5" xmlns="http://www.w3.org/2000/svg"><path d="M808.6 423.8c3.9 3.9 3.9 11.7 0 15.7L701.2 546.9c-2 1.9 -5.9 1.9 -7.8 1.9s-5.9 0 -7.9 -1.9l-66.4 -66.4c-3.9 -3.9 -3.9 -11.7 0 -15.7l19.6 -19.5c0 -13.7 -11.7 -29.3 -21.5 -35.1 -7.8 -3.9 -25.4 -9.8 -44.9 -9.8 -7.8 0 -17.6 1.9 -25.4 3.9 -23.5 5.9 -43 27.3 -91.8 76.2l7.8 11.7c3.9 7.8 0 17.6 -3.9 21.5l-89.9 89.8C248 724.6 127 871.1 127 871.1c-2 1.9 -5.9 3.9 -7.9 3.9s-5.8 -2 -7.8 -3.9L3.9 765.6C0 761.7 0 753.9 3.9 750c0 0 150.4 -121.1 271.5 -242.2L365.2 418c2 -2 7.8 -3.9 11.8 -3.9 1.9 0 7.8 0 9.7 1.9l9.8 5.9c54.7 -54.7 70.3 -78.1 68.3 -121.1S435.5 224.6 404.3 199.2c-19.5 -15.6 -54.7 -19.5 -85.9 -19.5 -19.6 0 -37.1 0 -45 1.9h-5.8c-15.6 0 -3.9 -17.5 5.8 -27.3C287.1 140.6 330.1 125 380.9 125c27.3 0 58.6 3.9 89.8 17.6 91.8 37.1 146.5 89.8 160.2 103.5s33.2 33.2 44.9 50.8 -3.9 44.9 9.7 58.6c7.9 7.8 25.4 9.7 35.2 9.7l5.9 -7.8c1.9 -1.9 5.8 -3.9 7.8 -3.9s5.8 2 7.8 3.9zM347.7 580.1c44.9 -44.9 68.3 -66.4 80 -78.1L377 451.2c-11.8 11.7 -35.2 33.2 -80.1 78.1C201.2 625 85.9 720.7 41 757.8l76.2 76.2C154.3 791 252 675.8 347.7 580.1zm345.7 -70.3l80 -78.2 -39 -37.1 -13.7 2c-25.4 0 -44.9 -7.8 -58.6 -19.5 -17.6 -17.6 -13.7 -39.1 -13.7 -52.8v-9.7c-11.7 -15.7 -29.3 -35.2 -41 -46.9C584 246.1 535.2 203.1 459 171.9c-23.5 -9.8 -44.9 -13.7 -68.4 -15.6 13.7 3.9 23.5 9.7 33.2 17.5 45 37.1 68.4 80.1 70.3 127 2 56.6 -19.5 87.9 -76.1 142.6l-2 3.9 13.7 13.6 3.9 -3.9 7.8 -7.8c46.9 -46.9 66.4 -68.3 97.7 -76.2 9.7 -1.9 21.4 -3.9 33.2 -3.9 23.4 0 46.8 5.9 60.5 13.7 21.5 11.7 35.2 39.1 37.1 60.6L666 457l-5.8 11.8 -3.9 3.9z"/></svg>