<svg height="1000" width="750" xmlns="http://www.w3.org/2000/svg"><path d="M384.8 156.3l11.7 42.9 3.9 19.6 19.5 3.9 25.4 5.8 17.6 2 11.7 -13.7L502 179.7l13.6 5.8 -5.8 43 -3.9 19.5 15.6 11.8 21.5 13.6 15.6 11.8 17.6 -9.8 39 -21.5 9.8 9.8 -23.4 37.1 -9.8 17.6 11.7 15.6 15.6 21.5 9.8 15.6 19.5 -3.9 43 -5.9 5.9 13.7 -35.2 27.3 -15.6 11.8 3.9 17.5 5.9 25.4 1.9 19.6 19.5 5.8 41.1 11.7v13.7l-41.1 9.8 -19.5 5.8 -1.9 19.6 -5.9 27.3 -3.9 17.6 15.6 11.7 33.2 25.4 -3.9 13.7 -43 -5.9 -19.5 -3.9 -9.8 15.6L603.5 668l-11.7 15.6 9.8 17.6 21.4 35.1 -9.7 9.8 -37.1 -19.5 -17.6 -11.8L543 728.5l-21.5 13.7 -13.7 11.7 2 17.6 5.8 43 -11.7 5.8 -27.3 -35.1 -11.8 -15.7 -19.5 3.9 -25.4 5.9 -19.5 3.9 -5.9 19.5 -9.7 41.1h-13.7l-11.7 -41.1 -3.9 -19.5 -19.6 -3.9 -27.3 -5.9 -19.5 -3.9 -11.8 15.7L252 820.3l-13.7 -5.8 5.8 -43L248 752l-17.5 -9.8L209 726.6l-15.6 -9.8 -17.6 9.8L138.7 750l-9.8 -9.8 21.5 -39 9.8 -17.6L150.4 668l-13.7 -21.5L125 628.9l-19.5 3.9 -43 5.9L56.6 625l35.2 -25.4 15.6 -13.7 -3.9 -17.5L99.6 543l-3.9 -19.6 -19.5 -3.9L31.3 507.8v-13.7l44.9 -11.7 19.5 -3.9L99.6 459l3.9 -23.5 5.9 -19.5L91.8 402.3 54.7 375l5.8 -11.7 45 5.8 19.5 2 11.7 -15.6L150.4 334l9.8 -15.6 -9.8 -17.6 -25.4 -41 11.7 -9.8 39.1 25.4 15.6 9.8 17.6 -9.8 21.5 -15.6L248 250l-1.9 -19.5 -5.9 -46.9 11.8 -5.9 29.3 37.1 11.7 15.7 17.5 -3.9 25.4 -3.9 17.6 -3.9 5.9 -19.6 11.7 -42.9h13.7zM410.2 125l15.6 66.4 23.4 5.9 43 -56.7 58.6 25.4 -11.7 68.4 21.4 13.6 58.6 -33.2 45 43 -35.2 58.6 15.6 21.5 66.4 -9.8 23.5 58.6 -54.7 39.1 5.8 27.3 64.5 15.7v62.5l-64.5 17.5 -5.8 25.4 54.7 41L709 671.9l-64.5 -7.8 -15.6 21.4 31.3 56.7 -43 43 -56.7 -31.3L541 767.6l9.8 66.4 -58.6 23.4 -41 -52.7 -25.4 5.8L410.2 875h-62.5l-17.6 -64.5 -27.4 -5.8 -39 54.7L205.1 834l9.7 -66.4 -23.4 -13.7 -58.6 35.2 -43 -45L125 685.5l-15.6 -21.4L41 671.9 17.6 615.2l54.7 -41 -3.9 -25.4L0 531.3v-62.5l68.4 -17.6 5.8 -23.5 -56.6 -41L41 328.1l68.4 9.8L123 316.4 85.9 255.9l45 -45 60.5 37.1 23.4 -13.6 -9.7 -70.3 58.6 -23.5 41 56.7 23.4 -3.9L347.7 125h62.5zM375 250c138.7 0 250 111.3 250 250S513.7 750 375 750 125 638.7 125 500 236.3 250 375 250zM158.2 535.2c0 3.9 2 3.9 2 7.8l203.1 -54.7L418 285.2c-2 0 -5.9 -2 -7.8 -2 -11.8 -1.9 -23.5 -1.9 -35.2 -1.9 -58.6 0 -113.3 23.4 -154.3 64.4S156.3 441.4 156.3 500c0 11.7 0 23.4 1.9 35.2zm353.5 136.7l5.9 -5.9L371.1 519.5 168 574.2c0 2 3.9 3.9 3.9 5.9 11.7 27.3 27.3 52.7 48.8 74.2 41 41 95.7 64.5 154.3 64.5 50.8 0 97.7 -15.7 136.7 -46.9zm33.2 -33.2c31.3 -39.1 48.9 -87.9 48.9 -138.7 0 -58.6 -23.5 -113.3 -64.5 -154.3 -21.5 -21.5 -48.8 -37.1 -76.2 -48.8 -1.9 0 -3.9 -3.9 -5.8 -3.9l-54.7 205 146.5 146.5z"/></svg>