<svg height="1000" width="812.5" xmlns="http://www.w3.org/2000/svg"><path d="M677.7 187.5c74.3 0 134.8 60.5 134.8 134.8v351.5c0 74.2 -60.5 138.7 -134.8 138.7H355.5c-87.9 0 -125 -50.8 -199.2 -125S15.6 539.1 15.6 539.1C5.9 527.3 0 513.7 0 498s5.9 -29.2 15.6 -41c0 0 84 -87.9 140.7 -144.5s107.4 -125 199.2 -125h322.2zm103.6 486.3V322.3c0 -27.4 -9.8 -54.7 -29.3 -74.3s-46.9 -29.2 -74.3 -29.2H355.5c-29.3 0 -54.7 7.8 -82.1 25.3 -25.4 17.6 -48.8 41.1 -72.2 66.4l-162.1 168c-3.9 3.9 -7.8 9.8 -7.8 19.5s3.9 15.7 7.8 19.6L207 693.4c54.7 56.6 84 87.9 148.5 87.9h322.2c27.4 0 52.8 -11.8 72.3 -31.3s31.3 -48.8 31.3 -76.2zM523.4 500l125 125 -29.3 27.3 -123 -123L373 652.3 343.8 623l123 -123 -123 -123L373 347.7l123.1 125 123 -125 29.3 29.3z"/></svg>