<svg height="1000" width="812.5" xmlns="http://www.w3.org/2000/svg"><path d="M796.9 93.8c7.8 0 15.6 7.8 15.6 15.6v218.7c0 7.8 -7.8 15.7 -15.6 15.7s-15.6 -7.9 -15.6 -15.7V148.4l-211 209c52.7 58.6 86 134.8 86 220.7 0 181.7 -146.5 328.2 -328.2 328.2S0 759.8 0 578.1 146.5 250 328.1 250c86 0 162.1 33.2 220.7 85.9L757.8 125H578.1c-7.8 0 -15.6 -7.8 -15.6 -15.6s7.8 -15.6 15.6 -15.6h218.8zM625 578.1C625 498 595.7 423.8 539.1 367.2s-130.9 -85.9 -211 -85.9 -154.3 29.2 -210.9 85.9S31.3 498 31.3 578.1s29.2 154.3 85.9 211S248 875 328.1 875s154.3 -29.3 211 -85.9S625 658.2 625 578.1z"/></svg>