<svg height="1000" width="750" xmlns="http://www.w3.org/2000/svg"><path d="M748 500l2 2 -11.7 11.7c-41 41 -91.8 93.7 -152.4 134.7C515.6 695.3 445.3 718.8 375 718.8 212.9 718.8 121.1 623 13.7 513.7L0 500l2 -2C78.1 419.9 132.8 373 185.5 339.8 248 300.8 308.6 281.3 375 281.3c162.1 0 285.2 117.1 373 218.7zM375 312.5C253.9 312.5 158.2 382.8 43 500c46.8 46.9 93.7 97.7 148.4 132.8 58.6 39.1 117.2 54.7 183.6 54.7 146.5 0 259.8 -109.4 334 -185.5C658.2 445.3 611.3 404.3 564.5 373 502 332 439.5 312.5 375 312.5zm0 343.8C289.1 656.3 218.8 585.9 218.8 500S289.1 343.8 375 343.8 531.3 414.1 531.3 500 460.9 656.3 375 656.3zM375 375c-68.4 0 -125 56.6 -125 125s56.6 125 125 125S500 568.4 500 500 443.4 375 375 375zm62.5 125h31.3c0 50.8 -43 93.8 -93.8 93.8S281.3 552.7 281.3 500s42.9 -93.7 93.7 -93.7v31.2c-31.2 0 -62.5 25.4 -62.5 60.5s29.3 64.5 62.5 64.5 62.5 -27.3 62.5 -62.5z"/></svg>