<svg height="1000" width="750" xmlns="http://www.w3.org/2000/svg"><path d="M744.1 93.8c3.9 0 5.9 1.9 5.9 3.9s-3.9 7.8 -5.9 11.7 -23.4 29.3 -27.3 64.4v605.5c0 68.4 -54.7 127 -123 127H187.5c-68.4 0 -125 -56.7 -125 -125V242.2C62.5 179.7 58.6 179.7 0 171.9 0 148.4 19.5 93.8 125 93.8H744.1zm-58.6 80c0 -37.1 13.7 -48.8 13.7 -48.8H125c-46.9 0 -70.3 13.7 -82 23.4 13.6 3.9 27.3 5.9 35.1 15.7 17.6 19.5 15.7 44.9 15.7 78.1v539.1c0 52.7 42.9 93.7 93.7 93.7h406.3c25.3 0 46.8 -11.7 64.4 -29.3s27.3 -39.1 27.3 -64.4V173.8zm-62.5 170H156.3V748c0 21.5 5.8 39.1 13.6 48.9s19.6 15.6 37.1 15.6h365.3c11.7 0 29.3 -7.8 41 -19.5 7.8 -7.8 9.7 -23.5 9.7 -43V343.8zm31.3 -31.3V750c0 23.4 -3.9 48.8 -19.5 64.5s-41 29.3 -62.5 29.3H207c-56.6 0 -82 -41.1 -82 -95.8V312.5h529.3z"/></svg>