<svg height="1000" width="812.5" xmlns="http://www.w3.org/2000/svg"><path d="M539.1 156.3c44.9 5.8 74.2 70.3 64.4 142.5C593.8 365.2 552.7 416 509.8 416H502c-45 -5.8 -72.3 -70.3 -62.5 -142.6 9.7 -66.4 48.8 -117.1 91.8 -117.1H539.1zm-5.9 0zm236.3 173.8c43 17.6 56.7 87.9 29.3 154.3 -23.4 56.6 -66.4 91.8 -105.4 91.8 -7.9 0 -13.7 -2 -21.5 -3.9 -43 -17.6 -54.7 -86 -27.4 -152.4C668 363.3 709 326.2 748 326.2c7.9 0 13.7 1.9 21.5 3.9zM546.9 576.2c46.9 72.2 138.6 78.1 162.1 140.6 3.9 11.7 7.8 25.4 7.8 37.1 0 50.8 -39.1 89.9 -89.8 89.9 -62.5 0 -146.5 -46.9 -220.7 -46.9S248 843.8 185.5 843.8c-50.7 0 -89.8 -39.1 -89.8 -89.9 0 -11.7 2 -25.4 5.9 -37.1 23.4 -62.5 117.2 -68.4 164 -140.6C320.3 490.2 343.8 459 406.3 459s85.9 31.2 140.6 117.2zM302.7 416C259.8 416 218.8 365.2 209 298.8c-9.8 -72.2 19.5 -136.7 64.4 -142.5h7.9c42.9 0 83.9 50.7 93.7 117.1 9.8 72.3 -19.5 136.8 -64.5 142.6h-7.8zM140.6 572.3c-7.8 1.9 -13.6 3.9 -21.5 3.9 -39 0 -82 -35.2 -105.4 -91.8C-13.7 418 0 347.7 43 330.1c7.8 -2 13.6 -3.9 21.5 -3.9 39 0 82 37.1 105.4 93.7 27.4 66.4 13.7 134.8 -29.3 152.4z"/></svg>