<svg height="1000" width="875" xmlns="http://www.w3.org/2000/svg"><path d="M787.1 396.5s52.7 29.3 80.1 60.5c0 0 7.8 46.9 7.8 113.3 0 93.8 -11.7 171.9 -11.7 171.9 -50.8 9.8 -89.9 13.7 -128.9 13.7h-56.7c-46.8 0 -31.2 -13.7 -52.7 -13.7 -21.5 0 -107.4 7.8 -187.5 7.8s-166 -7.8 -187.5 -7.8 -5.9 13.7 -52.7 13.7h-56.7c-39 0 -78.1 -3.9 -128.9 -13.7C11.7 742.2 0 664.1 0 570.3 0 505.9 7.8 457 7.8 457c27.4 -31.2 80.1 -58.6 80.1 -58.6l-29.3 -5.8c-13.7 0 -44.9 -5.9 -50.8 -11.7S0 369.1 0 363.3s3.9 -15.6 9.8 -21.5S39.1 332 54.7 330.1c3.9 0 9.8 -2 11.7 -2 5.9 0 7.8 2 9.8 3.9 3.9 2 5.8 23.5 5.8 33.2l15.7 3.9c9.7 -23.4 23.4 -70.3 42.9 -105.4 23.5 -41 44.9 -52.8 54.7 -56.7s17.6 -5.8 84 -11.7c66.4 -7.8 125 -7.8 158.2 -7.8s89.8 0 156.3 7.8 74.2 7.8 83.9 11.7 33.2 15.7 56.7 56.7c19.5 35.1 31.2 82 41 105.4l17.6 -3.9c0 -9.7 1.9 -29.3 5.8 -33.2 2 -1.9 3.9 -3.9 9.8 -3.9 1.9 0 5.9 2 9.8 2 15.6 1.9 41 5.8 46.8 11.7s9.8 15.6 9.8 21.5 -2 11.7 -7.8 17.6 -37.1 11.7 -50.8 11.7zM152.3 300.8c-7.8 19.5 -21.4 66.4 -19.5 72.2 2 4 0 5.9 11.7 5.9h15.7C187.5 377 353.5 375 437.5 375s250 2 277.3 3.9h15.7c11.7 0 9.7 -1.9 11.7 -5.9 1.9 -5.8 -11.7 -52.7 -19.5 -72.2s-27.4 -50.8 -43 -62.5c0 0 -93.8 -19.5 -242.2 -19.5s-242.2 19.5 -242.2 19.5c-15.6 11.7 -35.1 43 -43 62.5zm683.6 414c3.9 -29.3 7.9 -83.9 7.9 -144.5 0 -46.9 -4 -84 -5.9 -99.6 -21.5 -19.5 -54.7 -41 -66.4 -46.9l-27.4 -13.6s-85.9 -3.9 -306.6 -3.9 -306.6 3.9 -306.6 3.9l-27.4 13.6c-11.7 5.9 -44.9 27.4 -66.4 46.9 -1.9 15.6 -5.8 54.7 -5.8 99.6 0 60.6 3.9 115.2 7.8 144.5 35.1 5.9 66.4 9.8 101.5 9.8h56.7c11.7 0 15.6 -1.9 17.5 -1.9C222.7 716.8 232.4 709 250 709c7.8 0 21.5 0 39.1 1.9 37.1 2 93.7 7.9 148.4 7.9s111.3 -5.9 148.4 -7.9c17.6 0 31.3 -1.9 39.1 -1.9 17.6 0 27.3 7.8 35.2 13.7 1.9 0 5.8 1.9 17.5 1.9h56.7c35.1 0 66.4 -3.9 101.5 -9.8zM209 543c-19.5 0 -58.6 -2 -68.4 -2s-17.6 7.8 -21.5 7.8S68.4 541 64.5 519.5s0 -44.9 0 -44.9c31.2 -1.9 60.5 0 115.2 15.6s84 45 84 45S228.5 543 209 543zm396.5 119.1c-25.4 3.9 -113.3 5.9 -168 5.9s-142.6 -2 -168 -5.9 -58.6 -33.2 -37.1 -58.6c15.6 -15.6 41 -25.4 95.7 -33.2 58.6 -7.8 95.7 -7.8 109.4 -7.8s50.8 0 109.4 7.8c54.7 7.8 82 17.6 93.7 33.2 19.6 27.4 -9.7 54.7 -35.1 58.6zm205 -142.6c-3.9 21.5 -50.7 29.3 -54.6 29.3S744.1 541 734.4 541s-48.9 2 -68.4 2 -54.7 -7.8 -54.7 -7.8 29.3 -29.3 84 -45 84 -17.5 115.2 -15.6c0 0 4 23.4 0 44.9zm-89.8 285.2v-33.2c37.1 0 82 -2 132.8 -11.7 0 0 -1.9 25.4 -3.9 41 0 3.9 -1.9 11.7 -11.7 11.7H726.6c-3.9 0 -5.9 -3.9 -5.9 -7.8zM25.4 800.8c-2 -15.6 -3.9 -41 -3.9 -41 50.8 9.7 95.7 11.7 132.8 11.7v33.2c0 3.9 -2 7.8 -5.9 7.8H37.1c-9.8 0 -11.7 -7.8 -11.7 -11.7z"/></svg>