<svg height="1000" width="687.5" xmlns="http://www.w3.org/2000/svg"><path d="M62.5 625H43C25.4 625 9.8 609.4 9.8 591.8c0 -31.3 21.5 -43 21.5 -68.4V314.5C31.3 277.3 0 293 0 236.3v-7.8c0 -50.8 35.2 -87.9 84 -87.9h46.9c15.6 -29.3 46.8 -50.8 82 -50.8 27.3 0 52.7 9.8 68.4 29.3C302.7 85.9 330.1 62.5 382.8 62.5s103.5 39.1 115.2 91.8l21.5 2c41 0 74.3 33.2 74.3 74.2v50.8H62.5V625zM656.3 406.3c17.5 0 31.2 13.6 31.2 31.2v250c0 17.6 -13.7 31.3 -31.2 31.3h-93.8v125l62.5 62.5v31.2H31.3v-31.2l62.5 -62.5V312.5h468.7v93.8h93.8zm-250 -7.9c-21.5 0 -39.1 17.6 -39.1 39.1s17.6 39.1 39.1 39.1 39 -17.6 39 -39.1 -17.6 -39.1 -39 -39.1zm0 289.1c0 -13.7 -9.8 -23.4 -23.5 -23.4s-23.4 9.7 -23.4 23.4 9.7 23.4 23.4 23.4 23.5 -9.7 23.5 -23.4zM343.8 500c-17.6 0 -31.3 13.7 -31.3 31.3s13.7 31.2 31.3 31.2S375 548.8 375 531.3 361.3 500 343.8 500zm312.5 187.5v-250h-93.8v250h93.8z"/></svg>