<svg height="1000" width="812.5" xmlns="http://www.w3.org/2000/svg"><path d="M585.9 125H584c-19.5 0 -62.5 13.7 -95.7 48.8 -17.6 19.6 -74.2 86 -39.1 170 2 5.8 7.8 17.5 7.8 31.2 0 11.7 -3.9 27.3 -19.5 43C421.9 433.6 62.5 771.5 46.9 785.2c-11.7 9.7 -15.6 23.4 -15.6 33.2 0 15.6 5.8 29.3 15.6 41 9.7 9.7 27.3 15.6 41 15.6 7.8 0 21.5 -2 33.2 -15.6C134.8 843.8 472.7 486.3 490.2 468.8c15.7 -15.7 31.3 -19.6 43 -19.6 13.7 0 23.4 3.9 31.3 7.8 13.6 7.8 29.3 11.8 48.8 11.8 43 0 89.8 -19.6 119.1 -48.9 37.1 -37.1 46.9 -74.2 48.9 -97.6 0 -3.9 0 -15.7 -5.9 -29.3l-76.2 76.1 -11.7 11.8 -15.6 -2 -99.6 -19.5 -21.5 -3.9L546.9 334l-17.6 -99.6 -3.9 -15.6L537.1 207l76.2 -76.1C603.5 127 593.8 125 585.9 125zm0 -31.2c23.5 0 54.7 9.7 76.2 31.2L558.6 228.5l19.5 99.6 99.6 19.6L779.3 244.1c25.4 25.4 35.2 56.7 33.2 80.1s-11.7 70.3 -58.6 117.2C720.7 474.6 666 500 613.3 500c-21.5 0 -43 -5.9 -62.5 -15.6 -3.9 -2 -11.7 -3.9 -17.6 -3.9s-13.7 1.9 -21.5 9.7C494.1 507.8 144.5 880.9 144.5 880.9c-15.6 17.5 -37.1 25.4 -58.6 25.4S41 896.5 25.4 880.9C-7.8 847.7 -9.8 793 25.4 761.7c0 0 375 -353.5 390.6 -367.2 13.7 -13.6 7.8 -29.3 3.9 -39 -37.1 -86 5.9 -162.1 44.9 -203.2C505.9 109.4 558.6 95.7 582 93.8h3.9zM107.4 837.9c-11.7 9.8 -27.3 9.8 -39 0 -9.8 -11.7 -9.8 -27.4 0 -39.1 11.7 -9.7 27.3 -9.7 39 0 9.8 11.7 9.8 29.3 0 39.1z"/></svg>