<svg height="1000" width="812.5" xmlns="http://www.w3.org/2000/svg"><path d="M369.1 531.3l-1.9 -4S193.4 296.9 199.2 293s236.3 166 236.3 166c2 1.9 2 3.9 4 5.8 9.7 9.8 15.6 21.5 15.6 35.2 0 27.3 -21.5 48.8 -48.8 48.8 -15.7 0 -27.4 -5.8 -37.2 -17.5zM406.3 93.8c224.6 0 406.2 181.6 406.2 406.2S630.9 906.3 406.3 906.3 0 724.6 0 500C0 388.7 44.9 287.1 119.1 212.9l23.5 23.4C74.2 304.7 33.2 396.5 33.2 500c0 207 166 373 373.1 373s373 -166 373 -373C779.3 304.7 628.9 142.6 437.5 127v185.5h-31.2V93.8z"/></svg>