<svg height="1000" width="609.4" xmlns="http://www.w3.org/2000/svg"><path d="M517.6 757.8L500 730.5C546.9 666 576.2 585.9 576.2 500S546.9 334 500 269.5L527.3 250c50.8 70.3 82.1 156.3 82.1 250s-33.2 189.5 -91.8 257.8zM490.2 500c0 54.7 -13.6 105.5 -39 150.4l-19.6 -33.2C447.3 582 457 541 457 500c0 -62.5 -19.5 -121.1 -54.7 -168l25.4 -19.5c39.1 52.7 62.5 117.2 62.5 187.5zm-111.3 0c0 7.8 -1.9 15.6 -1.9 23.4l-35.2 -58.6c-5.9 -25.3 -15.6 -50.7 -31.3 -70.3L335.9 375c27.4 35.2 43 78.1 43 125zM113.3 421.9L171.9 375 250 505.9v181.6L113.3 578.1H0V421.9h113.3zM123 156.3l392.6 671.8 -29.3 15.7L93.8 171.9z"/></svg>