<svg height="1000" width="687.5" xmlns="http://www.w3.org/2000/svg"><path d="M144.5 156.3H43c-5.9 0 -11.7 5.8 -11.7 11.7v101.5c0 5.9 5.8 11.8 11.7 11.8h101.5c5.9 0 11.8 -5.9 11.8 -11.8V168c0 -5.9 -5.9 -11.7 -11.8 -11.7zm0 -31.3c23.5 0 43 19.5 43 43v101.5c0 23.5 -19.5 43 -43 43H43C19.5 312.5 0 293 0 269.5V168c0 -23.5 19.5 -43 43 -43h101.5zm250 31.3H293c-5.9 0 -11.7 5.8 -11.7 11.7v101.5c0 5.9 5.8 11.8 11.7 11.8h101.5c5.9 0 11.8 -5.9 11.8 -11.8V168c0 -5.9 -5.9 -11.7 -11.8 -11.7zm0 -31.3c23.5 0 43 19.5 43 43v101.5c0 23.5 -19.5 43 -43 43H293c-23.5 0 -43 -19.5 -43 -43V168c0 -23.5 19.5 -43 43 -43h101.5zm250 31.3H543c-5.9 0 -11.7 5.8 -11.7 11.7v101.5c0 5.9 5.8 11.8 11.7 11.8h101.5c5.9 0 11.8 -5.9 11.8 -11.8V168c0 -5.9 -5.9 -11.7 -11.8 -11.7zm0 -31.3c23.5 0 43 19.5 43 43v101.5c0 23.5 -19.5 43 -43 43H543c-23.5 0 -43 -19.5 -43 -43V168c0 -23.5 19.5 -43 43 -43h101.5zm-500 312.5H43c-5.9 0 -11.7 5.9 -11.7 11.7v101.6c0 5.8 5.8 11.7 11.7 11.7h101.5c5.9 0 11.8 -5.9 11.8 -11.7V449.2c0 -5.8 -5.9 -11.7 -11.8 -11.7zm0 -31.2c23.5 0 43 19.5 43 42.9v101.6c0 23.4 -19.5 43 -43 43H43c-23.5 0 -43 -19.6 -43 -43V449.2c0 -23.4 19.5 -42.9 43 -42.9h101.5zm250 31.2H293c-5.9 0 -11.7 5.9 -11.7 11.7v101.6c0 5.8 5.8 11.7 11.7 11.7h101.5c5.9 0 11.8 -5.9 11.8 -11.7V449.2c0 -5.8 -5.9 -11.7 -11.8 -11.7zm0 -31.2c23.5 0 43 19.5 43 42.9v101.6c0 23.4 -19.5 43 -43 43H293c-23.5 0 -43 -19.6 -43 -43V449.2c0 -23.4 19.5 -42.9 43 -42.9h101.5zm250 31.2H543c-5.9 0 -11.7 5.9 -11.7 11.7v101.6c0 5.8 5.8 11.7 11.7 11.7h101.5c5.9 0 11.8 -5.9 11.8 -11.7V449.2c0 -5.8 -5.9 -11.7 -11.8 -11.7zm0 -31.2c23.5 0 43 19.5 43 42.9v101.6c0 23.4 -19.5 43 -43 43H543c-23.5 0 -43 -19.6 -43 -43V449.2c0 -23.4 19.5 -42.9 43 -42.9h101.5zm-500 312.5H43c-5.9 0 -11.7 5.8 -11.7 11.7V832c0 5.9 5.8 11.8 11.7 11.8h101.5c5.9 0 11.8 -5.9 11.8 -11.8V730.5c0 -5.9 -5.9 -11.7 -11.8 -11.7zm0 -31.3c23.5 0 43 19.5 43 43V832c0 23.5 -19.5 43 -43 43H43C19.5 875 0 855.5 0 832V730.5c0 -23.5 19.5 -43 43 -43h101.5zm250 31.3H293c-5.9 0 -11.7 5.8 -11.7 11.7V832c0 5.9 5.8 11.8 11.7 11.8h101.5c5.9 0 11.8 -5.9 11.8 -11.8V730.5c0 -5.9 -5.9 -11.7 -11.8 -11.7zm0 -31.3c23.5 0 43 19.5 43 43V832c0 23.5 -19.5 43 -43 43H293c-23.5 0 -43 -19.5 -43 -43V730.5c0 -23.5 19.5 -43 43 -43h101.5zm250 31.3H543c-5.9 0 -11.7 5.8 -11.7 11.7V832c0 5.9 5.8 11.8 11.7 11.8h101.5c5.9 0 11.8 -5.9 11.8 -11.8V730.5c0 -5.9 -5.9 -11.7 -11.8 -11.7zm0 -31.3c23.5 0 43 19.5 43 43V832c0 23.5 -19.5 43 -43 43H543c-23.5 0 -43 -19.5 -43 -43V730.5c0 -23.5 19.5 -43 43 -43h101.5z"/></svg>