<svg height="1000" width="875" xmlns="http://www.w3.org/2000/svg"><path d="M478.5 576.2c82 0 146.5 68.3 146.5 150.4S560.5 877 478.5 877H117.2C52.7 877 0 818.4 0 753.9 0 691.4 46.9 640.6 107.4 634.8c0 -5.9 -1.9 -11.8 -1.9 -17.6 0 -99.6 82 -179.7 179.7 -179.7 85.9 0 156.2 60.5 173.8 140.6 5.8 0 9.8 -1.9 15.6 -1.9h3.9zm80.1 234.3c21.5 -21.4 35.2 -52.7 35.2 -83.9s-13.7 -60.6 -35.2 -84 -48.8 -35.2 -80.1 -35.2h-15.6l-27.4 3.9L429.7 584C421.9 552.7 402.3 523.4 377 502c-27.4 -21.5 -58.6 -33.2 -91.8 -33.2 -82.1 0 -148.5 66.4 -148.5 148.4 0 3.9 2 9.8 2 13.7l1.9 31.2 -31.2 3.9c-21.5 2 -39.1 11.7 -54.7 27.4 -15.6 17.5 -23.4 39 -23.4 60.5 0 23.4 9.7 46.9 25.3 64.5s37.2 27.3 60.6 27.3h361.3c31.3 0 58.6 -13.7 80.1 -35.2zM816.4 597.7c19.5 0 39.1 -2 58.6 -5.9 -9.8 17.6 -21.5 31.2 -35.2 46.9C793 691.4 730.5 730.5 656.3 744.1v-31.2c56.6 -11.7 109.3 -41 150.3 -84h-3.9c-89.8 0 -173.8 -33.2 -236.3 -95.7S468.8 390.6 468.8 302.7c0 -44.9 9.7 -89.8 27.3 -130.8 -52.7 19.5 -101.6 50.8 -134.8 95.7 -31.2 41 -48.8 87.9 -54.7 138.7h-31.2C287.1 279.3 377 173.8 498 136.7c19.6 -5.8 37.2 -9.7 58.6 -11.7h2c-11.7 15.6 -21.5 31.3 -29.3 48.8 -19.5 39.1 -31.3 84 -31.3 128.9 0 78.2 33.3 152.4 89.9 209s132.8 86 212.9 86h15.6z"/></svg>