<svg height="1000" width="812.5" xmlns="http://www.w3.org/2000/svg"><path d="M54.7 365.2c0 66.4 43 130.9 97.6 162.1l-19.5 -5.8C91.8 509.8 29.3 453.1 21.5 394.5 9.8 394.5 0 380.9 0 365.2s7.8 -27.3 19.5 -29.3C31.3 259.8 91.8 199.2 148.4 199.2h13.7C97.7 226.6 54.7 291 54.7 365.2zm730.5 -164c17.5 44.9 27.3 101.5 27.3 160.1s-9.8 113.3 -27.3 158.2c-2 5.9 -3.9 9.8 -5.9 15.7 -11.7 25.3 -25.4 46.8 -43 64.4 -31.2 31.3 -54.7 35.2 -66.4 35.2s-23.4 -3.9 -41 -9.8C554.7 597.7 490.2 562.5 396.5 562.5c-50.8 0 -15.6 189.5 -15.6 257.8s-7.9 86 -43 86S234.4 890.6 220.7 875 209 847.7 212.9 812.5s41 -222.7 44.9 -248 -60.5 -23.5 -84 -43C121.1 490.2 85.9 431.6 85.9 365.2c0 -74.2 45 -138.6 107.5 -166h125s216.8 -39 300.7 -89.8C627 103.5 642.6 93.8 668 93.8s48.8 9.7 68.3 29.2c15.7 15.7 31.3 37.2 43 62.5 2 4 3.9 9.8 5.9 15.7zM750 513.7c15.6 -37.1 31.3 -91.8 31.3 -152.4S765.6 246.1 750 209c-13.7 -31.3 -41 -52.7 -60.5 -52.7s-39.1 21.4 -52.8 52.7c-15.6 37.1 -27.3 91.8 -27.3 152.3s11.7 115.3 27.3 152.4c13.7 31.2 33.2 58.6 52.8 58.6s46.8 -27.4 60.5 -58.6z"/></svg>