<svg height="1000" width="875" xmlns="http://www.w3.org/2000/svg"><path d="M710.9 564.5c111.4 82 177.8 152.3 162.1 181.6C855.5 777.3 746.1 752 601.6 687.5 558.6 726.6 500 750 437.5 750a249.2 249.2 0 0 1 -250 -250c0 -15.6 2 -31.2 3.9 -44.9C62.5 363.3 -15.6 285.2 2 253.9c15.6 -29.3 111.3 -9.8 240.2 44.9l-17.6 17.6c-13.7 -5.9 -27.3 -11.7 -41 -15.6C97.7 269.5 27.3 257.8 35.2 271.5s29.3 44.9 99.6 101.5c19.5 15.7 41 31.3 64.4 48.9C232.4 322.3 326.2 250 437.5 250c138.7 0 250 111.3 250 250 0 62.5 -23.4 121.1 -62.5 164.1 27.3 11.7 52.7 23.4 76.2 31.2 85.9 31.3 123 33.2 138.6 33.2 11.8 0 -33.2 -54.7 -103.5 -111.3 -9.7 -7.8 -21.5 -19.5 -33.2 -27.4 3.9 -7.8 5.9 -17.5 7.8 -25.3zM283.2 345.7c-27.3 27.3 -46.9 60.6 -56.6 95.7 54.7 37.1 115.2 76.2 179.7 113.3s128.9 68.3 189.4 95.7c39.1 -41 60.6 -93.8 60.6 -150.4 0 -58.6 -23.5 -113.3 -64.5 -154.3S496.1 281.3 437.5 281.3s-113.3 23.4 -154.3 64.4zm154.3 373.1c48.8 0 93.8 -15.7 132.8 -45C513.7 648.4 453.1 617.2 390.6 582S271.5 511.7 220.7 476.6c0 7.8 -1.9 15.6 -1.9 23.4 0 58.6 23.4 113.3 64.4 154.3s95.7 64.5 154.3 64.5z"/></svg>