<svg height="1000" width="812.5" xmlns="http://www.w3.org/2000/svg"><path d="M669.9 191.4c91.8 78.1 142.6 189.5 142.6 308.6 0 224.6 -181.6 406.3 -406.2 406.3S0 724.6 0 500C0 380.9 52.7 269.5 142.6 191.4c5.8 -5.9 15.6 -3.9 21.5 2s5.8 15.6 0 21.4C80.1 287.1 31.3 390.6 31.3 500c0 207 167.9 375 375 375s375 -168 375 -375c0 -109.4 -48.9 -212.9 -132.9 -285.2 -5.8 -5.8 -7.8 -15.6 -1.9 -21.4s17.6 -7.9 23.4 -2zM408.2 531.3c-7.8 0 -15.6 -7.9 -15.6 -15.7V109.4c0 -7.8 7.8 -15.6 15.6 -15.6s15.6 7.8 15.6 15.6v406.2c0 7.8 -7.8 15.7 -15.6 15.7z"/></svg>