<svg height="1000" width="812.5" xmlns="http://www.w3.org/2000/svg"><path d="M406.3 93.8c224.6 0 406.2 181.6 406.2 406.2S630.9 906.3 406.3 906.3C316.4 906.3 232.4 877 166 828.1l-15.6 -9.7 1.9 -2C60.5 742.2 0 628.9 0 500 0 275.4 181.6 93.8 406.3 93.8zM752 353.5c-19.6 -44.9 -45 -84 -80.1 -119.1 -7.8 -7.8 -17.6 -15.6 -25.4 -23.5L460.9 531.3h318.4c0 -9.8 2 -21.5 2 -31.3 0 -50.8 -9.8 -99.6 -29.3 -146.5zM369.1 502l17.6 29.3h39.1L443.4 500l-17.6 -31.2h-37.1zM552.7 154.3C505.9 134.8 457 125 406.3 125c-45 0 -89.9 7.8 -130.9 23.4l185.5 320.4L621.1 193.4c-21.5 -15.7 -44.9 -29.3 -68.4 -39.1zm-412.1 80.1c-35.1 35.1 -60.5 74.2 -80.1 119.1 -11.7 27.4 -19.5 54.7 -23.4 84h369.2L246.1 160.2c-39.1 17.5 -74.2 42.9 -105.5 74.2zm0 531.2c7.8 7.8 17.6 15.7 27.4 23.5L351.6 468.8H33.2c0 9.7 -1.9 21.4 -1.9 31.2 0 50.8 9.7 99.6 29.2 146.5 19.6 44.9 45 84 80.1 119.1zm119.2 80.1c46.8 19.5 95.7 29.3 146.5 29.3 44.9 0 87.8 -7.8 128.9 -23.4L351.6 533.2 193.4 808.6c21.4 15.6 42.9 27.3 66.4 37.1zm412.1 -80.1C707 730.5 732.4 691.4 752 646.5c11.7 -27.4 19.5 -54.7 23.4 -84H404.3l160.2 277.3c39 -19.5 76.1 -42.9 107.4 -74.2z"/></svg>