<svg height="1000" width="875" xmlns="http://www.w3.org/2000/svg"><path d="M744.1 441.4C818.4 453.1 875 515.6 875 593.8 875 679.7 804.7 750 718.8 750H156.3C70.3 750 0 679.7 0 593.8 0 523.4 44.9 462.9 113.3 441.4 113.3 375 168 320.3 234.4 320.3c17.6 0 37.1 3.9 52.7 11.7C332 263.7 412.1 218.8 500 218.8c128.9 0 230.5 97.6 244.1 222.6zm-25.3 277.4c68.3 0 125 -56.7 125 -125 0 -29.3 -9.8 -56.7 -29.3 -80.1 -19.6 -21.5 -45 -37.1 -74.3 -41l-25.4 -3.9 -1.9 -23.5C707 392.6 681.6 343.8 642.6 306.6 601.6 269.5 554.7 250 500 250c-74.2 0 -146.5 35.2 -187.5 97.7l-15.6 23.4 -23.5 -11.7c-11.7 -5.9 -23.4 -7.8 -37.1 -7.8 -23.4 0 -46.8 7.8 -64.4 25.4s-27.4 41 -27.4 64.4v21.5l-21.5 7.8c-27.3 7.8 -50.7 23.4 -66.4 46.9s-25.3 48.8 -25.3 76.2c0 68.3 56.6 125 125 125h562.5z"/></svg>