<svg height="1000" width="812.5" xmlns="http://www.w3.org/2000/svg"><path d="M406.3 93.8c224.6 0 406.2 181.6 406.2 406.2S630.9 906.3 406.3 906.3 0 724.6 0 500 181.6 93.8 406.3 93.8zm0 779.2c205 0 373 -167.9 373 -373s-168 -373 -373 -373S33.2 294.9 33.2 500s168 373 373.1 373zM177.7 687.5l19.6 -87.9 48.8 31.3zM574.2 582c35.2 -15.6 54.7 5.9 58.6 35.2 3.9 27.3 -3.9 62.5 -13.7 70.3C603.5 654.3 584 662.1 566.4 638.7c-21.5 -29.3 -5.9 -50.8 7.8 -56.7zM398.4 371.1l-58.6 97.7 -35.1 62.5 -48.8 85.9L207 587.9l33.2 -56.6 35.2 -62.5 72.3 -127c3.9 -5.9 9.7 -7.8 15.6 -3.9l31.2 17.6c5.9 3.9 7.8 9.7 3.9 15.6zm-41 97.7H459l35.1 62.5H320.3zm234.4 62.5l-35.2 -62.5h99.7v62.5h-64.5zm-332 -62.5l-35.2 62.5h-68.3v-62.5h103.5zm281.2 0l17.6 33.2 -46.9 29.3h-1.9l-35.2 -62.5L375 291c-3.9 -5.8 -2 -11.7 3.9 -15.6l29.3 -17.6c5.9 -3.9 11.7 -1.9 15.6 3.9zm35.2 62.5l15.6 27.3L543 587.9 519.5 543l19.6 -11.7 27.3 -17.6z"/></svg>