<svg height="1000" width="750" xmlns="http://www.w3.org/2000/svg"><path d="M646.5 666c58.6 0 103.5 46.9 103.5 105.5S705.1 875 646.5 875 541 830.1 541 771.5 587.9 666 646.5 666zM375 666c58.6 0 103.5 46.9 103.5 105.5S433.6 875 375 875 271.5 830.1 271.5 771.5 316.4 666 375 666zm-271.5 0c58.6 0 105.5 46.9 105.5 105.5S162.1 875 103.5 875 0 830.1 0 771.5 44.9 666 103.5 666zm543 -269.5c58.6 0 103.5 44.9 103.5 103.5S705.1 603.5 646.5 603.5 541 558.6 541 500 587.9 396.5 646.5 396.5zm-271.5 0c58.6 0 103.5 44.9 103.5 103.5S433.6 603.5 375 603.5 271.5 558.6 271.5 500 316.4 396.5 375 396.5zm-271.5 0c58.6 0 105.5 44.9 105.5 103.5S162.1 603.5 103.5 603.5 0 558.6 0 500 44.9 396.5 103.5 396.5zm543 -62.5C587.9 334 541 287.1 541 228.5S587.9 125 646.5 125 750 169.9 750 228.5 705.1 334 646.5 334zM375 125c58.6 0 103.5 44.9 103.5 103.5S433.6 334 375 334 271.5 287.1 271.5 228.5 316.4 125 375 125zm-271.5 0c58.6 0 105.5 44.9 105.5 103.5S162.1 334 103.5 334 0 287.1 0 228.5 44.9 125 103.5 125z"/></svg>