<svg height="1000" width="812.5" xmlns="http://www.w3.org/2000/svg"><path d="M406.3 93.8c224.6 0 406.2 181.6 406.2 406.2S630.9 906.3 406.3 906.3C181.6 906.3 0 724.6 0 500S181.6 93.8 406.3 93.8zm15.6 242.1v148.5h146.5c-2 -60.6 -9.8 -117.2 -21.5 -164.1 -41 9.8 -82.1 13.7 -125 15.6zm0 -31.2c39 -2 80.1 -5.9 117.2 -15.6C511.7 199.2 464.8 140.6 421.9 128.9v175.8zM390.6 128.9c-44.9 11.7 -87.9 70.3 -117.2 160.2 37.1 9.7 76.2 13.6 117.2 15.6V128.9zm0 207C347.7 334 304.7 330.1 263.7 320.3 252 367.2 244.1 423.8 242.2 484.4h148.4V335.9zM210.9 484.4c2 -62.5 7.9 -121.1 21.5 -171.9 -41 -11.7 -80.1 -29.3 -115.2 -48.8 -50.8 60.5 -80.1 136.7 -84 220.7h177.7zm0 31.2H33.2c3.9 84 33.2 160.2 84 220.7 37.1 -19.5 74.2 -37.1 115.2 -48.8C218.8 636.7 212.9 578.1 210.9 515.6zm31.3 0c1.9 60.6 9.8 117.2 21.5 164.1 41 -9.8 84 -15.6 126.9 -17.6V515.6H242.2zm148.4 179.7c-41 2 -80.1 5.9 -117.2 15.6 29.3 89.9 72.3 148.5 117.2 160.2V695.3zm31.3 175.8c42.9 -11.7 89.8 -70.3 117.2 -160.2C502 701.2 460.9 697.3 421.9 695.3v175.8zm0 -209c42.9 2 84 7.8 125 17.6 11.7 -46.9 19.5 -103.5 21.5 -164.1H421.9v146.5zM601.6 515.6c-2 62.5 -9.8 121.1 -23.5 171.9 41 11.7 80.1 29.3 117.2 48.8 50.8 -60.5 80.1 -136.7 84 -220.7H601.6zm0 -31.2h177.7c-3.9 -84 -33.2 -160.2 -84 -220.7 -37.1 19.5 -74.2 37.1 -115.2 48.8 13.7 50.8 19.5 109.4 21.5 171.9zm70.3 -246.1C623 189.5 562.5 152.3 494.1 136.7c31.3 33.2 56.7 84 76.2 144.6 35.2 -11.8 68.4 -25.4 101.6 -43zM318.4 136.7C250 152.3 187.5 189.5 140.6 238.3c31.3 17.6 66.4 29.3 101.6 41 19.5 -60.5 44.9 -109.4 76.2 -142.6zm-177.8 625c48.9 48.8 109.4 86 177.8 101.6 -31.3 -33.2 -58.6 -84 -78.2 -144.5 -35.1 11.7 -68.3 25.3 -99.6 42.9zm353.5 101.6C562.5 847.7 623 810.5 671.9 761.7 638.7 744.1 605.5 730.5 570.3 718.8c-19.5 60.5 -44.9 111.3 -76.2 144.5z"/></svg>