<svg height="1000" width="812.5" xmlns="http://www.w3.org/2000/svg"><path d="M453.1 843.8h-375C35.2 843.8 0 808.6 0 765.6V234.4c0 -43 35.2 -78.1 78.1 -78.1h375c43 0 78.2 35.1 78.2 78.1 0 7.8 -7.9 15.6 -15.7 15.6S500 242.2 500 234.4c0 -25.4 -21.5 -46.9 -46.9 -46.9h-375c-25.4 0 -46.8 21.5 -46.8 46.9v531.2c0 25.4 21.4 46.9 46.8 46.9h375c25.4 0 46.9 -21.5 46.9 -46.9 0 -7.8 7.8 -15.6 15.6 -15.6s15.7 7.8 15.7 15.6c0 43 -35.2 78.2 -78.2 78.2zM802.7 482.4c11.8 11.7 11.8 27.4 0 39.1L642.6 683.6c-3.9 3.9 -7.8 3.9 -11.7 3.9s-7.9 0 -11.8 -3.9c-5.8 -5.9 -5.8 -17.6 0 -23.4L763.7 515.6H234.4c-7.8 0 -15.6 -7.8 -15.6 -15.6s7.8 -15.6 15.6 -15.6h529.3L615.2 339.8c-5.8 -5.8 -5.8 -17.5 0 -23.4s17.6 -5.9 23.5 0z"/></svg>