<svg height="1000" width="875" xmlns="http://www.w3.org/2000/svg"><path d="M662.1 125C789.1 201.2 875 339.8 875 500S791 796.9 664.1 875H212.9C85.9 796.9 0 660.2 0 500S85.9 201.2 212.9 125h449.2zm-7.8 718.8c56.6 -37.2 101.6 -86 134.8 -142.6C824.2 640.6 843.8 570.3 843.8 500S824.2 359.4 789.1 296.9C755.9 240.2 714.8 195.3 654.3 156.3H220.7C166 189.5 119.1 240.2 85.9 296.9 50.8 357.4 31.3 429.7 31.3 500s19.5 140.6 54.6 201.2c33.2 56.6 78.2 105.4 134.8 142.6h433.6zM562.5 500V312.5H625V500h-62.5zM250 531.3v-250h62.5v250H250zM437.5 625c35.2 0 62.5 27.3 62.5 62.5v93.8H375v-93.8c0 -35.2 27.3 -62.5 62.5 -62.5z"/></svg>