<svg height="1000" width="750" xmlns="http://www.w3.org/2000/svg"><path d="M652.3 287.1c62.5 68.4 97.7 156.3 97.7 250 0 203.1 -168 369.2 -375 369.2S0 740.2 0 537.1C0 443.4 35.2 353.5 99.6 285.2l2 -2H66.4l-15.6 15.6L5.9 253.9l80 -78.1 45 43 -17.6 17.5v35.2C173.8 212.9 253.9 173.8 339.8 168h4V93.8h62.5V168c83.9 7.8 160.1 41 220.7 95.7l9.7 9.7v-37.1l-17.6 -17.5 45 -43 80 78.1 -42.9 44.9 -17.6 -15.6h-35.2zm-261.7 334c27.4 -7.8 46.9 -29.3 46.9 -58.6 0 -27.3 -19.5 -52.7 -46.9 -60.5V250h-31.2v252c-23.5 7.8 -46.9 33.2 -46.9 60.5 0 29.3 19.5 50.8 46.9 58.6l15.6 35.2z"/></svg>