<svg height="1000" width="750" xmlns="http://www.w3.org/2000/svg"><path d="M207 812.5c-17.5 0 -29.3 -5.9 -37.1 -15.6S156.3 769.5 156.3 748V343.8H623V750c0 19.5 -1.9 35.2 -9.7 43 -11.7 11.7 -29.3 19.5 -41 19.5H207zM744.1 93.8c3.9 0 5.9 1.9 5.9 3.9s-3.9 7.8 -5.9 11.7 -23.4 29.3 -27.3 64.4v605.5c0 68.4 -54.7 127 -123 127H187.5c-68.4 0 -125 -56.7 -125 -125V242.2C62.5 179.7 58.6 179.7 0 171.9 0 148.4 19.5 93.8 125 93.8H744.1zM654.3 750V312.5H125V748c0 54.7 25.4 95.8 82 95.8h365.3c21.5 0 46.8 -13.7 62.5 -29.3s19.5 -41.1 19.5 -64.5z"/></svg>