<svg height="1000" width="875" xmlns="http://www.w3.org/2000/svg"><path d="M505.9 418c19.5 33.2 37.1 103.5 33.2 166 -2 33.2 -9.8 43 -9.8 43s-23.4 13.6 -70.3 13.6h-21.5c-68.4 -5.8 -78.1 -29.3 -78.1 -29.3s7.8 -23.4 15.6 -84 0 -113.2 0 -113.2 13.7 -9.8 37.1 -13.7c15.6 -3.9 33.2 -5.9 44.9 -5.9 21.5 0 39.1 7.8 48.9 23.5zm-154.3 -9.8s5.8 31.3 3.9 62.5v19.5c0 5.9 -2 11.8 -2 19.6 0 9.7 0 19.5 -1.9 29.3l-3.9 19.5c-7.9 41 -19.6 66.4 -19.6 66.4S166 781.3 101.6 781.3C46.9 781.3 0 648.4 0 500S50.8 218.8 101.6 218.8c68.3 0 207 111.3 250 189.4zm-189.5 29.3c0 2 2 3.9 3.9 3.9 0 0 37.1 7.8 111.3 33.2 15.7 5.9 27.4 9.8 37.2 13.7 5.8 1.9 9.7 3.9 15.6 5.8l1.9 -29.3C316.4 457 291 447.3 250 439.5c-54.7 -11.8 -82 -5.9 -84 -5.9s-3.9 1.9 -3.9 3.9zm162.1 127l3.9 -29.3c-9.7 3.9 -27.3 11.7 -50.8 17.5 -33.2 7.8 -74.2 19.6 -74.2 19.6 -1.9 0 -3.9 1.9 -3.9 3.9s2 3.9 3.9 3.9c3.9 0 82.1 -5.9 121.1 -15.6zM773.4 218.8C824.2 218.8 875 351.6 875 500S828.1 781.3 773.4 781.3C701.2 781.3 570.3 646.5 554.7 627c0 0 7.8 -9.8 9.8 -43v-33.2c0 -21.5 -4 -44.9 -7.9 -64.5l-5.8 -21.5C544.9 445.3 537.1 429.7 531.3 418c0 -2 -4 -7.8 -4 -7.8l2 -2c43 -78.1 173.8 -189.4 244.1 -189.4zM640.6 435.5c-23.4 7.9 -50.8 17.6 -70.3 23.5v1.9l7.8 29.3c35.2 -21.4 132.8 -66.4 132.8 -66.4 2 0 2 -1.9 2 -3.9s-2 -1.9 -3.9 -1.9c0 0 -29.3 3.9 -68.4 17.5zm80.1 156.3c0 -2 0 -3.9 -1.9 -3.9 0 0 -43 -13.7 -80.1 -23.4 -23.5 -5.9 -41 -13.7 -52.8 -17.6 0 0 -5.8 1.9 -1.9 25.4 37.1 13.6 128.9 23.4 132.8 23.4 2 0 3.9 -1.9 3.9 -3.9z"/></svg>