<svg height="1000" width="812.5" xmlns="http://www.w3.org/2000/svg"><path d="M669.9 195.3c91.8 76.2 142.6 189.5 142.6 306.7 0 222.6 -181.6 404.3 -406.2 404.3S0 724.6 0 502C0 384.8 50.8 271.5 142.6 195.3c5.8 -3.9 13.7 -7.8 21.5 -7.8 9.7 0 15.6 3.9 21.4 11.7 5.9 5.9 7.9 13.7 7.9 21.5s-3.9 15.6 -9.8 21.5C105.5 306.6 60.5 402.3 60.5 502c0 189.4 156.3 343.7 345.8 343.7S752 691.4 752 502C752 402.3 707 308.6 628.9 242.2c-5.9 -5.9 -9.8 -13.7 -9.8 -21.5s2 -15.6 7.9 -21.5c5.8 -7.8 11.7 -11.7 21.4 -11.7 7.9 0 15.7 3.9 21.5 7.8zm-261.7 336C390.6 531.3 377 517.6 377 500V125c0 -17.6 13.6 -31.2 31.2 -31.2s31.3 13.6 31.3 31.2v375c0 17.6 -13.7 31.3 -31.3 31.3z"/></svg>