<svg height="1000" width="375" xmlns="http://www.w3.org/2000/svg"><path d="M203.1 634.8V875h140.7v31.3H31.3V875h140.6V634.8c0 -43 -39.1 -76.2 -78.1 -107.5C78.1 515.6 62.5 502 50.8 490.2 0 435.5 0 388.7 0 351.6v-7.8c0 -86 60.5 -244.2 62.5 -250h250c2 5.8 62.5 164 62.5 250v7.8c0 37.1 0 83.9 -50.8 138.6 -11.7 11.8 -27.3 25.4 -42.9 37.1 -39.1 31.3 -78.2 64.5 -78.2 107.5zM84 125C74.2 156.3 44.9 248 35.2 312.5h304.6C330.1 248 300.8 156.3 291 125H84zm103.5 439.5c5.9 0 9.8 0 13.7 -4 17.6 -21.4 39 -39 60.5 -56.6 15.6 -11.7 27.4 -23.4 39.1 -35.1 43 -45 43 -80.1 43 -117.2v-7.8H31.3v7.8c0 37.1 0 72.2 42.9 117.2 11.7 11.7 23.5 23.4 39.1 35.1 21.5 17.6 43 35.2 60.5 56.6 3.9 4 7.8 4 13.7 4z"/></svg>