<svg height="1000" width="812.5" xmlns="http://www.w3.org/2000/svg"><path d="M658.2 449.2c101.6 0 154.3 21.5 154.3 50.8s-52.7 50.8 -154.3 50.8c-52.7 0 -117.2 -11.7 -168 -25.4 -1.9 5.9 -3.9 11.7 -7.8 17.6 44.9 27.3 101.6 62.5 138.7 99.6 72.3 72.2 93.7 123 72.3 144.5 -5.9 3.9 -11.8 7.8 -19.6 7.8 -27.3 0 -70.3 -25.4 -125 -80.1C511.7 677.7 476.6 621.1 449.2 576.2c-5.8 3.9 -13.7 5.8 -19.5 7.8 13.7 50.8 27.3 115.2 27.3 168 0 101.5 -21.5 154.3 -50.7 154.3S355.5 853.5 355.5 752c0 -52.8 13.6 -117.2 27.3 -168 -5.8 -2 -11.7 -3.9 -17.6 -7.8 -27.3 44.9 -64.4 101.5 -101.5 138.6 -54.7 54.7 -97.7 80.1 -125 80.1 -7.8 0 -13.7 -1.9 -19.6 -7.8 -21.4 -21.5 0 -72.3 72.3 -144.5 37.1 -37.1 93.8 -72.3 138.7 -99.6 -3.9 -5.9 -5.9 -11.7 -7.8 -17.6 -50.8 13.7 -115.3 25.4 -168 25.4C52.7 550.8 0 529.3 0 500s52.7 -50.8 154.3 -50.8c52.7 0 117.2 13.7 168 27.4 1.9 -5.9 3.9 -11.8 7.8 -17.6C285.2 431.6 228.5 394.5 191.4 357.4 119.1 285.2 97.7 234.4 119.1 212.9c5.9 -3.9 11.8 -7.8 19.6 -7.8 27.3 0 70.3 25.4 125 80.1 37.1 37.1 72.2 93.7 99.6 138.6 5.8 -3.9 11.7 -5.8 17.6 -7.8C367.2 365.2 355.5 300.8 355.5 248 355.5 146.5 377 93.8 406.3 93.8S457 146.5 457 248c0 52.8 -13.6 117.2 -27.3 168 5.8 2 13.7 3.9 19.5 7.8 27.4 -44.9 62.5 -101.5 99.6 -138.6 54.7 -54.7 97.7 -80.1 125 -80.1 7.8 0 13.7 1.9 19.6 7.8 21.4 21.5 0 72.3 -72.3 144.5C584 394.5 527.3 431.6 482.4 459c3.9 5.8 5.9 11.7 7.8 17.6 50.8 -13.7 115.3 -27.4 168 -27.4zm-251.9 82.1c17.5 0 31.2 -13.7 31.2 -31.3s-13.7 -31.2 -31.2 -31.2S375 482.4 375 500s13.7 31.3 31.3 31.3zm121 203.1c13.7 13.6 27.4 27.3 39.1 37.1C584 832 580.1 869.1 558.6 877c-3.9 1.9 -5.9 1.9 -9.8 1.9 -19.5 0 -42.9 -21.5 -66.4 -64.4 2 -19.6 3.9 -39.1 3.9 -62.5s-1.9 -48.9 -5.8 -74.3c15.6 21.5 31.2 41.1 46.8 56.7zM285.2 265.6C271.5 252 257.8 240.2 246.1 230.5 228.5 169.9 232.4 130.9 253.9 123c3.9 -1.9 5.9 -1.9 9.8 -1.9 19.5 0 42.9 21.5 66.4 64.4 -2 19.6 -3.9 39.1 -3.9 62.5s1.9 48.9 5.8 74.3c-15.6 -21.5 -31.2 -41 -46.8 -56.7zM171.9 623c-13.7 13.7 -27.4 27.4 -37.1 39.1 -25.4 7.8 -46.9 9.8 -62.5 9.8 -23.5 0 -37.1 -7.8 -43 -19.6C21.5 632.8 41 605.5 91.8 578.1c19.5 2 39.1 2 62.5 2s48.8 -2 74.2 -5.9c-21.5 15.6 -41 33.2 -56.6 48.8zM640.6 378.9c13.7 -13.7 27.4 -27.3 37.1 -39.1 25.4 -7.8 46.9 -11.7 62.5 -11.7 23.5 0 37.1 7.8 43 19.6 7.8 19.5 -11.7 48.8 -62.5 76.1 -19.5 -1.9 -39.1 -3.9 -62.5 -3.9s-48.8 3.9 -74.2 7.8c21.5 -15.6 41 -33.2 56.6 -48.8zM285.2 734.4c15.6 -15.6 31.2 -35.2 46.8 -56.7 -3.9 25.4 -5.8 50.8 -5.8 74.3 0 19.5 0 39 1.9 54.6C300.8 853.5 277.3 877 257.8 877c-3.9 0 -5.8 0 -9.8 -2 -19.5 -7.8 -25.3 -43 -9.7 -97.7 15.6 -11.7 31.2 -27.3 46.9 -42.9zM527.3 265.6c-15.6 15.7 -31.2 37.1 -46.8 58.6 3.9 -25.4 5.8 -52.7 5.8 -76.2 0 -19.5 0 -37.1 -1.9 -52.7C511.7 148.4 535.2 125 554.7 125c3.9 0 5.8 -2 9.8 0 19.5 7.8 25.3 44.9 9.7 99.6 -15.6 11.7 -31.2 25.4 -46.9 41zM101.6 421.9C46.9 390.6 21.5 363.3 31.3 341.8c5.8 -11.7 21.4 -19.5 42.9 -19.5 15.6 0 33.2 3.9 54.7 9.7 11.7 15.7 27.4 31.3 43 46.9s35.1 33.2 56.6 48.8c-25.4 -3.9 -50.8 -7.8 -74.2 -7.8 -19.5 0 -37.1 0 -52.7 2zm609.3 156.2c54.7 31.3 80.1 60.6 70.4 82.1 -5.9 11.7 -21.5 17.5 -43 17.5 -15.6 0 -33.2 -3.9 -54.7 -9.7 -11.7 -15.7 -27.3 -29.3 -43 -45S605.5 589.8 584 574.2c25.4 3.9 50.8 5.9 74.2 5.9 19.5 0 37.1 0 52.7 -2z"/></svg>