<svg height="1000" width="812.5" xmlns="http://www.w3.org/2000/svg"><path d="M441.4 343.8c-39.1 0 -76.2 19.5 -95.7 50.7L332 416s-9.7 -3.9 -17.5 -7.8 -17.6 -5.9 -23.5 -5.9c-21.5 0 -39 19.6 -39 41.1v21.4l-21.5 7.9c-25.4 7.8 -43 33.2 -43 60.5 0 15.6 5.9 31.3 17.6 43s23.4 17.6 39 17.6h324.3c15.6 0 27.3 -5.9 39 -17.6s17.6 -27.4 17.6 -43c0 -29.3 -21.5 -54.7 -48.8 -58.6l-23.5 -3.9 -1.9 -23.4C546.9 418 535.2 392.6 515.6 373s-46.8 -29.2 -74.2 -29.2zm0 -31.3c74.2 0 132.8 56.6 140.6 130.9 43 7.8 74.3 44.9 74.3 89.8 0 50.8 -41.1 91.8 -89.9 91.8H244.1c-48.8 0 -87.8 -41 -87.8 -91.8 0 -41 25.3 -80.1 64.4 -91.8 0 -39.1 31.3 -70.3 70.3 -70.3 9.8 0 21.5 3.9 29.3 7.8 25.4 -39.1 70.3 -66.4 121.1 -66.4zM406.3 125c-50.8 0 -99.7 9.8 -146.5 29.3 -45 19.5 -84 44.9 -119.2 80.1S80.1 308.6 60.5 353.5C41 400.4 31.3 449.2 31.3 500s9.7 99.6 29.2 146.5c19.6 44.9 45 84 80.1 119.1s74.2 60.6 119.2 80.1c46.8 19.5 95.7 29.3 146.5 29.3s99.6 -9.8 146.4 -29.3c45 -19.5 84 -44.9 119.2 -80.1S732.4 691.4 752 646.5c19.5 -46.9 29.3 -95.7 29.3 -146.5S771.5 400.4 752 353.5c-19.6 -44.9 -45 -84 -80.1 -119.1S597.7 173.8 552.7 154.3C505.9 134.8 457 125 406.3 125zm0 -31.2c224.6 0 406.2 181.6 406.2 406.2S630.9 906.3 406.3 906.3 0 724.6 0 500 181.6 93.8 406.3 93.8z"/></svg>