<svg height="1000" width="812.5" xmlns="http://www.w3.org/2000/svg"><path d="M812.5 93.8s-2 37.1 -52.7 103.5C736.3 226.6 523.4 513.7 523.4 513.7l15.7 312.5 -70.3 80.1L367.2 707l-19.5 15.7 -7.9 160.1 -64.4 11.7L181.6 777.3 78.1 828.1l50.8 -103.5L11.7 630.9l11.7 -64.5 160.2 -7.8 15.6 -19.5L0 437.5l80.1 -70.3 312.5 15.6S677.7 169.9 709 146.5C773.4 95.7 812.5 93.8 812.5 93.8zm-78.1 85.9c7.8 -9.8 13.6 -17.6 17.6 -25.4 -7.9 3.9 -15.7 9.8 -23.5 17.6L402.3 414.1 91.8 398.4l-37.1 33.2 158.2 78.2 35.1 17.5 -48.8 60.6 -148.4 7.8 -5.9 23.4L168 714.8l-21.5 45 44.9 -21.5 95.7 123 23.4 -5.8L318.4 707l60.5 -46.8 17.6 33.2 78.1 158.2 33.2 -37.1L492.2 503.9z"/></svg>