<svg height="1000" width="750" xmlns="http://www.w3.org/2000/svg"><path d="M576.2 457c11.7 11.8 17.6 25.4 17.6 43 0 21.5 -9.8 39.1 -25.4 50.8S468.8 625 361.3 703.1l-74.2 -62.5c-7.8 -5.8 -15.6 -5.8 -19.5 -1.9 -3.9 3.9 -3.9 11.7 1.9 19.5l56.7 68.4 -222.7 164c-11.7 7.8 -25.4 15.7 -41 15.7C27.3 906.3 0 878.9 0 843.8c0 -13.7 3.9 -25.4 9.8 -35.2C11.7 804.7 41 759.8 80.1 697.3l39 33.2c7.9 5.8 15.7 5.8 19.6 1.9 3.9 -3.9 3.9 -11.7 -2 -19.5L97.7 668c52.7 -84 117.1 -187.5 164 -261.7l70.3 58.5c7.8 5.9 15.7 5.9 19.6 2 3.9 -3.9 3.9 -11.7 -2 -19.5l-64.4 -78.2c21.4 -35.1 35.1 -56.6 35.1 -56.6C332 293 351.6 281.3 375 281.3c17.6 0 35.2 7.8 46.9 19.5l152.3 154.3 2 1.9zM750 271.5L548.8 386.7l-54.7 -56.6L630.9 93.8l54.6 31.2 -97.6 166 130.9 -74.2z"/></svg>