<svg height="1000" width="625" xmlns="http://www.w3.org/2000/svg"><path d="M552.7 316.4c-7.8 2 -17.5 3.9 -25.4 5.9 -72.2 19.5 -138.6 44.9 -201.1 72.2 -33.2 15.7 -46.9 21.5 -86 43l-11.7 5.9c-60.5 31.2 -99.6 60.5 -125 93.7 -29.3 37.1 -41 80.1 -41 136.7S84 781.3 127 816.4c44.9 39.1 109.3 58.6 185.5 58.6S453.1 855.5 498 816.4c43 -35.1 64.5 -85.9 64.5 -142.6 0 -35.1 -9.8 -70.3 -21.5 -107.4C519.5 494.1 498 416 552.7 316.4zM625 267.6C474.6 441.4 593.8 541 593.8 673.8S484.4 906.3 312.5 906.3 31.3 806.6 31.3 673.8 99.6 476.6 212.9 416c48.8 -27.3 64.4 -33.2 101.6 -50.8C373 339.8 441.4 314.5 519.5 293c33.2 -9.8 68.4 -17.6 105.5 -25.4zM74.2 261.7c25.4 48.8 35.2 101.6 37.1 146.5 19.6 -11.7 37.1 -25.4 58.6 -37.1 13.7 -7.8 29.3 -15.6 43 -23.4 9.8 -3.9 17.6 -9.8 27.3 -13.7 -7.8 -5.9 -17.5 -11.7 -29.3 -17.6C168 293 115.2 273.4 74.2 261.7zM0 209s128.9 29.3 224.6 80.1c27.4 15.6 54.7 33.2 72.3 52.7C273.4 353.5 250 363.3 226.6 375c-13.7 7.8 -27.4 13.7 -39.1 21.5 -48.8 27.3 -85.9 56.6 -111.3 76.2C85.9 398.4 82 294.9 0 209zm486.3 -25.4c-15.6 1.9 -39 5.9 -68.3 13.7 -35.2 9.7 -80.1 29.3 -121.1 62.5 13.6 9.7 25.4 19.5 37.1 31.2 56.6 -21.5 125 -44.9 183.6 -60.5 -9.8 -17.6 -21.5 -35.2 -31.3 -46.9zM500 152.3s50.8 56.7 62.5 99.7C498 265.6 398.4 296.9 326.2 328.1l-5.9 -5.8c-17.6 -19.6 -43 -39.1 -76.2 -56.7C345.7 156.3 500 152.3 500 152.3zM166 134.8c-11.7 17.5 -19.5 33.2 -27.3 48.8 21.5 7.8 44.9 15.6 72.2 29.3 7.9 -7.8 15.7 -13.7 23.5 -21.5C209 164.1 183.6 146.5 166 134.8zm-9.7 -41s68.3 27.3 125 101.5c-23.5 15.6 -45 33.2 -64.5 54.7C166 226.6 138.7 214.8 97.7 203.1c9.7 -27.3 29.3 -68.3 58.6 -109.3z"/></svg>