<svg height="1000" width="875" xmlns="http://www.w3.org/2000/svg"><path d="M625 203.1c-17.6 0 -31.2 13.7 -31.2 31.3s13.6 31.2 31.2 31.2 31.3 -13.6 31.3 -31.2S642.6 203.1 625 203.1zm0 -31.2c35.2 0 62.5 27.3 62.5 62.5s-27.3 62.5 -62.5 62.5 -62.5 -27.4 -62.5 -62.5 27.3 -62.5 62.5 -62.5zm0 562.5c-17.6 0 -31.2 13.6 -31.2 31.2s13.6 31.3 31.2 31.3 31.3 -13.7 31.3 -31.3S642.6 734.4 625 734.4zm0 -31.3c35.2 0 62.5 27.4 62.5 62.5s-27.3 62.5 -62.5 62.5 -62.5 -27.3 -62.5 -62.5 27.3 -62.5 62.5 -62.5zM250 468.8c-17.6 0 -31.2 13.6 -31.2 31.2s13.6 31.3 31.2 31.3 31.3 -13.7 31.3 -31.3S267.6 468.8 250 468.8zm0 -31.3c35.2 0 62.5 27.3 62.5 62.5s-27.3 62.5 -62.5 62.5S187.5 535.2 187.5 500s27.3 -62.5 62.5 -62.5zm91.8 46.9H875v31.2H341.8c0 -5.8 2 -9.7 2 -15.6s-2 -9.8 -2 -15.6zM156.3 500c0 5.9 1.9 9.8 1.9 15.6H0v-31.2h158.2c0 5.8 -1.9 9.7 -1.9 15.6zm560.5 250H875v31.3H716.8c0 -5.9 2 -9.8 2 -15.7s-2 -9.7 -2 -15.6zm-185.5 15.6c0 5.9 1.9 9.8 1.9 15.7H0V750h533.2c0 5.9 -1.9 9.8 -1.9 15.6zM716.8 218.8H875V250H716.8c0 -5.9 2 -9.8 2 -15.6s-2 -9.8 -2 -15.6zm-183.6 0c0 5.8 -1.9 9.7 -1.9 15.6s1.9 9.7 1.9 15.6H0v-31.2h533.2z"/></svg>