<svg height="1000" width="812.5" xmlns="http://www.w3.org/2000/svg"><path d="M406.3 355.5c-80.1 0 -144.6 64.4 -144.6 144.5 0 39.1 15.6 76.2 43 103.5s62.5 41 101.6 41c80 0 144.5 -64.4 144.5 -144.5S486.3 355.5 406.3 355.5zm0 253.9C345.7 609.4 296.9 560.5 296.9 500S345.7 390.6 406.3 390.6 515.6 439.5 515.6 500 466.8 609.4 406.3 609.4zm0 -285.2c97.6 0 175.7 78.1 175.7 175.8S503.9 675.8 406.3 675.8 230.5 597.7 230.5 500 308.6 324.2 406.3 324.2zm0 253.9c42.9 0 78.1 -35.1 78.1 -78.1s-35.2 -78.1 -78.1 -78.1S328.1 457 328.1 500s35.2 78.1 78.2 78.1zm0 -453.1c-50.8 0 -99.7 9.8 -146.5 29.3 -45 19.5 -84 44.9 -119.2 80.1S80.1 308.6 60.5 353.5C41 400.4 31.3 449.2 31.3 500s9.7 99.6 29.2 146.5c19.6 44.9 45 84 80.1 119.1s74.2 60.6 119.2 80.1c46.8 19.5 95.7 29.3 146.5 29.3s99.6 -9.8 146.4 -29.3c45 -19.5 84 -44.9 119.2 -80.1S732.4 691.4 752 646.5c19.5 -46.9 29.3 -95.7 29.3 -146.5S771.5 400.4 752 353.5c-19.6 -44.9 -45 -84 -80.1 -119.1S597.7 173.8 552.7 154.3C505.9 134.8 457 125 406.3 125zm0 628.9c-68.4 0 -130.9 -27.3 -179.7 -74.2S152.3 568.4 152.3 500s27.4 -130.9 74.3 -179.7 111.3 -74.2 179.7 -74.2 130.8 27.3 179.6 74.2 74.3 111.3 74.3 179.7 -27.4 130.9 -74.3 179.7 -111.3 74.2 -179.6 74.2zm0 -660.1c224.6 0 406.2 181.6 406.2 406.2S630.9 906.3 406.3 906.3 0 724.6 0 500 181.6 93.8 406.3 93.8zm0 628.9c123 0 222.6 -99.7 222.6 -222.7S529.3 277.3 406.3 277.3 183.6 377 183.6 500s99.6 222.7 222.7 222.7z"/></svg>