<svg height="1000" width="750" xmlns="http://www.w3.org/2000/svg"><path d="M109.4 78.1l27.3 -15.6 503.9 859.4 -27.3 15.6zM375 281.3c166 0 289.1 117.1 375 218.7C695.3 556.6 623 634.8 533.2 679.7l-46.9 -82c23.5 -25.4 39.1 -60.6 39.1 -97.7C525.4 419.9 457 353.5 375 353.5c-9.8 0 -19.5 2 -29.3 3.9l-41 -68.3c23.4 -3.9 46.9 -7.8 70.3 -7.8zm0 365.2c9.8 0 19.5 -2 29.3 -3.9l41 68.3c-21.5 3.9 -46.9 7.9 -70.3 7.9C207 718.8 113.3 615.2 0 500 76.2 419.9 146.5 359.4 216.8 322.3l46.9 80c-23.5 25.4 -39.1 60.6 -39.1 97.7 0 80.1 68.4 146.5 150.4 146.5zm87.9 -152.4v5.9c0 13.7 -3.9 27.3 -9.8 39.1L429.7 500h7.8c7.8 0 17.6 -2 25.4 -5.9zm-166 -33.2l74.2 125c-46.9 -1.9 -84 -41 -84 -85.9 0 -13.7 3.9 -27.3 9.8 -39.1z"/></svg>