<svg height="1000" width="875" xmlns="http://www.w3.org/2000/svg"><path d="M752 544.9v29.3h58.5c-1.9 43 -11.7 86 -29.2 127 -15.7 35.1 -37.2 68.3 -62.5 97.6C642.6 726.6 543 685.5 437.5 685.5S232.4 726.6 156.3 798.8C130.9 769.5 109.4 736.3 93.8 701.2c-17.6 -41 -27.4 -84 -29.3 -127h56.6V543H64.5c1.9 -45 11.7 -87.9 29.3 -128.9 17.5 -39.1 39 -74.3 68.3 -105.5l48.8 46.9 19.6 -19.6 1.9 -1.9 -48.8 -48.8c31.2 -29.3 70.3 -50.8 109.4 -68.4 41 -17.6 84 -27.3 128.9 -29.3v66.4h29.3v-66.4c44.9 2 89.8 11.7 130.8 29.3s76.2 39.1 107.5 68.4L642.6 334l21.5 21.5 48.8 -48.9c29.3 31.3 50.8 68.4 68.4 107.5 17.5 41 27.3 83.9 29.2 128.9H752v1.9zm-220.7 17.6c0 -19.5 -5.9 -39.1 -17.6 -54.7l123 -148.4 -3.9 -2 -142.6 127C474.6 474.6 457 468.8 437.5 468.8c-50.8 0 -93.7 42.9 -93.7 93.7 0 19.5 5.8 39.1 17.5 54.7l-23.4 23.4 21.5 21.5 25.4 -23.4c15.6 9.7 33.2 17.6 52.7 17.6 50.8 0 93.8 -43 93.8 -93.8zM437.5 125C679.7 125 875 320.3 875 562.5c0 111.3 -41 210.9 -109.4 289.1 -7.8 7.8 -13.6 15.6 -21.5 23.4h-44.9C636.7 798.8 543 750 437.5 750S238.3 798.8 175.8 875h-44.9c-7.9 -7.8 -13.7 -15.6 -21.5 -23.4C41 773.4 0 673.8 0 562.5 0 320.3 195.3 125 437.5 125zm302.7 697.3C806.6 750 841.8 654.3 841.8 556.6c0 -107.4 -43 -207 -119.1 -283.2S544.9 156.3 437.5 156.3s-209 41 -285.2 117.1S33.2 449.2 33.2 556.6c0 97.7 35.2 193.4 101.6 265.7l19.5 19.5 2 2v-2l17.5 -17.6 2 -1.9C209 789.1 250 763.7 293 746.1c46.8 -19.5 93.7 -29.3 144.5 -29.3s97.7 9.8 144.5 29.3c43 17.6 84 43 117.2 76.2l2 1.9 17.6 17.6v2l1.9 -2zM375 562.5c0 -35.2 27.3 -62.5 62.5 -62.5s62.5 27.3 62.5 62.5S472.7 625 437.5 625 375 597.7 375 562.5z"/></svg>