<svg height="1000" width="750" xmlns="http://www.w3.org/2000/svg"><path d="M464.8 623l4 -3.9 21.4 23.5 -3.9 3.9c-31.2 27.3 -70.3 41 -111.3 41 -87.9 0 -160.2 -70.3 -169.9 -152.3h-58.6l74.2 -97.7 76.2 97.7h-60.6c9.8 64.4 68.4 121.1 138.7 121.1 33.2 0 64.5 -11.8 89.8 -33.3zm27.4 -234.3C523.4 416 541 460.9 544.9 500h58.6l-74.2 99.6L453.1 500h60.6C503.9 431.6 445.3 375 375 375c-33.2 0 -64.5 11.7 -89.8 33.2l-3.9 3.9 -21.5 -23.4 3.9 -3.9c31.2 -27.4 70.3 -41 111.3 -41 43 0 85.9 15.6 117.2 44.9zm199.2 -76.2c35.2 0 58.6 27.3 58.6 60.5v343.8c0 33.2 -23.4 64.5 -58.6 64.5h-625C31.3 781.3 0 750 0 716.8V373c0 -33.2 31.3 -60.5 66.4 -60.5h25.4v-31.2h66.4v31.2h25.4c62.5 -70.3 84 -93.7 107.4 -93.7h171.9c23.4 0 44.9 23.4 107.4 93.7h121.1zm27.4 404.3V373c0 -17.5 -9.8 -29.2 -27.4 -29.2H558.6s-7.8 -2 -11.7 -5.9 -11.7 -15.6 -17.6 -21.5c-23.4 -25.4 -41 -46.9 -52.7 -58.6C466.8 248 462.9 250 462.9 250H291s-1.9 0 -11.7 7.8c-11.7 9.8 -29.3 27.4 -50.8 52.7 -5.8 7.9 -15.6 21.5 -21.5 27.4s-7.8 5.9 -11.7 5.9H66.4c-17.6 0 -35.1 13.6 -35.1 29.2v343.8c0 17.6 17.5 33.2 35.1 33.2h625c15.6 0 27.4 -15.6 27.4 -33.2z"/></svg>