<svg height="1000" width="812.5" xmlns="http://www.w3.org/2000/svg"><path d="M709 585.9S695.3 584 675.8 584s-44.9 1.9 -56.7 13.7C597.7 619.1 334 875 334 875L0 552.7 205.1 349.6l-95.7 -95.7c-37.1 -37.1 -37.1 -95.7 0 -132.8C127 103.5 152.3 93.8 175.8 93.8s46.9 9.7 64.4 27.3l111.4 109.4zM130.9 232.4l95.7 95.7 89.8 -87.9 -97.6 -97.6C207 130.9 191.4 125 173.8 125s-31.2 5.9 -42.9 17.6 -17.6 27.3 -17.6 44.9 5.8 33.2 17.6 44.9zm466.8 343.8c9.7 -9.8 21.4 -15.7 37.1 -19.6L337.9 261.7l-293 291L334 832C396.5 769.5 580.1 593.8 597.7 576.2zm121.1 80.1s93.7 103.5 93.7 156.2c0 50.8 -43 93.8 -93.7 93.8C668 906.3 625 865.2 625 812.5s93.8 -156.2 93.8 -156.2zm44.9 201.1c11.7 -11.7 17.6 -27.3 17.6 -44.9 0 -3.9 -2 -25.4 -41.1 -80.1 -7.8 -9.7 -15.6 -19.5 -21.4 -27.3 -7.9 7.8 -13.7 19.5 -21.5 29.3 -39.1 54.7 -41 74.2 -41 78.1 0 35.2 27.3 62.5 62.5 62.5 15.6 0 33.2 -5.9 44.9 -17.6z"/></svg>