<svg height="1000" width="625" xmlns="http://www.w3.org/2000/svg"><path d="M312.5 593.8c17.6 0 31.3 13.6 31.3 31.2s-13.7 31.3 -31.3 31.3S281.3 642.6 281.3 625s13.6 -31.2 31.2 -31.2zM140.6 437.5H625v468.8H0V437.5h109.4V296.9c0 -111.4 91.8 -203.1 203.1 -203.1s203.1 91.7 203.1 203.1v15.6h-31.2v-15.6C484.4 201.2 408.2 125 312.5 125S140.6 201.2 140.6 296.9v140.6zm187.5 248C355.5 677.7 375 654.3 375 625c0 -35.2 -27.3 -62.5 -62.5 -62.5S250 589.8 250 625c0 29.3 19.5 52.7 46.9 60.5V750h31.2v-64.5z"/></svg>