<svg height="1000" width="562.5" xmlns="http://www.w3.org/2000/svg"><path d="M523.4 320.3c21.5 9.8 39.1 37.1 39.1 66.4 0 43 -35.2 78.1 -78.1 78.1 -25.4 0 -62.5 -11.7 -76.2 -29.3 -29.3 29.3 -74.2 45 -126.9 45s-97.7 -15.7 -127 -45c-13.7 17.6 -52.7 29.3 -76.2 29.3C35.2 464.8 0 429.7 0 386.7 0 357.4 15.6 332 39.1 320.3c13.6 -7.8 23.4 -9.8 23.4 -9.8 0 -121 97.7 -220.7 218.8 -220.7S500 189.5 500 310.5c0 0 11.7 4 23.4 9.8zm-39 113.3c25.4 0 46.9 -21.5 46.9 -46.9 0 -15.6 -7.9 -31.2 -21.5 -39l-15.7 -7.9s-13.6 -3.9 -13.6 -3.9c-19.6 15.7 -43 21.5 -43 21.5 17.6 -11.7 31.3 -42.9 31.3 -42.9v-4c0 -50.7 -19.6 -99.6 -54.7 -134.7S332 121.1 281.3 121.1s-97.7 19.5 -132.9 54.7 -54.6 84 -54.6 134.7v4s15.6 31.2 33.2 42.9c0 0 -23.5 -5.8 -43 -21.5 0 0 -5.9 0 -15.6 3.9 -7.9 2 -15.7 7.9 -15.7 7.9 -13.6 7.8 -21.4 23.4 -21.4 39 0 25.4 21.4 46.9 46.8 46.9 9.8 0 21.5 -2 31.3 -5.9 11.7 -3.9 17.6 -7.8 21.5 -11.7 11.7 -9.7 21.4 -27.3 21.4 -27.3l23.5 25.4c23.4 23.4 60.5 35.1 105.5 35.1s82 -11.7 105.4 -35.1l23.5 -25.4s11.7 21.5 21.4 27.3c0 0 9.8 7.8 21.5 11.7s23.5 5.9 31.3 5.9zm-330.1 35.2zm253.9 0c7.8 9.7 23.4 17.5 39.1 23.4L339.8 857.4c0 2 -3.9 13.7 -11.7 23.5 -11.7 17.5 -29.3 29.3 -46.8 29.3 -39.1 0 -54.7 -46.9 -56.7 -52.8L117.2 492.2c15.6 -3.9 29.3 -13.7 37.1 -23.4 29.3 29.2 74.2 44.9 127 44.9S378.9 498 408.2 468.8zm-126.9 85.9l-70.4 46.9 70.4 48.8 70.3 -48.8zM168 572.3l7.8 23.4 13.7 -9.8 68.3 -46.8v-2c-31.2 -3.9 -82 -19.5 -101.5 -39.1l-9.8 5.9zm13.6 50.7l23.5 80.1L257.8 666l-68.3 -48.8zm54.7 185.6l21.5 -13.7 -31.2 -23.4zm45 76.2c23.4 0 35.1 -37.1 35.1 -37.1v-5.9l-35.1 -25.4 -35.2 25.4 1.9 7.8s11.8 35.2 33.3 35.2zm44.9 -76.2l11.7 -37.1 -33.2 23.4zm23.4 -78.1h2l-70.3 -48.9 -68.4 46.9 1.9 3.9 66.5 44.9zm7.8 -27.4L380.9 623l-5.9 -5.8L304.7 666zm39.1 -132.8l17.6 -64.4 -7.8 -5.9c-29.3 21.5 -70.4 33.2 -101.6 37.1v2l70.3 46.8 13.7 9.8z"/></svg>