<svg height="1000" width="750" xmlns="http://www.w3.org/2000/svg"><path d="M750 187.5c0 64.5 -46.9 117.2 -109.4 125v134.8l-250 123v117.2h2c60.5 7.8 107.4 62.5 107.4 125 0 68.4 -56.6 125 -125 125S250 880.9 250 812.5c0 -64.5 46.9 -117.2 109.4 -125V570.3l-250 -123V310.5h-2C46.9 302.7 0 250 0 187.5c0 -68.4 56.6 -125 125 -125s125 56.6 125 125c0 64.5 -46.9 117.2 -109.4 125v115.2L375 543 609.4 427.7V310.5h-2C546.9 302.7 500 250 500 187.5c0 -68.4 56.6 -125 125 -125s125 56.6 125 125zm-718.7 0c0 50.8 42.9 93.8 93.7 93.8s93.8 -43 93.8 -93.8S175.8 93.8 125 93.8s-93.7 42.9 -93.7 93.7zm437.5 625c0 -50.8 -43 -93.7 -93.8 -93.7s-93.7 42.9 -93.7 93.7 42.9 93.8 93.7 93.8 93.8 -43 93.8 -93.8zM625 281.3c50.8 0 93.8 -43 93.8 -93.8S675.8 93.8 625 93.8s-93.7 42.9 -93.7 93.7 42.9 93.8 93.7 93.8z"/></svg>