<svg height="1000" width="875" xmlns="http://www.w3.org/2000/svg"><path d="M859.4 484.4c7.8 0 15.6 7.8 15.6 15.6s-7.8 15.6 -15.6 15.6H687.5C679.7 646.5 570.3 750 437.5 750S195.3 646.5 187.5 515.6H15.6C7.8 515.6 0 507.8 0 500s7.8 -15.6 15.6 -15.6h171.9C195.3 353.5 304.7 250 437.5 250s242.2 103.5 250 234.4h171.9zM591.8 654.3c41 -41 64.5 -95.7 64.5 -154.3S632.8 386.7 591.8 345.7 496.1 281.3 437.5 281.3s-113.3 23.4 -154.3 64.4S218.8 441.4 218.8 500s23.4 113.3 64.4 154.3 95.7 64.5 154.3 64.5 113.3 -23.5 154.3 -64.5z"/></svg>