<svg height="1000" width="773.4" xmlns="http://www.w3.org/2000/svg"><path d="M431.6 675.8c7.9 -7.8 13.7 -15.6 19.6 -23.5 11.7 0 25.4 -1.9 37.1 -3.9 -7.8 17.6 -19.5 35.2 -35.2 50.8L320.3 832C248 904.3 127 904.3 54.7 832c-72.3 -72.2 -72.3 -193.3 0 -265.6L187.5 433.6c15.6 -15.6 31.3 -27.3 48.8 -35.2 11.7 -5.8 23.5 -9.7 35.2 -13.6s23.4 -5.9 35.1 -5.9 21.5 -1.9 33.2 0c41.1 3.9 82.1 23.4 113.3 54.7s48.9 72.3 52.8 113.3c-9.8 3.9 -19.6 7.8 -29.3 9.7 -2 -39 -19.6 -74.2 -46.9 -101.5s-60.6 -43 -99.6 -44.9h-9.8c-7.8 0 -13.7 1.9 -21.5 1.9 -11.7 2 -23.4 3.9 -33.2 7.8 -11.7 3.9 -21.5 9.8 -31.2 15.6 -7.8 5.9 -17.6 11.8 -25.4 19.6L76.2 587.9C46.9 617.2 31.3 656.3 31.3 699.2s15.6 80.1 44.9 109.4 68.3 46.9 111.3 46.9 82 -17.6 111.3 -46.9zM718.8 168c72.2 72.2 72.2 193.3 0 265.6L585.9 566.4c-15.6 15.6 -31.2 27.4 -48.8 35.2 -11.7 5.8 -23.4 9.7 -35.1 13.6s-23.5 5.9 -35.2 5.9 -21.5 1.9 -33.2 0c-41 -3.9 -82 -23.4 -113.3 -54.7C289.1 535.2 271.5 494.1 267.6 453.1c9.7 -3.9 19.5 -7.8 29.3 -9.7 1.9 39 17.6 74.2 44.9 101.5s62.5 43 101.6 44.9h9.7c7.8 0 13.7 -1.9 21.5 -1.9 11.7 -2 23.4 -3.9 33.2 -7.8 11.7 -3.9 21.5 -9.8 31.3 -15.6 7.8 -5.9 15.6 -11.8 23.4 -19.6L695.3 412.1c29.3 -29.3 46.9 -70.3 46.9 -111.3 0 -43 -17.6 -80.1 -46.9 -109.4S628.9 144.5 585.9 144.5s-82 17.6 -111.3 46.9L341.8 324.2c-7.8 7.8 -13.7 15.6 -19.5 23.5 -11.8 0 -25.4 1.9 -37.1 3.9 7.8 -17.6 19.5 -35.2 35.1 -50.8L453.1 168c72.3 -72.3 193.4 -72.3 265.7 0z"/></svg>