<svg height="1000" width="750" xmlns="http://www.w3.org/2000/svg"><path d="M404.3 685.5L433.6 832c1.9 5.9 1.9 9.8 1.9 15.7 0 35.1 -27.3 58.6 -62.5 58.6s-62.5 -23.5 -62.5 -58.6c0 -3.9 2 -9.8 2 -13.7l29.3 -154.3c3.9 -13.7 15.6 -23.4 31.2 -23.4s29.3 13.6 31.3 29.2zm68.4 7.9zm162.1 60.5c17.5 15.6 17.5 48.8 0 68.4 -19.6 19.5 -52.8 17.5 -68.4 0 -1.9 -2 -3.9 -3.9 -5.9 -7.8L472.7 693.4c-5.9 -9.8 -3.9 -21.5 3.9 -29.3 7.8 -9.8 19.5 -9.8 31.2 -2l117.2 84c3.9 1.9 5.9 5.9 9.8 7.8zm-33.2 -99.6zm123 -29.3c15.6 0 25.4 11.7 25.4 35.2 0 17.5 -19.5 33.2 -35.2 29.3L603.5 654.3h-1.9c-5.9 -3.9 -9.8 -9.8 -7.8 -17.6S601.6 625 609.4 625h115.2zm-578.1 29.3zm0 0L33.2 689.5C17.6 693.4 0 677.7 0 660.2S7.8 625 23.4 625h117.2s13.7 3.9 15.7 11.7 -4 13.7 -9.8 17.6zm95.7 7.8c9.8 -7.8 21.5 -5.8 31.2 2 7.9 7.8 9.8 19.5 3.9 29.3l-87.8 119.1c-2 3.9 -4 7.8 -5.9 9.8 -19.5 19.5 -48.8 19.5 -68.4 0s-19.5 -48.9 0 -68.4c3.9 -3.9 5.9 -5.9 9.8 -7.8zm334 -390.6c0 58.6 -19.6 107.4 -99.6 158.2 -72.3 46.9 -181.7 84 -212.9 195.3 0 0 -113.3 -44.9 -93.8 -177.7S412.1 252 388.7 93.8c46.8 0 187.5 64.4 187.5 177.7zm0 236.3C544.9 599.6 490.2 625 419.9 625c-29.3 0 -70.3 -23.4 -91.8 -54.7 23.5 -27.3 54.7 -46.9 91.8 -66.4 17.6 -9.8 39.1 -19.5 56.7 -31.2 41 -27.4 76.1 -54.7 93.7 -89.9 9.8 27.4 15.6 95.7 5.9 125zM191.4 335.9C179.7 328.1 168 304.7 169.9 279.3c3.9 -41 66.4 -70.3 62.5 -127 27.4 -3.9 66.4 11.8 87.9 50.8 -9.8 19.6 -29.3 39.1 -54.7 62.5s-50.8 41 -74.2 70.3z"/></svg>