<svg height="1000" width="750" xmlns="http://www.w3.org/2000/svg"><path d="M125 734.4c0 -3.9 0 -7.8 3.9 -11.7 5.9 -5.9 15.6 -5.9 21.5 0 41 39 93.7 60.5 156.2 64.4 37.2 2 52.8 11.7 68.4 19.5 17.6 9.8 37.1 21.5 105.5 21.5 140.6 0 238.3 -115.2 238.3 -257.8V460.9c0 -48.8 -5.9 -95.7 -31.3 -136.7 -25.4 -39 -52.7 -72.2 -93.7 -93.7 -7.9 -3.9 -11.8 -11.7 -7.9 -19.6s13.7 -11.7 21.5 -7.8c46.9 23.5 78.1 60.6 105.5 105.5 29.3 46.9 37.1 97.7 37.1 152.3v109.4c0 160.2 -113.3 289.1 -269.5 289.1 -76.2 0 -99.6 -13.7 -121.1 -25.4C345.7 826.2 334 820.3 304.7 818.4 234.4 814.5 175.8 791 128.9 746.1 125 742.2 125 738.3 125 734.4zm283.2 50.8v-2c2 -7.8 9.8 -15.6 17.6 -13.7 70.3 11.8 128.9 -3.9 171.9 -46.8 5.8 -5.9 17.5 -5.9 23.4 0s5.9 17.5 0 23.4C570.3 794.9 502 814.5 421.9 800.8c-7.8 -2 -13.7 -7.8 -13.7 -15.6zM0 570.3V460.9C0 406.3 5.9 355.5 35.2 308.6c27.3 -44.9 60.5 -82 107.4 -105.5 7.8 -3.9 17.6 0 21.5 7.8s0 15.7 -7.8 19.6C115.2 252 87.9 285.2 62.5 324.2c-25.4 41 -31.2 87.9 -31.2 136.7v109.4c0 68.4 17.5 136.7 76.1 189.5s136.7 84 216.8 84c7.8 0 15.6 7.8 15.6 15.6S332 875 324.2 875C238.3 875 150.4 841.8 85.9 783.2S0 646.5 0 570.3zM431.6 203.1c0 -19.5 17.6 -37.1 37.2 -37.1s37.1 17.6 37.1 37.1 -17.6 37.1 -37.1 37.1 -37.2 -17.5 -37.2 -37.1zM607.4 252c-13.6 17.5 -37.1 29.3 -62.5 29.3H203.1c-25.4 0 -46.8 -9.8 -60.5 -27.4h7.8c19.5 0 37.1 -17.6 37.1 -37.1s-17.6 -37.1 -37.1 -37.1c-9.8 0 -17.6 3.9 -23.4 9.8 7.8 -37.2 37.1 -64.5 76.1 -64.5h341.8c39.1 0 72.3 29.3 78.1 66.4 -7.8 -7.8 -15.6 -11.7 -27.3 -11.7 -19.5 0 -37.1 17.6 -37.1 37.1s17.6 37.1 37.1 37.1c3.9 0 7.8 0 11.7 -1.9zM416 203.1c0 29.3 23.5 52.8 52.8 52.8s52.7 -23.5 52.7 -52.8S498 150.4 468.8 150.4 416 173.8 416 203.1z"/></svg>