<svg height="1000" width="625" xmlns="http://www.w3.org/2000/svg"><path d="M625 812.5c-2 54.7 -2 62.5 -11.7 62.5H505.9S500 863.3 500 843.8c78.1 0 109.4 5.8 125 -31.3zm-625 0c27.3 37.1 46.9 31.3 125 31.3 0 19.5 2 31.2 -5.9 31.2H11.7S3.9 867.2 0 812.5zm453.1 -125c0 -25.4 21.5 -46.9 46.9 -46.9s46.9 21.5 46.9 46.9 -21.5 46.9 -46.9 46.9 -46.9 -21.5 -46.9 -46.9zm-375 0c0 -25.4 21.5 -46.9 46.9 -46.9s46.9 21.5 46.9 46.9 -21.5 46.9 -46.9 46.9S78.1 712.9 78.1 687.5zM562.5 125c35.2 0 62.5 27.3 62.5 62.5v546.9c0 42.9 -35.2 78.1 -78.1 78.1H78.1C35.2 812.5 0 777.3 0 734.4V187.5C0 152.3 27.3 125 62.5 125H562.5zm31.3 609.4V593.8H31.3v140.6c0 25.4 21.4 46.9 46.8 46.9h468.8c25.4 0 46.9 -21.5 46.9 -46.9zM31.3 531.3c0 17.5 13.6 31.2 31.2 31.2h234.4V250H62.5c-17.6 0 -31.2 13.7 -31.2 31.3v250zm562.5 0v-250c0 -17.6 -13.7 -31.3 -31.3 -31.3H328.1v312.5h234.4c17.6 0 31.3 -13.7 31.3 -31.2zM562.5 218.8c17.6 0 31.3 -13.7 31.3 -31.3s-13.7 -31.2 -31.3 -31.2h-500c-17.6 0 -31.2 13.6 -31.2 31.2s13.6 31.3 31.2 31.3h500z"/></svg>