<svg height="1000" width="750" xmlns="http://www.w3.org/2000/svg"><path d="M677.7 500c0 46.9 29.3 84 72.3 109.4 -7.8 25.4 -19.5 50.8 -31.2 74.2 -48.9 -11.7 -87.9 5.9 -121.1 39.1s-43 72.2 -31.3 121.1C543 855.5 517.6 867.2 492.2 875 466.8 832 421.9 802.7 375 802.7S283.2 832 257.8 875c-25.4 -7.8 -52.7 -19.5 -76.2 -31.2 11.8 -48.9 3.9 -87.9 -29.3 -121.1S80.1 681.6 31.3 693.4C19.5 669.9 7.8 642.6 0 617.2 43 591.8 72.3 546.9 72.3 500S43 416 0 390.6c7.8 -25.4 17.6 -50.8 31.3 -74.2 48.8 11.7 87.8 -5.9 121 -39.1s41.1 -72.2 29.3 -121c23.5 -11.8 50.8 -23.5 76.2 -31.3 25.4 43 70.3 72.3 117.2 72.3S466.8 168 492.2 125c25.4 7.8 52.7 19.5 76.2 31.3 -11.8 48.8 -3.9 87.8 29.3 121s72.2 50.8 121.1 39.1c11.7 23.4 23.4 48.8 31.2 74.2C707 416 677.7 453.1 677.7 500zM375 687.5c103.5 0 187.5 -84 187.5 -187.5S478.5 312.5 375 312.5 187.5 396.5 187.5 500s84 187.5 187.5 187.5z"/></svg>