<svg height="1000" width="703.1" xmlns="http://www.w3.org/2000/svg"><path d="M668 179.7c44.9 19.5 37.1 46.9 25.4 70.3 -7.9 17.6 -17.6 23.4 -29.3 23.4h-2L353.5 875 43 273.4h-2c-11.7 0 -21.5 -5.8 -29.3 -23.4C0 224.6 -17.6 203.1 37.1 177.7 99.6 148.4 187.5 125 353.5 125c168 0 255.9 27.3 314.5 54.7zM111.3 339.8c19.6 39.1 46.9 87.9 72.3 138.7 15.6 -9.7 27.3 -25.4 33.2 -43 5.9 -19.5 5.9 -39 -3.9 -58.5S187.5 343.8 168 337.9c-17.6 -5.9 -39.1 -5.9 -56.7 1.9zm320.3 304.7h3.9L498 527.3c-13.6 -23.4 -39 -39 -66.4 -39 -42.9 0 -78.1 35.1 -78.1 78.1s35.2 78.1 78.1 78.1zM386.7 218.8c0 17.5 5.9 35.1 15.6 48.8 11.8 15.6 29.3 25.4 48.9 29.3s41 -2 56.6 -13.7 23.5 -27.3 27.4 -44.9c-39.1 -7.8 -86 -17.6 -148.5 -19.5zM666 236.3c7.8 -13.6 5.9 -17.5 5.9 -17.5s-2 -5.9 -15.6 -11.8C607.4 185.5 523.4 156.3 353.5 156.3 179.7 156.3 99.6 183.6 50.8 207c-11.7 5.9 -17.6 9.8 -19.5 11.8 0 3.9 3.9 7.8 5.8 11.7 2 1.9 0 3.9 2 5.8s3.9 3.9 3.9 5.9c5.8 0 17.5 -5.9 31.2 -9.8C123 216.8 205.1 187.5 353.5 187.5s226.6 27.3 275.4 44.9c13.7 3.9 27.4 9.8 33.2 9.8 0 -2 2 -2 3.9 -5.9z"/></svg>