<svg height="1000" width="750" xmlns="http://www.w3.org/2000/svg"><path d="M589.8 414.1C681.6 439.5 750 525.4 750 625c0 121.1 -97.7 218.8 -218.7 218.8 -60.6 0 -117.2 -25.4 -156.3 -66.5 -39.1 41.1 -95.7 66.5 -156.2 66.5C97.7 843.8 0 746.1 0 625 0 525.4 68.4 439.5 160.2 414.1c-2 -13.7 -3.9 -25.4 -3.9 -39.1 0 -121.1 97.6 -218.7 218.7 -218.7S593.8 253.9 593.8 375c0 13.7 -2 25.4 -4 39.1zM187.5 375c0 11.7 0 23.4 2 33.2 9.7 -1.9 19.5 -1.9 29.3 -1.9 60.5 0 117.1 25.3 156.2 66.4 39.1 -41.1 95.7 -66.4 156.3 -66.4 9.7 0 19.5 0 29.2 1.9 2 -9.8 2 -21.5 2 -33.2 0 -103.5 -84 -187.5 -187.5 -187.5S187.5 271.5 187.5 375zm218.8 250c0 -11.7 0 -23.4 -2 -33.2 -9.8 2 -19.5 2 -29.3 2s-19.5 0 -29.3 -2c-1.9 9.8 -1.9 21.5 -1.9 33.2 0 39.1 11.7 74.2 31.2 103.5 19.5 -29.3 31.3 -64.4 31.3 -103.5zM375 562.5c5.9 0 13.7 -2 19.5 -2 -5.8 -13.6 -11.7 -27.3 -19.5 -39 -7.8 11.7 -13.7 25.4 -19.5 39 5.8 0 13.6 2 19.5 2zm-50.8 -7.8c7.8 -21.5 17.6 -41 31.3 -58.6 -35.2 -35.2 -84 -58.6 -136.7 -58.6 -5.9 0 -13.7 2 -19.6 2 19.6 56.6 66.4 99.6 125 115.2zm70.3 -58.6c13.7 17.6 23.5 37.1 31.3 58.6 58.6 -15.6 105.5 -58.6 125 -115.2 -5.9 0 -13.7 -2 -19.5 -2 -52.8 0 -101.6 23.4 -136.8 58.6zM218.8 812.5c52.7 0 101.5 -23.4 136.7 -58.6 -27.4 -37.1 -43 -80.1 -43 -128.9 0 -13.7 2 -25.4 3.9 -39.1C246.1 566.4 191.4 513.7 168 445.3 89.8 466.8 31.3 539.1 31.3 625c0 103.5 83.9 187.5 187.5 187.5zm312.5 0c103.5 0 187.5 -84 187.5 -187.5C718.8 539.1 660.2 466.8 582 445.3c-23.4 68.4 -78.1 121.1 -148.4 140.6 1.9 13.7 3.9 25.4 3.9 39.1 0 48.8 -15.6 91.8 -43 128.9 35.2 35.2 84 58.6 136.8 58.6z"/></svg>