<svg height="1000" width="812.5" xmlns="http://www.w3.org/2000/svg"><path d="M632.8 181.6c62.5 45 179.7 168 179.7 168s-68.4 80.1 -101.6 119.2c-25.4 29.2 -31.2 35.1 -31.2 0 0 -84 0 -93.8 -11.7 -93.8s-11.7 7.8 -11.7 15.6V875h-500V390.6c0 -7.8 0 -15.6 -11.8 -15.6s-11.7 9.8 -11.7 93.8c0 35.1 -5.8 29.2 -31.2 0C68.4 429.7 0 349.6 0 349.6s117.2 -123 179.7 -168C218.8 152.3 257.8 125 300.8 125s43 15.6 105.5 15.6S468.8 125 511.7 125s82.1 27.3 121.1 56.6zm-226.5 93.8c58.5 0 105.4 -41 105.4 -85.9 0 -58.6 -46.9 -17.6 -105.4 -17.6s-105.5 -41 -105.5 17.6c0 44.9 46.9 85.9 105.5 85.9z"/></svg>