<svg height="1000" width="812.5" xmlns="http://www.w3.org/2000/svg"><path d="M656.3 179.7C752 253.9 812.5 369.1 812.5 500c0 224.6 -181.6 406.3 -406.2 406.3S0 724.6 0 500 181.6 93.8 406.3 93.8c21.4 0 39 3.9 66.4 7.8 82 15.6 142.5 72.2 187.5 128.9 50.7 66.4 68.3 152.3 46.8 244.1 -21.5 87.9 -66.4 128.9 -99.6 146.5 -35.1 19.5 -80.1 27.3 -101.5 9.8l-2 -2C500 625 498 617.2 498 611.3s0 -11.7 2 -19.5 5.9 -17.6 7.8 -25.4L582 337.9h-41l-19.5 52.7c-9.8 -23.4 -19.5 -41 -35.2 -50.8s-31.2 -15.6 -48.8 -15.6c-27.3 0 -52.7 5.9 -76.2 19.6s-42.9 31.2 -58.6 52.7 -29.3 46.9 -37.1 74.2 -13.6 54.7 -13.6 82c0 15.7 3.9 31.3 7.8 45s9.7 25.3 19.5 35.1 19.5 19.5 33.2 25.4 27.3 9.8 43 9.8c19.5 0 39 -5.9 56.6 -17.6s31.3 -23.4 43 -35.2h1.9c2 17.6 9.8 29.3 19.6 39.1 5.8 3.9 11.7 7.8 21.4 11.7v2c41.1 13.6 82.1 3.9 125 -19.6C662.1 627 712.9 582 736.3 482.4c23.5 -101.5 5.9 -197.2 -50.8 -271.5C677.7 199.2 666 189.5 656.3 179.7zM318.4 607.4c-11.8 -13.6 -17.6 -35.1 -17.6 -58.6 0 -19.5 1.9 -39 7.8 -60.5s15.6 -41 27.3 -60.6 27.4 -35.1 45 -46.8 35.1 -17.6 54.6 -17.6c7.9 0 15.7 1.9 23.5 5.8s13.7 9.8 19.5 17.6c3.9 3.9 5.9 7.8 7.8 11.7l5.9 11.8c3.9 7.8 5.8 17.5 5.8 27.3 0 17.6 -1.9 39.1 -9.7 60.5s-15.6 41.1 -27.4 60.6 -27.3 35.2 -42.9 48.8S384.8 627 365.2 627s-35.1 -5.9 -46.8 -19.6z"/></svg>