<svg height="1000" width="625" xmlns="http://www.w3.org/2000/svg"><path d="M625 267.6C474.6 441.4 593.8 541 593.8 673.8S484.4 906.3 312.5 906.3 31.3 806.6 31.3 673.8 99.6 476.6 212.9 416c48.8 -27.3 64.4 -33.2 101.6 -50.8C373 339.8 441.4 314.5 519.5 293c33.2 -9.8 68.4 -17.6 105.5 -25.4zM0 209s128.9 29.3 224.6 80.1c27.4 15.6 54.7 33.2 72.3 52.7C273.4 353.5 250 363.3 226.6 375c-13.7 7.8 -27.4 13.7 -39.1 21.5 -48.8 27.3 -85.9 56.6 -111.3 76.2C85.9 398.4 82 294.9 0 209zm500 -56.7s50.8 56.7 62.5 99.7C498 265.6 398.4 296.9 326.2 328.1l-5.9 -5.8c-17.6 -19.6 -43 -39.1 -76.2 -56.7C345.7 156.3 500 152.3 500 152.3zM156.3 93.8s68.3 27.3 125 101.5c-23.5 15.6 -45 33.2 -64.5 54.7C166 226.6 138.7 214.8 97.7 203.1c9.7 -27.3 29.3 -68.3 58.6 -109.3z"/></svg>