<svg height="1000" width="1000" xmlns="http://www.w3.org/2000/svg"><path d="M781.3 396.5c0 21.5 0 43 -4 64.4 -3.9 19.6 -9.7 39.1 -19.5 54.7 -7.8 13.7 -19.5 25.4 -35.1 33.2 -13.7 7.8 -31.3 11.7 -46.9 11.7 -25.4 0 -60.6 -7.8 -82 -17.5V283.2c0 -17.6 -13.7 -33.2 -29.3 -33.2h-2c-17.6 0 -31.2 15.6 -31.2 33.2V875L375 824.2V125s54.7 7.8 146.5 35.2 130.8 41 164 60.5c15.7 9.8 29.3 21.5 41.1 33.2 13.6 13.7 25.4 27.4 33.2 44.9 15.6 31.3 19.5 64.5 21.5 97.7zM169.9 699.2c-7.8 3.9 -15.6 5.9 -21.5 11.7 -1.9 2 -5.8 5.9 -3.9 9.8s7.8 7.8 11.8 9.8c11.7 3.9 25.3 5.8 37.1 5.8 13.6 0 29.3 0 42.9 -3.9 9.8 -1.9 17.6 -5.8 27.4 -9.7 58.6 -19.6 80.1 -23.5 80.1 -23.5v82.1c-27.4 3.9 -70.4 7.8 -97.7 7.8C187.5 791 128.9 781.3 74.2 763.7 56.6 757.8 37.1 752 21.5 740.2 13.7 734.4 5.9 724.6 2 714.8 -2 707 0 697.3 3.9 689.5S13.7 673.8 21.5 668c17.6 -11.7 35.1 -19.6 54.7 -27.4C91.8 632.8 109.4 627 127 621.1c68.3 -23.4 216.8 -72.3 216.8 -72.3v91.8s-121.1 39.1 -173.9 58.6zM1000 675.8c0 9.7 -3.9 17.6 -9.8 25.4 -11.7 13.6 -27.3 21.5 -42.9 29.3s-33.2 15.6 -50.8 21.5c-105.5 37.1 -334 115.2 -334 115.2v-93.8s179.7 -58.6 259.8 -85.9c11.7 -3.9 21.5 -7.8 31.2 -15.6 3.9 -3.9 7.8 -5.9 5.9 -11.7 -2 -3.9 -7.8 -7.9 -11.7 -9.8 -11.8 -3.9 -25.4 -5.9 -37.2 -5.9 -19.5 0 -39 3.9 -58.5 9.8 -56.7 19.5 -189.5 62.5 -189.5 62.5v-95.7s87.9 -27.3 130.9 -31.3c15.6 -1.9 44.9 -1.9 60.5 -1.9 50.8 0 105.5 5.9 154.3 21.5 9.8 3.9 15.6 5.8 27.3 9.7 17.6 5.9 35.2 15.7 48.9 27.4 7.8 7.8 15.6 17.6 15.6 29.3z"/></svg>