<svg height="1000" width="1000" xmlns="http://www.w3.org/2000/svg"><path d="M1000 642.6v15.6c-2 17.6 -13.7 33.2 -29.3 43s-23.4 7.8 -25.4 5.8 2 -5.8 7.8 -9.7c25.4 -15.7 33.2 -39.1 19.6 -64.5 -9.8 -19.5 -29.3 -31.2 -50.8 -39 -46.9 -15.7 -93.8 -13.7 -140.6 0 7.8 23.4 13.6 44.9 -4 66.4 -19.5 23.4 -44.9 37.1 -76.1 42.9 -13.7 3.9 -27.4 -3.9 -29.3 -17.6 -5.9 -37.1 33.2 -70.3 58.6 -91.7C716.8 572.3 709 546.9 703.1 521.5c-29.3 33.2 -60.5 78.1 -50.8 119.1 5.9 27.4 -1.9 52.8 -27.3 70.3s-58.6 27.4 -89.8 21.5c-7.9 -1.9 -11.8 -9.7 -9.8 -15.6 3.9 -27.3 48.8 -62.5 68.4 -84 3.9 -3.9 5.8 -7.8 1.9 -13.7C584 595.7 576.2 574.2 568.4 548.8 543 605.5 509.8 705.1 457 740.2c-17.5 11.8 -33.2 7.8 -41 -9.7 -5.8 -15.7 -3.9 -39.1 -1.9 -56.7C402.3 699.2 392.6 726.6 375 748c-13.7 15.7 -46.9 13.7 -58.6 -1.9 -31.2 -41 -25.4 -97.7 -9.8 -142.6L250 632.8c13.7 31.3 15.6 62.5 7.8 95.7 -9.8 37.1 -33.2 68.4 -68.3 89.9 -37.2 23.4 -125 46.8 -150.4 -7.9C25.4 779.3 31.3 752 50.8 724.6 84 677.7 144.5 652.3 195.3 627 132.8 582 39.1 544.9 7.8 470.7 -21.5 402.3 41 337.9 91.8 296.9 207 203.1 416 111.3 568.4 181.6c29.3 13.7 70.3 46.9 60.5 101.6 -7.8 46.9 -25.4 76.2 -54.7 105.5C511.7 451.2 277.3 539.1 230.5 418c-2 -2 -2 -7.8 1.9 -7.8 3.9 1.9 39.1 29.3 84 31.2 33.2 2 70.3 -5.9 101.6 -15.6 64.4 -21.5 138.6 -64.5 156.2 -130.9 7.8 -25.4 -3.9 -54.7 -29.3 -66.4 -95.7 -46.9 -226.5 7.8 -310.5 50.8C169.9 312.5 70.3 367.2 74.2 449.2c2 72.3 109.4 117.2 158.2 160.2 29.3 -13.7 82.1 -29.3 101.6 -52.8 21.5 -25.3 50.8 -48.8 85.9 -50.7 15.6 0 27.4 5.8 31.3 19.5 3.9 11.7 1.9 21.5 0 37.1 9.7 -7.8 21.5 -7.8 29.3 2 23.4 27.3 -43 97.6 -19.6 128.9C488.3 666 502 611.3 519.5 578.1c7.8 -15.6 33.2 -99.6 50.8 -103.5 13.7 -3.9 35.2 -7.8 48.8 0 3.9 2 5.9 5.9 3.9 9.8 -13.6 37.1 -13.6 64.4 5.9 101.5 27.4 -39 56.6 -83.9 66.4 -130.8 2 -3.9 5.9 -5.9 9.8 -7.8 13.7 -3.9 35.1 -5.9 48.8 0 5.9 1.9 5.9 3.9 3.9 9.7 -13.7 43 -11.7 74.3 11.7 113.3C830.1 548.8 904.3 541 959 580.1c-5.9 -3.9 -13.7 -9.8 0 0 9.8 7.8 5.8 3.9 0 0 23.4 15.6 37.1 35.1 41 62.5zm-779.3 48.8c2 -13.7 -1.9 -25.4 -5.9 -39.1C168 668 85.9 720.7 89.8 773.4c2 19.6 15.7 25.4 33.2 23.5s37.2 -13.7 52.8 -25.4c27.3 -21.5 43 -46.9 44.9 -80.1zM421.9 550.8c1.9 -5.9 -3.9 -9.8 -9.8 -7.8 -56.6 15.6 -84 111.3 -64.4 158.2 1.9 5.8 7.8 5.8 11.7 1.9 33.2 -31.2 54.7 -109.3 62.5 -152.3zm136.7 160.1c15.6 5.9 52.7 -33.2 50.8 -52.7 -15.6 17.6 -35.2 35.2 -50.8 52.7zm158.2 -35.1c21.5 -11.7 31.2 -37.1 23.4 -58.6 -15.6 11.7 -41 37.1 -39 60.5 0 3.9 11.7 0 15.6 -1.9z"/></svg>