<svg height="1000" width="875" xmlns="http://www.w3.org/2000/svg"><path d="M437.5 62.5C679.7 62.5 875 257.8 875 500S679.7 937.5 437.5 937.5c-43 0 -85.9 -5.9 -125 -17.6 15.6 -27.3 35.2 -60.5 44.9 -93.7 5.9 -19.6 31.3 -121.1 31.3 -121.1 15.6 29.3 58.6 54.7 105.4 54.7 140.7 0 236.4 -127 236.4 -298.9C730.5 332 621.1 209 453.1 209c-207 0 -312.5 148.4 -312.5 273.4 0 76.2 29.3 142.6 89.9 168 9.7 3.9 19.5 0 23.4 -11.7 2 -7.8 5.9 -27.4 7.8 -35.2 3.9 -11.7 2 -13.7 -5.8 -23.4 -17.6 -21.5 -29.3 -46.9 -29.3 -86 0 -111.3 82 -208.9 214.8 -208.9 117.2 0 183.6 70.3 183.6 166 0 126.9 -56.6 232.4 -138.7 232.4 -46.8 0 -82 -37.1 -70.3 -84 13.7 -54.7 39.1 -115.2 39.1 -154.3 0 -35.1 -19.6 -66.4 -58.6 -66.4 -46.9 0 -84 48.8 -84 113.3 0 41 13.7 70.3 13.7 70.3s-48.9 203.1 -56.7 238.3c-7.8 33.2 -9.7 68.3 -7.8 99.6C107.4 832 0 679.7 0 500 0 257.8 195.3 62.5 437.5 62.5z"/></svg>