<svg height="1000" width="875" xmlns="http://www.w3.org/2000/svg"><path d="M869.1 222.7c13.7 64.4 2 128.9 -25.3 189.4S783.2 527.3 744.1 582c-50.7 70.3 -101.5 138.7 -166 197.3C541 814.5 498 847.7 449.2 865.2 388.7 886.7 347.7 875 310.5 822.3 283.2 785.2 267.6 744.1 255.9 699.2 232.4 611.3 207 523.4 181.6 437.5c-7.8 -23.4 -17.5 -43 -29.3 -64.5 -5.8 -9.7 -15.6 -19.5 -23.4 -27.3 -9.8 -7.8 -21.5 -5.9 -33.2 0C76.2 357.4 41 380.9 41 380.9L0 328.1C50.8 281.3 160.2 189.5 160.2 189.5c21.4 -17.6 64.4 -48.9 93.7 -52.8 41 -5.8 74.2 7.8 97.7 43C373 212.9 380.9 252 386.7 291c13.7 80.1 21.5 160.2 44.9 238.3 5.9 19.5 15.7 39.1 25.4 56.6 13.7 21.5 29.3 25.4 48.9 9.8 7.8 -5.9 13.6 -11.7 19.5 -19.5C564.5 529.3 597.7 474.6 619.1 418c5.9 -17.6 5.9 -33.2 5.9 -52.8 0 -25.4 -19.5 -48.8 -48.8 -50.7s-46.9 1.9 -76.2 13.6c11.7 -46.8 46.9 -121.1 105.5 -164C662.1 123 744.1 117.2 789.1 132.8s70.3 44.9 80 89.9z"/></svg>