<svg height="1000" width="750" xmlns="http://www.w3.org/2000/svg"><path d="M689.5 125c35.1 0 60.5 25.4 60.5 58.6v626.9c0 33.3 -25.4 64.5 -60.5 64.5h-625C29.3 875 0 843.8 0 810.5V183.6C0 150.4 29.3 125 64.5 125h625zM232.4 750V416H125v334h107.4zM181.6 365.2c35.2 0 58.6 -25.4 58.6 -56.6 0 -33.2 -21.4 -58.6 -56.6 -58.6S125 275.4 125 308.6c0 31.2 21.5 56.6 56.6 56.6zM625 750V554.7C625 455.1 572.3 408.2 502 408.2c-56.7 0 -82.1 33.2 -97.7 54.7V416H296.9v334h107.4V560.5c0 -9.7 0 -19.5 3.9 -27.3 7.8 -19.5 25.4 -39.1 54.7 -39.1 39.1 0 54.7 29.3 54.7 72.3V750H625z"/></svg>