<svg height="1000" width="750" xmlns="http://www.w3.org/2000/svg"><path d="M252 486.3c-56.7 9.8 -95.7 58.6 -95.7 111.4V687.5H127C70.3 687.5 21.5 630.9 5.9 552.7 2 535.2 0 519.5 0 500v-2C0 394.5 56.6 312.5 127 312.5h248v-31.2H187.5v-56.7c0 -50.8 13.7 -78.1 89.8 -91.8 25.4 -3.9 56.7 -7.8 87.9 -7.8s76.2 2 107.5 7.8c48.8 7.8 89.8 43 89.8 91.8v171.9c0 41 -27.3 74.2 -64.5 84 -7.8 1.9 -15.6 3.9 -25.3 3.9H269.5h5.9c-7.8 0 -15.6 0 -23.4 1.9zM273.4 248c19.6 0 33.2 -13.6 33.2 -33.2S293 179.7 273.4 179.7s-35.1 15.6 -35.1 35.1 15.6 33.2 35.1 33.2zm468.8 187.5c5.8 19.6 7.8 41.1 7.8 64.5 0 31.3 -5.9 58.6 -13.7 84C714.8 644.5 671.9 687.5 623 687.5H375v31.3h187.5v50.7c0 50.8 -44.9 78.2 -89.8 91.8 -68.4 19.6 -132.9 17.6 -189.5 0 -48.8 -13.6 -95.7 -42.9 -95.7 -91.8V599.6c0 -41 27.3 -70.3 64.5 -80.1 7.8 -1.9 15.6 -3.9 25.3 -3.9h203.2c5.8 0 11.7 -1.9 17.5 -1.9 52.8 -7.8 95.8 -54.7 95.8 -121.1V312.5H623c54.7 0 101.6 50.8 119.2 123zM476.6 748c-19.6 0 -35.2 13.7 -35.2 33.3s15.6 35.1 35.2 35.1 33.2 -15.6 33.2 -35.1S496.1 748 476.6 748z"/></svg>