<svg height="1000" width="1000" xmlns="http://www.w3.org/2000/svg"><path d="M621.1 451.2s3.9 21.5 3.9 56.6c0 84 -27.3 164.1 -82 220.7 -54.7 58.6 -132.8 89.9 -214.9 89.9 -89.8 0 -177.7 -33.2 -240.2 -97.7C29.3 660.2 0 580.1 0 500S31.3 334 89.8 275.4c60.6 -60.6 144.6 -93.8 230.5 -93.8 111.3 0 183.6 56.7 211 80.1l-93.8 93.8c-15.6 -13.7 -54.7 -41 -113.3 -41 -52.7 0 -99.6 13.6 -134.7 48.8s-54.7 84 -54.7 136.7 19.5 101.6 56.6 136.7c35.2 35.2 84 50.8 134.8 50.8 70.3 0 146.5 -37.1 164 -125H312.5v-125h306.6zM1000 437.5v80.1H888.7v111.3h-80.1V517.6H697.3v-80.1h111.3V326.2h80.1v111.3H1000z"/></svg>