<svg height="1000" width="625" xmlns="http://www.w3.org/2000/svg"><path d="M613.3 544.9c7.8 19.6 13.7 58.6 11.7 86 -2 31.2 -9.8 72.2 -31.2 99.6S543 777.3 505.9 791c-29.3 11.7 -64.5 19.5 -115.3 21.5v125h-78.1v-125H250v125h-80.1v-125H0l17.6 -93.7h50.8c17.5 0 17.5 0 23.4 -2s7.8 -7.8 9.8 -13.7 3.9 -15.6 3.9 -33.2V332c0 -17.5 -2 -31.2 -3.9 -35.1s-5.9 -7.8 -11.8 -11.7 -17.5 -3.9 -35.1 -3.9H0v-93.8h169.9v-125H250v125h62.5v-125h78.1v125c39.1 2 64.5 7.8 89.9 17.6 31.2 11.7 54.7 29.3 72.2 52.7s23.5 54.7 25.4 87.9c2 19.5 0 39.1 -5.8 54.7 -3.9 15.6 -15.7 31.2 -31.3 44.9 -11.7 11.7 -21.5 17.6 -31.2 21.5 17.5 3.9 33.2 11.7 48.8 19.5 29.3 15.7 44.9 35.2 54.7 58.6zM250 293v144.5h62.5V293H250zm0 414h62.5V531.3H250V707zM390.6 300.8v128.9c11.7 -5.9 17.6 -13.7 25.4 -23.4 9.8 -11.8 13.7 -23.5 13.7 -39.1s-3.9 -29.3 -11.7 -41c-7.8 -9.8 -15.7 -21.5 -27.4 -25.4zM447.3 666c15.6 -13.7 19.5 -29.3 19.5 -50.8 0 -17.5 -5.9 -37.1 -15.6 -48.8S427.7 546.9 412.1 541c-7.8 -3.9 -11.7 -3.9 -21.5 -5.8v160.1c3.9 0 9.8 -1.9 13.7 -3.9 19.5 -7.8 27.3 -11.7 43 -25.4z"/></svg>