<svg height="1000" width="750" xmlns="http://www.w3.org/2000/svg"><path d="M13.7 320.3c-17.6 -7.8 -17.6 -21.5 0 -29.3L343.8 130.9C351.6 127 363.3 125 375 125s23.4 2 31.3 5.9l330 160.1c17.6 7.8 17.6 21.5 0 29.3l-330 160.2c-7.9 3.9 -19.6 5.8 -31.3 5.8s-23.4 -1.9 -31.2 -5.8zm722.6 164.1c17.6 7.8 17.6 23.4 0 31.2l-330 158.2c-7.9 3.9 -19.6 7.8 -31.3 7.8s-23.4 -3.9 -31.2 -7.8L13.7 515.6c-17.6 -7.8 -17.6 -23.4 0 -31.2 0 0 52.7 -25.4 64.4 -31.3 9.8 -5.8 13.7 -5.8 25.4 0s240.3 117.2 240.3 117.2c7.8 3.9 19.5 5.9 31.2 5.9s23.4 -2 31.3 -5.9c0 0 236.3 -115.2 244.1 -119.1s9.8 -3.9 17.6 0 68.3 33.2 68.3 33.2zm0 195.3c17.6 7.8 17.6 21.5 0 29.3l-330 160.1C398.4 873 386.7 875 375 875s-23.4 -2 -31.2 -5.9L13.7 709c-17.6 -7.8 -17.6 -21.5 0 -29.3 0 0 52.7 -27.4 64.4 -33.2 9.8 -5.9 13.7 -3.9 25.4 1.9s240.3 115.3 240.3 115.3c7.8 3.9 19.5 5.8 31.2 5.8s23.4 -1.9 31.3 -5.8c0 0 236.3 -113.3 244.1 -117.2s9.8 -3.9 17.6 0 68.3 33.2 68.3 33.2z"/></svg>