<svg height="1000" width="625" xmlns="http://www.w3.org/2000/svg"><path d="M464.8 300.8c48.9 0 101.6 27.3 138.7 76.2C480.5 447.3 500 627 625 675.8c-17.6 39 -25.4 54.7 -46.9 89.8C546.9 814.5 505.9 875 451.2 875h-2c-46.9 0 -60.5 -31.2 -123 -31.2 -64.5 0 -78.2 31.2 -125 31.2h-2c-54.7 0 -93.7 -54.7 -125 -103.5 -85.9 -134.8 -93.7 -293 -41 -377 37.1 -58.6 97.7 -93.7 152.3 -93.7 56.7 0 91.8 31.2 138.7 31.2 44.9 0 74.2 -31.2 140.6 -31.2zM449.2 125c5.9 44.9 -11.7 89.8 -35.1 121.1 -25.4 33.2 -68.4 58.6 -109.4 58.6h-2c-7.8 -43 11.8 -85.9 35.2 -117.2C365.2 154.3 410.2 127 449.2 125z"/></svg>