<svg height="1000" width="687.5" xmlns="http://www.w3.org/2000/svg"><path d="M125 523.4V375h437.5V699.2c0 13.7 -7.8 27.4 -21.5 27.4h-54.7v101.5c0 25.4 -21.5 46.9 -46.8 46.9h-2c-11.7 0 -19.5 -3.9 -27.3 -9.8 -9.8 -7.8 -17.6 -21.4 -17.6 -37.1V726.6h-95.7v101.5c0 25.4 -21.5 46.9 -46.9 46.9s-46.9 -21.5 -46.9 -46.9V726.6h-56.6c-13.7 0 -21.5 -13.7 -21.5 -27.4V523.4zM640.6 343.8c25.4 0 46.9 21.4 46.9 46.8v187.5c0 25.4 -21.5 46.9 -46.9 46.9s-46.8 -21.5 -46.8 -46.9V390.6c0 -25.4 21.4 -46.8 46.8 -46.8zm-593.7 0c25.4 0 46.9 21.4 46.9 46.8v187.5c0 25.4 -21.5 46.9 -46.9 46.9S0 603.5 0 578.1V390.6c0 -25.4 21.5 -46.8 46.9 -46.8zm404.3 -170c93.7 41 109.3 140.7 111.3 170H125c2 -29.3 15.6 -129 109.4 -170l-35.2 -42.9c0 -2 0 -2 2 -3.9s5.8 -2 5.8 -2l37.1 44.9c27.4 -9.7 60.6 -17.6 99.7 -17.6s70.3 7.9 97.6 17.6L480.5 125c0 -2 1.9 0 3.9 2l3.9 3.9zM248 271.5c15.7 0 25.4 -11.7 25.4 -25.4S261.7 218.8 248 218.8c-15.6 0 -27.3 13.6 -27.3 27.3s13.7 25.4 27.3 25.4zm191.5 0c13.6 0 27.3 -11.7 27.3 -25.4s-13.7 -27.3 -27.3 -27.3c-15.7 0 -25.4 13.6 -25.4 27.3s11.7 25.4 25.4 25.4z"/></svg>