<svg height="1000" width="875" xmlns="http://www.w3.org/2000/svg"><path d="M343.8 171.9v416c0 189.4 -95.8 255.9 -236.4 255.9C72.3 843.8 29.3 837.9 0 828.1L15.6 707c19.6 7.8 46.9 11.8 76.2 11.8 60.5 0 95.7 -29.3 95.7 -132.9v-414h156.3zm339.8 -15.6c74.2 0 126.9 13.6 166 31.2l-37.1 125C787.1 298.8 744.1 279.3 681.6 279.3s-93.7 31.2 -93.7 64.5c0 42.9 37.1 60.5 121.1 93.7 113.3 43 166 103.5 166 199.2C875 748 793 843.8 615.2 843.8c-74.2 0 -140.6 -19.6 -177.7 -41.1l29.3 -123c39.1 21.5 95.7 41 158.2 41 66.4 0 101.6 -29.3 101.6 -74.2 0 -41 -29.3 -64.5 -107.5 -91.8C511.7 515.6 437.5 453.1 437.5 355.5c0 -113.3 95.7 -199.2 246.1 -199.2z"/></svg>