<svg height="1000" width="750" xmlns="http://www.w3.org/2000/svg"><path d="M380.9 529.3l103.5 285.2c0 1.9 11.7 25.3 17.6 37.1 -5.9 1.9 -9.8 3.9 -15.7 5.8 -19.5 5.9 -41 11.7 -62.5 13.7C408.2 873 390.6 875 375 875c-33.2 0 -66.4 -3.9 -97.7 -11.7 -3.9 0 -5.8 -3.9 -9.7 -3.9l48.8 -142.6zM33.2 351.6c11.7 0 13.7 1.9 29.3 1.9l181.6 498.1c-5.8 -2 -9.7 -3.9 -15.6 -5.9C105.5 793 15.6 675.8 2 537.1 0 525.4 0 511.7 0 500 0 451.2 13.7 396.5 33.2 351.6zm681.6 -9.8C736.3 388.7 750 443.4 750 500c0 17.6 -2 35.2 -3.9 50.8 -17.6 126.9 -97.7 234.4 -209 287.1 -3.9 1.9 -5.8 1.9 -9.8 3.9l43 -127 76.2 -220.7C666 445.3 671.9 406.3 671.9 373v-37.1C669.9 300.8 652.3 250 601.6 252h-3.9c-33.2 0 -56.7 27.3 -56.7 58.5 0 27.4 15.6 52.8 33.2 80.1 13.7 23.5 27.4 50.8 27.4 91.8 0 29.3 -7.8 66.4 -25.4 109.4L543 705.1 421.9 341.8c19.5 0 39 -2 39 -2 17.6 -1.9 13.7 -31.2 -3.9 -29.3 0 0 -54.7 5.9 -89.8 5.9 -33.2 0 -87.9 -5.9 -87.9 -5.9 -17.6 -1.9 -19.5 29.3 -2 29.3 0 0 17.6 2 35.2 2l52.7 144.5L291 707 168 341.8c19.5 0 39 -3.9 39 -3.9 17.6 -2 15.7 -29.3 -1.9 -27.4 0 0 -54.7 4 -89.9 4H48.8C58.6 296.9 70.3 281.3 82 265.6 150.4 179.7 257.8 125 375 125c46.9 0 93.8 9.8 134.8 25.4 66.4 25.4 123 70.3 166 126.9 3.9 4 5.8 9.8 9.7 13.7 11.8 15.6 21.5 33.2 29.3 50.8z"/></svg>