<svg height="1000" width="875" xmlns="http://www.w3.org/2000/svg"><path d="M437.5 62.5C679.7 62.5 875 263.7 875 511.7 875 709 750 878.9 576.2 937.5h-7.8c-15.7 0 -23.5 -13.7 -23.5 -23.4 0 -15.7 2 -60.6 2 -121.1 0 -41 -15.6 -70.3 -31.3 -84 97.7 -11.7 201.2 -48.8 201.2 -220.7 0 -48.8 -17.6 -89.9 -44.9 -121.1C675.8 355.5 691.4 310.5 668 248h-9.8c-15.6 0 -52.7 5.9 -111.3 46.9 -35.2 -9.7 -72.3 -15.6 -109.4 -15.6s-74.2 5.9 -109.4 15.6C269.5 253.9 232.4 248 216.8 248H207c-23.4 62.5 -7.8 107.5 -3.9 119.2 -27.3 31.2 -44.9 72.3 -44.9 121.1 0 171.9 101.6 209 199.2 220.7 -11.7 11.7 -23.4 31.2 -27.3 60.5 -11.7 5.9 -31.3 11.8 -50.8 11.8 -25.4 0 -54.7 -9.8 -76.2 -48.9 0 0 -25.4 -42.9 -68.3 -46.9 -3.9 0 -41 0 -2 27.4 0 0 29.3 15.6 48.8 66.4 0 0 19.6 64.5 103.6 64.5 13.6 0 27.3 0 42.9 -4V916c0 9.8 -5.8 21.5 -21.5 21.5h-7.8C125 878.9 0 710.9 0 511.7 0 263.7 195.3 62.5 437.5 62.5z"/></svg>