<svg height="1000" width="1000" xmlns="http://www.w3.org/2000/svg"><path d="M982.4 224.6c37.1 72.3 15.6 158.2 -39 210.9S826.2 500 826.2 500c3.9 62.5 31.2 115.2 -80.1 199.2C662.1 761.7 750 875 750 875c19.5 27.3 44.9 37.1 62.5 62.5H281.3S310.5 910.2 267.6 875c0 0 -39.1 -33.2 -35.2 -56.6S244.1 793 250 789.1s0 -13.7 0 -13.7l-37.1 -37.1s-25.4 25.4 -85.9 25.4C52.7 763.7 0 687.5 0 687.5h89.8s-11.7 15.6 -13.6 25.4c-2 7.8 1.9 9.8 1.9 9.8s21.5 11.7 43 11.7c33.2 0 64.4 -23.5 64.4 -23.5L138.7 668l-29.3 7.8L78.1 603.5l76.2 19.5 -2 29.3 54.7 35.2s17.6 -17.6 13.7 -52.7S203.1 584 203.1 584s-7.8 0 -17.6 7.8 -11.7 11.7 -11.7 11.7l-19.5 -85.9s84 37.1 97.7 123c5.8 39.1 -11.8 68.4 -11.8 68.4l33.2 19.5s11.8 -9.7 33.2 -13.7 45 -3.9 56.7 15.7 9.7 23.4 7.8 37.1 0 17.6 11.7 21.5 11.7 11.7 21.5 15.6 29.3 11.7 41 3.9 15.6 -21.5 15.6 -35.2v-31.2s-17.5 -15.6 -62.5 -39.1S293 660.2 269.5 625s-23.4 -85.9 0 -111.3c17.6 -19.6 45 -48.9 50.8 -68.4 7.8 -27.3 7.8 -82 7.8 -82S308.6 332 312.5 285.2c3.9 -58.6 43 -164.1 187.5 -222.7 0 0 -78.1 107.4 -39.1 156.3 0 0 72.3 -21.5 150.4 -17.6 60.6 3.9 109.4 23.4 142.6 54.7s48.8 44.9 91.8 33.2 54.7 -33.2 54.7 -64.5c0 -37.1 -31.3 -99.6 -31.3 -99.6s70.4 13.7 113.3 99.6zM380.9 396.5c27.3 -7.8 41 21.5 41 21.5 27.3 -48.9 58.6 -117.2 42.9 -125s-125 48.8 -128.9 171.8c0 0 11.8 -60.5 45 -68.3zm72.2 29.3c9.8 -13.7 66.4 -15.6 72.3 33.2 7.8 68.3 -46.9 111.3 -46.9 111.3s13.7 3.9 44.9 -3.9c33.2 -7.8 84 -56.6 84 -136.7s-41 -128.9 -80.1 -121.1 -74.2 117.2 -74.2 117.2z"/></svg>