<svg height="1000" width="625" xmlns="http://www.w3.org/2000/svg"><path d="M548.8 62.5c68.4 0 87.9 39.1 72.3 111.3 -19.5 95.7 -78.1 394.6 -84 416 -5.8 25.4 -15.6 66.5 -76.2 66.5H320.3c-5.8 0 -5.8 0 -11.7 5.8C304.7 666 84 921.9 84 921.9c-17.6 19.5 -44.9 15.6 -54.7 11.7S0 918 0 882.8V140.6S19.5 62.5 84 62.5h464.8zm-11.7 527.3c5.9 -21.4 64.5 -320.3 84 -416zM521.5 189.5c3.9 -17.6 -9.8 -31.3 -23.5 -31.3H125c-17.6 0 -29.3 15.6 -29.3 29.3v578.1c0 2 2 2 3.9 0 0 0 136.7 -164 152.4 -183.6s21.4 -21.5 44.9 -21.5h125c17.6 0 27.3 -15.6 29.3 -23.4s15.6 -84 19.5 -99.6S459 406.3 445.3 406.3H285.2c-19.6 0 -35.2 -15.7 -35.2 -35.2v-25.4c0 -19.5 15.6 -33.2 35.2 -33.2h187.5S500 300.8 502 289.1z"/></svg>