<svg height="1000" width="875" xmlns="http://www.w3.org/2000/svg"><path d="M285.2 560.5c17.5 0 31.2 7.9 42.9 25.4s19.6 39.1 19.6 62.5 -7.9 43 -19.6 60.6 -27.3 25.4 -42.9 25.4c-17.6 0 -33.2 -7.8 -45 -25.4s-17.5 -37.1 -17.5 -60.6 5.8 -46.8 17.5 -62.5c11.8 -17.5 27.4 -25.4 45 -25.4zm306.6 0c17.6 0 31.2 7.9 43 25.4s17.5 39.1 17.5 62.5 -5.8 43 -17.5 60.6 -25.4 25.4 -43 25.4S556.6 726.6 544.9 709s-17.6 -37.1 -17.6 -60.6 5.9 -46.8 17.6 -62.5c11.7 -17.5 29.3 -25.4 46.9 -25.4zM808.6 335.9c46.9 52.8 66.4 128.9 66.4 187.5 0 46.9 -2 89.9 -11.7 127 -11.7 37.1 -25.4 68.4 -41 91.8 -17.6 23.4 -37.1 44.9 -62.5 62.5s-46.9 33.2 -66.4 41 -43 15.6 -70.4 19.5c-25.3 3.9 -46.8 7.8 -60.5 7.8 0 0 -54.7 2 -125 2s-125 -2 -125 -2c-13.7 0 -35.2 -3.9 -60.5 -7.8 -27.4 -3.9 -50.8 -11.7 -70.4 -19.5s-42.9 -23.4 -66.4 -41C89.8 787.1 70.3 765.6 52.7 742.2 37.1 718.8 23.4 687.5 11.7 650.4 2 613.3 0 570.3 0 523.4 0 462.9 19.5 386.7 66.4 335.9c0 0 -3.9 -27.3 0 -76.1S80.1 166 97.7 125c58.6 5.9 130.8 39.1 218.7 99.6 29.3 -7.8 70.3 -11.7 121.1 -11.7 54.7 0 93.8 3.9 121.1 11.7 39.1 -27.3 76.2 -46.9 113.3 -64.4C709 144.5 736.3 134.8 752 130.9s25.3 -5.9 25.3 -5.9c17.6 41 27.4 85.9 31.3 134.8s0 76.1 0 76.1zM679.7 793c54.7 -25.4 82 -78.2 82 -158.2 0 -46.9 -15.6 -84 -50.8 -115.3 -17.5 -17.5 -39 -25.4 -62.5 -29.3s-60.5 -1.9 -109.3 2S460.9 500 437.5 500s-48.8 -3.9 -82 -5.9 -58.6 -5.8 -76.2 -5.8c-19.5 0 -39.1 -2 -60.5 3.9s-41.1 13.7 -54.7 27.3c-33.2 29.3 -48.9 68.4 -48.9 115.3 0 80 25.4 132.8 80.1 158.2 52.7 25.4 134.8 35.1 240.2 35.1h4c105.4 0 185.5 -9.7 240.2 -35.1z"/></svg>