<svg height="1000" width="877" xmlns="http://www.w3.org/2000/svg"><path d="M505.9 562.5c0 -35.2 27.3 -60.5 62.5 -60.5s62.5 25.3 62.5 60.5S603.5 625 568.4 625s-62.5 -27.3 -62.5 -62.5zm-257.9 0c0 -35.2 27.4 -60.5 62.5 -60.5s62.5 25.3 62.5 60.5S345.7 625 310.5 625 248 597.7 248 562.5zm629 -72.3c0 39.1 -21.5 72.3 -52.8 87.9 2 9.8 2 17.6 2 27.4C826.2 753.9 654.3 875 439.5 875S50.8 755.9 50.8 607.4c0 -9.7 0 -19.5 1.9 -29.3C21.5 562.5 0 529.3 0 490.2c0 -54.7 44.9 -97.6 97.7 -97.6 25.3 0 46.8 9.7 64.4 25.4 64.5 -45 154.3 -76.2 252 -80.1h13.6l56.7 -191.4 167.9 33.2C666 148.4 695.3 125 732.4 125c48.9 0 86 39.1 86 87.9s-37.1 87.9 -86 87.9c-46.9 0 -87.9 -37.1 -87.9 -86L509.8 187.5l-46.9 150.4c97.6 3.9 187.5 35.1 251.9 80.1 17.6 -15.7 41.1 -25.4 66.5 -25.4 52.7 0 95.7 42.9 95.7 97.6zm-144.6 -330c-29.3 0 -52.7 23.4 -52.7 52.7s23.4 52.7 52.7 52.7 52.8 -23.4 52.8 -52.7 -23.5 -52.7 -52.8 -52.7zm-697.2 330c0 21.5 11.7 41.1 27.3 52.8 13.7 -37.1 39.1 -74.2 72.3 -103.5C125 431.6 111.3 427.7 97.7 427.7c-35.2 0 -62.5 27.4 -62.5 62.5zm658.2 277.4C755.9 724.6 791 666 791 605.5v-17.6c-1.9 -11.7 -5.8 -23.4 -9.7 -35.2C769.5 521.5 752 494.1 722.7 468.8c-7.9 -7.9 -19.6 -15.7 -29.3 -23.5C625 398.4 537.1 373 439.5 373S252 398.4 183.6 445.3c-9.8 7.8 -21.5 15.6 -29.3 23.5 -29.3 25.3 -46.9 52.7 -58.6 83.9 -3.9 11.8 -7.8 23.5 -9.8 35.2v17.6c0 60.5 35.2 119.1 97.7 162.1 68.4 46.9 158.2 72.2 255.9 72.2S625 814.5 693.4 767.6zM814.5 543c15.6 -11.7 27.3 -31.3 27.3 -52.8 0 -35.1 -25.4 -62.5 -60.5 -62.5 -13.7 0 -29.3 3.9 -39.1 11.8 33.2 29.3 58.6 66.4 72.3 103.5zm-250 156.2l25.3 23.5c-1.9 1.9 -56.6 58.6 -150.3 58.6S289.1 724.6 287.1 722.7l25.4 -23.5s46.9 46.9 127 46.9c78.1 0 125 -46.9 125 -46.9z"/></svg>