<svg height="1000" width="750" xmlns="http://www.w3.org/2000/svg"><path d="M375 937.5c-11.7 0 -23.4 -3.9 -33.2 -9.8L238.3 865.2c-15.6 -9.7 -7.8 -11.7 -2 -13.6 21.5 -7.8 27.4 -9.8 48.9 -23.5 1.9 -1.9 5.8 -1.9 7.8 0l76.1 44.9c2 2 7.9 2 9.8 0L683.6 693.4c1.9 -2 3.9 -3.9 3.9 -7.9V320.3c0 -3.9 0 -7.8 -3.9 -9.8L378.9 127c-1.9 -2 -5.9 -2 -7.8 0L68.4 310.5c-3.9 2 -5.9 5.9 -5.9 9.8v365.2c0 4 0 5.9 3.9 7.9l78.1 46.8c46.9 23.5 74.3 -1.9 74.3 -29.3V353.5c0 -5.8 3.9 -9.7 9.7 -9.7h43c5.8 0 9.8 3.9 9.8 9.7v357.4c0 64.5 -37.2 101.6 -95.8 101.6 -17.5 0 -33.2 -2 -72.2 -21.5L33.2 744.1C13.7 732.4 0 709 0 685.5v-371C0 291 13.7 267.6 33.2 255.9L341.8 70.3c19.5 -11.7 46.9 -11.7 66.4 0l308.6 185.6c19.5 11.7 33.2 35.1 33.2 58.6v371c0 23.5 -13.7 46.9 -33.2 58.6L408.2 927.7c-9.8 5.9 -21.5 9.8 -33.2 9.8zm95.7 -250C343.8 687.5 306.6 627 306.6 572.3c0 -5.9 2 -9.8 7.9 -9.8h41c3.9 0 9.7 3.9 9.7 7.8 5.9 43 31.3 60.6 105.5 60.6 64.5 0 91.8 -21.5 91.8 -56.7 0 -21.5 -5.9 -35.1 -107.4 -44.9C371.1 521.5 316.4 500 316.4 429.7c0 -64.5 54.7 -101.6 142.6 -101.6 89.8 0 148.4 27.4 154.3 99.6 0 2 -2 3.9 -3.9 5.9s-3.9 3.9 -5.9 3.9h-39c-4 0 -9.8 -3.9 -9.8 -7.8C546.9 396.5 523.4 384.8 459 384.8c-70.3 0 -80.1 23.4 -80.1 42.9 0 23.5 9.8 31.3 105.5 45S625 503.9 625 572.3c0 70.3 -56.6 115.2 -154.3 115.2z"/></svg>