<svg height="1000" width="875" xmlns="http://www.w3.org/2000/svg"><path d="M306.6 500c0 -72.3 58.6 -130.9 130.9 -130.9S568.4 427.7 568.4 500 509.8 630.9 437.5 630.9 306.6 572.3 306.6 500zm562.5 -74.2c3.9 23.4 5.9 48.8 5.9 74.2 0 207 -144.5 380.9 -339.8 425.8 -19.6 3.9 -39.1 7.8 -58.6 9.7 -13.7 2 -25.4 2 -39.1 2 -15.6 0 -33.2 0 -48.8 -2v-1.9L587.9 587.9c15.6 -25.4 25.4 -54.7 25.4 -87.9 0 -52.7 -25.4 -97.7 -62.5 -130.9h304.7c5.8 17.6 9.7 37.2 13.6 56.7 -3.9 -19.5 -7.8 -39.1 -13.6 -56.7 5.8 17.6 9.7 37.2 13.6 56.7zm-431.6 248c19.5 0 39.1 -3.9 56.6 -9.7L341.8 927.7C259.8 910.2 187.5 869.1 130.9 812.5 48.8 732.4 0 623 0 500 0 439.5 11.7 380.9 35.2 328.1c13.6 -31.2 31.2 -60.5 50.7 -87.9l201.2 347.7c31.3 52.7 84 85.9 150.4 85.9zM115.2 205.1v-2C162.1 152.3 222.7 111.3 291 87.9 335.9 72.3 386.7 62.5 437.5 62.5c142.6 0 269.5 70.3 349.6 175.8h2c19.5 27.3 35.1 56.6 48.8 85.9 -13.7 -29.3 -29.3 -58.6 -48.8 -85.9h-2c19.5 27.3 37.1 56.6 50.8 85.9H437.5c-85.9 0 -154.3 62.5 -169.9 140.6z"/></svg>