<svg height="1000" width="750" xmlns="http://www.w3.org/2000/svg"><path d="M707 773.4c13.7 7.9 43 19.6 43 39.1s-31.2 31.3 -82 58.6 -64.5 66.4 -119.2 66.4 -54.7 -35.2 -76.1 -41 -64.5 -3.9 -89.9 -3.9 -68.3 -3.9 -82 7.8c-21.5 17.6 -44.9 37.1 -74.2 37.1S175.8 919.9 117.2 906.3 0 892.6 0 861.3s21.5 -33.2 13.7 -60.5S0 752 5.9 742.2s19.5 -7.8 37.1 -9.8 37.1 -3.9 42.9 -21.5c2 -9.7 -3.9 -33.2 9.8 -48.8 -7.8 -31.2 -3.9 -52.7 19.5 -85.9 33.2 -44.9 29.3 -74.2 46.9 -103.5s60.6 -70.4 70.3 -87.9C250 353.5 250 341.8 248 277.3c0 0 -3.9 -42.9 -3.9 -99.6C244.1 125 277.3 62.5 375 62.5S507.8 123 511.7 197.3c7.8 117.2 0 132.8 50.8 195.3 29.3 35.1 72.3 84 87.9 132.8s25.4 109.4 23.4 128.9c-1.9 11.7 -1.9 17.6 -5.8 21.5 5.8 1.9 11.7 3.9 15.6 9.7 5.9 7.9 3.9 21.5 0 50.8 -2 15.7 9.8 29.3 23.4 37.1zM265.6 882.8c2 -25.4 -7.8 -43 -33.2 -85.9s-54.7 -103.5 -82 -117.2 -41 -9.8 -43 0 -3.9 39.1 -5.8 44.9C95.7 736.3 80.1 746.1 70.3 748s-37.1 -1.9 -43 7.9 7.9 31.2 7.9 46.8c0 41.1 -27.4 62.5 1.9 68.4 27.4 3.9 66.4 11.7 95.7 19.5s60.6 21.5 86 23.5c23.4 1.9 44.9 -5.9 46.8 -31.3zM496.1 753.9c-3.9 -19.5 -9.8 -54.7 1.9 -68.4 7.9 -9.7 19.6 -11.7 33.3 -9.7 0 -7.8 0 -15.6 5.8 -23.5s21.5 -13.6 37.1 -13.6c31.3 0 46.9 21.5 39.1 9.7 -5.9 -7.8 -15.6 -19.5 -25.4 -21.4 0 0 7.8 -21.5 3.9 -64.5C584 484.4 525.4 441.4 525.4 441.4c52.7 58.6 52.7 113.3 52.7 140.6 0 11.8 -1.9 31.3 -7.8 43 0 0 -11.7 2 -23.4 5.9 -21.5 7.8 -15.6 5.8 -13.7 -13.7 5.9 -56.7 -13.7 -125 -33.2 -150.4s-13.7 -37.1 -29.3 -68.4S435.5 363.3 441.4 332s9.8 -42.9 -15.6 -48.8 -44.9 -15.6 -46.9 -25.4c0 -3.9 -1.9 -9.8 0 -19.5s9.8 -25.4 27.4 -25.4c15.6 0 27.3 9.8 27.3 25.4s-7.8 25.4 -9.8 27.3c-3.9 3.9 5.9 5.9 13.7 5.9 5.9 -7.8 11.7 -19.5 11.7 -43 0 -29.3 -19.5 -48.8 -42.9 -48.8s-56.7 21.5 -43 80.1C347.7 248 334 250 322.3 253.9c0 0 3.9 -29.3 -3.9 -44.9 -7.9 -17.6 -35.2 -31.3 -46.9 -7.8s-5.9 48.8 0 60.5 7.8 11.7 7.8 11.7c3.9 -1.9 9.8 -7.8 9.8 -7.8s-11.8 -5.8 -13.7 -21.5c-2 -17.5 5.9 -27.3 13.7 -29.3s19.5 4 23.4 15.7 0 25.4 0 25.4 -15.6 15.6 -23.4 21.4 -23.5 13.7 -23.5 21.5 11.7 21.5 29.3 33.2c21.5 13.7 37.1 13.7 86 -5.8 37.1 -13.7 31.2 -21.5 42.9 -25.4 7.8 -2 13.7 5.8 9.8 11.7s-11.7 3.9 -43 17.6 -41 15.6 -56.6 21.5c-11.7 3.9 -21.5 9.7 -50.8 -17.6 -1.9 -2 19.5 31.2 33.2 37.1s68.4 -21.5 99.6 -35.2c5.9 -1.9 13.7 3.9 5.9 11.8s-56.7 48.8 -93.8 54.6c-21.5 4 -41 -31.2 -48.8 -42.9 -9.8 -15.6 -13.7 -21.5 -9.8 23.4s-17.5 62.5 -33.2 84 -25.4 33.2 -37.1 85.9 3.9 109.4 -15.6 103.6c-11.7 -4 -27.3 -23.5 -27.3 -48.9s-2 -33.2 0 -39c1.9 -7.9 -7.9 15.6 -7.9 41s3.9 33.2 13.7 44.9c5.9 7.8 85.9 62.5 107.4 82s23.5 41 17.6 54.7 -21.5 19.5 -21.5 19.5 9.8 17.6 17.6 35.2c5.9 13.7 3.9 35.2 3.9 43 0 0 19.5 -17.6 9.8 -48.9 0 0 21.5 19.6 62.5 15.7 48.8 -3.9 80.1 -21.5 103.5 -43 21.5 -19.5 23.4 -23.4 23.4 -3.9 2 33.2 -13.6 46.9 -9.7 60.5 7.8 -15.6 17.5 -21.4 21.4 -44.9s2 -50.8 -1.9 -70.3zm175.8 91.8c46.9 -21.5 60.5 -31.2 44.9 -43 -33.2 -21.4 -56.6 -31.2 -56.6 -62.5 0 -9.7 9.7 -29.3 5.8 -41 -3.9 -7.8 -13.7 -7.8 -13.7 -7.8 -19.5 46.9 -64.4 43 -64.4 43 -39.1 0 -50.8 -29.3 -52.7 -39.1 -3.9 0 -19.6 -3.9 -21.5 7.8s1.9 25.4 9.7 72.3c11.8 60.5 -21.4 95.7 -9.7 115.2s37.1 31.3 66.4 15.7 44.9 -41.1 91.8 -60.6z"/></svg>