<svg height="1000" width="750" xmlns="http://www.w3.org/2000/svg"><path d="M375 125c207 0 375 168 375 375S582 875 375 875 0 707 0 500 168 125 375 125zm238.3 171.9c-33.2 48.8 -91.8 91.8 -166 125 9.7 19.5 17.5 39 25.4 60.5 64.4 -5.8 146.4 -7.8 214.8 -3.9C683.6 410.2 656.3 345.7 613.3 296.9zM375 187.5c-27.3 0 -50.8 3.9 -76.2 9.8 45 44.9 84 103.5 121.1 169.9C486.3 339.8 541 302.7 574.2 259.8c-54.7 -45 -123 -72.3 -199.2 -72.3zm-140.6 35.2C154.3 263.7 95.7 335.9 72.3 423.8h48.8c85.9 0 166 -11.7 236.3 -33.2 -37.1 -66.4 -78.1 -123 -123 -167.9zM62.5 484.4V500c0 78.1 29.3 152.3 78.1 207C187.5 619.1 271.5 544.9 378.9 500c7.8 -3.9 15.6 -5.9 27.4 -7.8 -5.9 -15.6 -11.8 -31.3 -19.6 -46.9 -78.1 25.4 -171.9 39.1 -269.5 41 -17.6 0 -37.1 -1.9 -54.7 -1.9zM375 812.5c39.1 0 76.2 -5.9 111.3 -19.5C480.5 744.1 470.7 689.5 457 638.7 449.2 605.5 437.5 574.2 425.8 543c-13.7 3.9 -25.4 7.8 -33.2 11.7 -93.8 43 -168 109.4 -209 191.4 52.7 41 119.1 66.4 191.4 66.4zm168 -50.8C621.1 710.9 675.8 630.9 685.5 535.2c-58.5 -3.9 -132.8 -5.9 -193.3 0 7.8 23.4 17.6 48.8 23.4 74.2 13.7 52.7 21.5 101.5 27.4 152.3z"/></svg>