<svg height="1000" width="875" xmlns="http://www.w3.org/2000/svg"><path d="M408.2 593.8c2 1.9 5.9 5.8 5.9 7.8v103.5S293 625 232.4 584l76.2 -50.8c3.9 -1.9 5.9 -1.9 9.8 0 29.3 19.5 60.5 41 89.8 60.6zM318.4 470.7c-2 2 -5.9 2 -7.9 0 -25.3 -17.6 -50.7 -33.2 -78.1 -50.8C293 378.9 414.1 298.8 414.1 298.8v99.6c0 3.9 -3.9 9.8 -5.9 11.8 -29.3 19.5 -60.5 41 -89.8 60.5zm146.4 -62.5c-1.9 -1.9 -3.9 -3.9 -3.9 -5.9V296.9l181.7 123 -78.1 50.8c-2 2 -5.9 2 -7.9 0 -31.2 -21.5 -60.5 -41 -91.8 -62.5zm-23.4 41c11.7 7.8 78.1 52.8 78.1 52.8l-76.1 50.7c-3.9 2 -7.9 2 -11.8 0L355.5 502s33.2 -21.5 48.8 -33.2c9.8 -5.9 17.6 -11.8 27.3 -17.6 2 -2 7.9 -3.9 9.8 -2zm-228.5 13.7l58.6 39.1 -58.6 39v-78.1zM437.5 62.5C679.7 62.5 875 257.8 875 500S679.7 937.5 437.5 937.5 0 742.2 0 500 195.3 62.5 437.5 62.5zM709 580.1V421.9c0 -11.7 -3.9 -17.6 -13.7 -23.5C615.2 345.7 533.2 291 453.1 238.3c-11.7 -7.8 -21.5 -7.8 -33.2 0C339.8 291 261.7 343.8 181.6 396.5c-9.7 5.8 -15.6 15.6 -15.6 27.3v156.3c0 11.7 5.9 19.5 15.6 25.4 80.1 52.7 158.2 107.4 238.3 160.1 11.7 7.8 21.5 7.8 33.2 0C533.2 712.9 613.3 658.2 693.4 605.5c9.7 -5.9 15.6 -13.7 15.6 -25.4zM554.7 533.2c3.9 -3.9 9.8 -3.9 13.7 0l74.2 50.8L460.9 705.1v-99.6c0 -5.9 2 -7.8 5.9 -11.7 29.3 -19.6 58.6 -41.1 87.9 -60.6zm105.5 7.8l-58.6 -39 58.6 -39.1V541z"/></svg>