<svg height="1000" width="875" xmlns="http://www.w3.org/2000/svg"><path d="M445.3 62.5C681.6 62.5 875 252 875 488.3S681.6 914.1 445.3 914.1c-76.2 0 -144.5 -19.6 -207 -52.8L0 937.5 78.1 709C39.1 644.5 15.6 568.4 15.6 488.3 15.6 252 209 62.5 445.3 62.5zm212.9 587.9C668 625 669.9 603.5 668 599.6s-9.8 -7.8 -21.5 -13.7 -62.5 -35.1 -72.3 -39 -17.6 -3.9 -25.4 5.8 -31.2 33.2 -37.1 41.1 -11.7 7.8 -23.4 1.9 -44.9 -19.5 -86 -58.6c-31.2 -29.3 -52.7 -64.4 -58.5 -76.2s0 -17.5 5.8 -23.4c5.9 -3.9 11.7 -11.7 17.6 -17.6s7.8 -9.7 11.7 -17.6 2 -13.6 0 -19.5 -23.4 -60.5 -31.2 -82 -19.6 -21.5 -25.4 -21.5h-19.6s-19.5 3.9 -29.3 13.7 -41 37.1 -42.9 89.8 35.1 105.5 41 113.3 72.3 125 181.6 171.9 111.4 33.2 130.9 31.2 64.4 -23.4 74.2 -48.8z"/></svg>