<svg height="1000" width="750" xmlns="http://www.w3.org/2000/svg"><path d="M218.8 500c0 -85.9 70.3 -156.2 156.2 -156.2S531.3 414.1 531.3 500 460.9 656.3 375 656.3 218.8 585.9 218.8 500zm1.9 -154.3c-25.4 25.4 -44.9 56.6 -54.7 91.8H0V218.8C0 166 43 125 95.7 125h562.5c52.7 0 91.8 41 91.8 93.8v218.7H585.9c-9.7 -35.2 -29.3 -66.4 -54.6 -91.8C490.2 304.7 433.6 281.3 375 281.3s-113.3 23.4 -154.3 64.4zm466.8 -56.6v-76.2c0 -13.7 -11.7 -25.4 -25.4 -25.4h-74.2c-13.7 0 -25.4 11.7 -25.4 25.4v76.2c0 13.6 11.7 23.4 25.4 23.4h74.2c13.7 0 25.4 -9.8 25.4 -23.4zM531.3 654.3c41 -41 62.5 -97.7 62.5 -154.3H750v281.3C750 834 710.9 875 658.2 875H95.7C43 875 0 834 0 781.3V500h158.2c0 56.6 21.5 113.3 62.5 154.3s95.7 64.5 154.3 64.5 115.2 -23.5 156.3 -64.5z"/></svg>