<svg height="1000" width="875" xmlns="http://www.w3.org/2000/svg"><path d="M185.5 484.4C89.8 625 87.9 755.9 87.9 763.7 33.2 689.5 0 599.6 0 500 0 369.1 58.6 250 150.4 169.9l5.9 2c99.6 35.1 181.6 132.8 181.6 132.8s-74.2 64.4 -152.4 179.7zM875 500c0 99.6 -33.2 189.5 -87.9 263.7 0 -7.8 -1.9 -138.7 -97.6 -279.3C611.3 369.1 537.1 304.7 537.1 304.7s82 -97.7 181.7 -132.8l5.8 -2C816.4 250 875 369.1 875 500zM330.1 158.2C257.8 125 203.1 134.8 189.5 138.7c70.3 -48.9 156.2 -76.2 248 -76.2s177.7 27.3 248 76.2C671.9 134.8 617.2 127 544.9 158.2c-56.6 25.4 -107.4 68.4 -107.4 68.4s-50.8 -43 -107.4 -68.4zm308.6 414.1c78.1 95.7 105.4 166 121.1 210.9l3.9 9.8C683.6 882.8 566.4 937.5 437.5 937.5S191.4 882.8 111.3 793l2 -9.8c15.6 -44.9 44.9 -115.2 123 -210.9C326.2 460.9 437.5 388.7 437.5 388.7s111.3 72.2 201.2 183.6z"/></svg>