<svg height="1000" width="921.9" xmlns="http://www.w3.org/2000/svg"><path d="M921.9 214.8c-25.4 39.1 -56.7 70.4 -93.8 97.7v23.4c0 250 -191.4 539.1 -539 539.1C181.6 875 84 843.8 0 789.1c15.6 1.9 29.3 3.9 44.9 3.9 87.9 0 169.9 -31.3 234.4 -82.1C197.3 709 127 654.3 103.5 580.1c11.7 1.9 23.5 3.9 35.2 3.9 17.6 0 35.1 -3.9 50.8 -7.8C103.5 558.6 37.1 482.4 37.1 390.6v-1.9c25.4 13.6 54.7 23.4 85.9 23.4C72.3 378.9 39.1 320.3 39.1 253.9c0 -35.1 9.7 -66.4 25.4 -93.7 93.7 115.2 232.4 189.4 388.6 197.2 -3.9 -13.6 -3.9 -27.3 -3.9 -42.9C449.2 209 533.2 125 638.7 125c54.7 0 101.5 23.4 136.7 60.5 43 -7.8 84 -25.3 121.1 -46.8 -13.7 44.9 -44.9 82 -84 105.4 39.1 -3.9 76.2 -13.6 109.4 -29.3z"/></svg>