<svg height="1000" width="625" xmlns="http://www.w3.org/2000/svg"><path d="M615.2 591.8c5.9 19.5 9.8 37.1 9.8 56.6 0 41.1 -9.8 74.3 -27.3 103.6s-39.1 50.7 -68.4 68.3 -60.5 33.2 -97.7 41c-19.5 3.9 -37.1 5.9 -56.6 7.8v68.4H250v-68.4c-17.6 -1.9 -37.1 -7.8 -54.7 -11.7C156.3 847.7 125 834 95.7 812.5S44.9 765.6 27.3 732.4C11.7 701.2 2 666 0 625h134.8c0 23.4 3.9 46.9 13.6 64.5 9.8 19.5 23.5 33.2 41.1 44.9s39 21.5 60.5 27.3V527.3c-15.6 -3.9 -35.2 -7.8 -52.7 -11.7C164.1 507.8 138.7 498 117.2 484.4S78.1 455.1 64.5 439.5 43 406.3 37.1 388.7 29.3 353.5 29.3 334c0 -35.2 7.8 -66.4 23.4 -93.8s37.1 -48.8 64.5 -66.4 56.6 -31.2 89.8 -39c13.7 -3.9 29.3 -5.9 43 -7.8V62.5h125V127c17.6 1.9 31.3 7.8 46.9 11.7 35.1 9.7 66.4 23.4 93.7 42.9s48.9 43 64.5 72.3c13.7 25.4 21.5 54.7 23.4 89.9H468.8C462.9 302.7 445.3 271.5 418 253.9c-13.7 -7.8 -25.4 -15.6 -43 -19.5v207c17.6 3.9 31.3 7.8 48.8 11.7 23.5 5.9 43 11.7 52.8 13.7 25.4 7.8 44.9 17.6 64.4 29.3 19.5 13.7 35.2 27.3 46.9 43s21.5 33.2 27.3 52.7zM250 410.2V230.5c-13.7 3.9 -29.3 7.8 -41 13.6 -13.7 7.9 -23.5 17.6 -33.2 29.3s-13.7 27.4 -13.7 45c0 25.4 7.8 46.8 25.4 60.5 15.6 13.7 39.1 23.4 62.5 31.3zm232.4 291c5.9 -13.7 7.8 -25.4 7.8 -39.1 0 -27.3 -5.8 -46.9 -19.5 -60.5s-29.3 -21.5 -44.9 -27.4S394.5 564.5 375 558.6v209c11.7 -2 19.5 -3.9 27.3 -5.9 21.5 -5.8 39.1 -15.6 52.8 -25.4s21.5 -21.5 27.3 -35.1z"/></svg>