<svg height="1000" width="1000" xmlns="http://www.w3.org/2000/svg"><path d="M937.5 406.3c0 39 -31.2 72.2 -72.3 72.2 -39 0 -72.2 -31.2 -72.2 -72.2 0 -39.1 31.2 -72.3 72.2 -72.3 39.1 0 72.3 33.2 72.3 72.3zM865.2 271.5c74.3 0 134.8 60.5 134.8 134.8S939.5 543 865.2 543l-130.8 93.7c-3.9 50.8 -46.9 91.8 -99.6 91.8 -48.9 0 -89.9 -35.1 -99.6 -80.1L152.3 496.1c-15.6 9.8 -31.2 13.7 -50.7 13.7C46.9 509.8 0 462.9 0 408.2S46.9 306.6 101.6 306.6c48.8 0 87.9 35.2 97.6 80.1L582 541c15.7 -9.7 33.2 -15.6 52.8 -15.6 3.9 0 5.8 1.9 9.7 1.9l84 -121C728.5 332 791 271.5 865.2 271.5zm0 44.9c-50.7 0 -91.8 39.1 -91.8 89.9s41.1 91.7 91.8 91.7 89.9 -41 89.9 -91.7S916 316.4 865.2 316.4zM101.6 334c-41.1 0 -74.3 33.2 -74.3 74.2s33.2 74.2 74.3 74.2c5.8 0 9.7 0 15.6 -1.9L85.9 468.8C56.6 455.1 43 421.9 54.7 392.6s46.9 -44.9 76.2 -33.2L168 373c-11.7 -23.4 -37.1 -39 -66.4 -39zm533.2 218.7c-5.9 0 -11.8 2 -17.6 2l31.2 11.7c31.3 11.7 45 46.9 33.2 78.1s-44.9 45 -76.1 33.2C593.8 671.9 580.1 666 568.4 662.1c11.7 23.4 37.1 39.1 66.4 39.1 41 0 74.2 -33.2 74.2 -74.2s-33.2 -74.3 -74.2 -74.3z"/></svg>