<svg height="1000" width="750" xmlns="http://www.w3.org/2000/svg"><path d="M728.5 580.1c13.7 27.3 21.5 56.6 21.5 89.8C750 783.2 658.2 875 543 875c-35.2 0 -68.4 -7.8 -97.7 -23.4 -21.5 3.9 -43 5.8 -66.4 5.8C181.6 857.4 21.5 699.2 21.5 503.9c0 -23.4 3.9 -46.9 7.8 -70.3C11.7 402.3 0 367.2 0 330.1 0 216.8 91.8 125 207 125c41 0 80.1 11.7 111.4 31.3 19.5 -4 39 -4 60.5 -4 197.3 0 357.4 156.3 357.4 351.6 0 25.4 -1.9 52.7 -7.8 76.2zm-166 91.8c17.6 -23.5 23.4 -48.9 23.4 -78.1 0 -23.5 -3.9 -45 -13.6 -62.5s-23.5 -31.3 -41 -43 -37.2 -19.5 -60.6 -27.4 -50.8 -13.6 -80.1 -19.5c-23.4 -5.9 -39 -9.8 -48.8 -11.7S322.3 421.9 312.5 418 298.8 408.2 293 402.3c-3.9 -5.8 -7.8 -11.7 -7.8 -19.5 0 -13.7 5.8 -25.4 21.4 -35.1S343.8 334 369.1 334c27.4 0 48.9 3.9 60.6 13.7s21.5 23.4 31.2 39c7.9 13.7 15.7 21.5 21.5 27.4 7.8 5.8 17.6 9.7 31.3 9.7 15.6 0 25.4 -5.8 35.1 -15.6s15.7 -21.5 15.7 -33.2c0 -13.7 -4 -27.3 -11.8 -41s-19.5 -27.4 -35.1 -39.1S482.4 273.4 459 265.6s-52.7 -9.7 -84 -9.7c-39.1 0 -74.2 3.9 -103.5 15.6 -31.3 11.7 -54.7 29.3 -70.3 48.8 -15.7 21.5 -23.5 43 -23.5 70.3s5.9 50.8 21.5 70.3 37.1 33.2 62.5 45c25.4 9.7 56.7 19.5 93.8 27.3 27.3 5.9 50.8 9.8 66.4 15.6 15.6 3.9 27.3 11.7 37.1 21.5 9.8 7.8 13.7 19.5 13.7 33.2 0 17.6 -7.9 33.2 -25.4 44.9S404.3 666 375 666c-21.5 0 -39.1 -3.9 -52.7 -9.7S300.8 644.5 293 634.8s-15.7 -23.5 -21.5 -37.1S259.8 576.2 252 568.4s-19.6 -11.8 -31.3 -11.8c-15.6 0 -27.3 3.9 -37.1 13.7S168 589.8 168 603.5c0 21.5 7.8 43 23.4 64.5s35.2 37.1 58.6 50.8c33.2 17.5 76.2 27.3 127 27.3 42.9 0 82 -5.9 113.2 -19.5s56.7 -31.3 72.3 -54.7z"/></svg>