<svg height="1000" width="937.5" xmlns="http://www.w3.org/2000/svg"><path d="M937.5 703.1c0 3.9 0 21.5 -11.7 41 -9.8 15.7 -31.3 37.2 -74.2 46.9 -11.8 2 -21.5 5.9 -29.3 7.8 -3.9 2 -9.8 2 -13.7 2v1.9c-2 13.7 -2 25.4 -7.8 35.2 -3.9 9.8 -17.6 23.4 -43 23.4 -3.9 0 -11.7 0 -17.6 -1.9 -3.9 0 -5.8 -2 -9.7 -2 -13.7 -1.9 -29.3 -3.9 -45 -3.9 -19.5 0 -37.1 3.9 -50.7 11.7 -7.8 5.9 -17.6 13.7 -27.4 19.6 -35.1 25.4 -74.2 52.7 -138.6 52.7S365.2 910.2 330.1 884.8c-9.8 -5.9 -17.6 -13.7 -27.4 -19.6 -13.6 -7.8 -29.3 -11.7 -48.8 -11.7 -15.6 0 -33.2 2 -46.9 3.9 -3.9 0 -5.8 2 -9.7 2 -5.9 1.9 -13.7 1.9 -17.6 1.9 -25.4 0 -39.1 -13.6 -43 -23.4 -5.8 -9.8 -5.8 -21.5 -7.8 -35.2v-1.9c-3.9 0 -7.8 0 -11.7 -2C109.4 796.9 97.7 793 85.9 791 43 781.3 21.5 759.8 11.7 744.1 0 724.6 0 709 0 705.1v-29.3l29.3 -2c31.2 -1.9 85.9 -13.6 105.5 -33.2 56.6 -52.7 70.3 -84 70.3 -101.5 0 -2 0 -3.9 -7.8 -9.8 -9.8 -5.9 -25.4 -11.7 -39.1 -15.6 -9.8 -3.9 -19.5 -5.9 -27.3 -9.8C113.3 496.1 95.7 472.7 97.7 447.3 99.6 418 125 394.5 156.3 394.5c7.8 0 15.6 0 23.4 3.9 15.6 5.9 25.4 7.9 33.2 9.8 -2 -17.6 -3.9 -37.1 -5.9 -58.6 -9.7 -74.2 9.8 -144.5 56.7 -199.2 48.8 -56.6 125 -87.9 205.1 -87.9 80 0 156.2 31.3 205 87.9 46.9 54.7 66.4 123 56.7 197.3 -2 21.4 -3.9 42.9 -5.9 60.5 7.8 -1.9 19.5 -3.9 35.2 -9.8 7.8 -1.9 15.6 -3.9 23.4 -3.9 31.3 0 56.6 23.5 58.6 52.8 2 25.4 -17.6 48.8 -35.2 56.6 -7.8 3.9 -17.5 5.9 -27.3 9.8 -13.7 3.9 -27.3 9.7 -37.1 15.6 -7.8 5.9 -9.8 7.8 -9.8 9.8 0 31.2 39.1 72.2 70.3 101.5 21.5 19.6 76.2 31.3 105.5 33.2l29.3 2v27.3zM375 250c-17.6 0 -31.2 21.5 -31.2 46.9s13.6 46.9 31.2 46.9 31.3 -21.5 31.3 -46.9S392.6 250 375 250zm203.1 152.3c5.9 -5.8 5.9 -17.5 0 -23.4s-17.6 -5.9 -23.4 0C531.3 402.3 500 416 468.8 416c-33.3 0 -62.5 -13.7 -86 -37.1 -5.8 -5.9 -17.6 -5.9 -23.4 0s-5.9 17.6 0 23.4c29.3 29.3 68.3 45 109.4 45s80 -15.7 109.3 -45zm-15.6 -58.5c17.6 0 31.3 -21.5 31.3 -46.9S580.1 250 562.5 250s-31.2 21.5 -31.2 46.9 13.6 46.9 31.2 46.9z"/></svg>