<svg height="1000" width="812.5" xmlns="http://www.w3.org/2000/svg"><path d="M425.8 414.1c3.9 0 7.8 1.9 11.7 1.9s9.8 2 13.7 2l-13.7 128.9c-5.9 15.6 -13.7 25.4 -21.5 31.2s-15.6 9.8 -27.3 9.8S369.1 582 363.3 570.3s-7.8 -29.3 -5.9 -52.7c3.9 -35.2 9.8 -58.6 21.5 -76.2s27.4 -27.3 46.9 -27.3zM406.3 93.8c224.6 0 406.2 181.6 406.2 406.2S630.9 906.3 406.3 906.3 0 724.6 0 500 181.6 93.8 406.3 93.8zm250 394.5c3.9 -78.1 -15.7 -140.6 -56.7 -185.6S500 234.4 421.9 234.4s-142.6 25.4 -189.5 72.2S160.2 418 156.3 500s17.5 148.4 60.5 195.3 103.5 70.3 183.6 70.3c19.5 0 41 -1.9 60.5 -5.8S498 748 511.7 740.2L500 693.4c-13.7 5.8 -29.3 9.7 -46.9 13.6s-35.1 3.9 -50.8 3.9c-60.5 0 -107.4 -19.5 -138.6 -56.6S216.8 564.5 220.7 500c3.9 -66.4 23.4 -119.1 58.6 -158.2s82 -58.6 140.6 -58.6c60.6 0 107.4 19.5 136.7 54.7s43 85.9 39.1 150.4c-1.9 31.2 -7.8 58.6 -21.5 78.1s-31.2 29.3 -52.7 29.3c-5.9 0 -9.8 -3.9 -13.7 -9.8s-3.9 -19.5 -3.9 -35.1l15.6 -162.1h-1.9 1.9C502 378.9 484.4 371.1 470.7 367.2s-33.2 -7.8 -56.6 -7.8c-33.2 0 -64.5 13.6 -87.9 42.9s-37.1 68.4 -43 115.3c-3.9 37.1 2 66.4 17.6 89.8s37.1 33.2 66.4 33.2c15.6 0 33.2 -3.9 44.9 -11.7s21.5 -19.5 29.3 -35.1c3.9 15.6 13.7 27.3 25.4 35.1s25.4 13.7 41 13.7c48.8 0 86 -13.7 109.4 -44.9s37.1 -68.4 39.1 -109.4z"/></svg>