<svg height="1000" width="875" xmlns="http://www.w3.org/2000/svg"><path d="M0 500C27.3 431.6 70.3 371.1 125 322.3v355.4C70.3 628.9 27.3 568.4 0 500zm875 0c-27.3 68.4 -70.3 128.9 -125 177.7V322.3c54.7 48.8 97.7 109.3 125 177.7zM437.5 205.1c91.8 0 177.7 27.3 250 72.2V722.7c-72.3 44.9 -158.2 72.2 -250 72.2s-177.7 -27.3 -250 -72.2V277.3c72.3 -44.9 158.2 -72.2 250 -72.2zM625 468.8v-62.5h-62.5v62.5h-93.7v-62.5h-62.5v62.5h-93.8v-62.5H250v187.5h62.5v-62.5h93.8v62.5h62.5v-62.5h93.7v62.5H625v-125z"/></svg>