<svg height="1000" width="875" xmlns="http://www.w3.org/2000/svg"><path d="M677.7 347.7c7.8 1.9 17.6 3.9 25.4 3.9 21.5 0 43 -7.8 58.6 -19.6L875 408.2v414.1c0 46.8 -37.1 84 -84 84H84c-46.9 0 -84 -37.2 -84 -84V710.9L119.1 599.6c13.7 7.8 29.3 11.7 46.9 11.7 25.4 0 46.9 -9.7 64.5 -25.4l113.3 64.5c0 5.9 -2 11.7 -2 17.6 0 50.8 43 93.7 93.7 93.7s93.8 -42.9 93.8 -93.7c0 -23.5 -7.8 -43 -21.5 -58.6zM166 423.8c-50.8 0 -93.7 43 -93.7 93.8 0 11.7 1.9 23.4 5.8 33.2L0 625V177.7C0 130.9 37.1 93.8 84 93.8h707c46.9 0 84 37.1 84 83.9V334l-80.1 -54.7c2 -7.8 2 -13.7 2 -21.5 0 -50.8 -43 -93.7 -93.8 -93.7s-93.7 42.9 -93.7 93.7c0 19.5 5.8 39.1 17.6 54.7L457 576.2c-5.8 -2 -13.6 -2 -21.5 -2 -23.4 0 -42.9 7.8 -58.5 21.5L259.8 529.3v-11.7c0 -50.8 -43 -93.8 -93.8 -93.8z"/></svg>