<svg height="1000" width="875" xmlns="http://www.w3.org/2000/svg"><path d="M437.5 62.5C679.7 62.5 875 257.8 875 500S679.7 937.5 437.5 937.5 0 742.2 0 500 195.3 62.5 437.5 62.5zm265.6 703.1C773.4 695.3 812.5 599.6 812.5 500S773.4 304.7 703.1 234.4 537.1 125 437.5 125 242.2 164.1 171.9 234.4 62.5 400.4 62.5 500s39.1 195.3 109.4 265.6S337.9 875 437.5 875 632.8 835.9 703.1 765.6zM328.1 207l109.4 168H150.4C183.6 296.9 248 236.3 328.1 207zm416 355.5H544.9l140.6 -252C726.6 363.3 750 427.7 750 500c0 21.5 -2 43 -5.9 62.5zM640.6 261.7l-95.7 175.8L392.6 191.4c15.6 -1.9 29.3 -3.9 44.9 -3.9 78.1 0 148.4 27.3 203.1 74.2zM130.9 437.5h199.2l-140.6 252C148.4 636.7 125 572.3 125 500c0 -21.5 2 -43 5.9 -62.5zm416 355.5L437.5 625h287.1C691.4 703.1 627 763.7 546.9 793zM234.4 738.3l95.7 -175.8 152.3 246.1c-15.6 1.9 -29.3 3.9 -44.9 3.9 -78.1 0 -148.4 -27.3 -203.1 -74.2z"/></svg>