<svg height="1000" width="750" xmlns="http://www.w3.org/2000/svg"><path d="M750 312.5v93.8h-97.7c2 15.6 4 31.2 4 46.8V500H750v93.8h-93.7v46.8c0 15.7 -2 31.3 -4 46.9H750v93.8H619.1C570.3 865.2 478.5 921.9 375 921.9S179.7 865.2 130.9 781.3H0v-93.8h97.7c-2 -15.6 -3.9 -31.2 -3.9 -46.9v-46.8H0V500h93.8v-46.9c0 -15.6 1.9 -31.2 3.9 -46.8H0v-93.8h132.8c21.5 -37.1 48.8 -68.4 84 -91.8l-76.2 -76.2L207 78.1l101.6 101.6c21.5 -5.9 43 -7.8 66.4 -7.8s44.9 1.9 66.4 7.8L543 78.1l66.4 66.4 -76.2 76.2c35.2 23.4 64.5 54.7 85.9 91.8H750z"/></svg>