<svg height="1000" width="875" xmlns="http://www.w3.org/2000/svg"><path d="M101.6 806.6L2 535.2C-2 523.4 0 511.7 3.9 502s15.6 -15.7 25.4 -19.6L103.5 457V265.6c0 -44.9 39.1 -84 84 -84h125L343.8 78.1h187.5l31.2 103.5h125c44.9 0 84 39.1 84 84V457l74.2 25.4c9.8 3.9 21.5 9.8 25.4 19.6s5.9 23.4 1.9 33.2l-99.6 271.4h-1.9c-66.4 0 -127 -39 -168 -83.9 -41 44.9 -99.6 83.9 -166 83.9s-125 -37.1 -166 -82c-41 44.9 -101.6 82 -168 82h-1.9zm85.9 -541v164.1l250 -80.1 250 80.1V265.6h-500zm416 531.3s115.3 125 209 125h-41c-58.6 0 -115.2 -23.5 -168 -50.8 -103.5 54.7 -228.5 54.7 -332 0 -52.7 27.3 -109.4 50.8 -168 50.8h-41c95.7 0 209 -125 209 -125 101.5 70.3 230.5 70.3 332 0z"/></svg>