<svg height="1000" width="812.5" xmlns="http://www.w3.org/2000/svg"><path d="M621.1 787.1c9.8 11.7 19.5 23.4 31.2 35.2 -68.3 52.7 -152.3 84 -246 84S228.5 875 160.2 822.3c11.7 -11.8 21.4 -23.5 31.2 -35.2l44.9 25.4 31.3 -54.7 -39.1 -23.4c9.8 -17.6 19.5 -33.2 27.4 -50.8 1.9 -5.9 5.8 -13.7 7.8 -19.5l48.8 11.7 13.7 -62.5 -44.9 -9.8c5.8 -23.4 9.7 -46.9 11.7 -72.2h46.8v-62.5H293c-2 -23.5 -5.9 -48.9 -11.7 -72.3l44.9 -9.8 -13.7 -62.5 -48.8 11.7c-2 -5.8 -5.9 -11.7 -7.8 -17.5C248 300.8 238.3 281.3 228.5 265.6l39.1 -23.4 -31.3 -54.7 -44.9 27.3c-9.8 -11.7 -19.5 -25.3 -31.2 -37.1C228.5 125 312.5 93.8 406.3 93.8s177.7 31.2 246 83.9c-11.7 11.8 -21.4 25.4 -31.2 37.1l-44.9 -27.3 -31.3 54.7 39.1 23.4c-9.8 15.7 -19.5 35.2 -27.4 52.8 -1.9 5.8 -5.8 11.7 -7.8 17.5L500 324.2l-13.7 62.5 45 9.8c-5.9 23.4 -9.8 48.8 -11.8 72.3h-46.8v62.5h46.8c2 25.3 5.9 48.8 11.8 72.2l-45 9.8 13.7 62.5 48.8 -11.7c2 5.8 5.9 13.6 7.8 19.5 7.9 17.6 17.6 35.2 27.4 50.8l-39.1 23.4 31.3 54.7zm54.7 -541c5.8 -7.8 11.7 -13.7 19.5 -21.5l3.9 -3.9C769.5 293 812.5 392.6 812.5 500s-43 207 -113.3 281.3l-3.9 -4c-7.8 -7.8 -13.7 -15.6 -19.5 -23.4l35.1 -19.5 -31.2 -54.7 -41 23.4c-9.8 -15.6 -17.6 -33.2 -25.4 -50.8l-2 -1.9 41 -9.8 -13.6 -62.5 -46.9 11.7c-3.9 -19.5 -7.8 -39 -9.8 -58.5h46.9v-62.5H582c2 -19.6 5.9 -39.1 9.8 -58.6l46.9 11.7 13.6 -62.5 -41 -9.8v-1.9c7.8 -17.6 17.6 -35.2 27.4 -50.8l41 25.4 31.2 -54.7zM136.7 753.9c-5.8 7.8 -11.7 13.7 -19.5 21.5l-3.9 3.9C43 707 0 607.4 0 500S43 293 113.3 218.8l3.9 3.9c7.8 7.8 13.7 15.6 19.5 23.4l-35.1 21.5 31.2 54.7 41 -25.4c9.8 15.6 17.6 33.2 25.4 50.8l2 1.9 -41 9.8 13.6 62.5 46.9 -11.7c3.9 19.5 7.8 39 9.8 58.6h-46.9v62.5h46.9c-2 19.5 -5.9 39 -9.8 58.5l-46.9 -11.7 -13.6 62.5 41 9.8v1.9c-7.8 17.6 -17.6 35.2 -27.4 50.8l-41 -23.4 -31.2 54.7z"/></svg>