<svg height="1000" width="812.5" xmlns="http://www.w3.org/2000/svg"><path d="M437.5 685.5l31.3 173.9c1.9 5.8 3.9 9.7 3.9 15.6 0 35.2 -31.3 62.5 -68.4 62.5S335.9 910.2 335.9 875c0 -3.9 2 -9.8 2 -13.7l33.2 -181.6c3.9 -13.7 17.6 -23.4 33.2 -23.4 17.6 0 31.2 13.6 33.2 29.2zm74.2 7.9zm183.6 68.3c19.5 15.6 19.5 48.8 0 68.4s-56.6 17.6 -72.3 0c-1.9 -2 -5.8 -3.9 -7.8 -7.8L511.7 693.4c-5.8 -9.8 -3.9 -21.5 3.9 -29.3 9.8 -9.8 23.5 -9.8 35.2 -2l134.7 91.8c4 2 5.9 5.9 9.8 7.8zm-43 -107.4zm132.9 -25.4c19.5 2 27.3 13.7 27.3 37.1 0 17.6 -19.5 27.4 -37.1 23.5L652.3 654.3c-7.8 -3.9 -11.7 -9.8 -9.7 -17.6S652.3 623 660.2 625zm-625 25.4zm0 0h-2L37.1 689.5C19.5 693.4 0 683.6 0 666c0 -23.4 5.9 -35.1 25.4 -37.1L152.3 625c7.9 -2 15.7 3.9 17.6 11.7s-1.9 13.7 -9.7 17.6zm101.5 7.8c9.8 -7.8 25.4 -5.8 35.2 2 7.8 7.8 9.7 19.5 3.9 29.3L197.3 820.3c-2 3.9 -5.9 7.8 -7.8 9.8 -19.6 19.5 -52.8 19.5 -72.3 0s-19.5 -48.8 0 -68.4c3.9 -3.9 5.8 -5.8 9.8 -7.8zM406.3 62.5c140.6 43 210.9 207 210.9 349.6C617.2 529.3 523.4 623 406.3 623s-211 -93.7 -211 -210.9c0 -89.8 33.2 -173.8 86 -236.3l-2 11.7c0 54.7 41 99.6 95.7 99.6s89.8 -44.9 89.8 -99.6c0 -56.6 -58.5 -125 -58.5 -125zm-7.9 482.4c70.4 0 127 -56.6 127 -126.9 0 -37.1 -5.9 -72.3 -15.6 -105.5 -27.4 35.2 -74.3 56.6 -121.1 66.4s-74.2 39.1 -74.2 82c0 45 37.1 84 83.9 84z"/></svg>