<svg height="1000" width="875" xmlns="http://www.w3.org/2000/svg"><path d="M750 273.4c91.8 0 125 64.5 125 132.9v187.5c0 68.3 -27.3 132.8 -125 132.8h-31.2v85.9c0 68.4 -56.7 125 -125 125H250c-68.4 0 -125 -56.6 -125 -125V470.7c-50.8 0 -93.7 -43 -93.7 -93.7V269.5C11.7 248 0 218.8 0 187.5c0 -68.4 56.6 -125 125 -125 35.2 0 66.4 15.6 89.8 39.1 19.6 -23.5 50.8 -39.1 84 -39.1 27.4 0 52.8 11.7 72.3 27.3 23.4 -17.5 50.8 -27.3 82 -27.3 33.2 0 66.4 11.7 89.9 31.3 21.5 -19.6 50.8 -31.3 82 -31.3 68.4 0 125 56.6 125 125 0 29.3 -13.7 56.6 -31.2 74.2v11.7H750zM625 375V250h-39.1c-5.8 15.6 -13.6 31.3 -25.4 44.9 -25.3 31.3 -64.4 48.9 -107.4 48.9 -50.8 0 -93.7 -25.4 -119.1 -64.5 -11.7 3.9 -23.5 5.9 -35.2 5.9 -23.4 0 -44.9 -7.9 -62.5 -19.6 -3.9 -1.9 -5.8 -5.8 -9.7 -7.8 -2 3.9 -3.9 5.9 -5.9 9.8l-1.9 1.9V375H625zM125 250c17.6 0 35.2 -7.8 46.9 -21.5 3.9 -3.9 5.8 -7.8 7.8 -11.7 0 0 11.7 -19.5 23.4 -21.5s39.1 -11.7 58.6 9.8c7.8 9.7 21.5 17.6 37.1 17.6 5.9 0 9.8 -2 13.7 -3.9 5.9 -2 13.7 -4 17.6 -7.9 5.8 -3.9 11.7 -7.8 19.5 -7.8 13.7 0 23.4 7.8 27.4 19.6 0 0 1.9 1.9 1.9 3.9 2 5.8 2 9.7 5.9 15.6 13.6 23.4 39 39.1 68.3 39.1 25.4 0 50.8 -11.8 64.5 -31.3 9.7 -13.7 13.7 -29.3 13.7 -46.9s17.5 -15.6 17.5 -15.6h107.5c11.7 0 25.3 5.9 29.2 17.6 2 -5.9 2 -11.7 2 -17.6C687.5 152.3 660.2 125 625 125c-17.6 0 -33.2 7.8 -44.9 19.5 -3.9 3.9 -11.7 9.8 -31.3 11.8h-15.6c-11.7 -2 -21.5 -5.9 -25.4 -9.8C494.1 132.8 474.6 125 453.1 125c-17.6 0 -35.1 7.8 -48.8 17.6 -3.9 3.9 -7.8 9.7 -11.7 13.7 0 1.9 -2 1.9 -3.9 3.9 -5.9 5.8 -13.7 9.7 -21.5 9.7 -9.8 0 -15.6 -5.8 -21.5 -11.7 -1.9 -3.9 -3.9 -5.9 -5.9 -9.8s-5.8 -7.8 -9.7 -11.7C322.3 128.9 310.5 125 298.8 125c-19.5 0 -35.1 17.6 -48.8 31.3 -13.7 15.6 -52.7 15.6 -66.4 0S148.4 125 125 125c-35.2 0 -62.5 27.3 -62.5 62.5 0 3.9 2 9.8 2 13.7 3.9 17.6 13.6 33.2 29.3 41v123c0 17.6 13.6 31.3 31.2 31.3V250zm656.3 343.8V406.3c0 -35.2 -11.8 -46.9 -46.9 -46.9h-15.6v281.2h15.6c35.1 0 46.9 -11.7 46.9 -46.8z"/></svg>