<svg height="1000" width="875" xmlns="http://www.w3.org/2000/svg"><path d="M437.5 332c-48.8 0 -97.7 19.6 -132.8 54.7S250 470.7 250 519.5c0 66.4 35.2 128.9 93.8 162.1l31.2 19.6V875h125V701.2l31.3 -19.6c29.2 -15.6 52.7 -39 68.3 -66.4C617.2 585.9 625 554.7 625 519.5c0 -48.8 -19.5 -97.6 -54.7 -132.8S486.3 332 437.5 332zm41 -269.5v125h-82v-125h82zm252 105.5l58.6 58.6 -74.3 74.2 -58.5 -58.6zm-586 0l74.3 74.2 -58.6 58.6L85.9 226.6zm293 101.5c136.7 0 250 113.3 250 250 0 93.8 -50.8 173.9 -125 216.8v201.2h-250V736.3c-74.2 -42.9 -125 -125 -125 -216.8 0 -136.7 113.3 -250 250 -250zm437.5 209v82H750v-82h125zm-750 0v82H0v-82h125z"/></svg>