<svg height="1000" width="687.5" xmlns="http://www.w3.org/2000/svg"><path d="M0 687.5V289.1C0 142.6 160.2 125 343.8 125s343.7 17.6 343.7 164.1v398.4c0 35.2 -27.3 46.9 -52.7 70.3V834c0 23.4 -17.6 41 -41 41h-41.1c-23.4 0 -42.9 -17.6 -42.9 -41v-43H177.7v43c0 23.4 -19.5 41 -42.9 41h-41C70.3 875 52.7 857.4 52.7 834v-76.2C27.3 734.4 0 724.6 0 687.5zm156.3 31.3c35.1 0 62.5 -27.4 62.5 -62.5s-27.4 -62.5 -62.5 -62.5 -62.5 27.3 -62.5 62.5 27.3 62.5 62.5 62.5zm375 0c35.1 0 62.5 -27.4 62.5 -62.5s-27.4 -62.5 -62.5 -62.5 -62.5 27.3 -62.5 62.5 27.3 62.5 62.5 62.5zm62.5 -240.3v-207h-500v207h500z"/></svg>