<svg height="1000" width="812.5" xmlns="http://www.w3.org/2000/svg"><path d="M281.3 531.3H375v375c-82 -5.9 -158.2 -37.2 -220.7 -86 74.2 -80.1 119.1 -181.6 127 -289zm156.2 375v-375h95.7c7.8 107.4 50.8 208.9 125 289 -62.5 48.8 -138.7 80.1 -220.7 86zM375 93.8v375h-93.7c-5.9 -107.5 -50.8 -209 -125 -289.1C216.8 130.9 293 99.6 375 93.8zm158.2 375h-95.7v-375c82 5.8 156.3 37.1 218.8 85.9C582 259.8 539.1 361.3 533.2 468.8zM705.1 222.7c60.5 66.4 99.6 152.3 107.4 246.1H597.7c3.9 -43 11.7 -84 27.3 -123.1 17.6 -44.9 46.9 -87.9 80.1 -123zM625 650.4C609.4 611.3 601.6 572.3 597.7 531.3h214.8C804.7 625 765.6 709 705.1 775.4 669.9 738.3 644.5 697.3 625 650.4zM187.5 345.7c15.6 39.1 23.4 80.1 27.3 123.1H0C7.8 375 48.8 289.1 109.4 222.7c33.2 37.1 58.6 78.1 78.1 123zm-80.1 429.7C46.9 709 7.8 625 0 531.3h214.8c-3.9 41 -11.7 80 -27.3 119.1 -19.5 46.9 -44.9 87.9 -80.1 125z"/></svg>