<svg height="1000" width="875" xmlns="http://www.w3.org/2000/svg"><path d="M584 255.9c-37.1 0 -66.4 -27.4 -66.4 -64.5S546.9 125 584 125s64.4 29.3 64.4 66.4 -27.3 64.5 -64.4 64.5zm109.4 253.9c99.6 0 181.6 84 181.6 183.6S793 875 693.4 875 509.8 793 509.8 693.4s84 -183.6 183.6 -183.6zm0 310.5c70.3 0 126.9 -56.6 126.9 -126.9S763.7 564.5 693.4 564.5 564.5 623 564.5 693.4 623 820.3 693.4 820.3zM535.2 437.5l-58.6 -87.9 -84 87.9 76.2 62.5v218.8h-62.5v-168L287.1 476.6C269.5 464.8 250 447.3 250 423.8c0 -15.6 5.9 -33.2 17.6 -44.9L408.2 244.1c11.7 -11.7 27.3 -17.5 43 -17.5 21.5 0 42.9 13.6 54.7 31.2L572.3 375h115.2v62.5H535.2zm-353.6 72.3c99.7 0 183.6 84 183.6 183.6S281.3 875 181.6 875 0 793 0 693.4 82 509.8 181.6 509.8zm0 310.5c70.4 0 128.9 -56.6 128.9 -126.9S252 564.5 181.6 564.5 54.7 623 54.7 693.4s56.6 126.9 126.9 126.9z"/></svg>