<svg height="1000" width="875" xmlns="http://www.w3.org/2000/svg"><path d="M476.6 593.8h-78.2c-29.3 0 -54.6 -25.4 -54.6 -54.7v-78.2c0 -29.3 25.3 -54.6 54.6 -54.6h78.2c29.3 0 54.7 25.3 54.7 54.6v78.2c0 29.3 -25.4 54.7 -54.7 54.7zM281.3 546.9c0 35.1 15.6 68.3 42.9 87.9C312.5 687.5 125 812.5 62.5 812.5 27.3 812.5 0 785.2 0 750V250c0 -35.2 27.3 -62.5 62.5 -62.5 62.5 0 250 125 261.7 177.7 -27.3 19.6 -42.9 52.8 -42.9 87.9v93.8zM812.5 187.5c35.2 0 62.5 27.3 62.5 62.5v500c0 35.2 -27.3 62.5 -62.5 62.5 -62.5 0 -250 -125 -261.7 -177.7 27.3 -19.6 43 -52.8 43 -87.9v-93.8c0 -35.1 -15.7 -68.3 -43 -87.9C562.5 312.5 750 187.5 812.5 187.5z"/></svg>