<svg height="1000" width="875" xmlns="http://www.w3.org/2000/svg"><path d="M875 562.5h-68.4c-3.9 23.4 -9.7 46.9 -17.5 68.4l58.6 33.2 -62.5 109.3 -58.6 -35.1c-15.7 17.6 -33.2 35.1 -50.8 50.8l35.1 58.6 -109.3 62.5 -33.2 -58.6c-21.5 7.8 -45 13.6 -68.4 17.5v68.4H375v-68.4c-23.4 -3.9 -46.9 -9.7 -68.4 -17.5l-33.2 58.6L164.1 847.7l35.1 -58.6c-17.6 -15.7 -35.1 -33.2 -50.8 -50.8l-58.6 35.1L27.3 664.1l58.6 -33.2c-7.8 -21.5 -13.6 -45 -17.5 -68.4H0v-125h68.4c3.9 -23.4 9.7 -46.9 17.5 -68.4L27.3 335.9 89.8 226.6l58.6 35.1c15.7 -17.6 33.2 -35.1 50.8 -50.8l-35.1 -58.6L273.4 89.8l33.2 58.6c21.5 -7.8 45 -13.6 68.4 -17.5V62.5h125v68.4c23.4 3.9 46.9 9.7 68.4 17.5l33.2 -58.6 109.3 62.5 -35.1 58.6c17.6 15.7 35.1 33.2 50.8 50.8l58.6 -35.1 62.5 109.3 -58.6 33.2c7.8 21.5 13.6 45 17.5 68.4H875v125zM673.8 347.7C634.8 287.1 572.3 242.2 500 226.6v97.6c33.2 11.7 60.5 31.3 82 56.7zM375 226.6c-72.3 15.6 -134.8 60.5 -173.8 121.1l91.8 33.2c21.5 -25.4 48.8 -45 82 -56.7v-97.6zM156.3 500c0 64.5 21.4 123 56.6 169.9l62.5 -74.2C259.8 568.4 250 535.2 250 500v-2l-91.8 -33.2c-1.9 11.8 -1.9 23.5 -1.9 35.2zm281.2 281.3c46.9 0 89.8 -11.8 128.9 -31.3l-62.5 -74.2c-19.5 7.8 -43 11.7 -66.4 11.7s-46.9 -3.9 -66.4 -11.7L308.6 750c39.1 19.5 82 31.3 128.9 31.3zM662.1 669.9C697.3 623 718.8 564.5 718.8 500c0 -11.7 0 -23.4 -2 -35.2L625 498v2c0 35.2 -9.8 68.4 -25.4 95.7z"/></svg>