<svg height="1000" width="937.5" xmlns="http://www.w3.org/2000/svg"><path d="M755.9 423.8c101.5 5.9 181.6 89.9 181.6 193.4 0 107.4 -87.9 195.3 -195.3 195.3H234.4C105.5 812.5 0 707 0 578.1 0 457 91.8 357.4 209 345.7 257.8 252 355.5 187.5 468.8 187.5c142.5 0 259.7 101.6 287.1 236.3zm-13.7 310.6c64.4 0 117.2 -52.8 117.2 -117.2S806.6 500 742.2 500h-58.6v-19.5c0 -119.2 -95.7 -214.9 -214.8 -214.9 -99.7 0 -181.7 66.4 -207.1 156.3h-27.3c-86 0 -156.3 70.3 -156.3 156.2s70.3 156.3 156.3 156.3h507.8z"/></svg>