<svg height="1000" width="656.3" xmlns="http://www.w3.org/2000/svg"><path d="M406.3 93.8l250 250v390.6c0 42.9 -35.2 78.1 -78.2 78.1h-15.6v15.6c0 43 -35.2 78.2 -78.1 78.2H78.1C35.2 906.3 0 871.1 0 828.1V265.6c0 -42.9 35.2 -78.1 78.1 -78.1h15.7v-15.6c0 -43 35.1 -78.1 78.1 -78.1h234.4zm0 87.8v162.2h162.1zM500 828.1v-15.6H156.3c-43 0 -62.5 -19.5 -62.5 -62.5V250H78.1c-9.7 0 -15.6 7.8 -15.6 15.6v562.5c0 7.8 7.8 15.7 15.6 15.7h406.3c7.8 0 15.6 -5.9 15.6 -15.7zm93.8 -93.7V406.3h-250v-250H171.9c-9.8 0 -15.6 7.8 -15.6 15.6v562.5c0 7.8 7.8 15.6 15.6 15.6h406.2c7.8 0 15.7 -5.9 15.7 -15.6z"/></svg>