<svg height="1000" width="875" xmlns="http://www.w3.org/2000/svg"><path d="M177.7 357.4h3.9 -3.9zm427.8 234.4C687.5 597.7 750 666 750 750c0 85.9 -70.3 156.3 -156.2 156.3H187.5C84 906.3 0 820.3 0 716.8 0 625 62.5 548.8 152.3 531.3c9.8 -2 25.4 -2 35.2 -2 84 0 152.3 50.8 177.7 125h54.7c-11.7 -41 -31.2 -78.1 -62.5 -109.4 -41 -41 -93.7 -62.5 -150.4 -66.4 41 -52.7 101.6 -76.2 168 -76.2 113.3 0 209 80.1 230.5 189.5zM156.3 439.5l-25.4 33.2v-9.8c0 -179.7 123 -328.1 289 -369.1 -17.6 41 -27.3 87.8 -27.3 136.7 0 39 5.8 76.1 17.6 111.3 -11.8 -2 -23.5 -2 -35.2 -2 -43 0 -84 7.9 -119.1 23.5 -39.1 17.6 -72.3 43 -99.6 76.2zm597.6 160.1c-5.9 -5.8 -11.7 -13.7 -19.5 -19.5h5.8c46.9 0 93.8 -9.8 134.8 -27.4 -13.7 52.8 -37.1 103.6 -68.4 144.6C798.8 660.2 779.3 627 753.9 599.6z"/></svg>