<svg height="1000" width="937.5" xmlns="http://www.w3.org/2000/svg"><path d="M810.5 767.6c13.7 9.7 13.7 35.1 -3.9 48.8l-80 80.1c-13.7 13.7 -33.2 13.7 -46.9 0L457 675.8 269.5 894.5c-15.6 15.7 -37.1 15.7 -52.7 0l-84 -84c-19.5 -15.6 -19.5 -41 -3.9 -52.7L334 552.7l-27.4 -29.3c-80 31.3 -173.8 15.7 -240.2 -50.7C-2 404.3 -19.5 300.8 21.5 218.8l152.3 146.4L277.3 261.7 128.9 115.2c82 -37.1 187.5 -23.4 255.9 45 66.4 66.4 84 156.2 52.7 236.3l25.4 25.4 113.3 113.3zM933.6 423.8c3.9 3.9 3.9 9.8 0 13.7L826.2 546.9c-3.9 3.9 -11.7 3.9 -15.7 0l-68.3 -66.4c-3.9 -3.9 -3.9 -11.7 0 -15.7l19.5 -19.5 -27.3 -25.4c-11.7 -7.8 -33.2 -7.8 -58.6 0l-60.6 72.3L503.9 380.9l56.6 -54.7S558.6 234.4 527.3 209s-87.8 -56.7 -87.8 -56.7V93.8c58.5 0 107.4 13.6 177.7 48.8s123 87.9 136.7 101.5 33.2 35.2 44.9 52.8 9.8 35.1 9.8 35.1l35.2 31.3 7.8 -7.8c3.9 -3.9 11.7 -3.9 15.6 0z"/></svg>