<svg height="1000" width="750" xmlns="http://www.w3.org/2000/svg"><path d="M662.1 228.5L750 459v312.5c0 23.4 -17.6 41 -41 41h-43c-23.4 0 -41 -17.6 -41 -41V750H125v21.5c0 23.4 -17.6 41 -41 41H41c-23.4 0 -41 -17.6 -41 -41V459L87.9 228.5c7.8 -25.4 31.2 -41 58.6 -41h457c27.4 0 50.8 15.6 58.6 41zM146.5 625c35.1 0 62.5 -27.3 62.5 -62.5S181.6 500 146.5 500 84 527.3 84 562.5s27.3 62.5 62.5 62.5zm457 0c35.2 0 62.5 -27.3 62.5 -62.5S638.7 500 603.5 500 541 527.3 541 562.5s27.4 62.5 62.5 62.5zM84 416h582L603.5 250h-457z"/></svg>