<svg height="1000" width="875" xmlns="http://www.w3.org/2000/svg"><path d="M404.3 671.9C496.1 699.2 552.7 793 574.2 875H0C21.5 793 78.1 699.2 169.9 671.9c35.2 19.5 74.2 31.2 117.2 31.2s82 -11.7 117.2 -31.2zM287.1 234.4c113.3 0 207 93.7 207 207s-93.7 207 -207 207 -207 -93.7 -207 -207 93.7 -207 207 -207zm0 365.2c66.4 0 121.1 -44.9 144.5 -99.6h-289c23.4 54.7 78.1 99.6 144.5 99.6zM568.4 750C543 710.9 502 666 451.2 646.5c21.5 -17.6 41 -44.9 54.7 -68.4 25.4 9.8 52.7 15.7 82 15.7 43 0 82 -11.8 117.2 -31.3C796.9 589.8 853.5 668 875 750H568.4zM537.1 390.6C521.5 318.4 476.6 255.9 414.1 220.7 451.2 164.1 515.6 125 587.9 125c113.3 0 207 93.8 207 207s-93.7 207.1 -207 207.1c-21.5 0 -43 -3.9 -62.5 -9.8 5.9 -15.6 11.7 -31.3 13.7 -48.8 15.6 5.8 31.2 7.8 48.8 7.8 66.4 0 121.1 -43 144.5 -97.7H537.1z"/></svg>