<svg height="1000" width="875" xmlns="http://www.w3.org/2000/svg"><path d="M0 187.5h875v625H0v-625zM793 500c0 -44.9 0 -74.2 -5.9 -136.7S748 265.6 685.5 259.8s-167.9 -5.9 -248 -5.9 -185.5 0 -248 5.9 -95.7 41 -101.6 103.5S82 455.1 82 500s2 80.1 5.9 136.7 33.2 97.7 101.6 103.5 164 5.9 248 5.9 179.7 0 248 -5.9 97.7 -46.8 101.6 -103.5S793 544.9 793 500zm-156.3 46.9c0 -2 -1.9 -5.9 -1.9 -5.9h89.8c0 46.9 -9.8 82 -31.2 105.5s-56.7 37.1 -105.5 37.1c-23.4 0 -43 -3.9 -60.6 -9.8s-29.3 -15.6 -41 -29.3 -19.5 -31.2 -25.4 -54.7 -9.7 -54.6 -9.7 -89.8 3.9 -64.5 11.7 -87.9 15.6 -43 29.3 -56.6 29.3 -23.5 46.9 -29.3 37.1 -9.8 58.6 -9.8c42.9 0 74.2 13.7 95.7 37.1S726.6 416 726.6 459h-89.9v-2c0 -35.1 -21.5 -56.6 -46.9 -56.6 -27.3 0 -42.9 17.6 -46.8 50.8 0 0 -2 19.5 -2 50.8s2 46.8 2 46.8c1.9 29.3 19.5 50.8 46.8 50.8s46.9 -19.5 46.9 -50.8v-1.9zm-302.7 0c0 -2 -2 -5.9 -2 -5.9h89.9c0 46.9 -9.8 82 -31.3 105.5S334 683.6 285.2 683.6c-23.5 0 -41.1 -3.9 -58.6 -9.8s-31.3 -15.6 -43 -29.3 -19.5 -31.2 -25.4 -54.7 -9.8 -54.6 -9.8 -89.8 3.9 -64.5 11.8 -87.9 15.6 -43 29.3 -56.6 29.3 -23.5 46.8 -29.3 37.1 -9.8 58.6 -9.8c43 0 74.2 13.7 95.7 37.1S423.8 416 423.8 459h-87.9v-2c0 -35.1 -21.4 -56.6 -46.8 -56.6 -27.4 0 -45 17.6 -48.9 50.8 0 0 -1.9 19.5 -1.9 50.8s1.9 46.8 1.9 46.8c2 29.3 19.6 50.8 46.9 50.8S334 580.1 334 548.8v-1.9z"/></svg>