<svg height="1000" width="812.5" xmlns="http://www.w3.org/2000/svg"><path d="M693.4 212.9c158.2 158.2 158.2 416 0 574.2s-416.1 158.2 -574.3 0 -158.2 -416 0 -574.2 416.1 -158.2 574.3 0zm-31.3 103.5c-15.6 7.8 -19.5 27.4 -11.7 43s27.3 19.5 43 11.7 19.5 -27.3 11.7 -43 -27.4 -19.5 -43 -11.7zM62.5 500c0 17.6 13.7 31.3 31.3 31.3S125 517.6 125 500 111.3 468.8 93.8 468.8 62.5 482.4 62.5 500zm87.9 183.6c15.6 -7.8 19.5 -27.3 11.7 -43s-27.3 -19.5 -43 -11.7 -17.5 27.4 -9.7 43 25.4 19.5 41 11.7zm11.7 -324.2c7.8 -15.6 3.9 -35.2 -11.7 -43s-33.2 -3.9 -41 11.7 -5.9 35.2 9.7 43 35.2 3.9 43 -11.7zm72.3 -156.3c-15.6 7.8 -19.6 27.4 -11.7 43s27.3 17.6 42.9 9.8 19.6 -25.4 11.7 -41.1S250 195.3 234.4 203.1zM218.8 418L375 509.8V750h60.5V478.5L250 367.2zm58.5 369.1c7.9 -15.6 4 -35.1 -11.7 -43s-35.1 -3.9 -42.9 11.8 -3.9 33.2 11.7 41 35.1 5.8 42.9 -9.8zm129 56.7c17.5 0 31.2 -13.7 31.2 -31.3s-13.7 -31.2 -31.2 -31.2S375 794.9 375 812.5s13.7 31.3 31.3 31.3zm0 -625c17.5 0 31.2 -13.7 31.2 -31.3s-13.7 -31.2 -31.2 -31.2S375 169.9 375 187.5s13.7 31.3 31.3 31.3zm171.8 578.1c15.7 -7.8 19.6 -27.4 11.7 -43s-27.3 -17.6 -42.9 -9.8 -19.6 25.4 -11.7 41.1 27.3 19.5 42.9 11.7zm11.7 -552.8c7.9 -15.6 4 -33.2 -11.7 -41s-35.1 -5.8 -42.9 9.8 -3.9 35.1 11.7 43 35.1 3.9 42.9 -11.8zm113.3 427.8c7.8 -15.6 5.9 -35.2 -9.7 -43s-35.2 -3.9 -43 11.7 -3.9 35.2 11.7 43 33.2 3.9 41 -11.7zm15.7 -140.6c17.5 0 31.2 -13.7 31.2 -31.3s-13.7 -31.2 -31.2 -31.2 -31.3 13.6 -31.3 31.2 13.7 31.3 31.3 31.3z"/></svg>