<svg height="1000" width="875" xmlns="http://www.w3.org/2000/svg"><path d="M849.6 328.1c13.7 0 25.4 11.7 25.4 23.5V709c0 17.6 -11.7 37.1 -27.3 44.9L505.9 933.6v1.9c-3.9 2 -7.9 2 -11.8 2 -13.6 0 -25.3 -11.7 -25.3 -23.4V552.7c0 -17.5 7.8 -33.2 23.4 -42.9h1.9L839.8 330.1c4 -2 5.9 -2 9.8 -2zm-25.4 -97.6s15.6 7.8 15.6 19.5c0 15.6 -15.6 21.5 -15.6 21.5L462.9 462.9c-7.8 3.9 -15.6 5.9 -25.4 5.9 -7.8 0 -17.6 -2 -25.4 -5.9L50.8 273.4S35.2 263.7 35.2 250c0 -11.7 15.6 -19.5 15.6 -19.5L406.3 72.3s19.5 -9.8 31.2 -9.8 33.2 9.8 33.2 9.8zM382.8 509.8c15.6 9.7 23.5 25.4 23.5 42.9v361.4c0 11.7 -11.8 23.4 -25.4 23.4 -3.9 0 -7.9 -2 -11.8 -3.9L27.3 753.9V752C11.7 744.1 0 726.6 0 709V351.6c0 -11.8 11.7 -23.5 25.4 -23.5 3.9 0 5.9 0 9.8 2z"/></svg>