<svg height="1000" width="750" xmlns="http://www.w3.org/2000/svg"><path d="M375 125c207 0 375 150.4 375 334 0 115.2 -93.7 207 -209 207h-74.2c-35.2 0 -62.5 27.4 -62.5 62.5 0 17.6 5.9 33.2 15.6 43s17.6 23.4 17.6 41c0 35.2 -27.3 62.5 -62.5 62.5C168 875 0 707 0 500S168 125 375 125zM146.5 500c35.1 0 62.5 -27.3 62.5 -62.5S181.6 375 146.5 375 84 402.3 84 437.5s27.3 62.5 62.5 62.5zm125 -166c35.1 0 62.5 -27.4 62.5 -62.5S306.6 209 271.5 209 209 236.3 209 271.5s27.3 62.5 62.5 62.5zm207 0c35.2 0 62.5 -27.4 62.5 -62.5S513.7 209 478.5 209 416 236.3 416 271.5s27.4 62.5 62.5 62.5zm125 166c35.2 0 62.5 -27.3 62.5 -62.5S638.7 375 603.5 375 541 402.3 541 437.5s27.4 62.5 62.5 62.5z"/></svg>