<svg height="1000" width="812.5" xmlns="http://www.w3.org/2000/svg"><path d="M238.3 738.3c44.9 0 80.1 35.1 80.1 80.1s-35.2 82 -80.1 82 -82 -37.1 -82 -82 37.1 -80.1 82 -80.1zM0 99.6h132.8l37.1 82h601.6c21.5 0 41 17.6 41 39.1 0 7.8 -2 15.6 -3.9 19.5l-146.5 252c-13.7 27.3 -39.1 43 -70.3 43H289.1L248 597.7s-3.9 9.7 -3.9 11.7c0 5.8 3.9 9.7 9.8 9.7h464.9v78.2H244.1c-50.7 0 -87.8 -27.4 -87.8 -82.1 0 -13.6 3.9 -29.3 9.7 -39l60.6 -99.6L82 181.6H0v-82zm636.7 638.7c44.9 0 82.1 35.1 82.1 80.1s-37.2 82 -82.1 82 -80.1 -37.1 -80.1 -82 35.2 -80.1 80.1 -80.1z"/></svg>