<svg height="1000" width="875" xmlns="http://www.w3.org/2000/svg"><path d="M334 308.6l541 541v44.9H744.1L437.5 587.9 334 691.4c9.8 21.5 15.6 44.9 15.6 70.3 0 97.7 -76.2 175.8 -173.8 175.8S0 859.4 0 761.7 78.1 587.9 175.8 587.9c25.4 0 48.8 5.9 70.3 15.6L349.6 500 246.1 396.5c-21.5 9.8 -44.9 15.6 -70.3 15.6C78.1 412.1 0 335.9 0 238.3S78.1 62.5 175.8 62.5s173.8 78.1 173.8 175.8c0 25.4 -5.8 48.8 -15.6 70.3zm-158.2 15.6c48.8 0 85.9 -37.1 85.9 -85.9s-37.1 -87.9 -85.9 -87.9 -87.9 39.1 -87.9 87.9 39.1 85.9 87.9 85.9zm0 525.4c48.8 0 85.9 -39.1 85.9 -87.9s-37.1 -85.9 -85.9 -85.9 -87.9 37.1 -87.9 85.9 39.1 87.9 87.9 87.9zM437.5 521.5c11.7 0 21.5 -9.8 21.5 -21.5s-9.8 -21.5 -21.5 -21.5S416 488.3 416 500s9.8 21.5 21.5 21.5zm306.6 -416H875v44.9L568.4 457l-87.9 -87.9z"/></svg>