<svg height="1000" width="625" xmlns="http://www.w3.org/2000/svg"><path d="M531.3 93.8c52.7 0 93.7 42.9 93.7 93.7v625c0 50.8 -43 93.8 -93.7 93.8H93.8C41 906.3 0 863.3 0 812.5v-625C0 136.7 41 93.8 93.8 93.8h437.5zM203.1 812.5v-93.7h-93.7v93.7h93.7zm0 -171.9v-93.7h-93.7v93.7h93.7zm0 -171.8V375h-93.7v93.8h93.7zm156.3 343.7v-93.7h-93.8v93.7h93.8zm0 -171.9v-93.7h-93.8v93.7h93.8zm0 -171.8V375h-93.8v93.8h93.8zm156.2 343.7V546.9h-93.7v265.6h93.7zm0 -343.7V375h-93.7v93.8h93.7zm0 -187.5v-93.8H109.4v93.8h406.2z"/></svg>