<svg height="1000" width="875" xmlns="http://www.w3.org/2000/svg"><path d="M437.5 283.2c-25.4 0 -48.8 3.9 -72.3 13.7l-85.9 -86c48.8 -17.5 103.5 -27.3 158.2 -27.3 199.2 0 369.1 123 437.5 296.9C845.7 554.7 798.8 617.2 738.3 668L623 552.7c9.8 -23.4 13.7 -46.8 13.7 -72.2 0 -109.4 -89.8 -197.3 -199.2 -197.3zM39.1 175.8L89.8 125l707.1 699.2L746.1 875 628.9 759.8l-17.6 -17.6C556.6 763.7 500 777.3 437.5 777.3 238.3 777.3 68.4 654.3 0 480.5 31.3 402.3 82 334 148.4 283.2l-17.5 -17.6zm220.7 216.8c-13.7 27.3 -21.5 56.6 -21.5 87.9 0 109.3 89.8 197.2 199.2 197.2 31.3 0 60.5 -7.8 87.9 -21.4l-62.5 -60.6c-7.8 2 -17.6 2 -25.4 2 -66.4 0 -119.1 -50.8 -119.1 -117.2 0 -7.8 1.9 -17.6 3.9 -25.4zm171.8 -29.3h5.9c66.4 0 119.1 50.8 119.1 117.2v5.8z"/></svg>