<svg height="1000" width="812.5" xmlns="http://www.w3.org/2000/svg"><path d="M406.3 93.8c224.6 0 406.2 181.6 406.2 406.2S630.9 906.3 406.3 906.3 0 724.6 0 500 181.6 93.8 406.3 93.8zm-252 371l-85.9 74.3c5.8 52.7 23.4 103.5 52.7 148.4h113.3l29.3 -56.6L230.5 500zm423.8 222.7h111.4c29.3 -44.9 48.8 -95.7 54.6 -148.4l-85.9 -74.3L582 500l-33.2 130.9zm64.5 -285.2l37.1 -105.4C642.6 246.1 589.8 207 531.3 183.6L437.5 248v91.8l119.1 101.6zM279.3 183.6C220.7 207 169.9 246.1 132.8 296.9l37.1 105.4 84 39.1L373 339.8V248zM332 832c21.5 3.9 45 7.8 68.4 7.8 25.4 0 56.6 -3.9 80.1 -7.8 1.9 0 3.9 -1.9 5.8 -1.9l37.1 -105.5L494.1 666H318.4l-29.3 56.7 39 109.3h3.9z"/></svg>