<svg height="1000" width="750" xmlns="http://www.w3.org/2000/svg"><path d="M666 500c48.8 23.4 84 72.3 84 130.9 0 80 -66.4 144.5 -146.5 144.5 -31.2 0 -60.5 -9.8 -84 -25.4l2 11.7c0 80.1 -66.4 144.6 -146.5 144.6S228.5 841.8 228.5 761.7l2 -11.7c-23.5 15.6 -52.8 25.4 -84 25.4C66.4 775.4 0 710.9 0 630.9 0 572.3 35.2 523.4 84 500 35.2 476.6 0 427.7 0 369.1c0 -80 66.4 -144.5 146.5 -144.5 31.2 0 60.5 9.8 84 25.4l-2 -11.7C228.5 158.2 294.9 93.8 375 93.8s146.5 64.4 146.5 144.5l-2 11.7c23.5 -15.6 52.8 -25.4 84 -25.4 80.1 0 146.5 64.5 146.5 144.5 0 58.6 -35.2 107.5 -84 130.9zM375 644.5c80.1 0 146.5 -64.4 146.5 -144.5S455.1 355.5 375 355.5 228.5 419.9 228.5 500 294.9 644.5 375 644.5z"/></svg>