<svg height="1000" width="875" xmlns="http://www.w3.org/2000/svg"><path d="M242.2 419.9v60.6h58.6v46.8h-58.6v58.6h-46.9v-58.6h-60.5v-46.8h60.5v-60.6h46.9zm416 -138.6C777.3 281.3 875 371.1 875 498S777.3 718.8 658.2 718.8H216.8C97.7 718.8 0 625 0 498S97.7 281.3 216.8 281.3h441.4zM218.8 617.2c64.4 0 117.1 -52.7 117.1 -117.2S283.2 382.8 218.8 382.8 101.6 435.5 101.6 500s52.7 117.2 117.2 117.2zm396.4 -91.8c13.7 -13.7 13.7 -37.1 0 -50.8s-37.1 -13.7 -50.7 0 -13.7 37.1 0 50.8 37.1 13.7 50.7 0zm74.3 74.2c13.6 -13.7 13.6 -39.1 0 -52.7s-37.2 -13.7 -50.8 0 -13.7 39 0 52.7 37.1 13.7 50.8 0zm0 -146.5c13.6 -13.6 13.6 -39 0 -52.7s-37.2 -13.7 -50.8 0 -13.7 39.1 0 52.7 37.1 13.7 50.8 0zm72.2 72.3c13.7 -13.7 13.7 -37.1 0 -50.8s-37.1 -13.7 -50.8 0 -13.6 37.1 0 50.8 37.1 13.7 50.8 0z"/></svg>