<svg height="1000" width="750" xmlns="http://www.w3.org/2000/svg"><path d="M750 187.5c0 46.9 -25.4 85.9 -62.5 107.4v181.7l-250 125v103.5c37.1 21.5 62.5 60.5 62.5 107.4 0 68.4 -56.6 125 -125 125S250 880.9 250 812.5c0 -46.9 25.4 -85.9 62.5 -107.4V601.6l-250 -125V294.9C25.4 273.4 0 234.4 0 187.5c0 -68.4 56.6 -125 125 -125s125 56.6 125 125c0 46.9 -25.4 85.9 -62.5 107.4v103.5L375 492.2l187.5 -93.8V294.9C525.4 273.4 500 234.4 500 187.5c0 -68.4 56.6 -125 125 -125s125 56.6 125 125zM125 109.4c-43 0 -78.1 35.1 -78.1 78.1S82 265.6 125 265.6s78.1 -35.1 78.1 -78.1S168 109.4 125 109.4zm250 781.2c43 0 78.1 -35.1 78.1 -78.1S418 734.4 375 734.4s-78.1 35.1 -78.1 78.1 35.1 78.1 78.1 78.1zm250 -625c43 0 78.1 -35.1 78.1 -78.1S668 109.4 625 109.4s-78.1 35.1 -78.1 78.1 35.1 78.1 78.1 78.1z"/></svg>