<svg height="1000" width="750" xmlns="http://www.w3.org/2000/svg"><path d="M675.8 125c41 0 74.2 33.2 74.2 74.2v601.6c0 41 -33.2 74.2 -74.2 74.2H74.2C33.2 875 0 841.8 0 800.8V199.2C0 158.2 33.2 125 74.2 125h601.6zM224.6 800.8V650.4H74.2v150.4h150.4zm0 -226.6V425.8H74.2v148.4h150.4zm0 -224.6V199.2H74.2v150.4h150.4zm224.6 451.2V650.4H300.8v150.4h148.4zm0 -226.6V425.8H300.8v148.4h148.4zm0 -224.6V199.2H300.8v150.4h148.4zm226.6 451.2V650.4H525.4v150.4h150.4zm0 -226.6V425.8H525.4v148.4h150.4zm0 -224.6V199.2H525.4v150.4h150.4z"/></svg>