<svg height="1000" width="875" xmlns="http://www.w3.org/2000/svg"><path d="M255.9 312.5V373h58.6v46.9h-58.6v58.6H209v-58.6h-60.6V373H209v-60.5h46.9zm593.7 85.9S875 664.1 875 718.8s-43 93.7 -93.7 93.7c-25.4 0 -48.9 -9.8 -66.5 -27.3L562.5 627h-250L160.2 785.2c-17.6 17.5 -41.1 27.3 -66.4 27.3C43 812.5 0 775.4 0 718.8S25.4 398.4 25.4 398.4c9.8 -123 93.7 -210.9 209 -210.9h406.2c115.3 0 199.2 87.9 209 210.9zM232.4 511.7c64.5 0 117.2 -52.7 117.2 -117.2S296.9 275.4 232.4 275.4 115.2 330.1 115.2 394.5 168 511.7 232.4 511.7zm365.3 -91.8c13.6 -13.6 13.6 -39 0 -52.7s-37.2 -13.7 -50.8 0 -13.7 39.1 0 52.7 37.1 13.7 50.8 0zm74.2 72.3c13.6 -13.7 13.6 -37.1 0 -50.8s-39.1 -13.7 -52.8 0 -13.6 37.1 0 50.8 39.1 13.7 52.8 0zm0 -146.5c13.6 -13.7 13.6 -37.1 0 -50.8s-39.1 -13.6 -52.8 0 -13.6 37.1 0 50.8 39.1 13.7 52.8 0zm72.2 74.2c13.7 -13.6 13.7 -39 0 -52.7s-37.1 -13.7 -50.7 0 -13.7 39.1 0 52.7 37.1 13.7 50.7 0z"/></svg>