<svg height="1000" width="750" xmlns="http://www.w3.org/2000/svg"><path d="M687.5 736.3c37.1 21.5 62.5 60.6 62.5 107.5 0 68.3 -56.6 125 -125 125S500 912.1 500 843.8c0 -46.9 25.4 -86 62.5 -107.5v-332c0 -68.4 -3.9 -91.8 -15.6 -105.5 -9.8 -11.7 -17.6 -19.5 -66.4 -19.5h-43v127L250 218.8 437.5 31.3v119.1h43c76.1 0 125 21.5 164 70.3 35.2 44.9 43 93.8 43 183.6v332zM625 921.9c43 0 78.1 -35.2 78.1 -78.1S668 765.6 625 765.6s-78.1 35.2 -78.1 78.2 35.1 78.1 78.1 78.1zM125 93.8c68.4 0 125 56.6 125 125 0 46.8 -25.4 85.9 -62.5 107.4v410.1c37.1 21.5 62.5 60.6 62.5 107.5 0 68.3 -56.6 125 -125 125S0 912.1 0 843.8c0 -46.9 25.4 -86 62.5 -107.5V326.2C25.4 304.7 0 265.6 0 218.8c0 -68.4 56.6 -125 125 -125zm0 828.1c43 0 78.1 -35.2 78.1 -78.1S168 765.6 125 765.6s-78.1 35.2 -78.1 78.2S82 921.9 125 921.9zm0 -625c43 0 78.1 -35.2 78.1 -78.1S168 140.6 125 140.6s-78.1 35.2 -78.1 78.2S82 296.9 125 296.9z"/></svg>