<svg height="1000" width="750" xmlns="http://www.w3.org/2000/svg"><path d="M625 437.5c68.4 0 125 56.6 125 125s-56.6 125 -125 125c-46.9 0 -85.9 -25.4 -107.4 -62.5 -43 0 -136.7 -7.8 -212.9 -52.7 -41 -25.4 -80.1 -58.6 -117.2 -95.7v228.5c37.1 21.5 62.5 60.5 62.5 107.4 0 68.4 -56.6 125 -125 125S0 880.9 0 812.5C0 765.6 25.4 726.6 62.5 705.1V294.9C25.4 273.4 0 234.4 0 187.5c0 -68.4 56.6 -125 125 -125s125 56.6 125 125c0 41 -19.5 76.2 -50.8 99.6 43 72.3 107.4 140.6 169.9 177.7 45 27.4 113.3 35.2 148.5 35.2 21.5 -37.1 60.5 -62.5 107.4 -62.5zM46.9 187.5c0 43 35.1 78.1 78.1 78.1s78.1 -35.1 78.1 -78.1S168 109.4 125 109.4s-78.1 35.1 -78.1 78.1zm156.2 625c0 -43 -35.1 -78.1 -78.1 -78.1s-78.1 35.1 -78.1 78.1S82 890.6 125 890.6s78.1 -35.1 78.1 -78.1zM625 640.6c43 0 78.1 -35.1 78.1 -78.1S668 484.4 625 484.4s-78.1 35.1 -78.1 78.1 35.1 78.1 78.1 78.1z"/></svg>