<svg height="1000" width="875" xmlns="http://www.w3.org/2000/svg"><path d="M312.5 746.1V625L500 812.5 312.5 1000V875h-43c-76.1 0 -125 -21.5 -164 -70.3 -35.2 -44.9 -43 -93.8 -43 -183.6V294.9C25.4 273.4 0 234.4 0 187.5c0 -68.4 56.6 -125 125 -125s125 56.6 125 125c0 46.9 -25.4 85.9 -62.5 107.4v326.2c0 68.4 3.9 91.8 15.6 105.5 9.8 11.7 17.6 19.5 66.4 19.5h43zM125 109.4c-43 0 -78.1 35.1 -78.1 78.1S82 265.6 125 265.6s78.1 -35.1 78.1 -78.1S168 109.4 125 109.4zm687.5 595.7c37.1 21.5 62.5 60.5 62.5 107.4 0 68.4 -56.6 125 -125 125S625 880.9 625 812.5c0 -46.9 25.4 -85.9 62.5 -107.4V373c0 -68.3 -3.9 -91.7 -15.6 -105.4C662.1 255.9 654.3 250 605.5 250h-43v125L375 187.5 562.5 0v121.1h43c76.1 0 125 19.5 164 68.4 35.2 44.9 43 93.7 43 183.5v332.1zM750 890.6c43 0 78.1 -35.1 78.1 -78.1S793 734.4 750 734.4s-78.1 35.1 -78.1 78.1 35.1 78.1 78.1 78.1z"/></svg>