<svg height="1000" width="812.5" xmlns="http://www.w3.org/2000/svg"><path d="M406.3 93.8c224.6 0 406.2 181.6 406.2 406.2S630.9 906.3 406.3 906.3 0 724.6 0 500 181.6 93.8 406.3 93.8zm-43 751.9c11.7 -29.3 41 -56.6 15.6 -76.2 -15.6 -13.6 -31.2 -27.3 -44.9 -41 -3.9 -3.9 -21.5 -39 -17.6 -44.9 9.8 -17.6 11.7 -27.3 15.6 -46.9 5.9 -23.4 -5.8 -31.2 -25.4 -42.9 -29.3 -19.6 -56.6 -45 -83.9 -66.5C209 517.6 189.5 507.8 183.6 490.2s-9.8 -39 -19.5 -54.7c-27.4 -39 -23.5 -66.4 -19.6 -113.2 0 -13.7 -1.9 -31.3 -3.9 -48.9C85.9 335.9 58.6 416 58.6 500c0 93.8 35.2 179.7 101.6 246.1 56.6 56.6 126.9 89.8 203.1 99.6zm289 -99.6c45 -44.9 76.2 -99.6 91.8 -160.2C728.5 587.9 707 582 707 582s-41 -46.8 -44.9 -87.9c-3.9 -42.9 0 -76.1 -5.8 -111.3C650.4 351.6 617.2 322.3 603.5 293c-13.7 -27.4 -25.4 -54.7 -39 -82.1 3.9 2 9.7 3.9 13.6 5.9 9.8 -2 19.6 -3.9 27.4 -3.9C560.5 181.6 509.8 164.1 457 156.3v15.6l7.8 17.6 -27.3 25.3L419.9 209l-19.5 -19.5L380.9 166l-27.4 -9.7c-31.2 3.9 -60.5 13.6 -87.9 25.3v13.7c13.7 -5.8 31.3 -9.8 44.9 -15.6 5.9 -2 25.4 13.7 31.3 17.6 -7.8 9.7 -41 29.3 -43 41 0 3.9 13.7 11.7 13.7 19.5 0 11.7 -2 21.5 -2 33.2 5.9 -5.8 39.1 -41 43 -41 25.4 -5.9 68.4 37.1 72.3 50.8s-43 46.9 -64.5 66.4c-15.6 15.6 -48.8 23.4 -39 46.9 3.9 7.8 19.5 39 9.7 46.8 -11.7 9.8 -27.3 -17.5 -33.2 -23.4C283.2 418 248 423.8 224.6 423.8c0 33.2 -1.9 60.6 29.3 84 29.3 21.5 58.6 48.8 91.8 64.5 25.4 11.7 70.3 -13.7 91.8 1.9 31.3 21.5 56.6 41 91.8 56.7 15.6 5.8 64.5 39 50.8 60.5 -9.8 15.6 -19.6 29.3 -27.4 44.9s-25.4 39.1 -39 48.9c-15.7 11.7 -31.3 33.2 -41 56.6C541 828.1 601.6 796.9 652.3 746.1z"/></svg>