<svg height="1000" width="625" xmlns="http://www.w3.org/2000/svg"><path d="M625 312.5c0 46.9 -25.4 85.9 -62.5 107.4v17.6c0 82 -37.1 148.4 -107.4 193.4 -44.9 29.3 -103.5 48.8 -179.7 60.5 -39.1 5.9 -54.7 27.4 -58.6 37.1 19.5 21.5 33.2 50.8 33.2 84 0 68.4 -56.6 125 -125 125S0 880.9 0 812.5C0 765.6 25.4 726.6 62.5 705.1V294.9C25.4 273.4 0 234.4 0 187.5c0 -68.4 56.6 -125 125 -125s125 56.6 125 125c0 46.9 -25.4 85.9 -62.5 107.4v293c19.5 -9.8 41 -17.6 68.4 -21.5 56.6 -7.8 103.5 -21.5 132.8 -41 35.1 -21.5 48.8 -48.8 48.8 -87.9v-17.6C400.4 398.4 375 359.4 375 312.5c0 -68.4 56.6 -125 125 -125s125 56.6 125 125zM125 109.4c-43 0 -78.1 35.1 -78.1 78.1S82 265.6 125 265.6s78.1 -35.1 78.1 -78.1S168 109.4 125 109.4zm0 781.2c43 0 78.1 -35.1 78.1 -78.1S168 734.4 125 734.4s-78.1 35.1 -78.1 78.1S82 890.6 125 890.6zm375 -500c43 0 78.1 -35.1 78.1 -78.1S543 234.4 500 234.4s-78.1 35.1 -78.1 78.1 35.1 78.1 78.1 78.1z"/></svg>