<svg height="1000" width="812.5" xmlns="http://www.w3.org/2000/svg"><path d="M406.3 93.8c224.6 0 406.2 181.6 406.2 406.2S630.9 906.3 406.3 906.3 0 724.6 0 500 181.6 93.8 406.3 93.8zm119.1 695.3C562.5 773.4 597.7 750 627 720.7s52.7 -64.4 68.3 -101.6l-78.1 -23.4c-11.7 25.4 -27.4 48.8 -46.9 68.4s-43 35.1 -68.3 46.8zM287.1 210.9C250 226.6 214.8 250 185.5 279.3s-52.7 64.5 -68.3 101.6l78.1 23.4c11.7 -25.4 27.4 -48.8 46.9 -68.4s43 -35.1 68.3 -46.8zM406.3 375c-68.4 0 -125 56.6 -125 125s56.6 125 125 125 125 -56.6 125 -125S474.6 375 406.3 375zM627 279.3C597.7 250 562.5 226.6 525.4 210.9L502 289.1c25.3 11.7 48.8 27.3 68.3 46.8s35.2 43 46.9 68.4l78.1 -23.4C679.7 343.8 656.3 308.6 627 279.3zM185.5 720.7c29.3 29.3 64.5 52.7 101.6 68.4l23.4 -78.2c-25.3 -11.7 -48.8 -27.3 -68.3 -46.8s-35.2 -43 -46.9 -68.4l-78.1 23.4c15.6 37.2 39.1 72.3 68.3 101.6z"/></svg>