<svg height="1000" width="808.6" xmlns="http://www.w3.org/2000/svg"><path d="M783.2 535.2c29.3 29.3 35.2 70.3 5.9 99.6 0 0 -187.5 201.1 -246.1 236.3 -54.7 41 -127 66.4 -195.3 66.4 -107.5 0 -197.3 -70.3 -228.6 -166v-2c0 -1.9 -1.9 -3.9 -1.9 -5.8L3.9 394.5C-5.9 365.2 7.8 332 37.1 322.3s58.6 5.8 68.4 35.1l66.4 171.9c1.9 7.8 3.9 3.9 3.9 -2l-43 -314.4c-5.8 -29.3 13.7 -58.6 43 -64.5s58.6 15.7 64.4 45l48.9 269.5c0 3.9 3.9 3.9 3.9 0V117.2c0 -29.3 25.4 -54.7 54.7 -54.7s54.6 25.4 54.6 54.7L418 459c0 9.8 5.8 7.8 7.8 1.9l44.9 -263.6c3.9 -29.3 31.3 -52.8 60.6 -48.9s52.7 33.2 48.8 62.5l-41 336c-2 23.4 -5.9 58.6 3.9 70.3 15.6 17.6 39 17.6 60.5 -3.9l82 -82c29.3 -29.3 68.4 -25.4 97.7 3.9z"/></svg>