<svg height="1000" width="875" xmlns="http://www.w3.org/2000/svg"><path d="M863.3 777.3c15.6 11.8 15.6 41.1 -3.9 56.7l-91.8 91.8c-15.6 15.6 -39.1 15.6 -54.7 0L293 402.3c-27.4 -7.8 -62.5 4 -76.2 11.8l-29.3 27.3 19.5 19.5c3.9 3.9 3.9 13.7 0 17.6l-70.3 70.3c-3.9 3.9 -13.7 3.9 -17.6 0L3.9 433.6C0 429.7 0 421.9 3.9 418l72.3 -72.3c3.9 -3.9 11.7 -3.9 15.6 0l7.8 7.8 39.1 -33.2s-3.9 -21.5 9.7 -39 33.2 -41.1 48.9 -56.7 70.3 -72.3 144.5 -109.4 127 -52.7 189.5 -52.7V125s-58.6 35.2 -93.8 62.5c-33.2 27.3 -50.8 140.6 -50.8 140.6z"/></svg>