<svg height="1000" width="812.5" xmlns="http://www.w3.org/2000/svg"><path d="M406.3 93.8c222.6 0 406.2 183.5 406.2 406.2S630.9 906.3 406.3 906.3 0 722.7 0 500 181.6 93.8 406.3 93.8zm0 730.4c179.6 0 324.2 -144.5 324.2 -324.2S585.9 175.8 406.3 175.8 82 320.3 82 500s144.6 324.2 324.3 324.2zM548.8 459c-35.1 0 -60.5 -25.4 -60.5 -60.6s25.4 -60.5 60.5 -60.5 60.6 25.4 60.6 60.5S584 459 548.8 459zm-285.1 0c-35.2 0 -60.6 -25.4 -60.6 -60.6s25.4 -60.5 60.6 -60.5 60.5 25.4 60.5 60.5S298.8 459 263.7 459zm142.6 263.7C310.5 722.7 232.4 666 199.2 582h414.1C580.1 666 502 722.7 406.3 722.7z"/></svg>