<svg height="1000" width="812.5" xmlns="http://www.w3.org/2000/svg"><path d="M589.8 125c125 0 222.7 97.7 222.7 224.6 0 156.3 -138.7 281.3 -347.7 472.7L406.3 875l-58.6 -52.7C138.7 630.9 0 505.9 0 349.6 0 222.7 97.7 125 222.7 125c70.3 0 138.6 33.2 183.6 85.9C451.2 158.2 519.5 125 589.8 125zM431.6 767.6c97.7 -89.9 183.6 -168 240.3 -238.3C726.6 460.9 750 406.3 750 349.6c0 -44.9 -17.6 -85.9 -46.9 -115.2S634.8 187.5 589.8 187.5c-50.7 0 -103.5 25.4 -136.7 64.5l-46.8 56.6L359.4 252c-33.2 -39.1 -86 -64.5 -136.7 -64.5 -45 0 -84 17.6 -113.3 46.9S62.5 304.7 62.5 349.6c0 56.7 23.4 111.3 78.1 179.7 56.7 70.3 142.6 148.4 240.3 238.3l7.8 7.8 17.6 15.6 17.5 -15.6z"/></svg>