<svg height="1000" width="812.5" xmlns="http://www.w3.org/2000/svg"><path d="M406.3 320.3c99.6 0 179.6 80.1 179.6 179.7s-80 179.7 -179.6 179.7S226.6 599.6 226.6 500s80 -179.7 179.7 -179.7zm183.5 -76.2c0 -46.8 39.1 -85.9 86 -85.9s85.9 39.1 85.9 85.9 -39 84 -85.9 84 -86 -37.1 -86 -84zM775.4 332c23.4 50.8 37.1 107.5 37.1 168 0 224.6 -181.6 406.3 -406.2 406.3S0 724.6 0 500 181.6 93.8 406.3 93.8c66.4 0 130.8 15.6 185.5 44.9 -17.6 13.6 -31.3 33.2 -39.1 52.7C507.8 169.9 459 158.2 406.3 158.2 216.8 158.2 64.5 310.5 64.5 500s152.3 341.8 341.8 341.8S748 689.5 748 500c0 -46.9 -7.8 -89.8 -25.3 -130.9 21.4 -7.8 39 -21.4 52.7 -37.1z"/></svg>