<svg height="1000" width="812.5" xmlns="http://www.w3.org/2000/svg"><path d="M755.9 367.2c37.1 35.1 56.6 82 56.6 132.8S791 597.7 753.9 632.8s-84 54.7 -136.7 54.7c-50.8 0 -99.6 -19.5 -136.7 -54.7l-74.2 -70.3L332 632.8c-37.1 35.2 -84 54.7 -136.7 54.7S93.8 668 56.6 632.8 0 550.8 0 500 19.5 402.3 56.6 367.2s86 -54.7 138.7 -54.7c50.8 0 99.6 19.5 136.7 54.7l211 203.1c19.5 19.5 46.8 29.3 74.2 29.3s54.7 -9.8 74.2 -29.3 29.3 -43 29.3 -70.3 -9.8 -50.8 -29.3 -70.3 -46.9 -29.3 -74.2 -29.3 -54.7 9.8 -74.2 29.3l-33.2 31.2 -64.5 -62.5 35.2 -31.2c37.1 -35.2 84 -54.7 136.7 -54.7s101.6 19.5 138.7 54.7zM269.5 570.3L341.8 500l-72.3 -70.3C250 410.2 222.7 400.4 195.3 400.4s-54.7 9.8 -74.2 29.3 -29.3 43 -29.3 70.3 9.8 50.8 29.3 70.3 46.9 29.3 74.2 29.3 54.7 -9.8 74.2 -29.3z"/></svg>