<svg height="1000" width="875" xmlns="http://www.w3.org/2000/svg"><path d="M832 273.4c25.4 2 45 23.5 43 46.9L847.7 834c-2 25.4 -23.5 43 -48.9 41L154.3 843.8c-25.4 -2 -44.9 -19.6 -43 -45l3.9 -89.8 -29.3 1.9C62.5 712.9 43 697.3 41 675.8L0 214.8c-2 -21.4 13.7 -41 37.1 -42.9L615.2 125c23.5 -2 43 13.7 45 35.2l9.7 105.4zm-693.3 11.8c1.9 -23.5 21.5 -43 46.8 -43l427.8 21.5 -3.9 -60.6h-2v-1.9c-1.9 -9.8 -9.7 -15.7 -19.5 -15.7l-509.8 43c-9.7 0 -17.6 7.8 -19.5 17.6v1.9l31.2 347.7L125 546.9zM791 746.1l19.5 -388.7h-1.9c0 -11.7 -7.8 -19.5 -19.5 -19.5L220.7 310.5c-11.7 0 -21.5 7.9 -23.4 17.6l-19.6 388.7L416 460.9l134.8 158.2L625 552.7zM687.5 500C652.3 500 625 472.7 625 437.5S652.3 375 687.5 375s62.5 27.3 62.5 62.5S722.7 500 687.5 500z"/></svg>