<svg height="1000" width="875" xmlns="http://www.w3.org/2000/svg"><path d="M873 527.3c9.8 68.4 -7.8 127 -39 132.9h-15.6C783.2 822.3 642.6 947.3 466.8 957 322.3 964.8 189.5 890.6 119.1 775.4l-33.2 5.9C50.8 785.2 13.7 726.6 2 650.4S11.7 505.9 46.9 502l23.4 -2C105.5 335.9 248 209 423.8 199.2c158.2 -7.8 296.9 78.1 363.3 211 21.5 44.9 31.3 93.7 35.2 146.4 3.9 -74.2 -5.9 -117.1 -19.6 -146.4 33.2 -3.9 60.6 52.7 70.3 117.1zM95.7 515.6c19.5 25.4 33.2 68.4 39.1 117.2 7.8 50.8 5.8 95.7 -5.9 127 11.7 -15.7 39.1 -54.7 29.3 -130.9S109.4 527.3 95.7 515.6zm378.9 238.3c17.6 0 29.3 -15.6 29.3 -33.2s-15.6 -29.3 -33.2 -29.3 -31.2 13.7 -31.2 31.3 17.5 31.2 35.1 31.2zm166 -9.8c17.6 0 29.3 -15.6 29.3 -33.2s-15.6 -29.3 -33.2 -29.3 -31.2 15.7 -31.2 33.2 17.5 29.3 35.1 29.3zM250 121.1v-2c-2 -1.9 -2 -3.9 -2 -7.8 0 -5.8 5.9 -11.7 11.8 -17.5S277.3 82 289.1 76.2c1.9 0 1.9 -2 3.9 -2 1.9 -1.9 5.8 -1.9 7.8 -3.9C308.6 56.6 320.3 46.9 335.9 43c13.7 -2 27.4 0 39.1 7.8h7.8c11.7 0 25.4 -2 33.2 0s11.7 3.9 15.6 5.8h5.9c7.8 0 11.7 3.9 11.7 11.8 0 5.8 -3.9 11.7 -9.7 11.7V82l-5.9 5.9 -5.9 5.9s-5.8 1.9 -7.8 3.9l-17.6 9.7v-1.9L416 97.7c2 -2 5.9 -3.9 7.8 -5.9l5.9 -5.9s1.9 -3.9 3.9 -5.8c-5.9 -2 -7.8 -5.9 -7.8 -11.7 0 -2 0 -3.9 1.9 -5.9 -3.9 -2 -9.7 -3.9 -13.6 -3.9h-33.2c-13.7 1.9 -29.3 5.9 -45 9.8 -1.9 0 -3.9 1.9 -5.8 1.9 27.3 -5.8 46.9 -5.8 58.6 -3.9 3.9 5.9 5.8 9.8 7.8 17.6 3.9 23.4 -7.8 48.8 -29.3 58.6l9.8 52.7 -21.5 3.9 -11.7 -52.7c-23.5 0 -45 -19.5 -48.9 -43C293 95.7 293 89.8 294.9 82c-1.9 0 -3.9 3.9 -5.8 3.9 -9.8 3.9 -17.6 9.8 -23.5 13.7 -5.8 5.9 -9.7 11.7 -9.7 15.6v3.9s0 3.9 1.9 3.9c3.9 4 9.8 4 17.6 5.9s15.6 2 23.4 2h3.9l2 3.9h-5.9c-9.7 0 -17.5 0 -25.4 -2s-13.6 -1.9 -17.5 -5.8c-2 -2 -3.9 -4 -3.9 -5.9h-2z"/></svg>