<svg height="1000" width="625" xmlns="http://www.w3.org/2000/svg"><path d="M312.5 777.3c43 0 78.1 37.2 78.1 80.1s-35.1 80.1 -78.1 80.1 -78.1 -37.1 -78.1 -80.1 35.1 -80.1 78.1 -80.1zM78.1 62.5c43 0 80.1 37.1 80.1 80.1s-37.1 78.1 -80.1 78.1S0 185.5 0 142.6 35.2 62.5 78.1 62.5zm0 238.3c43 0 80.1 37.1 80.1 80.1s-37.1 80 -80.1 80S0 423.8 0 380.9s35.2 -80.1 78.1 -80.1zm0 238.3c43 0 80.1 37.1 80.1 80s-37.1 80.1 -80.1 80.1S0 662.1 0 619.1s35.2 -80 78.1 -80zM546.9 222.7c-43 0 -80.1 -37.2 -80.1 -80.1s37.1 -80.1 80.1 -80.1S625 99.6 625 142.6s-35.2 80.1 -78.1 80.1zM312.5 539.1c43 0 78.1 37.1 78.1 80s-35.1 80.1 -78.1 80.1 -78.1 -37.1 -78.1 -80.1 35.1 -80 78.1 -80zm234.4 0c42.9 0 78.1 37.1 78.1 80s-35.2 80.1 -78.1 80.1 -80.1 -37.1 -80.1 -80.1 37.1 -80 80.1 -80zm0 -238.3c42.9 0 78.1 37.1 78.1 80.1s-35.2 80 -78.1 80 -80.1 -37.1 -80.1 -80 37.1 -80.1 80.1 -80.1zm-234.4 0c43 0 78.1 37.1 78.1 80.1s-35.1 80 -78.1 80 -78.1 -37.1 -78.1 -80 35.1 -80.1 78.1 -80.1zm0 -238.3c43 0 78.1 37.1 78.1 80.1s-35.1 78.1 -78.1 78.1 -78.1 -35.2 -78.1 -78.1 35.1 -80.1 78.1 -80.1z"/></svg>