<svg height="1000" width="812.5" xmlns="http://www.w3.org/2000/svg"><path d="M281.3 541v-82h371l-87.8 -87.9L625 312.5 812.5 500 625 687.5l-58.6 -58.6L652.3 541h-371zm125 281.3c85.9 0 166 -33.2 226.5 -93.8l58.6 58.6c-15.6 15.6 -33.2 31.3 -52.7 44.9 -68.4 46.9 -148.5 74.3 -232.4 74.3C183.6 906.3 0 724.6 0 500S183.6 93.8 406.3 93.8c83.9 0 164 25.3 232.4 72.2 19.5 13.7 37.1 31.3 52.7 46.9l-58.6 58.6C572.3 210.9 492.2 177.7 406.3 177.7s-168 33.2 -228.6 93.8S84 414.1 84 500s33.2 168 93.7 228.5 142.6 93.8 228.6 93.8zM783.2 500l-1.9 -2 -2 2 2 2z"/></svg>