<svg height="1000" width="812.5" xmlns="http://www.w3.org/2000/svg"><path d="M406.3 93.8c224.6 0 406.2 181.6 406.2 406.2S630.9 906.3 406.3 906.3c-84 0 -164.1 -25.4 -232.5 -74.3C107.4 785.2 56.6 720.7 27.3 644.5L19.5 625h89.9l3.9 9.8c15.6 35.1 37.1 66.4 64.4 93.7 60.6 60.6 142.6 93.8 228.6 93.8s167.9 -33.2 228.5 -93.8S728.5 585.9 728.5 500 695.3 332 634.8 271.5 492.2 177.7 406.3 177.7s-168 33.2 -228.6 93.8c-27.3 27.3 -48.8 58.6 -64.4 93.7l-3.9 9.8H19.5l7.8 -19.5C56.6 279.3 107.4 214.8 173.8 168 242.2 121.1 322.3 93.8 406.3 93.8zM0 541v-82h371.1l-87.9 -87.9 60.6 -58.6L531.3 500 343.8 687.5l-58.6 -58.6L371.1 541H0z"/></svg>