<svg height="1000" width="875" xmlns="http://www.w3.org/2000/svg"><path d="M683.6 279.3c41 41 66.4 97.7 66.4 158.2s-25.4 117.2 -66.4 158.2l-44.9 -44.9c29.3 -29.3 46.8 -70.3 46.8 -113.3S668 353.5 638.7 324.2zm89.8 -85.9C835.9 255.9 875 341.8 875 437.5S835.9 619.1 773.4 681.6l-42.9 -44.9c50.8 -50.8 82 -121.1 82 -199.2s-31.2 -148.4 -82 -199.2zm-210.9 166c35.2 3.9 62.5 37.1 62.5 78.1s-27.3 74.2 -62.5 78.1v203.2H500l-187.5 -125h-58.6l58.6 250h-93.7L62.5 593.8 0 562.5V343.8l62.5 -31.3h250L500 156.3h62.5v203.1z"/></svg>