<svg height="1000" width="687.5" xmlns="http://www.w3.org/2000/svg"><path d="M593.8 193.4c62.5 64.4 93.7 156.2 93.7 263.6 0 86 -2 140.7 -25.4 226.6s-64.4 191.4 -72.3 207 -17.5 17.6 -27.3 13.7 -93.7 -35.2 -107.4 -41S433.6 843.8 437.5 832s50.8 -126.9 66.4 -185.5 23.4 -107.4 23.4 -185.6c0 -54.6 -19.5 -103.5 -54.6 -140.6C437.5 285.2 392.6 263.7 343.8 263.7s-93.8 21.5 -129 56.6c-35.1 37.1 -54.6 86 -54.6 140.6 0 78.2 7.8 115.3 23.4 185.6 0 0 58.6 168 66.4 185.5 5.9 13.7 -2 23.5 -17.6 31.3s-95.7 37.1 -107.4 41c-15.6 3.9 -23.4 -2 -31.2 -17.6C68.4 832 25.4 683.6 25.4 683.6 3.9 591.8 0 543 0 457 0 349.6 31.3 257.8 93.8 193.4s148.4 -99.6 250 -99.6 187.5 35.1 250 99.6zM181.6 820.3L128.9 675.8l-43 11.7c17.6 66.4 37.1 119.1 50.8 150.4zm369.2 17.6c13.7 -31.3 33.2 -84 48.8 -150.4l-43 -11.7C541 732.4 519.5 787.1 505.9 820.3z"/></svg>