<svg height="1000" width="796.9" xmlns="http://www.w3.org/2000/svg"><path d="M617.2 693.4l113.3 113.2L617.2 693.4l113.3 113.2 66.4 64.5L750 918 564.5 732.4c-37.2 21.5 -78.2 39.1 -121.1 44.9v160.2h-89.9V777.3C207 757.8 85.9 628.9 85.9 478.5h76.2c0 132.8 113.3 228.5 236.3 228.5 39.1 0 78.2 -9.7 111.4 -27.3l-62.5 -64.5c-15.7 5.9 -31.3 9.8 -48.9 9.8C324.2 625 263.7 564.5 263.7 490.2v-56.6L0 171.9 46.9 125l216.8 214.8 273.4 273.5 9.8 9.7 17.6 17.6zm-84 -203.2c0 7.8 0 15.7 -1.9 23.5L263.7 246.1v-48.8C263.7 123 324.2 62.5 398.4 62.5S533.2 123 533.2 197.3v292.9zm179.7 -11.7c0 60.6 -19.5 117.2 -52.7 164.1l-52.8 -54.7c17.6 -33.2 29.3 -70.3 29.3 -109.4h76.2zm84 392.6l-66.4 -64.5z"/></svg>