<svg height="1000" width="875" xmlns="http://www.w3.org/2000/svg"><path d="M640.6 593.8V500h31.3v93.8h-31.3zm-484.3 0V500h160.1l93.8 93.8H156.3zM648.4 117.2C783.2 191.4 875 335.9 875 500c0 242.2 -195.3 437.5 -437.5 437.5 -46.9 0 -91.8 -7.8 -132.8 -21.5 -3.9 -1.9 -5.9 -1.9 -9.8 -3.9C271.5 904.3 248 894.5 226.6 882.8h-2C89.8 808.6 0 664.1 0 500 0 257.8 195.3 62.5 437.5 62.5c46.9 0 91.8 7.8 132.8 21.5 3.9 1.9 5.9 1.9 9.8 3.9 23.4 7.8 46.9 17.6 68.3 29.3zM437.5 832c72.3 0 140.6 -23.4 195.3 -62.5L168 304.7c-39.1 54.7 -62.5 123 -62.5 195.3 0 127 70.3 236.3 175.8 293 11.7 5.8 25.3 13.6 37.1 17.5 3.9 2 5.8 2 9.7 4 17.6 5.8 37.1 9.7 56.7 13.6 17.5 3.9 35.1 3.9 52.7 3.9zM707 693.4C746.1 638.7 769.5 572.3 769.5 500c0 -128.9 -72.2 -240.2 -177.7 -294.9 -11.7 -5.9 -23.4 -11.7 -35.2 -15.6 -3.9 -2 -5.8 -2 -9.7 -4 -17.6 -5.8 -37.1 -9.7 -56.7 -13.6C472.7 168 455.1 168 437.5 168c-72.3 0 -138.7 23.4 -193.4 62.5zM625 500v66.4L558.6 500H625zm62.5 93.8V500h31.3v93.8h-31.3zM640.6 416c31.3 13.7 31.3 44.9 31.3 58.6v2h-31.3v-2c0 -15.6 -1.9 -25.4 -13.6 -31.2 -7.9 -3.9 -25.4 -7.9 -76.2 -7.9h-5.9c-25.4 0 -46.9 0 -64.4 -25.3 -9.8 -15.7 -9.8 -37.2 -3.9 -56.7 -7.8 -1.9 -15.7 -1.9 -23.5 -5.8C419.9 334 402.3 308.6 402.3 273.4c0 -64.4 52.8 -85.9 76.2 -85.9v31.3c-1.9 0 -44.9 3.9 -44.9 54.6 0 21.5 9.8 37.1 31.2 45 17.6 7.8 35.2 5.8 35.2 5.8 5.9 0 11.7 3.9 13.7 9.8s3.9 11.7 0 15.6c-9.8 13.7 -13.7 35.2 -7.8 43 7.8 11.7 13.6 11.7 39 11.7h5.9c46.9 0 72.2 3.9 89.8 11.7zm78.2 60.6h-31.3c0 -54.7 -7.8 -72.3 -13.7 -82.1C662.1 375 646.5 367.2 625 367.2h-58.6c-5.9 0 -9.8 -3.9 -11.7 -7.8s-2 -11.7 0 -15.6c0 0 15.6 -35.2 11.7 -62.5C564.5 265.6 554.7 248 513.7 248v-31.2c46.8 0 78.1 21.5 84 58.6 3.9 21.5 0 44.9 -5.9 60.5H625c31.3 0 58.6 15.7 76.2 43 11.7 19.5 17.6 46.9 17.6 97.7z"/></svg>