<svg height="1000" width="687.5" xmlns="http://www.w3.org/2000/svg"><path d="M345.7 234.4c13.7 0 46.9 9.7 46.9 9.7 89.8 19.6 152.3 103.6 152.3 195.4v248l17.6 19.5 15.6 15.7H109.4L125 707l17.6 -19.5v-248c0 -91.8 62.5 -175.8 152.3 -195.4 0 0 35.2 -9.7 46.9 -9.7zM343.8 93.8c35.1 0 60.5 25.3 60.5 60.5v29.3c115.2 27.3 203.1 132.8 203.1 255.9v222.6l80.1 82v41.1H0v-41.1l80.1 -82V439.5C80.1 316.4 168 210.9 283.2 183.6v-29.3c0 -35.2 25.4 -60.5 60.6 -60.5zm80 730.4c0 44.9 -35.1 82.1 -80 82.1s-80.1 -37.2 -80.1 -82.1h160.1z"/></svg>