<svg height="1000" width="875" xmlns="http://www.w3.org/2000/svg"><path d="M0 812.5V750h531.3v62.5H0zm718.8 0V750H875v62.5H718.8zM687.5 875c0 35.2 -27.3 62.5 -62.5 62.5S562.5 910.2 562.5 875V687.5c0 -35.2 27.3 -62.5 62.5 -62.5s62.5 27.3 62.5 62.5V875zM0 531.3v-62.5h156.3v62.5H0zm343.8 0v-62.5H875v62.5H343.8zm-31.3 62.5c0 35.1 -27.3 62.5 -62.5 62.5s-62.5 -27.4 -62.5 -62.5V406.3c0 -35.2 27.3 -62.5 62.5 -62.5s62.5 27.3 62.5 62.5v187.5zM0 250v-62.5h531.3V250H0zm718.8 0v-62.5H875V250H718.8zm-31.3 62.5c0 35.2 -27.3 62.5 -62.5 62.5s-62.5 -27.3 -62.5 -62.5V125c0 -35.2 27.3 -62.5 62.5 -62.5s62.5 27.3 62.5 62.5v187.5z"/></svg>