<svg height="1000" width="875" xmlns="http://www.w3.org/2000/svg"><path d="M660.2 62.5c119.1 0 214.8 99.6 214.8 220.7v433.6c0 121.1 -95.7 220.7 -214.8 220.7H214.8C95.7 937.5 0 837.9 0 716.8V283.2C0 162.1 95.7 62.5 214.8 62.5h445.4zM279.3 490.2V291c0 -21.5 -17.6 -41 -39.1 -41h-44.9c-21.5 0 -37.1 17.6 -39 39.1v203.1c0 21.5 17.5 39.1 39 39.1h44.9c21.5 0 39.1 -17.6 39.1 -39.1v-2zm238.3 287.1v-60.5c0 -44.9 -35.2 -82 -80.1 -82s-80.1 37.1 -80.1 82v56.6c0 23.5 17.6 39.1 39.1 39.1h82c21.5 0 39.1 -13.7 39.1 -35.2zM718.8 490.2V291c0 -21.5 -17.6 -41 -39.1 -41h-46.9c-21.5 0 -37.1 17.6 -39 39.1v203.1c0 21.5 17.5 39.1 39 39.1h46.9c21.5 0 39.1 -17.6 39.1 -39.1v-2z"/></svg>