<svg height="1000" width="875" xmlns="http://www.w3.org/2000/svg"><path d="M595.7 453.1c-66.4 0 -119.1 -52.7 -119.1 -117.2S529.3 218.8 595.7 218.8s121.1 52.7 121.1 117.1S662.1 453.1 595.7 453.1zm-316.4 0c-66.4 0 -121.1 -52.7 -121.1 -117.2S212.9 218.8 279.3 218.8s119.1 52.7 119.1 117.1S345.7 453.1 279.3 453.1zm0 86c93.7 0 283.2 44.9 283.2 136.7v105.5H0V675.8C0 584 185.5 539.1 279.3 539.1zm316.4 21.4c93.8 0 279.3 23.5 279.3 115.3v105.5H625V675.8c0 -58.6 -17.6 -80.1 -62.5 -113.3 13.7 -2 21.5 -2 33.2 -2z"/></svg>