<svg height="1000" width="875" xmlns="http://www.w3.org/2000/svg"><path d="M459 265.6l-37.1 -37.1 48.8 -48.8 37.1 37.1zM281.3 246.1c58.5 0 109.3 29.3 136.7 76.2 -13.7 3.9 -25.4 7.8 -37.1 13.6 -39.1 17.6 -72.3 43 -99.6 76.2l-25.4 31.3c-41.1 9.7 -76.2 29.3 -105.5 54.6 -17.6 -25.3 -29.3 -56.6 -29.3 -91.7 0 -87.9 72.3 -160.2 160.2 -160.2zm-27.4 -41V125h54.7v80.1h-54.7zM0 433.6v-54.7h80.1v54.7H0zM97.7 541l35.1 35.2L84 625 46.9 587.9l48.8 -48.8zm-43 -324.2l37.1 -37.1 48.8 48.8 -37.1 37.1zm675.8 347.7c82 5.8 144.5 72.2 144.5 154.3C875 804.7 804.7 875 718.8 875H312.5C209 875 125 791 125 687.5c0 -91.8 62.5 -166 152.3 -183.6 9.8 -1.9 25.4 -3.9 35.2 -3.9 84 0 152.3 52.7 177.7 125h54.7C533.2 584 513.7 548.8 482.4 517.6c-41 -41 -93.7 -62.5 -150.4 -66.4C373 398.4 433.6 375 500 375c113.3 0 209 82 230.5 189.5z"/></svg>