<svg height="1000" width="875" xmlns="http://www.w3.org/2000/svg"><path d="M203.1 294.9c29.3 -35.1 62.5 -60.5 103.5 -80.1 62.5 -29.3 134.8 -37.1 207.1 -19.5 162.1 41 263.6 201.2 232.4 363.3 -2 5.9 -2 13.7 -3.9 19.5 -9.8 39.1 -21.5 72.3 -44.9 103.5 -3.9 5.9 -11.8 11.8 -15.7 17.6 -11.7 -5.8 -21.4 -11.7 -33.2 -17.6C580.1 642.6 505.9 591.8 431.6 535.2 337.9 462.9 250 382.8 187.5 312.5c3.9 -5.9 11.7 -11.7 15.6 -17.6zm550.8 343.8c91.8 95.7 136.7 160.1 115.2 195.3 -11.7 19.5 -44.9 21.5 -91.8 9.8C728.5 832 664.1 810.5 589.8 775.4c-66.4 37.1 -148.4 48.8 -228.5 29.3C193.4 761.7 89.8 591.8 132.8 423.8 33.2 306.6 -17.6 205.1 5.9 166c11.7 -19.5 46.8 -23.4 91.8 -5.8 41 15.6 83.9 39 128.9 68.3C207 242.2 199.2 250 199.2 250c-44.9 -27.3 -84 -37.1 -113.3 -44.9 -3.9 0 -17.5 -3.9 -13.6 7.8 3.9 7.8 5.8 13.7 9.7 21.5 15.7 27.3 41 58.6 70.3 93.7 64.5 74.2 154.3 156.3 254 234.4 74.2 58.6 152.3 109.4 222.6 148.4C693.4 748 752 775.4 793 785.2c3.9 1.9 7.8 1.9 11.7 1.9 11.7 2 1.9 -15.6 -2 -23.4 -13.6 -23.5 -27.3 -50.8 -62.5 -91.8 0 0 5.9 -11.7 13.7 -33.2z"/></svg>