<svg height="1000" width="875" xmlns="http://www.w3.org/2000/svg"><path d="M843.8 125c17.5 0 31.2 13.7 31.2 31.3v558.5C875 802.7 802.7 875 714.8 875H168C76.2 875 0 800.8 0 707V300.8c0 -44.9 37.1 -82 82 -82h199.3v-62.5c0 -17.6 13.6 -31.3 31.2 -31.3h531.3zM281.3 281.3h-87.9c3.9 11.7 5.8 23.4 5.8 37.1v337.9h82.1v-375zm-33.3 498c17.6 -17.6 29.3 -37.1 33.3 -60.5H168c-17.6 0 -31.3 -13.7 -31.3 -31.3V318.4c0 -21.5 -15.6 -37.1 -37.1 -37.1s-37.1 15.6 -37.1 37.1V707c0 27.4 11.7 54.7 31.3 74.3s46.8 31.2 74.2 31.2c29.3 0 58.6 -11.7 80 -33.2zm564.5 -64.5V189.5H343.8V707c0 41 -15.7 76.2 -41.1 105.5h412.1c25.4 0 48.9 -9.8 68.4 -29.3s29.3 -43 29.3 -68.4zM421.9 375V265.6h312.5V375H421.9zm0 125v-62.5h312.5V500H421.9zm0 125v-62.5h312.5V625H421.9zm312.5 62.5c0 21.5 0 62.5 -37.1 62.5h-291c15.6 0 15.6 -62.5 15.6 -62.5h312.5z"/></svg>