<svg height="1000" width="812.5" xmlns="http://www.w3.org/2000/svg"><path d="M804.7 371.1c13.7 35.2 9.8 82 -5.9 123C777.3 548.8 732.4 584 689.5 584c-11.8 0 -21.5 -2 -31.3 -5.9C611.3 556.6 595.7 484.4 623 412.1c21.5 -58.6 64.5 -97.6 107.5 -97.6 9.7 0 17.5 1.9 27.3 5.8 19.5 9.8 37.1 25.4 46.9 50.8zm-615.2 41c27.3 72.3 11.7 144.5 -35.2 166C144.5 582 132.8 584 123 584 80.1 584 35.2 548.8 13.7 494.1c-17.6 -41 -17.6 -87.8 -3.9 -123 9.7 -25.4 25.4 -41 44.9 -50.8 9.8 -3.9 17.6 -5.8 27.3 -5.8 43 0 86 39 107.5 97.6zm95.7 -7.8C226.6 402.3 173.8 335.9 166 257.8c-5.8 -46.9 7.8 -95.7 33.2 -126.9 17.6 -21.5 39.1 -35.2 64.5 -37.1h13.6c56.7 1.9 97.7 62.5 105.5 142.5 5.9 50.8 -1.9 101.6 -27.3 132.8 -15.7 19.6 -35.2 33.2 -58.6 35.2h-11.7zm121.1 62.5c134.7 0 271.4 160.2 271.4 314.5 0 46.8 -23.4 83.9 -46.8 99.6C603.5 900.4 584 906.3 543 906.3c-48.9 0 -62.5 -15.7 -86 -31.3 -15.6 -11.7 -31.2 -21.5 -50.7 -21.5s-35.2 9.8 -50.8 21.5c-23.5 15.6 -37.1 31.3 -86 31.3 -41 0 -60.5 -5.9 -87.9 -25.4 -23.4 -15.7 -46.8 -52.8 -46.8 -99.6C134.8 627 271.5 466.8 406.3 466.8zm111.3 -64.5C494.1 400.4 472.7 388.7 457 369.1c-25.4 -31.2 -33.2 -82 -27.3 -132.8 7.8 -80 50.8 -140.6 107.4 -142.5h11.7c25.4 1.9 46.9 15.6 64.5 37.1 25.4 31.2 39 80 33.2 126.9 -7.8 78.1 -58.6 144.5 -117.2 146.5 -3.9 0 -7.8 -2 -11.7 -2z"/></svg>