<svg height="1000" width="750" xmlns="http://www.w3.org/2000/svg"><path d="M669.9 253.9c21.5 7.8 25.4 25.4 19.6 39.1L375 937.5S70.3 312.5 60.5 293s4 -33.2 19.6 -39.1c84 -35.1 189.4 -54.7 294.9 -54.7s205.1 17.6 294.9 54.7zM238.3 398.4c37.1 0 62.5 -27.3 62.5 -62.5s-25.4 -62.5 -62.5 -62.5 -62.5 27.4 -62.5 62.5 25.4 62.5 62.5 62.5zM375 677.7c37.1 0 62.5 -27.3 62.5 -62.5S412.1 552.7 375 552.7s-62.5 27.4 -62.5 62.5 25.4 62.5 62.5 62.5zM511.7 437.5c37.1 0 62.5 -27.3 62.5 -62.5s-25.4 -62.5 -62.5 -62.5 -62.5 27.3 -62.5 62.5 25.4 62.5 62.5 62.5zM728.5 128.9c11.7 3.9 21.5 11.7 21.5 25.4l-19.5 46.9c-5.9 9.7 -15.7 17.6 -29.3 17.6 -3.9 0 -5.9 -2 -13.7 -4C599.6 179.7 486.3 156.3 375 156.3S158.2 177.7 62.5 214.8c-5.9 2 -9.8 4 -13.7 4 -11.7 0 -23.4 -7.9 -29.3 -17.6L0 154.3C0 138.7 11.7 130.9 21.5 127 125 85.9 250 62.5 375 62.5s252 25.4 353.5 66.4z"/></svg>