<svg height="1000" width="875" xmlns="http://www.w3.org/2000/svg"><path d="M773.4 525.4c56.7 0 101.6 43 101.6 99.6 0 27.3 -9.8 52.7 -29.3 72.3s-44.9 31.2 -72.3 31.2c-39 0 -78.1 -23.4 -93.7 -60.5H570.3c-17.6 0 -31.2 -11.7 -37.1 -27.4L502 562.5l-78.2 316.4c-3.9 15.6 -19.5 27.4 -37.1 27.4h-1.9c-19.6 -2 -33.2 -13.7 -37.1 -31.3L242.2 324.2l-60.6 314.5c-3.9 17.6 -19.5 29.3 -37.1 29.3H0v-78.2h113.3L212.9 125c3.9 -19.5 17.6 -31.2 37.1 -31.2s35.2 15.6 39.1 35.1l107.4 570.3 66.4 -265.6c3.9 -15.6 19.5 -27.3 37.1 -27.3s31.3 9.7 37.1 25.3l60.6 158.2h82c15.6 -39 50.8 -64.4 93.7 -64.4z"/></svg>