<svg height="1000" width="875" xmlns="http://www.w3.org/2000/svg"><path d="M796.9 187.5c42.9 0 78.1 35.2 78.1 78.1v531.3c0 42.9 -35.2 78.1 -78.1 78.1H78.1C35.2 875 0 839.8 0 796.9V265.6c0 -42.9 35.2 -78.1 78.1 -78.1H250L312.5 125h250l62.5 62.5h171.9zm-140.6 334V328.1l-64.5 64.5C552.7 353.5 498 328.1 437.5 328.1c-121.1 0 -218.7 97.7 -218.7 218.8s97.6 218.7 218.7 218.7c101.6 0 185.5 -66.4 210.9 -158.2h-58.6c-23.4 62.5 -82 103.5 -152.3 103.5 -89.8 0 -164.1 -74.2 -164.1 -164S347.7 382.8 437.5 382.8c44.9 0 85.9 21.5 115.2 50.8l-87.9 87.9h191.5z"/></svg>