<svg height="1000" width="750" xmlns="http://www.w3.org/2000/svg"><path d="M375 62.5c138.7 0 250 111.3 250 250s-111.3 250 -250 250S125 451.2 125 312.5s111.3 -250 250 -250zm0 406.3c85.9 0 156.3 -70.4 156.3 -156.3S460.9 156.3 375 156.3 218.8 226.6 218.8 312.5 289.1 468.8 375 468.8zM253.9 599.6C293 615.2 332 625 375 625c17.6 0 35.2 -2 50.8 -3.9L375 730.5l-93.7 207L187.5 781.3H0L146.5 525.4c1.9 3.9 5.8 5.9 7.8 7.8 29.3 29.3 62.5 50.8 99.6 66.4zm349.6 -74.2L750 781.3H562.5l-93.7 156.2L406.3 800.8l42.9 -95.7 46.9 -105.5c37.1 -15.6 70.3 -37.1 99.6 -66.4z"/></svg>