<svg height="1000" width="875" xmlns="http://www.w3.org/2000/svg"><path d="M209 781.3s44.9 50.7 44.9 80c0 25.4 -19.5 45 -44.9 45s-44.9 -19.6 -44.9 -45c0 -29.3 44.9 -80 44.9 -80zm152.3 -62.5s45 50.7 45 80c0 25.4 -19.6 45 -45 45s-44.9 -19.6 -44.9 -45c0 -29.3 44.9 -80 44.9 -80zm152.4 62.5s44.9 50.7 44.9 80c0 25.4 -19.5 45 -44.9 45s-44.9 -19.6 -44.9 -45c0 -29.3 44.9 -80 44.9 -80zM666 718.8s44.9 50.7 44.9 80c0 25.4 -19.5 45 -44.9 45s-44.9 -19.6 -44.9 -45c0 -29.3 44.9 -80 44.9 -80zm39.1 -404.3c93.7 5.8 169.9 85.9 169.9 181.6 0 101.6 -85.9 191.4 -187.5 191.4H212.9C91.8 687.5 0 582 0 460.9 0 353.5 74.2 265.6 177.7 244.1c11.8 -1.9 29.3 -3.9 41.1 -3.9 97.6 0 177.7 60.6 207 146.5h64.4C478.5 339.8 453.1 294.9 418 259.8 369.1 210.9 306.6 187.5 240.2 181.6 289.1 121.1 359.4 93.8 437.5 93.8c132.8 0 242.2 93.7 267.6 220.7z"/></svg>