<svg height="1000" width="812.5" xmlns="http://www.w3.org/2000/svg"><path d="M416 419.9C353.5 339.8 296.9 271.5 230.5 238.3c-27.4 -13.7 -46.9 -21.5 -58.6 -27.4C339.8 162.1 406.3 62.5 406.3 62.5s68.3 101.6 232.4 152.3c-3.9 2 -29.3 5.9 -44.9 15.7C509.8 279.3 462.9 339.8 416 419.9zm-29.3 74.2C503.9 673.8 599.6 748 669.9 802.7 617.2 882.8 519.5 937.5 406.3 937.5 238.3 937.5 101.6 816.4 101.6 668 101.6 587.9 105.5 402.3 0 248c162.1 0 269.5 66.5 386.7 246.1zM812.5 248C677.7 445.3 710.9 587.9 710.9 668c0 25.4 -3.9 48.8 -11.7 72.2C683.6 728.5 668 712.9 646.5 693.4 603.5 650.4 535.2 580.1 459 478.5c41 -82 103.5 -150.4 187.5 -201.2 58.6 -35.1 166 -29.3 166 -29.3z"/></svg>