<svg height="1000" width="820.3" xmlns="http://www.w3.org/2000/svg"><path d="M632.8 312.5c103.5 0 187.5 84 187.5 187.5s-84 187.5 -187.5 187.5H187.5C84 687.5 0 603.5 0 500S84 312.5 187.5 312.5 377 396.5 377 500c0 46.9 -15.7 85.9 -43 119.1h154.3c-27.4 -33.2 -43 -72.2 -43 -119.1 0 -103.5 84 -187.5 187.5 -187.5zM187.5 619.1c66.4 0 119.1 -52.7 119.1 -119.1S253.9 380.9 187.5 380.9 68.4 433.6 68.4 500s52.7 119.1 119.1 119.1zm445.3 0C699.2 619.1 752 566.4 752 500S699.2 380.9 632.8 380.9 513.7 433.6 513.7 500s52.7 119.1 119.1 119.1z"/></svg>