<svg height="1000" width="687.5" xmlns="http://www.w3.org/2000/svg"><path d="M343.8 93.8c183.5 0 343.7 19.5 343.7 166v417.9c0 82.1 -64.5 144.6 -146.5 144.6l52.8 52.7v31.3h-500V875l52.7 -52.7C64.5 822.3 0 759.8 0 677.7V259.8C0 113.3 160.2 93.8 343.8 93.8zM156.3 750c35.1 0 62.5 -27.3 62.5 -62.5S191.4 625 156.3 625s-62.5 27.3 -62.5 62.5 27.3 62.5 62.5 62.5zM312.5 468.8V281.3H93.8v187.5h218.7zM531.3 750c35.1 0 62.5 -27.3 62.5 -62.5S566.4 625 531.3 625s-62.5 27.3 -62.5 62.5 27.3 62.5 62.5 62.5zm62.5 -281.2V281.3H375v187.5h218.8z"/></svg>