<svg height="1000" width="804.7" xmlns="http://www.w3.org/2000/svg"><path d="M802.7 582l-111.3 31.3 113.3 64.4 -46.9 82.1L646.5 695.3l31.2 111.3 -60.5 15.7L570.3 650.4 449.2 580.1v138.7l125 125 -42.9 44.9 -82.1 -82.1v130.9h-93.7V808.6l-82.1 82 -42.9 -42.9 125 -127V582l-119.2 68.4 -44.9 171.9 -60.5 -15.7 29.3 -111.3L46.9 759.8 0 679.7l111.3 -64.5L0 585.9l15.6 -60.5 171.9 44.9 123 -70.3 -123 -70.3L15.6 476.6 0 416l111.3 -29.3L0 322.3l46.9 -82.1 113.3 66.4L130.9 195.3l60.5 -17.6 44.9 171.9L355.5 418V279.3l-125 -127 42.9 -42.9 82.1 82V62.5h93.7v130.9l82.1 -82.1 42.9 45 -125 125v138.6l121.1 -70.3 46.9 -171.9 60.5 17.6 -31.2 111.3 111.3 -64.4 46.9 82 -113.3 64.5L802.7 418l-15.6 60.5L615.2 431.6 498 500l117.2 68.4 171.9 -45z"/></svg>