<svg height="1000" width="812.5" xmlns="http://www.w3.org/2000/svg"><path d="M156.3 906.3v-93.8h500v93.8h-500zm250 -343.8c-35.2 0 -62.5 -27.3 -62.5 -62.5 0 -5.9 0 -11.7 1.9 -17.6L250 351.6l7.8 -7.8 130.9 95.7c5.8 -2 11.7 -2 17.6 -2 35.1 0 62.5 27.3 62.5 62.5s-27.4 62.5 -62.5 62.5zm0 -468.7c224.6 0 406.2 181.6 406.2 406.2 0 93.8 -31.2 181.6 -85.9 250H611.3l-7.8 -7.8 -43 -43 45 -44.9 42.9 43c39.1 -46.9 62.5 -105.5 68.4 -166h-60.5v-62.5h60.5C710.9 408.2 687.5 349.6 648.4 302.7l-42.9 43 -45 -44.9 43 -43c-46.9 -39 -105.5 -62.5 -166 -68.3V250H375v-60.5c-60.5 5.8 -119.1 29.3 -166 68.3l43 43 -45 44.9 -42.9 -43C125 349.6 101.6 408.2 95.7 468.8h60.6v62.5H95.7c5.9 60.5 29.3 119.1 68.4 166l42.9 -43 45 44.9 -43 43 -7.8 7.8H85.9C31.3 681.6 0 593.8 0 500 0 275.4 181.6 93.8 406.3 93.8z"/></svg>