<svg height="1000" width="562.5" xmlns="http://www.w3.org/2000/svg"><path d="M109.4 421.9C48.8 421.9 0 373 0 312.5S48.8 203.1 109.4 203.1h185.5c27.4 -29.3 68.4 -46.8 111.4 -46.8 85.9 0 156.2 70.3 156.2 156.2S492.2 468.8 406.3 468.8c-43 0 -84 -17.6 -111.4 -46.9H109.4zM76.2 279.3c-9.8 7.8 -13.7 21.5 -13.7 33.2s3.9 23.4 13.7 33.2c7.8 9.8 21.5 13.7 33.2 13.7h148.4C253.9 343.8 250 328.1 250 312.5s3.9 -31.2 7.8 -46.9H109.4c-11.7 0 -23.5 3.9 -33.2 13.7zm376.9 298.8c60.6 0 109.4 48.9 109.4 109.4S513.7 796.9 453.1 796.9H267.6c-27.4 29.3 -68.4 46.9 -111.3 46.9C70.3 843.8 0 773.4 0 687.5S70.3 531.3 156.3 531.3c42.9 0 83.9 17.5 111.3 46.8h185.5zm33.2 142.6c9.8 -7.8 13.7 -21.5 13.7 -33.2s-3.9 -23.4 -13.7 -33.2c-7.8 -9.8 -21.5 -13.7 -33.2 -13.7H304.7c3.9 15.7 7.8 31.3 7.8 46.9s-3.9 31.3 -7.8 46.9h148.4c11.7 0 23.5 -3.9 33.2 -13.7z"/></svg>