<svg height="1000" width="750" xmlns="http://www.w3.org/2000/svg"><path d="M625 671.9c66.4 0 121.1 54.7 121.1 121.1S691.4 914.1 625 914.1 503.9 859.4 503.9 793c0 -9.8 2 -19.6 3.9 -27.4L210.9 593.8C187.5 615.2 158.2 627 125 627 56.6 627 0 570.3 0 502S54.7 377 123 377c33.3 0 62.5 11.7 86 33.2l294.9 -170C502 230.5 500 220.7 500 210.9c0 -68.3 56.6 -125 125 -125s125 56.7 125 125 -56.6 125 -125 125c-33.2 0 -62.5 -11.7 -85.9 -33.2l-295 170c2 9.7 3.9 19.5 3.9 29.3s-1.9 19.5 -3.9 29.3L543 703.1c21.5 -21.5 50.8 -31.2 82 -31.2z"/></svg>