<svg height="1000" width="812.5" xmlns="http://www.w3.org/2000/svg"><path d="M406.3 562.5c87.8 0 162.1 50.8 199.2 125H207c37.1 -74.2 111.4 -125 199.3 -125zm0 -468.7c222.6 0 406.2 183.5 406.2 406.2S630.9 906.3 406.3 906.3 0 722.7 0 500 181.6 93.8 406.3 93.8zm0 730.4c179.6 0 324.2 -144.5 324.2 -324.2S585.9 175.8 406.3 175.8 82 320.3 82 500s144.6 324.2 324.3 324.2zM548.8 459c-35.1 0 -60.5 -25.4 -60.5 -60.6s25.4 -60.5 60.5 -60.5 60.6 25.4 60.6 60.5S584 459 548.8 459zm-285.1 0c-35.2 0 -60.6 -25.4 -60.6 -60.6s25.4 -60.5 60.6 -60.5 60.5 25.4 60.5 60.5S298.8 459 263.7 459z"/></svg>