<svg height="1000" width="812.5" xmlns="http://www.w3.org/2000/svg"><path d="M714.8 541l91.8 66.4c5.9 5.9 7.9 19.6 3.9 27.4l-83.9 138.6c-3.9 7.9 -13.7 13.7 -23.5 9.8l-105.4 -41c-23.5 15.6 -45 31.2 -70.4 41l-15.6 107.4c-1.9 7.8 -11.7 15.7 -21.5 15.7h-166c-9.7 0 -19.5 -5.9 -21.5 -15.7L287.1 783.2c-25.4 -9.8 -48.8 -25.4 -70.3 -41l-105.5 41c-7.8 3.9 -19.5 -1.9 -23.4 -9.8L3.9 634.8C-2 625 0 613.3 7.8 607.4L95.7 541c0 -13.7 -1.9 -27.3 -1.9 -41s1.9 -27.3 1.9 -41L5.9 392.6C0 386.7 -2 373 2 365.2L85.9 226.6c3.9 -7.8 13.7 -13.7 23.5 -9.8l105.4 41c23.5 -15.6 45 -31.2 70.4 -41l15.6 -107.4c1.9 -7.8 11.7 -15.6 21.5 -15.6h166c9.7 0 19.5 7.8 21.5 15.6l13.6 107.4c25.4 9.8 48.9 25.4 70.4 41l103.5 -41c7.8 -3.9 21.5 2 25.4 9.8l83.9 138.6c5.9 9.8 3.9 21.5 -3.9 27.4L714.8 459c0 13.7 2 27.3 2 41s0 29.3 -2 41zM404.3 642.6c80.1 0 146.5 -62.5 146.5 -142.6S484.4 357.4 404.3 357.4 259.8 419.9 259.8 500s64.4 142.6 144.5 142.6z"/></svg>