<svg height="1000" width="812.5" xmlns="http://www.w3.org/2000/svg"><path d="M656.3 179.7c-82.1 87.9 -125 201.2 -125 320.3s44.9 232.4 126.9 318.4C587.9 873 500 906.3 406.3 906.3S224.6 873 156.3 818.4c82 -86 125 -199.3 125 -318.4s-43 -232.4 -125 -320.3C224.6 125 312.5 93.8 406.3 93.8s181.6 31.2 250 85.9zM595.7 498c0 -52.7 9.8 -103.5 29.3 -152.3 17.6 -44.9 44.9 -85.9 78.1 -121.1 68.4 72.3 109.4 169.9 109.4 275.4s-41 201.2 -107.4 273.4C669.9 736.3 644.5 697.3 625 650.4 605.5 601.6 595.7 550.8 595.7 498zm-378.9 0c0 52.8 -9.8 103.6 -29.3 152.4 -19.5 46.9 -44.9 87.9 -80.1 125C41 703.1 0 605.5 0 500 0 392.6 41 294.9 109.4 222.7c33.2 35.1 60.5 78.1 78.1 123 19.5 48.8 29.3 99.6 29.3 152.3z"/></svg>