<svg height="1000" width="812.5" xmlns="http://www.w3.org/2000/svg"><path d="M361.3 726.6c0 -25.4 19.6 -46.9 45 -46.9s44.9 21.5 44.9 46.9 -19.6 44.9 -44.9 44.9 -45 -19.5 -45 -44.9zm0 -632.8h45c224.6 0 406.2 181.6 406.2 406.2S630.9 906.3 406.3 906.3 0 724.6 0 500C0 367.2 62.5 250 162.1 175.8v-2l308.6 306.7 -64.4 64.4L162.1 300.8C117.2 355.5 89.8 423.8 89.8 500c0 173.8 140.7 316.4 316.5 316.4S722.7 673.8 722.7 500C722.7 339.8 603.5 209 451.2 187.5v85.9h-89.9V93.8zM677.7 500c0 25.4 -19.5 44.9 -44.9 44.9S585.9 525.4 585.9 500s21.5 -44.9 46.9 -44.9 44.9 19.5 44.9 44.9zm-542.9 0c0 -25.4 19.5 -44.9 44.9 -44.9s46.9 19.5 46.9 44.9 -21.5 44.9 -46.9 44.9S134.8 525.4 134.8 500z"/></svg>