<svg height="1000" width="875" xmlns="http://www.w3.org/2000/svg"><path d="M625 62.5h250v250h-68.4V177.7L634.8 349.6c13.6 29.3 21.5 60.6 21.5 95.7 0 107.4 -78.2 195.3 -177.8 214.9V750h123.1v78.1H478.5v109.4h-82V828.1H273.4V750h123.1v-89.8C294.9 640.6 218.8 552.7 218.8 445.3c0 -35.1 7.8 -66.4 21.4 -95.7l-37.1 -37.1L142.6 373 85.9 316.4l60.6 -60.5L68.4 177.7v134.8H0v-250h250v68.4H127l72.2 72.2 62.5 -62.5 54.7 56.7 -60.5 60.5 29.3 29.3c39 -37.1 93.7 -60.5 152.3 -60.5 46.9 0 89.8 13.6 125 39 0 0 11.7 9.8 27.3 23.5L748 130.9H625V62.5zM437.5 566.4c68.4 0 125 -56.6 125 -125s-56.6 -125 -125 -125 -125 56.6 -125 125 56.6 125 125 125z"/></svg>