<svg height="1000" width="875" xmlns="http://www.w3.org/2000/svg"><path d="M705.1 314.5c93.7 5.8 169.9 85.9 169.9 181.6 0 101.6 -80.1 160.2 -181.6 160.2H509.8l35.1 -70.4h-64.4l64.4 -130.8H351.6v201.2H218.8C97.7 656.3 0 582 0 460.9 0 353.5 74.2 265.6 177.7 244.1c11.8 -1.9 29.3 -3.9 41.1 -3.9 97.6 0 177.7 60.6 207 146.5h64.4C478.5 339.8 453.1 294.9 418 259.8 369.1 210.9 306.6 187.5 240.2 181.6 289.1 121.1 359.4 93.8 437.5 93.8c132.8 0 242.2 93.7 267.6 220.7zM351.6 718.8v-62.5h158.2l-115.3 250V718.8h-42.9z"/></svg>