<svg height="1000" width="812.5" xmlns="http://www.w3.org/2000/svg"><path d="M707 476.6c-33.2 0 -62.5 21.4 -72.2 50.7h-39.1C584 500 554.7 476.6 521.5 476.6c-35.2 0 -78.1 11.7 -82 62.5v232.4c0 29.3 -2 72.3 -27.4 97.6 -19.5 19.6 -44.9 37.2 -84 37.2 -70.3 0 -117.2 -50.8 -117.2 -119.2v-41h84v41c0 27.4 19.6 31.3 33.2 31.3 27.4 0 25.4 -29.3 25.4 -46.9V541c-1.9 -35.1 -31.2 -64.4 -66.4 -64.4 -31.2 0 -56.6 21.4 -64.4 50.7h-39.1C173.8 498 146.5 476.6 113.3 476.6 87.9 476.6 56.6 498 43 527.3H0v-7.8C0 312.5 150.4 142.6 353.5 123c5.9 -17.5 21.5 -29.2 41 -29.2s37.1 11.7 43 29.2c97.7 9.8 189.5 56.7 259.8 129 74.2 76.1 115.2 177.7 115.2 275.3h-39.1C759.8 498 730.5 476.6 707 476.6z"/></svg>