<svg height="1000" width="750" xmlns="http://www.w3.org/2000/svg"><path d="M668 500C668 365.2 580.1 250 459 212.9V125c166 39.1 291 193.4 291 375 0 68.4 -15.6 132.8 -46.9 187.5L640.6 625C658.2 587.9 668 544.9 668 500zM375 156.3v203.1l-99.6 -99.6zm322.3 619.1l46.8 46.9 -46.8 46.8L619.1 791c-44.9 41 -99.6 70.3 -160.1 84v-87.9c37.1 -11.7 72.3 -29.3 101.5 -54.7L375 546.9v296.9L166 625H0V375h166l17.6 -19.5L5.9 177.7l46.8 -46.8zM562.5 500c0 13.7 0 29.3 -3.9 43L459 443.4V326.2c62.5 31.2 103.5 99.6 103.5 173.8z"/></svg>