<svg height="1000" width="812.5" xmlns="http://www.w3.org/2000/svg"><path d="M406.3 447.3c44.9 0 82 35.1 82 80s-37.1 80.1 -82 80.1 -82.1 -35.1 -82.1 -80.1 37.1 -80 82.1 -80zm244.1 80c0 87.9 -50.8 166.1 -123.1 209l-39 -70.3c48.8 -27.3 80.1 -78.1 80.1 -138.7 0 -87.8 -72.3 -160.1 -162.1 -160.1S244.1 439.5 244.1 527.3c0 60.6 31.3 111.4 80.1 138.7l-39 70.3C212.9 693.4 162.1 615.2 162.1 527.3c0 -132.8 109.4 -242.1 244.2 -242.1s244.1 109.3 244.1 242.1zM406.3 125c222.6 0 406.2 181.6 406.2 402.3 0 148.5 -82 277.4 -203.1 347.7l-41 -70.3C666 750 730.5 646.5 730.5 527.3 730.5 349.6 585.9 205.1 406.3 205.1S82 349.6 82 527.3c0 119.2 64.5 220.7 162.1 277.4l-41 70.3C82 804.7 0 675.8 0 527.3 0 306.6 183.6 125 406.3 125z"/></svg>